<?xml version="1.0" encoding="utf-8" standalone="no"?>
<!DOCTYPE svg PUBLIC "-//W3C//DTD SVG 1.1//EN"
  "http://www.w3.org/Graphics/SVG/1.1/DTD/svg11.dtd">
<svg xmlns:xlink="http://www.w3.org/1999/xlink" width="170.07874pt" height="106.299213pt" viewBox="0 0 170.07874 106.299213" xmlns="http://www.w3.org/2000/svg" version="1.1">
 <metadata>
  <rdf:RDF xmlns:dc="http://purl.org/dc/elements/1.1/" xmlns:cc="http://creativecommons.org/ns#" xmlns:rdf="http://www.w3.org/1999/02/22-rdf-syntax-ns#">
   <cc:Work>
    <dc:type rdf:resource="http://purl.org/dc/dcmitype/StillImage"/>
    <dc:date>2024-02-14T23:42:24.765000</dc:date>
    <dc:format>image/svg+xml</dc:format>
    <dc:creator>
     <cc:Agent>
      <dc:title>Matplotlib v3.5.2, https://matplotlib.org/</dc:title>
     </cc:Agent>
    </dc:creator>
   </cc:Work>
  </rdf:RDF>
 </metadata>
 <defs>
  <style type="text/css">*{stroke-linejoin: round; stroke-linecap: butt}</style>
 </defs>
 <g id="figure_1">
  <g id="patch_1">
   <path d="M 0 106.299213 
L 170.07874 106.299213 
L 170.07874 0 
L 0 0 
z
" style="fill: #ffffff"/>
  </g>
  <g id="axes_1">
   <g id="patch_2">
    <path d="M 0 106.299213 
L 170.07874 106.299213 
L 170.07874 0 
L 0 0 
z
" style="fill: #ffffff"/>
   </g>
   <g id="line2d_1">
    <path d="M 0 63.779528 
L 170.07874 63.779528 
" clip-path="url(#p812c05438d)" style="fill: none; stroke-dasharray: 5.55,2.4; stroke-dashoffset: 0; stroke: #bdae9e; stroke-width: 1.5"/>
   </g>
   <g id="line2d_2">
    <path d="M 0 40.251969 
L 170.07874 40.251969 
" clip-path="url(#p812c05438d)" style="fill: none; stroke-dasharray: 5.55,2.4; stroke-dashoffset: 0; stroke: #c6a89f; stroke-width: 1.5"/>
   </g>
   <g id="patch_3">
    <path d="M 9.43937 98.985827 
C 10.657216 98.985827 11.825346 98.501971 12.686494 97.640824 
C 13.547641 96.779677 14.031496 95.611547 14.031496 94.393701 
C 14.031496 93.175855 13.547641 92.007725 12.686494 91.146577 
C 11.825346 90.28543 10.657216 89.801575 9.43937 89.801575 
C 8.221524 89.801575 7.053394 90.28543 6.192247 91.146577 
C 5.331099 92.007725 4.847244 93.175855 4.847244 94.393701 
C 4.847244 95.611547 5.331099 96.779677 6.192247 97.640824 
C 7.053394 98.501971 8.221524 98.985827 9.43937 98.985827 
L 9.43937 98.985827 
z
" clip-path="url(#p812c05438d)" style="fill: none; stroke: #bbbbbb; stroke-linejoin: miter"/>
   </g>
   <g id="patch_4">
    <path d="M 9.43937 95.159055 
C 9.642344 95.159055 9.837033 95.078413 9.980557 94.934888 
C 10.124082 94.791363 10.204724 94.596675 10.204724 94.393701 
C 10.204724 94.190726 10.124082 93.996038 9.980557 93.852514 
C 9.837033 93.708989 9.642344 93.628346 9.43937 93.628346 
C 9.236396 93.628346 9.041707 93.708989 8.898183 93.852514 
C 8.754658 93.996038 8.674016 94.190726 8.674016 94.393701 
C 8.674016 94.596675 8.754658 94.791363 8.898183 94.934888 
C 9.041707 95.078413 9.236396 95.159055 9.43937 95.159055 
z
" clip-path="url(#p812c05438d)" style="fill: #bbbbbb; stroke: #bbbbbb; stroke-linejoin: miter"/>
   </g>
   <g id="patch_5">
    <path d="M 9.43937 77.725984 
C 10.657216 77.725984 11.825346 77.242129 12.686494 76.380982 
C 13.547641 75.519834 14.031496 74.351704 14.031496 73.133858 
C 14.031496 71.916012 13.547641 70.747882 12.686494 69.886735 
C 11.825346 69.025588 10.657216 68.541732 9.43937 68.541732 
C 8.221524 68.541732 7.053394 69.025588 6.192247 69.886735 
C 5.331099 70.747882 4.847244 71.916012 4.847244 73.133858 
C 4.847244 74.351704 5.331099 75.519834 6.192247 76.380982 
C 7.053394 77.242129 8.221524 77.725984 9.43937 77.725984 
L 9.43937 77.725984 
z
" clip-path="url(#p812c05438d)" style="fill: none; stroke: #bbbbbb; stroke-linejoin: miter"/>
   </g>
   <g id="patch_6">
    <path d="M 9.43937 73.899213 
C 9.642344 73.899213 9.837033 73.81857 9.980557 73.675046 
C 10.124082 73.531521 10.204724 73.336833 10.204724 73.133858 
C 10.204724 72.930884 10.124082 72.736196 9.980557 72.592671 
C 9.837033 72.449146 9.642344 72.368504 9.43937 72.368504 
C 9.236396 72.368504 9.041707 72.449146 8.898183 72.592671 
C 8.754658 72.736196 8.674016 72.930884 8.674016 73.133858 
C 8.674016 73.336833 8.754658 73.531521 8.898183 73.675046 
C 9.041707 73.81857 9.236396 73.899213 9.43937 73.899213 
z
" clip-path="url(#p812c05438d)" style="fill: #bbbbbb; stroke: #bbbbbb; stroke-linejoin: miter"/>
   </g>
   <g id="patch_7">
    <path d="M 9.43937 56.466142 
C 10.657216 56.466142 11.825346 55.982286 12.686494 55.121139 
C 13.547641 54.259992 14.031496 53.091862 14.031496 51.874016 
C 14.031496 50.65617 13.547641 49.48804 12.686494 48.626892 
C 11.825346 47.765745 10.657216 47.28189 9.43937 47.28189 
C 8.221524 47.28189 7.053394 47.765745 6.192247 48.626892 
C 5.331099 49.48804 4.847244 50.65617 4.847244 51.874016 
C 4.847244 53.091862 5.331099 54.259992 6.192247 55.121139 
C 7.053394 55.982286 8.221524 56.466142 9.43937 56.466142 
L 9.43937 56.466142 
z
" clip-path="url(#p812c05438d)" style="fill: none; stroke: #bbbbbb; stroke-linejoin: miter"/>
   </g>
   <g id="patch_8">
    <path d="M 9.43937 52.63937 
C 9.642344 52.63937 9.837033 52.558728 9.980557 52.415203 
C 10.124082 52.271678 10.204724 52.07699 10.204724 51.874016 
C 10.204724 51.671041 10.124082 51.476353 9.980557 51.332829 
C 9.837033 51.189304 9.642344 51.108661 9.43937 51.108661 
C 9.236396 51.108661 9.041707 51.189304 8.898183 51.332829 
C 8.754658 51.476353 8.674016 51.671041 8.674016 51.874016 
C 8.674016 52.07699 8.754658 52.271678 8.898183 52.415203 
C 9.041707 52.558728 9.236396 52.63937 9.43937 52.63937 
z
" clip-path="url(#p812c05438d)" style="fill: #bbbbbb; stroke: #bbbbbb; stroke-linejoin: miter"/>
   </g>
   <g id="patch_9">
    <path d="M 9.43937 35.206299 
C 10.657216 35.206299 11.825346 34.722444 12.686494 33.861297 
C 13.547641 33.000149 14.031496 31.832019 14.031496 30.614173 
C 14.031496 29.396327 13.547641 28.228197 12.686494 27.36705 
C 11.825346 26.505903 10.657216 26.022047 9.43937 26.022047 
C 8.221524 26.022047 7.053394 26.505903 6.192247 27.36705 
C 5.331099 28.228197 4.847244 29.396327 4.847244 30.614173 
C 4.847244 31.832019 5.331099 33.000149 6.192247 33.861297 
C 7.053394 34.722444 8.221524 35.206299 9.43937 35.206299 
L 9.43937 35.206299 
z
" clip-path="url(#p812c05438d)" style="fill: none; stroke: #bbbbbb; stroke-linejoin: miter"/>
   </g>
   <g id="patch_10">
    <path d="M 9.43937 31.379528 
C 9.642344 31.379528 9.837033 31.298885 9.980557 31.15536 
C 10.124082 31.011836 10.204724 30.817148 10.204724 30.614173 
C 10.204724 30.411199 10.124082 30.216511 9.980557 30.072986 
C 9.837033 29.929461 9.642344 29.848819 9.43937 29.848819 
C 9.236396 29.848819 9.041707 29.929461 8.898183 30.072986 
C 8.754658 30.216511 8.674016 30.411199 8.674016 30.614173 
C 8.674016 30.817148 8.754658 31.011836 8.898183 31.15536 
C 9.041707 31.298885 9.236396 31.379528 9.43937 31.379528 
z
" clip-path="url(#p812c05438d)" style="fill: #bbbbbb; stroke: #bbbbbb; stroke-linejoin: miter"/>
   </g>
   <g id="patch_11">
    <path d="M 9.43937 13.946457 
C 10.657216 13.946457 11.825346 13.462601 12.686494 12.601454 
C 13.547641 11.740307 14.031496 10.572177 14.031496 9.354331 
C 14.031496 8.136485 13.547641 6.968354 12.686494 6.107207 
C 11.825346 5.24606 10.657216 4.762205 9.43937 4.762205 
C 8.221524 4.762205 7.053394 5.24606 6.192247 6.107207 
C 5.331099 6.968354 4.847244 8.136485 4.847244 9.354331 
C 4.847244 10.572177 5.331099 11.740307 6.192247 12.601454 
C 7.053394 13.462601 8.221524 13.946457 9.43937 13.946457 
L 9.43937 13.946457 
z
" clip-path="url(#p812c05438d)" style="fill: none; stroke: #bbbbbb; stroke-linejoin: miter"/>
   </g>
   <g id="patch_12">
    <path d="M 9.43937 10.119685 
C 9.642344 10.119685 9.837033 10.039042 9.980557 9.895518 
C 10.124082 9.751993 10.204724 9.557305 10.204724 9.354331 
C 10.204724 9.151356 10.124082 8.956668 9.980557 8.813143 
C 9.837033 8.669619 9.642344 8.588976 9.43937 8.588976 
C 9.236396 8.588976 9.041707 8.669619 8.898183 8.813143 
C 8.754658 8.956668 8.674016 9.151356 8.674016 9.354331 
C 8.674016 9.557305 8.754658 9.751993 8.898183 9.895518 
C 9.041707 10.039042 9.236396 10.119685 9.43937 10.119685 
z
" clip-path="url(#p812c05438d)" style="fill: #bbbbbb; stroke: #bbbbbb; stroke-linejoin: miter"/>
   </g>
   <g id="patch_13">
    <path d="M 30.699213 98.985827 
C 31.917059 98.985827 33.085189 98.501971 33.946336 97.640824 
C 34.807483 96.779677 35.291339 95.611547 35.291339 94.393701 
C 35.291339 93.175855 34.807483 92.007725 33.946336 91.146577 
C 33.085189 90.28543 31.917059 89.801575 30.699213 89.801575 
C 29.481367 89.801575 28.313236 90.28543 27.452089 91.146577 
C 26.590942 92.007725 26.107087 93.175855 26.107087 94.393701 
C 26.107087 95.611547 26.590942 96.779677 27.452089 97.640824 
C 28.313236 98.501971 29.481367 98.985827 30.699213 98.985827 
L 30.699213 98.985827 
z
" clip-path="url(#p812c05438d)" style="fill: none; stroke: #bbbbbb; stroke-linejoin: miter"/>
   </g>
   <g id="patch_14">
    <path d="M 30.699213 95.159055 
C 30.902187 95.159055 31.096875 95.078413 31.2404 94.934888 
C 31.383924 94.791363 31.464567 94.596675 31.464567 94.393701 
C 31.464567 94.190726 31.383924 93.996038 31.2404 93.852514 
C 31.096875 93.708989 30.902187 93.628346 30.699213 93.628346 
C 30.496238 93.628346 30.30155 93.708989 30.158025 93.852514 
C 30.014501 93.996038 29.933858 94.190726 29.933858 94.393701 
C 29.933858 94.596675 30.014501 94.791363 30.158025 94.934888 
C 30.30155 95.078413 30.496238 95.159055 30.699213 95.159055 
z
" clip-path="url(#p812c05438d)" style="fill: #bbbbbb; stroke: #bbbbbb; stroke-linejoin: miter"/>
   </g>
   <g id="patch_15">
    <path d="M 30.699213 77.725984 
C 31.917059 77.725984 33.085189 77.242129 33.946336 76.380982 
C 34.807483 75.519834 35.291339 74.351704 35.291339 73.133858 
C 35.291339 71.916012 34.807483 70.747882 33.946336 69.886735 
C 33.085189 69.025588 31.917059 68.541732 30.699213 68.541732 
C 29.481367 68.541732 28.313236 69.025588 27.452089 69.886735 
C 26.590942 70.747882 26.107087 71.916012 26.107087 73.133858 
C 26.107087 74.351704 26.590942 75.519834 27.452089 76.380982 
C 28.313236 77.242129 29.481367 77.725984 30.699213 77.725984 
L 30.699213 77.725984 
z
" clip-path="url(#p812c05438d)" style="fill: none; stroke: #bbbbbb; stroke-linejoin: miter"/>
   </g>
   <g id="patch_16">
    <path d="M 30.699213 73.899213 
C 30.902187 73.899213 31.096875 73.81857 31.2404 73.675046 
C 31.383924 73.531521 31.464567 73.336833 31.464567 73.133858 
C 31.464567 72.930884 31.383924 72.736196 31.2404 72.592671 
C 31.096875 72.449146 30.902187 72.368504 30.699213 72.368504 
C 30.496238 72.368504 30.30155 72.449146 30.158025 72.592671 
C 30.014501 72.736196 29.933858 72.930884 29.933858 73.133858 
C 29.933858 73.336833 30.014501 73.531521 30.158025 73.675046 
C 30.30155 73.81857 30.496238 73.899213 30.699213 73.899213 
z
" clip-path="url(#p812c05438d)" style="fill: #bbbbbb; stroke: #bbbbbb; stroke-linejoin: miter"/>
   </g>
   <g id="patch_17">
    <path d="M 30.699213 56.466142 
C 31.917059 56.466142 33.085189 55.982286 33.946336 55.121139 
C 34.807483 54.259992 35.291339 53.091862 35.291339 51.874016 
C 35.291339 50.65617 34.807483 49.48804 33.946336 48.626892 
C 33.085189 47.765745 31.917059 47.28189 30.699213 47.28189 
C 29.481367 47.28189 28.313236 47.765745 27.452089 48.626892 
C 26.590942 49.48804 26.107087 50.65617 26.107087 51.874016 
C 26.107087 53.091862 26.590942 54.259992 27.452089 55.121139 
C 28.313236 55.982286 29.481367 56.466142 30.699213 56.466142 
L 30.699213 56.466142 
z
" clip-path="url(#p812c05438d)" style="fill: none; stroke: #bbbbbb; stroke-linejoin: miter"/>
   </g>
   <g id="patch_18">
    <path d="M 30.699213 52.63937 
C 30.902187 52.63937 31.096875 52.558728 31.2404 52.415203 
C 31.383924 52.271678 31.464567 52.07699 31.464567 51.874016 
C 31.464567 51.671041 31.383924 51.476353 31.2404 51.332829 
C 31.096875 51.189304 30.902187 51.108661 30.699213 51.108661 
C 30.496238 51.108661 30.30155 51.189304 30.158025 51.332829 
C 30.014501 51.476353 29.933858 51.671041 29.933858 51.874016 
C 29.933858 52.07699 30.014501 52.271678 30.158025 52.415203 
C 30.30155 52.558728 30.496238 52.63937 30.699213 52.63937 
z
" clip-path="url(#p812c05438d)" style="fill: #bbbbbb; stroke: #bbbbbb; stroke-linejoin: miter"/>
   </g>
   <g id="patch_19">
    <path d="M 30.699213 35.206299 
C 31.917059 35.206299 33.085189 34.722444 33.946336 33.861297 
C 34.807483 33.000149 35.291339 31.832019 35.291339 30.614173 
C 35.291339 29.396327 34.807483 28.228197 33.946336 27.36705 
C 33.085189 26.505903 31.917059 26.022047 30.699213 26.022047 
C 29.481367 26.022047 28.313236 26.505903 27.452089 27.36705 
C 26.590942 28.228197 26.107087 29.396327 26.107087 30.614173 
C 26.107087 31.832019 26.590942 33.000149 27.452089 33.861297 
C 28.313236 34.722444 29.481367 35.206299 30.699213 35.206299 
L 30.699213 35.206299 
z
" clip-path="url(#p812c05438d)" style="fill: none; stroke: #bbbbbb; stroke-linejoin: miter"/>
   </g>
   <g id="patch_20">
    <path d="M 30.699213 31.379528 
C 30.902187 31.379528 31.096875 31.298885 31.2404 31.15536 
C 31.383924 31.011836 31.464567 30.817148 31.464567 30.614173 
C 31.464567 30.411199 31.383924 30.216511 31.2404 30.072986 
C 31.096875 29.929461 30.902187 29.848819 30.699213 29.848819 
C 30.496238 29.848819 30.30155 29.929461 30.158025 30.072986 
C 30.014501 30.216511 29.933858 30.411199 29.933858 30.614173 
C 29.933858 30.817148 30.014501 31.011836 30.158025 31.15536 
C 30.30155 31.298885 30.496238 31.379528 30.699213 31.379528 
z
" clip-path="url(#p812c05438d)" style="fill: #bbbbbb; stroke: #bbbbbb; stroke-linejoin: miter"/>
   </g>
   <g id="patch_21">
    <path d="M 30.699213 13.946457 
C 31.917059 13.946457 33.085189 13.462601 33.946336 12.601454 
C 34.807483 11.740307 35.291339 10.572177 35.291339 9.354331 
C 35.291339 8.136485 34.807483 6.968354 33.946336 6.107207 
C 33.085189 5.24606 31.917059 4.762205 30.699213 4.762205 
C 29.481367 4.762205 28.313236 5.24606 27.452089 6.107207 
C 26.590942 6.968354 26.107087 8.136485 26.107087 9.354331 
C 26.107087 10.572177 26.590942 11.740307 27.452089 12.601454 
C 28.313236 13.462601 29.481367 13.946457 30.699213 13.946457 
L 30.699213 13.946457 
z
" clip-path="url(#p812c05438d)" style="fill: none; stroke: #bbbbbb; stroke-linejoin: miter"/>
   </g>
   <g id="patch_22">
    <path d="M 30.699213 10.119685 
C 30.902187 10.119685 31.096875 10.039042 31.2404 9.895518 
C 31.383924 9.751993 31.464567 9.557305 31.464567 9.354331 
C 31.464567 9.151356 31.383924 8.956668 31.2404 8.813143 
C 31.096875 8.669619 30.902187 8.588976 30.699213 8.588976 
C 30.496238 8.588976 30.30155 8.669619 30.158025 8.813143 
C 30.014501 8.956668 29.933858 9.151356 29.933858 9.354331 
C 29.933858 9.557305 30.014501 9.751993 30.158025 9.895518 
C 30.30155 10.039042 30.496238 10.119685 30.699213 10.119685 
z
" clip-path="url(#p812c05438d)" style="fill: #bbbbbb; stroke: #bbbbbb; stroke-linejoin: miter"/>
   </g>
   <g id="patch_23">
    <path d="M 51.959055 98.985827 
C 53.176901 98.985827 54.345031 98.501971 55.206179 97.640824 
C 56.067326 96.779677 56.551181 95.611547 56.551181 94.393701 
C 56.551181 93.175855 56.067326 92.007725 55.206179 91.146577 
C 54.345031 90.28543 53.176901 89.801575 51.959055 89.801575 
C 50.741209 89.801575 49.573079 90.28543 48.711932 91.146577 
C 47.850784 92.007725 47.366929 93.175855 47.366929 94.393701 
C 47.366929 95.611547 47.850784 96.779677 48.711932 97.640824 
C 49.573079 98.501971 50.741209 98.985827 51.959055 98.985827 
L 51.959055 98.985827 
z
" clip-path="url(#p812c05438d)" style="fill: none; stroke: #bbbbbb; stroke-linejoin: miter"/>
   </g>
   <g id="patch_24">
    <path d="M 51.959055 95.159055 
C 52.162029 95.159055 52.356718 95.078413 52.500242 94.934888 
C 52.643767 94.791363 52.724409 94.596675 52.724409 94.393701 
C 52.724409 94.190726 52.643767 93.996038 52.500242 93.852514 
C 52.356718 93.708989 52.162029 93.628346 51.959055 93.628346 
C 51.756081 93.628346 51.561392 93.708989 51.417868 93.852514 
C 51.274343 93.996038 51.193701 94.190726 51.193701 94.393701 
C 51.193701 94.596675 51.274343 94.791363 51.417868 94.934888 
C 51.561392 95.078413 51.756081 95.159055 51.959055 95.159055 
z
" clip-path="url(#p812c05438d)" style="fill: #bbbbbb; stroke: #bbbbbb; stroke-linejoin: miter"/>
   </g>
   <g id="patch_25">
    <path d="M 51.959055 77.725984 
C 53.176901 77.725984 54.345031 77.242129 55.206179 76.380982 
C 56.067326 75.519834 56.551181 74.351704 56.551181 73.133858 
C 56.551181 71.916012 56.067326 70.747882 55.206179 69.886735 
C 54.345031 69.025588 53.176901 68.541732 51.959055 68.541732 
C 50.741209 68.541732 49.573079 69.025588 48.711932 69.886735 
C 47.850784 70.747882 47.366929 71.916012 47.366929 73.133858 
C 47.366929 74.351704 47.850784 75.519834 48.711932 76.380982 
C 49.573079 77.242129 50.741209 77.725984 51.959055 77.725984 
L 51.959055 77.725984 
z
" clip-path="url(#p812c05438d)" style="fill: none; stroke: #bbbbbb; stroke-linejoin: miter"/>
   </g>
   <g id="patch_26">
    <path d="M 51.959055 73.899213 
C 52.162029 73.899213 52.356718 73.81857 52.500242 73.675046 
C 52.643767 73.531521 52.724409 73.336833 52.724409 73.133858 
C 52.724409 72.930884 52.643767 72.736196 52.500242 72.592671 
C 52.356718 72.449146 52.162029 72.368504 51.959055 72.368504 
C 51.756081 72.368504 51.561392 72.449146 51.417868 72.592671 
C 51.274343 72.736196 51.193701 72.930884 51.193701 73.133858 
C 51.193701 73.336833 51.274343 73.531521 51.417868 73.675046 
C 51.561392 73.81857 51.756081 73.899213 51.959055 73.899213 
z
" clip-path="url(#p812c05438d)" style="fill: #bbbbbb; stroke: #bbbbbb; stroke-linejoin: miter"/>
   </g>
   <g id="patch_27">
    <path d="M 51.959055 56.466142 
C 53.176901 56.466142 54.345031 55.982286 55.206179 55.121139 
C 56.067326 54.259992 56.551181 53.091862 56.551181 51.874016 
C 56.551181 50.65617 56.067326 49.48804 55.206179 48.626892 
C 54.345031 47.765745 53.176901 47.28189 51.959055 47.28189 
C 50.741209 47.28189 49.573079 47.765745 48.711932 48.626892 
C 47.850784 49.48804 47.366929 50.65617 47.366929 51.874016 
C 47.366929 53.091862 47.850784 54.259992 48.711932 55.121139 
C 49.573079 55.982286 50.741209 56.466142 51.959055 56.466142 
L 51.959055 56.466142 
z
" clip-path="url(#p812c05438d)" style="fill: none; stroke: #bbbbbb; stroke-linejoin: miter"/>
   </g>
   <g id="patch_28">
    <path d="M 51.959055 52.63937 
C 52.162029 52.63937 52.356718 52.558728 52.500242 52.415203 
C 52.643767 52.271678 52.724409 52.07699 52.724409 51.874016 
C 52.724409 51.671041 52.643767 51.476353 52.500242 51.332829 
C 52.356718 51.189304 52.162029 51.108661 51.959055 51.108661 
C 51.756081 51.108661 51.561392 51.189304 51.417868 51.332829 
C 51.274343 51.476353 51.193701 51.671041 51.193701 51.874016 
C 51.193701 52.07699 51.274343 52.271678 51.417868 52.415203 
C 51.561392 52.558728 51.756081 52.63937 51.959055 52.63937 
z
" clip-path="url(#p812c05438d)" style="fill: #bbbbbb; stroke: #bbbbbb; stroke-linejoin: miter"/>
   </g>
   <g id="patch_29">
    <path d="M 51.959055 35.206299 
C 53.176901 35.206299 54.345031 34.722444 55.206179 33.861297 
C 56.067326 33.000149 56.551181 31.832019 56.551181 30.614173 
C 56.551181 29.396327 56.067326 28.228197 55.206179 27.36705 
C 54.345031 26.505903 53.176901 26.022047 51.959055 26.022047 
C 50.741209 26.022047 49.573079 26.505903 48.711932 27.36705 
C 47.850784 28.228197 47.366929 29.396327 47.366929 30.614173 
C 47.366929 31.832019 47.850784 33.000149 48.711932 33.861297 
C 49.573079 34.722444 50.741209 35.206299 51.959055 35.206299 
L 51.959055 35.206299 
z
" clip-path="url(#p812c05438d)" style="fill: none; stroke: #bbbbbb; stroke-linejoin: miter"/>
   </g>
   <g id="patch_30">
    <path d="M 51.959055 31.379528 
C 52.162029 31.379528 52.356718 31.298885 52.500242 31.15536 
C 52.643767 31.011836 52.724409 30.817148 52.724409 30.614173 
C 52.724409 30.411199 52.643767 30.216511 52.500242 30.072986 
C 52.356718 29.929461 52.162029 29.848819 51.959055 29.848819 
C 51.756081 29.848819 51.561392 29.929461 51.417868 30.072986 
C 51.274343 30.216511 51.193701 30.411199 51.193701 30.614173 
C 51.193701 30.817148 51.274343 31.011836 51.417868 31.15536 
C 51.561392 31.298885 51.756081 31.379528 51.959055 31.379528 
z
" clip-path="url(#p812c05438d)" style="fill: #bbbbbb; stroke: #bbbbbb; stroke-linejoin: miter"/>
   </g>
   <g id="patch_31">
    <path d="M 51.959055 13.946457 
C 53.176901 13.946457 54.345031 13.462601 55.206179 12.601454 
C 56.067326 11.740307 56.551181 10.572177 56.551181 9.354331 
C 56.551181 8.136485 56.067326 6.968354 55.206179 6.107207 
C 54.345031 5.24606 53.176901 4.762205 51.959055 4.762205 
C 50.741209 4.762205 49.573079 5.24606 48.711932 6.107207 
C 47.850784 6.968354 47.366929 8.136485 47.366929 9.354331 
C 47.366929 10.572177 47.850784 11.740307 48.711932 12.601454 
C 49.573079 13.462601 50.741209 13.946457 51.959055 13.946457 
L 51.959055 13.946457 
z
" clip-path="url(#p812c05438d)" style="fill: none; stroke: #bbbbbb; stroke-linejoin: miter"/>
   </g>
   <g id="patch_32">
    <path d="M 51.959055 10.119685 
C 52.162029 10.119685 52.356718 10.039042 52.500242 9.895518 
C 52.643767 9.751993 52.724409 9.557305 52.724409 9.354331 
C 52.724409 9.151356 52.643767 8.956668 52.500242 8.813143 
C 52.356718 8.669619 52.162029 8.588976 51.959055 8.588976 
C 51.756081 8.588976 51.561392 8.669619 51.417868 8.813143 
C 51.274343 8.956668 51.193701 9.151356 51.193701 9.354331 
C 51.193701 9.557305 51.274343 9.751993 51.417868 9.895518 
C 51.561392 10.039042 51.756081 10.119685 51.959055 10.119685 
z
" clip-path="url(#p812c05438d)" style="fill: #bbbbbb; stroke: #bbbbbb; stroke-linejoin: miter"/>
   </g>
   <g id="patch_33">
    <path d="M 73.218898 98.985827 
C 74.436744 98.985827 75.604874 98.501971 76.466021 97.640824 
C 77.327168 96.779677 77.811024 95.611547 77.811024 94.393701 
C 77.811024 93.175855 77.327168 92.007725 76.466021 91.146577 
C 75.604874 90.28543 74.436744 89.801575 73.218898 89.801575 
C 72.001052 89.801575 70.832921 90.28543 69.971774 91.146577 
C 69.110627 92.007725 68.626772 93.175855 68.626772 94.393701 
C 68.626772 95.611547 69.110627 96.779677 69.971774 97.640824 
C 70.832921 98.501971 72.001052 98.985827 73.218898 98.985827 
L 73.218898 98.985827 
z
" clip-path="url(#p812c05438d)" style="fill: none; stroke: #bbbbbb; stroke-linejoin: miter"/>
   </g>
   <g id="patch_34">
    <path d="M 73.218898 95.159055 
C 73.421872 95.159055 73.61656 95.078413 73.760085 94.934888 
C 73.903609 94.791363 73.984252 94.596675 73.984252 94.393701 
C 73.984252 94.190726 73.903609 93.996038 73.760085 93.852514 
C 73.61656 93.708989 73.421872 93.628346 73.218898 93.628346 
C 73.015923 93.628346 72.821235 93.708989 72.67771 93.852514 
C 72.534186 93.996038 72.453543 94.190726 72.453543 94.393701 
C 72.453543 94.596675 72.534186 94.791363 72.67771 94.934888 
C 72.821235 95.078413 73.015923 95.159055 73.218898 95.159055 
z
" clip-path="url(#p812c05438d)" style="fill: #bbbbbb; stroke: #bbbbbb; stroke-linejoin: miter"/>
   </g>
   <g id="patch_35">
    <path d="M 73.218898 77.725984 
C 74.436744 77.725984 75.604874 77.242129 76.466021 76.380982 
C 77.327168 75.519834 77.811024 74.351704 77.811024 73.133858 
C 77.811024 71.916012 77.327168 70.747882 76.466021 69.886735 
C 75.604874 69.025588 74.436744 68.541732 73.218898 68.541732 
C 72.001052 68.541732 70.832921 69.025588 69.971774 69.886735 
C 69.110627 70.747882 68.626772 71.916012 68.626772 73.133858 
C 68.626772 74.351704 69.110627 75.519834 69.971774 76.380982 
C 70.832921 77.242129 72.001052 77.725984 73.218898 77.725984 
L 73.218898 77.725984 
z
" clip-path="url(#p812c05438d)" style="fill: none; stroke: #bbbbbb; stroke-linejoin: miter"/>
   </g>
   <g id="patch_36">
    <path d="M 73.218898 73.899213 
C 73.421872 73.899213 73.61656 73.81857 73.760085 73.675046 
C 73.903609 73.531521 73.984252 73.336833 73.984252 73.133858 
C 73.984252 72.930884 73.903609 72.736196 73.760085 72.592671 
C 73.61656 72.449146 73.421872 72.368504 73.218898 72.368504 
C 73.015923 72.368504 72.821235 72.449146 72.67771 72.592671 
C 72.534186 72.736196 72.453543 72.930884 72.453543 73.133858 
C 72.453543 73.336833 72.534186 73.531521 72.67771 73.675046 
C 72.821235 73.81857 73.015923 73.899213 73.218898 73.899213 
z
" clip-path="url(#p812c05438d)" style="fill: #bbbbbb; stroke: #bbbbbb; stroke-linejoin: miter"/>
   </g>
   <g id="patch_37">
    <path d="M 73.218898 56.466142 
C 74.436744 56.466142 75.604874 55.982286 76.466021 55.121139 
C 77.327168 54.259992 77.811024 53.091862 77.811024 51.874016 
C 77.811024 50.65617 77.327168 49.48804 76.466021 48.626892 
C 75.604874 47.765745 74.436744 47.28189 73.218898 47.28189 
C 72.001052 47.28189 70.832921 47.765745 69.971774 48.626892 
C 69.110627 49.48804 68.626772 50.65617 68.626772 51.874016 
C 68.626772 53.091862 69.110627 54.259992 69.971774 55.121139 
C 70.832921 55.982286 72.001052 56.466142 73.218898 56.466142 
L 73.218898 56.466142 
z
" clip-path="url(#p812c05438d)" style="fill: none; stroke: #bbbbbb; stroke-linejoin: miter"/>
   </g>
   <g id="patch_38">
    <path d="M 73.218898 52.63937 
C 73.421872 52.63937 73.61656 52.558728 73.760085 52.415203 
C 73.903609 52.271678 73.984252 52.07699 73.984252 51.874016 
C 73.984252 51.671041 73.903609 51.476353 73.760085 51.332829 
C 73.61656 51.189304 73.421872 51.108661 73.218898 51.108661 
C 73.015923 51.108661 72.821235 51.189304 72.67771 51.332829 
C 72.534186 51.476353 72.453543 51.671041 72.453543 51.874016 
C 72.453543 52.07699 72.534186 52.271678 72.67771 52.415203 
C 72.821235 52.558728 73.015923 52.63937 73.218898 52.63937 
z
" clip-path="url(#p812c05438d)" style="fill: #bbbbbb; stroke: #bbbbbb; stroke-linejoin: miter"/>
   </g>
   <g id="patch_39">
    <path d="M 73.218898 35.206299 
C 74.436744 35.206299 75.604874 34.722444 76.466021 33.861297 
C 77.327168 33.000149 77.811024 31.832019 77.811024 30.614173 
C 77.811024 29.396327 77.327168 28.228197 76.466021 27.36705 
C 75.604874 26.505903 74.436744 26.022047 73.218898 26.022047 
C 72.001052 26.022047 70.832921 26.505903 69.971774 27.36705 
C 69.110627 28.228197 68.626772 29.396327 68.626772 30.614173 
C 68.626772 31.832019 69.110627 33.000149 69.971774 33.861297 
C 70.832921 34.722444 72.001052 35.206299 73.218898 35.206299 
L 73.218898 35.206299 
z
" clip-path="url(#p812c05438d)" style="fill: none; stroke: #bbbbbb; stroke-linejoin: miter"/>
   </g>
   <g id="patch_40">
    <path d="M 73.218898 31.379528 
C 73.421872 31.379528 73.61656 31.298885 73.760085 31.15536 
C 73.903609 31.011836 73.984252 30.817148 73.984252 30.614173 
C 73.984252 30.411199 73.903609 30.216511 73.760085 30.072986 
C 73.61656 29.929461 73.421872 29.848819 73.218898 29.848819 
C 73.015923 29.848819 72.821235 29.929461 72.67771 30.072986 
C 72.534186 30.216511 72.453543 30.411199 72.453543 30.614173 
C 72.453543 30.817148 72.534186 31.011836 72.67771 31.15536 
C 72.821235 31.298885 73.015923 31.379528 73.218898 31.379528 
z
" clip-path="url(#p812c05438d)" style="fill: #bbbbbb; stroke: #bbbbbb; stroke-linejoin: miter"/>
   </g>
   <g id="patch_41">
    <path d="M 73.218898 13.946457 
C 74.436744 13.946457 75.604874 13.462601 76.466021 12.601454 
C 77.327168 11.740307 77.811024 10.572177 77.811024 9.354331 
C 77.811024 8.136485 77.327168 6.968354 76.466021 6.107207 
C 75.604874 5.24606 74.436744 4.762205 73.218898 4.762205 
C 72.001052 4.762205 70.832921 5.24606 69.971774 6.107207 
C 69.110627 6.968354 68.626772 8.136485 68.626772 9.354331 
C 68.626772 10.572177 69.110627 11.740307 69.971774 12.601454 
C 70.832921 13.462601 72.001052 13.946457 73.218898 13.946457 
L 73.218898 13.946457 
z
" clip-path="url(#p812c05438d)" style="fill: none; stroke: #bbbbbb; stroke-linejoin: miter"/>
   </g>
   <g id="patch_42">
    <path d="M 73.218898 10.119685 
C 73.421872 10.119685 73.61656 10.039042 73.760085 9.895518 
C 73.903609 9.751993 73.984252 9.557305 73.984252 9.354331 
C 73.984252 9.151356 73.903609 8.956668 73.760085 8.813143 
C 73.61656 8.669619 73.421872 8.588976 73.218898 8.588976 
C 73.015923 8.588976 72.821235 8.669619 72.67771 8.813143 
C 72.534186 8.956668 72.453543 9.151356 72.453543 9.354331 
C 72.453543 9.557305 72.534186 9.751993 72.67771 9.895518 
C 72.821235 10.039042 73.015923 10.119685 73.218898 10.119685 
z
" clip-path="url(#p812c05438d)" style="fill: #bbbbbb; stroke: #bbbbbb; stroke-linejoin: miter"/>
   </g>
   <g id="patch_43">
    <path d="M 94.47874 98.985827 
C 95.696586 98.985827 96.864716 98.501971 97.725864 97.640824 
C 98.587011 96.779677 99.070866 95.611547 99.070866 94.393701 
C 99.070866 93.175855 98.587011 92.007725 97.725864 91.146577 
C 96.864716 90.28543 95.696586 89.801575 94.47874 89.801575 
C 93.260894 89.801575 92.092764 90.28543 91.231617 91.146577 
C 90.37047 92.007725 89.886614 93.175855 89.886614 94.393701 
C 89.886614 95.611547 90.37047 96.779677 91.231617 97.640824 
C 92.092764 98.501971 93.260894 98.985827 94.47874 98.985827 
L 94.47874 98.985827 
z
" clip-path="url(#p812c05438d)" style="fill: none; stroke: #bbbbbb; stroke-linejoin: miter"/>
   </g>
   <g id="patch_44">
    <path d="M 94.47874 95.159055 
C 94.681714 95.159055 94.876403 95.078413 95.019927 94.934888 
C 95.163452 94.791363 95.244094 94.596675 95.244094 94.393701 
C 95.244094 94.190726 95.163452 93.996038 95.019927 93.852514 
C 94.876403 93.708989 94.681714 93.628346 94.47874 93.628346 
C 94.275766 93.628346 94.081077 93.708989 93.937553 93.852514 
C 93.794028 93.996038 93.713386 94.190726 93.713386 94.393701 
C 93.713386 94.596675 93.794028 94.791363 93.937553 94.934888 
C 94.081077 95.078413 94.275766 95.159055 94.47874 95.159055 
z
" clip-path="url(#p812c05438d)" style="fill: #bbbbbb; stroke: #bbbbbb; stroke-linejoin: miter"/>
   </g>
   <g id="patch_45">
    <path d="M 94.47874 77.725984 
C 95.696586 77.725984 96.864716 77.242129 97.725864 76.380982 
C 98.587011 75.519834 99.070866 74.351704 99.070866 73.133858 
C 99.070866 71.916012 98.587011 70.747882 97.725864 69.886735 
C 96.864716 69.025588 95.696586 68.541732 94.47874 68.541732 
C 93.260894 68.541732 92.092764 69.025588 91.231617 69.886735 
C 90.37047 70.747882 89.886614 71.916012 89.886614 73.133858 
C 89.886614 74.351704 90.37047 75.519834 91.231617 76.380982 
C 92.092764 77.242129 93.260894 77.725984 94.47874 77.725984 
L 94.47874 77.725984 
z
" clip-path="url(#p812c05438d)" style="fill: none; stroke: #bbbbbb; stroke-linejoin: miter"/>
   </g>
   <g id="patch_46">
    <path d="M 94.47874 73.899213 
C 94.681714 73.899213 94.876403 73.81857 95.019927 73.675046 
C 95.163452 73.531521 95.244094 73.336833 95.244094 73.133858 
C 95.244094 72.930884 95.163452 72.736196 95.019927 72.592671 
C 94.876403 72.449146 94.681714 72.368504 94.47874 72.368504 
C 94.275766 72.368504 94.081077 72.449146 93.937553 72.592671 
C 93.794028 72.736196 93.713386 72.930884 93.713386 73.133858 
C 93.713386 73.336833 93.794028 73.531521 93.937553 73.675046 
C 94.081077 73.81857 94.275766 73.899213 94.47874 73.899213 
z
" clip-path="url(#p812c05438d)" style="fill: #bbbbbb; stroke: #bbbbbb; stroke-linejoin: miter"/>
   </g>
   <g id="patch_47">
    <path d="M 94.47874 56.466142 
C 95.696586 56.466142 96.864716 55.982286 97.725864 55.121139 
C 98.587011 54.259992 99.070866 53.091862 99.070866 51.874016 
C 99.070866 50.65617 98.587011 49.48804 97.725864 48.626892 
C 96.864716 47.765745 95.696586 47.28189 94.47874 47.28189 
C 93.260894 47.28189 92.092764 47.765745 91.231617 48.626892 
C 90.37047 49.48804 89.886614 50.65617 89.886614 51.874016 
C 89.886614 53.091862 90.37047 54.259992 91.231617 55.121139 
C 92.092764 55.982286 93.260894 56.466142 94.47874 56.466142 
L 94.47874 56.466142 
z
" clip-path="url(#p812c05438d)" style="fill: none; stroke: #bbbbbb; stroke-linejoin: miter"/>
   </g>
   <g id="patch_48">
    <path d="M 94.47874 52.63937 
C 94.681714 52.63937 94.876403 52.558728 95.019927 52.415203 
C 95.163452 52.271678 95.244094 52.07699 95.244094 51.874016 
C 95.244094 51.671041 95.163452 51.476353 95.019927 51.332829 
C 94.876403 51.189304 94.681714 51.108661 94.47874 51.108661 
C 94.275766 51.108661 94.081077 51.189304 93.937553 51.332829 
C 93.794028 51.476353 93.713386 51.671041 93.713386 51.874016 
C 93.713386 52.07699 93.794028 52.271678 93.937553 52.415203 
C 94.081077 52.558728 94.275766 52.63937 94.47874 52.63937 
z
" clip-path="url(#p812c05438d)" style="fill: #bbbbbb; stroke: #bbbbbb; stroke-linejoin: miter"/>
   </g>
   <g id="patch_49">
    <path d="M 94.47874 35.206299 
C 95.696586 35.206299 96.864716 34.722444 97.725864 33.861297 
C 98.587011 33.000149 99.070866 31.832019 99.070866 30.614173 
C 99.070866 29.396327 98.587011 28.228197 97.725864 27.36705 
C 96.864716 26.505903 95.696586 26.022047 94.47874 26.022047 
C 93.260894 26.022047 92.092764 26.505903 91.231617 27.36705 
C 90.37047 28.228197 89.886614 29.396327 89.886614 30.614173 
C 89.886614 31.832019 90.37047 33.000149 91.231617 33.861297 
C 92.092764 34.722444 93.260894 35.206299 94.47874 35.206299 
L 94.47874 35.206299 
z
" clip-path="url(#p812c05438d)" style="fill: none; stroke: #bbbbbb; stroke-linejoin: miter"/>
   </g>
   <g id="patch_50">
    <path d="M 94.47874 31.379528 
C 94.681714 31.379528 94.876403 31.298885 95.019927 31.15536 
C 95.163452 31.011836 95.244094 30.817148 95.244094 30.614173 
C 95.244094 30.411199 95.163452 30.216511 95.019927 30.072986 
C 94.876403 29.929461 94.681714 29.848819 94.47874 29.848819 
C 94.275766 29.848819 94.081077 29.929461 93.937553 30.072986 
C 93.794028 30.216511 93.713386 30.411199 93.713386 30.614173 
C 93.713386 30.817148 93.794028 31.011836 93.937553 31.15536 
C 94.081077 31.298885 94.275766 31.379528 94.47874 31.379528 
z
" clip-path="url(#p812c05438d)" style="fill: #bbbbbb; stroke: #bbbbbb; stroke-linejoin: miter"/>
   </g>
   <g id="patch_51">
    <path d="M 94.47874 13.946457 
C 95.696586 13.946457 96.864716 13.462601 97.725864 12.601454 
C 98.587011 11.740307 99.070866 10.572177 99.070866 9.354331 
C 99.070866 8.136485 98.587011 6.968354 97.725864 6.107207 
C 96.864716 5.24606 95.696586 4.762205 94.47874 4.762205 
C 93.260894 4.762205 92.092764 5.24606 91.231617 6.107207 
C 90.37047 6.968354 89.886614 8.136485 89.886614 9.354331 
C 89.886614 10.572177 90.37047 11.740307 91.231617 12.601454 
C 92.092764 13.462601 93.260894 13.946457 94.47874 13.946457 
L 94.47874 13.946457 
z
" clip-path="url(#p812c05438d)" style="fill: none; stroke: #bbbbbb; stroke-linejoin: miter"/>
   </g>
   <g id="patch_52">
    <path d="M 94.47874 10.119685 
C 94.681714 10.119685 94.876403 10.039042 95.019927 9.895518 
C 95.163452 9.751993 95.244094 9.557305 95.244094 9.354331 
C 95.244094 9.151356 95.163452 8.956668 95.019927 8.813143 
C 94.876403 8.669619 94.681714 8.588976 94.47874 8.588976 
C 94.275766 8.588976 94.081077 8.669619 93.937553 8.813143 
C 93.794028 8.956668 93.713386 9.151356 93.713386 9.354331 
C 93.713386 9.557305 93.794028 9.751993 93.937553 9.895518 
C 94.081077 10.039042 94.275766 10.119685 94.47874 10.119685 
z
" clip-path="url(#p812c05438d)" style="fill: #bbbbbb; stroke: #bbbbbb; stroke-linejoin: miter"/>
   </g>
   <g id="patch_53">
    <path d="M 115.738583 98.985827 
C 116.956429 98.985827 118.124559 98.501971 118.985706 97.640824 
C 119.846853 96.779677 120.330709 95.611547 120.330709 94.393701 
C 120.330709 93.175855 119.846853 92.007725 118.985706 91.146577 
C 118.124559 90.28543 116.956429 89.801575 115.738583 89.801575 
C 114.520737 89.801575 113.352606 90.28543 112.491459 91.146577 
C 111.630312 92.007725 111.146457 93.175855 111.146457 94.393701 
C 111.146457 95.611547 111.630312 96.779677 112.491459 97.640824 
C 113.352606 98.501971 114.520737 98.985827 115.738583 98.985827 
L 115.738583 98.985827 
z
" clip-path="url(#p812c05438d)" style="fill: none; stroke: #bbbbbb; stroke-linejoin: miter"/>
   </g>
   <g id="patch_54">
    <path d="M 115.738583 95.159055 
C 115.941557 95.159055 116.136245 95.078413 116.27977 94.934888 
C 116.423294 94.791363 116.503937 94.596675 116.503937 94.393701 
C 116.503937 94.190726 116.423294 93.996038 116.27977 93.852514 
C 116.136245 93.708989 115.941557 93.628346 115.738583 93.628346 
C 115.535608 93.628346 115.34092 93.708989 115.197395 93.852514 
C 115.053871 93.996038 114.973228 94.190726 114.973228 94.393701 
C 114.973228 94.596675 115.053871 94.791363 115.197395 94.934888 
C 115.34092 95.078413 115.535608 95.159055 115.738583 95.159055 
z
" clip-path="url(#p812c05438d)" style="fill: #bbbbbb; stroke: #bbbbbb; stroke-linejoin: miter"/>
   </g>
   <g id="patch_55">
    <path d="M 115.738583 77.725984 
C 116.956429 77.725984 118.124559 77.242129 118.985706 76.380982 
C 119.846853 75.519834 120.330709 74.351704 120.330709 73.133858 
C 120.330709 71.916012 119.846853 70.747882 118.985706 69.886735 
C 118.124559 69.025588 116.956429 68.541732 115.738583 68.541732 
C 114.520737 68.541732 113.352606 69.025588 112.491459 69.886735 
C 111.630312 70.747882 111.146457 71.916012 111.146457 73.133858 
C 111.146457 74.351704 111.630312 75.519834 112.491459 76.380982 
C 113.352606 77.242129 114.520737 77.725984 115.738583 77.725984 
L 115.738583 77.725984 
z
" clip-path="url(#p812c05438d)" style="fill: none; stroke: #bbbbbb; stroke-linejoin: miter"/>
   </g>
   <g id="patch_56">
    <path d="M 115.738583 73.899213 
C 115.941557 73.899213 116.136245 73.81857 116.27977 73.675046 
C 116.423294 73.531521 116.503937 73.336833 116.503937 73.133858 
C 116.503937 72.930884 116.423294 72.736196 116.27977 72.592671 
C 116.136245 72.449146 115.941557 72.368504 115.738583 72.368504 
C 115.535608 72.368504 115.34092 72.449146 115.197395 72.592671 
C 115.053871 72.736196 114.973228 72.930884 114.973228 73.133858 
C 114.973228 73.336833 115.053871 73.531521 115.197395 73.675046 
C 115.34092 73.81857 115.535608 73.899213 115.738583 73.899213 
z
" clip-path="url(#p812c05438d)" style="fill: #bbbbbb; stroke: #bbbbbb; stroke-linejoin: miter"/>
   </g>
   <g id="patch_57">
    <path d="M 115.738583 56.466142 
C 116.956429 56.466142 118.124559 55.982286 118.985706 55.121139 
C 119.846853 54.259992 120.330709 53.091862 120.330709 51.874016 
C 120.330709 50.65617 119.846853 49.48804 118.985706 48.626892 
C 118.124559 47.765745 116.956429 47.28189 115.738583 47.28189 
C 114.520737 47.28189 113.352606 47.765745 112.491459 48.626892 
C 111.630312 49.48804 111.146457 50.65617 111.146457 51.874016 
C 111.146457 53.091862 111.630312 54.259992 112.491459 55.121139 
C 113.352606 55.982286 114.520737 56.466142 115.738583 56.466142 
L 115.738583 56.466142 
z
" clip-path="url(#p812c05438d)" style="fill: none; stroke: #bbbbbb; stroke-linejoin: miter"/>
   </g>
   <g id="patch_58">
    <path d="M 115.738583 52.63937 
C 115.941557 52.63937 116.136245 52.558728 116.27977 52.415203 
C 116.423294 52.271678 116.503937 52.07699 116.503937 51.874016 
C 116.503937 51.671041 116.423294 51.476353 116.27977 51.332829 
C 116.136245 51.189304 115.941557 51.108661 115.738583 51.108661 
C 115.535608 51.108661 115.34092 51.189304 115.197395 51.332829 
C 115.053871 51.476353 114.973228 51.671041 114.973228 51.874016 
C 114.973228 52.07699 115.053871 52.271678 115.197395 52.415203 
C 115.34092 52.558728 115.535608 52.63937 115.738583 52.63937 
z
" clip-path="url(#p812c05438d)" style="fill: #bbbbbb; stroke: #bbbbbb; stroke-linejoin: miter"/>
   </g>
   <g id="patch_59">
    <path d="M 115.738583 35.206299 
C 116.956429 35.206299 118.124559 34.722444 118.985706 33.861297 
C 119.846853 33.000149 120.330709 31.832019 120.330709 30.614173 
C 120.330709 29.396327 119.846853 28.228197 118.985706 27.36705 
C 118.124559 26.505903 116.956429 26.022047 115.738583 26.022047 
C 114.520737 26.022047 113.352606 26.505903 112.491459 27.36705 
C 111.630312 28.228197 111.146457 29.396327 111.146457 30.614173 
C 111.146457 31.832019 111.630312 33.000149 112.491459 33.861297 
C 113.352606 34.722444 114.520737 35.206299 115.738583 35.206299 
L 115.738583 35.206299 
z
" clip-path="url(#p812c05438d)" style="fill: none; stroke: #bbbbbb; stroke-linejoin: miter"/>
   </g>
   <g id="patch_60">
    <path d="M 115.738583 31.379528 
C 115.941557 31.379528 116.136245 31.298885 116.27977 31.15536 
C 116.423294 31.011836 116.503937 30.817148 116.503937 30.614173 
C 116.503937 30.411199 116.423294 30.216511 116.27977 30.072986 
C 116.136245 29.929461 115.941557 29.848819 115.738583 29.848819 
C 115.535608 29.848819 115.34092 29.929461 115.197395 30.072986 
C 115.053871 30.216511 114.973228 30.411199 114.973228 30.614173 
C 114.973228 30.817148 115.053871 31.011836 115.197395 31.15536 
C 115.34092 31.298885 115.535608 31.379528 115.738583 31.379528 
z
" clip-path="url(#p812c05438d)" style="fill: #bbbbbb; stroke: #bbbbbb; stroke-linejoin: miter"/>
   </g>
   <g id="patch_61">
    <path d="M 115.738583 13.946457 
C 116.956429 13.946457 118.124559 13.462601 118.985706 12.601454 
C 119.846853 11.740307 120.330709 10.572177 120.330709 9.354331 
C 120.330709 8.136485 119.846853 6.968354 118.985706 6.107207 
C 118.124559 5.24606 116.956429 4.762205 115.738583 4.762205 
C 114.520737 4.762205 113.352606 5.24606 112.491459 6.107207 
C 111.630312 6.968354 111.146457 8.136485 111.146457 9.354331 
C 111.146457 10.572177 111.630312 11.740307 112.491459 12.601454 
C 113.352606 13.462601 114.520737 13.946457 115.738583 13.946457 
L 115.738583 13.946457 
z
" clip-path="url(#p812c05438d)" style="fill: none; stroke: #bbbbbb; stroke-linejoin: miter"/>
   </g>
   <g id="patch_62">
    <path d="M 115.738583 10.119685 
C 115.941557 10.119685 116.136245 10.039042 116.27977 9.895518 
C 116.423294 9.751993 116.503937 9.557305 116.503937 9.354331 
C 116.503937 9.151356 116.423294 8.956668 116.27977 8.813143 
C 116.136245 8.669619 115.941557 8.588976 115.738583 8.588976 
C 115.535608 8.588976 115.34092 8.669619 115.197395 8.813143 
C 115.053871 8.956668 114.973228 9.151356 114.973228 9.354331 
C 114.973228 9.557305 115.053871 9.751993 115.197395 9.895518 
C 115.34092 10.039042 115.535608 10.119685 115.738583 10.119685 
z
" clip-path="url(#p812c05438d)" style="fill: #bbbbbb; stroke: #bbbbbb; stroke-linejoin: miter"/>
   </g>
   <g id="patch_63">
    <path d="M 136.998425 98.985827 
C 138.216271 98.985827 139.384401 98.501971 140.245549 97.640824 
C 141.106696 96.779677 141.590551 95.611547 141.590551 94.393701 
C 141.590551 93.175855 141.106696 92.007725 140.245549 91.146577 
C 139.384401 90.28543 138.216271 89.801575 136.998425 89.801575 
C 135.780579 89.801575 134.612449 90.28543 133.751302 91.146577 
C 132.890155 92.007725 132.406299 93.175855 132.406299 94.393701 
C 132.406299 95.611547 132.890155 96.779677 133.751302 97.640824 
C 134.612449 98.501971 135.780579 98.985827 136.998425 98.985827 
L 136.998425 98.985827 
z
" clip-path="url(#p812c05438d)" style="fill: none; stroke: #bbbbbb; stroke-linejoin: miter"/>
   </g>
   <g id="patch_64">
    <path d="M 136.998425 95.159055 
C 137.2014 95.159055 137.396088 95.078413 137.539612 94.934888 
C 137.683137 94.791363 137.76378 94.596675 137.76378 94.393701 
C 137.76378 94.190726 137.683137 93.996038 137.539612 93.852514 
C 137.396088 93.708989 137.2014 93.628346 136.998425 93.628346 
C 136.795451 93.628346 136.600762 93.708989 136.457238 93.852514 
C 136.313713 93.996038 136.233071 94.190726 136.233071 94.393701 
C 136.233071 94.596675 136.313713 94.791363 136.457238 94.934888 
C 136.600762 95.078413 136.795451 95.159055 136.998425 95.159055 
z
" clip-path="url(#p812c05438d)" style="fill: #bbbbbb; stroke: #bbbbbb; stroke-linejoin: miter"/>
   </g>
   <g id="patch_65">
    <path d="M 136.998425 77.725984 
C 138.216271 77.725984 139.384401 77.242129 140.245549 76.380982 
C 141.106696 75.519834 141.590551 74.351704 141.590551 73.133858 
C 141.590551 71.916012 141.106696 70.747882 140.245549 69.886735 
C 139.384401 69.025588 138.216271 68.541732 136.998425 68.541732 
C 135.780579 68.541732 134.612449 69.025588 133.751302 69.886735 
C 132.890155 70.747882 132.406299 71.916012 132.406299 73.133858 
C 132.406299 74.351704 132.890155 75.519834 133.751302 76.380982 
C 134.612449 77.242129 135.780579 77.725984 136.998425 77.725984 
L 136.998425 77.725984 
z
" clip-path="url(#p812c05438d)" style="fill: none; stroke: #bbbbbb; stroke-linejoin: miter"/>
   </g>
   <g id="patch_66">
    <path d="M 136.998425 73.899213 
C 137.2014 73.899213 137.396088 73.81857 137.539612 73.675046 
C 137.683137 73.531521 137.76378 73.336833 137.76378 73.133858 
C 137.76378 72.930884 137.683137 72.736196 137.539612 72.592671 
C 137.396088 72.449146 137.2014 72.368504 136.998425 72.368504 
C 136.795451 72.368504 136.600762 72.449146 136.457238 72.592671 
C 136.313713 72.736196 136.233071 72.930884 136.233071 73.133858 
C 136.233071 73.336833 136.313713 73.531521 136.457238 73.675046 
C 136.600762 73.81857 136.795451 73.899213 136.998425 73.899213 
z
" clip-path="url(#p812c05438d)" style="fill: #bbbbbb; stroke: #bbbbbb; stroke-linejoin: miter"/>
   </g>
   <g id="patch_67">
    <path d="M 136.998425 56.466142 
C 138.216271 56.466142 139.384401 55.982286 140.245549 55.121139 
C 141.106696 54.259992 141.590551 53.091862 141.590551 51.874016 
C 141.590551 50.65617 141.106696 49.48804 140.245549 48.626892 
C 139.384401 47.765745 138.216271 47.28189 136.998425 47.28189 
C 135.780579 47.28189 134.612449 47.765745 133.751302 48.626892 
C 132.890155 49.48804 132.406299 50.65617 132.406299 51.874016 
C 132.406299 53.091862 132.890155 54.259992 133.751302 55.121139 
C 134.612449 55.982286 135.780579 56.466142 136.998425 56.466142 
L 136.998425 56.466142 
z
" clip-path="url(#p812c05438d)" style="fill: none; stroke: #bbbbbb; stroke-linejoin: miter"/>
   </g>
   <g id="patch_68">
    <path d="M 136.998425 52.63937 
C 137.2014 52.63937 137.396088 52.558728 137.539612 52.415203 
C 137.683137 52.271678 137.76378 52.07699 137.76378 51.874016 
C 137.76378 51.671041 137.683137 51.476353 137.539612 51.332829 
C 137.396088 51.189304 137.2014 51.108661 136.998425 51.108661 
C 136.795451 51.108661 136.600762 51.189304 136.457238 51.332829 
C 136.313713 51.476353 136.233071 51.671041 136.233071 51.874016 
C 136.233071 52.07699 136.313713 52.271678 136.457238 52.415203 
C 136.600762 52.558728 136.795451 52.63937 136.998425 52.63937 
z
" clip-path="url(#p812c05438d)" style="fill: #bbbbbb; stroke: #bbbbbb; stroke-linejoin: miter"/>
   </g>
   <g id="patch_69">
    <path d="M 136.998425 35.206299 
C 138.216271 35.206299 139.384401 34.722444 140.245549 33.861297 
C 141.106696 33.000149 141.590551 31.832019 141.590551 30.614173 
C 141.590551 29.396327 141.106696 28.228197 140.245549 27.36705 
C 139.384401 26.505903 138.216271 26.022047 136.998425 26.022047 
C 135.780579 26.022047 134.612449 26.505903 133.751302 27.36705 
C 132.890155 28.228197 132.406299 29.396327 132.406299 30.614173 
C 132.406299 31.832019 132.890155 33.000149 133.751302 33.861297 
C 134.612449 34.722444 135.780579 35.206299 136.998425 35.206299 
L 136.998425 35.206299 
z
" clip-path="url(#p812c05438d)" style="fill: none; stroke: #bbbbbb; stroke-linejoin: miter"/>
   </g>
   <g id="patch_70">
    <path d="M 136.998425 31.379528 
C 137.2014 31.379528 137.396088 31.298885 137.539612 31.15536 
C 137.683137 31.011836 137.76378 30.817148 137.76378 30.614173 
C 137.76378 30.411199 137.683137 30.216511 137.539612 30.072986 
C 137.396088 29.929461 137.2014 29.848819 136.998425 29.848819 
C 136.795451 29.848819 136.600762 29.929461 136.457238 30.072986 
C 136.313713 30.216511 136.233071 30.411199 136.233071 30.614173 
C 136.233071 30.817148 136.313713 31.011836 136.457238 31.15536 
C 136.600762 31.298885 136.795451 31.379528 136.998425 31.379528 
z
" clip-path="url(#p812c05438d)" style="fill: #bbbbbb; stroke: #bbbbbb; stroke-linejoin: miter"/>
   </g>
   <g id="patch_71">
    <path d="M 136.998425 13.946457 
C 138.216271 13.946457 139.384401 13.462601 140.245549 12.601454 
C 141.106696 11.740307 141.590551 10.572177 141.590551 9.354331 
C 141.590551 8.136485 141.106696 6.968354 140.245549 6.107207 
C 139.384401 5.24606 138.216271 4.762205 136.998425 4.762205 
C 135.780579 4.762205 134.612449 5.24606 133.751302 6.107207 
C 132.890155 6.968354 132.406299 8.136485 132.406299 9.354331 
C 132.406299 10.572177 132.890155 11.740307 133.751302 12.601454 
C 134.612449 13.462601 135.780579 13.946457 136.998425 13.946457 
L 136.998425 13.946457 
z
" clip-path="url(#p812c05438d)" style="fill: none; stroke: #bbbbbb; stroke-linejoin: miter"/>
   </g>
   <g id="patch_72">
    <path d="M 136.998425 10.119685 
C 137.2014 10.119685 137.396088 10.039042 137.539612 9.895518 
C 137.683137 9.751993 137.76378 9.557305 137.76378 9.354331 
C 137.76378 9.151356 137.683137 8.956668 137.539612 8.813143 
C 137.396088 8.669619 137.2014 8.588976 136.998425 8.588976 
C 136.795451 8.588976 136.600762 8.669619 136.457238 8.813143 
C 136.313713 8.956668 136.233071 9.151356 136.233071 9.354331 
C 136.233071 9.557305 136.313713 9.751993 136.457238 9.895518 
C 136.600762 10.039042 136.795451 10.119685 136.998425 10.119685 
z
" clip-path="url(#p812c05438d)" style="fill: #bbbbbb; stroke: #bbbbbb; stroke-linejoin: miter"/>
   </g>
   <g id="patch_73">
    <path d="M 158.258268 98.985827 
C 159.476114 98.985827 160.644244 98.501971 161.505391 97.640824 
C 162.366538 96.779677 162.850394 95.611547 162.850394 94.393701 
C 162.850394 93.175855 162.366538 92.007725 161.505391 91.146577 
C 160.644244 90.28543 159.476114 89.801575 158.258268 89.801575 
C 157.040422 89.801575 155.872291 90.28543 155.011144 91.146577 
C 154.149997 92.007725 153.666142 93.175855 153.666142 94.393701 
C 153.666142 95.611547 154.149997 96.779677 155.011144 97.640824 
C 155.872291 98.501971 157.040422 98.985827 158.258268 98.985827 
L 158.258268 98.985827 
z
" clip-path="url(#p812c05438d)" style="fill: none; stroke: #bbbbbb; stroke-linejoin: miter"/>
   </g>
   <g id="patch_74">
    <path d="M 158.258268 95.159055 
C 158.461242 95.159055 158.65593 95.078413 158.799455 94.934888 
C 158.942979 94.791363 159.023622 94.596675 159.023622 94.393701 
C 159.023622 94.190726 158.942979 93.996038 158.799455 93.852514 
C 158.65593 93.708989 158.461242 93.628346 158.258268 93.628346 
C 158.055293 93.628346 157.860605 93.708989 157.71708 93.852514 
C 157.573556 93.996038 157.492913 94.190726 157.492913 94.393701 
C 157.492913 94.596675 157.573556 94.791363 157.71708 94.934888 
C 157.860605 95.078413 158.055293 95.159055 158.258268 95.159055 
z
" clip-path="url(#p812c05438d)" style="fill: #bbbbbb; stroke: #bbbbbb; stroke-linejoin: miter"/>
   </g>
   <g id="patch_75">
    <path d="M 158.258268 77.725984 
C 159.476114 77.725984 160.644244 77.242129 161.505391 76.380982 
C 162.366538 75.519834 162.850394 74.351704 162.850394 73.133858 
C 162.850394 71.916012 162.366538 70.747882 161.505391 69.886735 
C 160.644244 69.025588 159.476114 68.541732 158.258268 68.541732 
C 157.040422 68.541732 155.872291 69.025588 155.011144 69.886735 
C 154.149997 70.747882 153.666142 71.916012 153.666142 73.133858 
C 153.666142 74.351704 154.149997 75.519834 155.011144 76.380982 
C 155.872291 77.242129 157.040422 77.725984 158.258268 77.725984 
L 158.258268 77.725984 
z
" clip-path="url(#p812c05438d)" style="fill: none; stroke: #bbbbbb; stroke-linejoin: miter"/>
   </g>
   <g id="patch_76">
    <path d="M 158.258268 73.899213 
C 158.461242 73.899213 158.65593 73.81857 158.799455 73.675046 
C 158.942979 73.531521 159.023622 73.336833 159.023622 73.133858 
C 159.023622 72.930884 158.942979 72.736196 158.799455 72.592671 
C 158.65593 72.449146 158.461242 72.368504 158.258268 72.368504 
C 158.055293 72.368504 157.860605 72.449146 157.71708 72.592671 
C 157.573556 72.736196 157.492913 72.930884 157.492913 73.133858 
C 157.492913 73.336833 157.573556 73.531521 157.71708 73.675046 
C 157.860605 73.81857 158.055293 73.899213 158.258268 73.899213 
z
" clip-path="url(#p812c05438d)" style="fill: #bbbbbb; stroke: #bbbbbb; stroke-linejoin: miter"/>
   </g>
   <g id="patch_77">
    <path d="M 158.258268 56.466142 
C 159.476114 56.466142 160.644244 55.982286 161.505391 55.121139 
C 162.366538 54.259992 162.850394 53.091862 162.850394 51.874016 
C 162.850394 50.65617 162.366538 49.48804 161.505391 48.626892 
C 160.644244 47.765745 159.476114 47.28189 158.258268 47.28189 
C 157.040422 47.28189 155.872291 47.765745 155.011144 48.626892 
C 154.149997 49.48804 153.666142 50.65617 153.666142 51.874016 
C 153.666142 53.091862 154.149997 54.259992 155.011144 55.121139 
C 155.872291 55.982286 157.040422 56.466142 158.258268 56.466142 
L 158.258268 56.466142 
z
" clip-path="url(#p812c05438d)" style="fill: none; stroke: #bbbbbb; stroke-linejoin: miter"/>
   </g>
   <g id="patch_78">
    <path d="M 158.258268 52.63937 
C 158.461242 52.63937 158.65593 52.558728 158.799455 52.415203 
C 158.942979 52.271678 159.023622 52.07699 159.023622 51.874016 
C 159.023622 51.671041 158.942979 51.476353 158.799455 51.332829 
C 158.65593 51.189304 158.461242 51.108661 158.258268 51.108661 
C 158.055293 51.108661 157.860605 51.189304 157.71708 51.332829 
C 157.573556 51.476353 157.492913 51.671041 157.492913 51.874016 
C 157.492913 52.07699 157.573556 52.271678 157.71708 52.415203 
C 157.860605 52.558728 158.055293 52.63937 158.258268 52.63937 
z
" clip-path="url(#p812c05438d)" style="fill: #bbbbbb; stroke: #bbbbbb; stroke-linejoin: miter"/>
   </g>
   <g id="patch_79">
    <path d="M 158.258268 35.206299 
C 159.476114 35.206299 160.644244 34.722444 161.505391 33.861297 
C 162.366538 33.000149 162.850394 31.832019 162.850394 30.614173 
C 162.850394 29.396327 162.366538 28.228197 161.505391 27.36705 
C 160.644244 26.505903 159.476114 26.022047 158.258268 26.022047 
C 157.040422 26.022047 155.872291 26.505903 155.011144 27.36705 
C 154.149997 28.228197 153.666142 29.396327 153.666142 30.614173 
C 153.666142 31.832019 154.149997 33.000149 155.011144 33.861297 
C 155.872291 34.722444 157.040422 35.206299 158.258268 35.206299 
L 158.258268 35.206299 
z
" clip-path="url(#p812c05438d)" style="fill: none; stroke: #bbbbbb; stroke-linejoin: miter"/>
   </g>
   <g id="patch_80">
    <path d="M 158.258268 31.379528 
C 158.461242 31.379528 158.65593 31.298885 158.799455 31.15536 
C 158.942979 31.011836 159.023622 30.817148 159.023622 30.614173 
C 159.023622 30.411199 158.942979 30.216511 158.799455 30.072986 
C 158.65593 29.929461 158.461242 29.848819 158.258268 29.848819 
C 158.055293 29.848819 157.860605 29.929461 157.71708 30.072986 
C 157.573556 30.216511 157.492913 30.411199 157.492913 30.614173 
C 157.492913 30.817148 157.573556 31.011836 157.71708 31.15536 
C 157.860605 31.298885 158.055293 31.379528 158.258268 31.379528 
z
" clip-path="url(#p812c05438d)" style="fill: #bbbbbb; stroke: #bbbbbb; stroke-linejoin: miter"/>
   </g>
   <g id="patch_81">
    <path d="M 158.258268 13.946457 
C 159.476114 13.946457 160.644244 13.462601 161.505391 12.601454 
C 162.366538 11.740307 162.850394 10.572177 162.850394 9.354331 
C 162.850394 8.136485 162.366538 6.968354 161.505391 6.107207 
C 160.644244 5.24606 159.476114 4.762205 158.258268 4.762205 
C 157.040422 4.762205 155.872291 5.24606 155.011144 6.107207 
C 154.149997 6.968354 153.666142 8.136485 153.666142 9.354331 
C 153.666142 10.572177 154.149997 11.740307 155.011144 12.601454 
C 155.872291 13.462601 157.040422 13.946457 158.258268 13.946457 
L 158.258268 13.946457 
z
" clip-path="url(#p812c05438d)" style="fill: none; stroke: #bbbbbb; stroke-linejoin: miter"/>
   </g>
   <g id="patch_82">
    <path d="M 158.258268 10.119685 
C 158.461242 10.119685 158.65593 10.039042 158.799455 9.895518 
C 158.942979 9.751993 159.023622 9.557305 159.023622 9.354331 
C 159.023622 9.151356 158.942979 8.956668 158.799455 8.813143 
C 158.65593 8.669619 158.461242 8.588976 158.258268 8.588976 
C 158.055293 8.588976 157.860605 8.669619 157.71708 8.813143 
C 157.573556 8.956668 157.492913 9.151356 157.492913 9.354331 
C 157.492913 9.557305 157.573556 9.751993 157.71708 9.895518 
C 157.860605 10.039042 158.055293 10.119685 158.258268 10.119685 
z
" clip-path="url(#p812c05438d)" style="fill: #bbbbbb; stroke: #bbbbbb; stroke-linejoin: miter"/>
   </g>
   <g id="patch_83">
    <path d="M 104.489151 47.852862 
L 104.87834 55.766373 
L 101.648071 54.345055 
L 89.300354 82.408047 
L 89.274408 82.396631 
L 101.622125 54.333639 
L 98.391856 52.91232 
z
" clip-path="url(#p812c05438d)" style="stroke: #000000; stroke-linejoin: miter"/>
   </g>
   <g id="patch_84">
    <path d="M 116.237859 7.412486 
L 116.237859 7.412486 
L 116.246044 7.424056 
L 51.190926 53.443888 
L 51.174556 53.420747 
L 116.229674 7.400915 
L 116.237859 7.412486 
z
" clip-path="url(#p812c05438d)" style="fill: #ff0000; stroke: #ff0000; stroke-linejoin: miter"/>
   </g>
   <g id="patch_85">
    <path d="M 40.345926 59.562993 
L 48.266109 59.348934 
L 46.77369 62.546976 
L 89.293375 82.389495 
L 89.281388 82.415182 
L 46.761703 62.572663 
L 45.269283 65.770704 
z
" clip-path="url(#p812c05438d)" style="fill: #a52a2a; stroke: #a52a2a; stroke-linejoin: miter"/>
   </g>
   <g id="patch_86">
    <path d="M 80.82582 32.507791 
L 77.07965 39.48929 
L 75.044458 36.606101 
L 51.190915 53.443897 
L 51.174568 53.420739 
L 75.028111 36.582943 
L 72.992919 33.699754 
z
" clip-path="url(#p812c05438d)" style="stroke: #000000; stroke-linejoin: miter"/>
   </g>
   <g id="patch_87">
    <path d="M 15.173967 3.020033 
L 22.176285 6.727143 
L 19.304511 8.77841 
L 51.194274 53.42408 
L 51.171208 53.440556 
L 19.281444 8.794886 
L 16.40967 10.846154 
z
" clip-path="url(#p812c05438d)" style="fill: #a52a2a; stroke: #a52a2a; stroke-linejoin: miter"/>
   </g>
   <g id="patch_88">
    <path d="M 162.992126 46.771654 
L 205.511811 46.771654 
L 205.511811 4.251969 
L 162.992126 4.251969 
z
" clip-path="url(#p812c05438d)" style="fill: #808080; stroke: #808080; stroke-linejoin: miter"/>
   </g>
   <g id="matplotlib.axis_1">
    <g id="xtick_1"/>
    <g id="xtick_2"/>
    <g id="xtick_3"/>
    <g id="xtick_4"/>
   </g>
   <g id="matplotlib.axis_2">
    <g id="ytick_1"/>
    <g id="ytick_2"/>
    <g id="ytick_3"/>
    <g id="ytick_4"/>
   </g>
   <g id="line2d_3">
    <defs>
     <path id="macee9a8ea6" d="M 0 3 
C 0.795609 3 1.55874 2.683901 2.12132 2.12132 
C 2.683901 1.55874 3 0.795609 3 0 
C 3 -0.795609 2.683901 -1.55874 2.12132 -2.12132 
C 1.55874 -2.683901 0.795609 -3 0 -3 
C -0.795609 -3 -1.55874 -2.683901 -2.12132 -2.12132 
C -2.683901 -1.55874 -3 -0.795609 -3 0 
C -3 0.795609 -2.683901 1.55874 -2.12132 2.12132 
C -1.55874 2.683901 -0.795609 3 0 3 
z
" style="stroke: #0000ff"/>
    </defs>
    <g clip-path="url(#p812c05438d)">
     <use xlink:href="#macee9a8ea6" x="89.287381" y="82.402339" style="fill: #0000ff; stroke: #0000ff"/>
    </g>
   </g>
   <g id="line2d_4">
    <g clip-path="url(#p812c05438d)">
     <use xlink:href="#macee9a8ea6" x="51.182741" y="53.432318" style="fill: #0000ff; stroke: #0000ff"/>
    </g>
   </g>
   <g id="line2d_5">
    <path d="M 171.07874 69.658184 
L 169.629008 71.484314 
L 167.349508 73.922438 
L 164.744641 76.259693 
L 161.821517 78.47271 
L 158.589518 80.53848 
L 155.060263 82.434498 
L 151.247572 84.138894 
L 147.167407 85.630573 
L 142.837812 86.889349 
L 138.278829 87.896064 
L 133.512415 88.632725 
L 128.562338 89.08261 
L 123.45407 89.23039 
L 118.214662 89.062234 
L 112.872619 88.565903 
L 107.457758 87.730851 
L 103.822654 86.981562 
L 100.178373 86.075647 
L 96.534529 85.011332 
L 92.900897 83.787229 
L 89.287381 82.402339 
L 85.704003 80.856058 
L 82.16087 79.148187 
L 78.668156 77.278932 
L 75.236077 75.24891 
L 71.874866 73.059152 
L 68.594751 70.711107 
L 65.405926 68.206637 
L 62.318532 65.548025 
L 59.342629 62.737969 
L 56.488171 59.779581 
L 53.764985 56.676386 
L 51.182741 53.432318 
L 48.750933 50.051713 
L 46.478851 46.539308 
L 44.375559 42.900229 
L 42.449873 39.13999 
L 40.710332 35.264478 
L 39.165181 31.279949 
L 37.822349 27.193015 
L 36.689422 23.010636 
L 35.773625 18.740102 
L 35.081802 14.38903 
L 34.620396 9.96534 
L 34.395426 5.477249 
L 34.412476 0.933251 
L 34.49765 -1 
L 34.49765 -1 
" clip-path="url(#p812c05438d)" style="fill: none; stroke: #000000; stroke-linecap: square"/>
   </g>
   <g id="patch_89">
    <path d="M 0 106.299213 
L 0 0 
" style="fill: none"/>
   </g>
   <g id="patch_90">
    <path d="M 170.07874 106.299213 
L 170.07874 0 
" style="fill: none"/>
   </g>
   <g id="patch_91">
    <path d="M 0 106.299213 
L 170.07874 106.299213 
" style="fill: none"/>
   </g>
   <g id="patch_92">
    <path d="M 0 0 
L 170.07874 0 
" style="fill: none"/>
   </g>
   <g id="text_1">
    <!-- $F_{Lorentz}$ -->
    <g transform="translate(100.625964 69.646433)scale(0.1 -0.1)">
     <defs>
      <path id="DejaVuSans-Oblique-46" d="M 1081 4666 
L 3756 4666 
L 3653 4134 
L 1606 4134 
L 1338 2759 
L 3188 2759 
L 3084 2228 
L 1234 2228 
L 800 0 
L 172 0 
L 1081 4666 
z
" transform="scale(0.015625)"/>
      <path id="DejaVuSans-Oblique-4c" d="M 1075 4666 
L 1709 4666 
L 909 525 
L 3181 525 
L 3078 0 
L 172 0 
L 1075 4666 
z
" transform="scale(0.015625)"/>
      <path id="DejaVuSans-Oblique-6f" d="M 1625 -91 
Q 1009 -91 651 289 
Q 294 669 294 1325 
Q 294 1706 417 2101 
Q 541 2497 738 2766 
Q 1047 3184 1428 3384 
Q 1809 3584 2291 3584 
Q 2888 3584 3255 3212 
Q 3622 2841 3622 2241 
Q 3622 1825 3500 1412 
Q 3378 1000 3181 728 
Q 2875 309 2494 109 
Q 2113 -91 1625 -91 
z
M 891 1344 
Q 891 869 1089 633 
Q 1288 397 1691 397 
Q 2269 397 2648 901 
Q 3028 1406 3028 2181 
Q 3028 2634 2825 2865 
Q 2622 3097 2228 3097 
Q 1903 3097 1650 2945 
Q 1397 2794 1197 2484 
Q 1050 2253 970 1956 
Q 891 1659 891 1344 
z
" transform="scale(0.015625)"/>
      <path id="DejaVuSans-Oblique-72" d="M 2853 2969 
Q 2766 3016 2653 3041 
Q 2541 3066 2413 3066 
Q 1953 3066 1609 2717 
Q 1266 2369 1153 1784 
L 800 0 
L 225 0 
L 909 3500 
L 1484 3500 
L 1375 2956 
Q 1603 3259 1920 3421 
Q 2238 3584 2597 3584 
Q 2691 3584 2781 3573 
Q 2872 3563 2963 3538 
L 2853 2969 
z
" transform="scale(0.015625)"/>
      <path id="DejaVuSans-Oblique-65" d="M 3078 2063 
Q 3088 2113 3092 2166 
Q 3097 2219 3097 2272 
Q 3097 2653 2873 2875 
Q 2650 3097 2266 3097 
Q 1838 3097 1509 2826 
Q 1181 2556 1013 2059 
L 3078 2063 
z
M 3578 1613 
L 903 1613 
Q 884 1494 878 1425 
Q 872 1356 872 1306 
Q 872 872 1139 634 
Q 1406 397 1894 397 
Q 2269 397 2603 481 
Q 2938 566 3225 728 
L 3116 159 
Q 2806 34 2476 -28 
Q 2147 -91 1806 -91 
Q 1078 -91 686 257 
Q 294 606 294 1247 
Q 294 1794 489 2264 
Q 684 2734 1063 3103 
Q 1306 3334 1642 3459 
Q 1978 3584 2356 3584 
Q 2950 3584 3301 3228 
Q 3653 2872 3653 2272 
Q 3653 2128 3634 1964 
Q 3616 1800 3578 1613 
z
" transform="scale(0.015625)"/>
      <path id="DejaVuSans-Oblique-6e" d="M 3566 2113 
L 3156 0 
L 2578 0 
L 2988 2091 
Q 3016 2238 3031 2350 
Q 3047 2463 3047 2528 
Q 3047 2791 2881 2937 
Q 2716 3084 2419 3084 
Q 1956 3084 1622 2776 
Q 1288 2469 1184 1941 
L 800 0 
L 225 0 
L 903 3500 
L 1478 3500 
L 1363 2950 
Q 1603 3253 1940 3418 
Q 2278 3584 2650 3584 
Q 3113 3584 3367 3334 
Q 3622 3084 3622 2631 
Q 3622 2519 3608 2391 
Q 3594 2263 3566 2113 
z
" transform="scale(0.015625)"/>
      <path id="DejaVuSans-Oblique-74" d="M 2706 3500 
L 2619 3053 
L 1472 3053 
L 1100 1153 
Q 1081 1047 1072 975 
Q 1063 903 1063 863 
Q 1063 663 1183 572 
Q 1303 481 1569 481 
L 2150 481 
L 2053 0 
L 1503 0 
Q 991 0 739 200 
Q 488 400 488 806 
Q 488 878 497 964 
Q 506 1050 525 1153 
L 897 3053 
L 409 3053 
L 500 3500 
L 978 3500 
L 1172 4494 
L 1747 4494 
L 1556 3500 
L 2706 3500 
z
" transform="scale(0.015625)"/>
      <path id="DejaVuSans-Oblique-7a" d="M 744 3500 
L 3475 3500 
L 3372 2975 
L 738 459 
L 2913 459 
L 2822 0 
L -19 0 
L 84 525 
L 2719 3041 
L 653 3041 
L 744 3500 
z
" transform="scale(0.015625)"/>
     </defs>
     <use xlink:href="#DejaVuSans-Oblique-46" transform="translate(0 0.09375)"/>
     <use xlink:href="#DejaVuSans-Oblique-4c" transform="translate(57.519531 -16.3125)scale(0.7)"/>
     <use xlink:href="#DejaVuSans-Oblique-6f" transform="translate(96.518555 -16.3125)scale(0.7)"/>
     <use xlink:href="#DejaVuSans-Oblique-72" transform="translate(139.345703 -16.3125)scale(0.7)"/>
     <use xlink:href="#DejaVuSans-Oblique-65" transform="translate(168.125 -16.3125)scale(0.7)"/>
     <use xlink:href="#DejaVuSans-Oblique-6e" transform="translate(211.191406 -16.3125)scale(0.7)"/>
     <use xlink:href="#DejaVuSans-Oblique-74" transform="translate(255.556641 -16.3125)scale(0.7)"/>
     <use xlink:href="#DejaVuSans-Oblique-7a" transform="translate(283.00293 -16.3125)scale(0.7)"/>
    </g>
   </g>
   <g id="text_2">
    <!-- $F_{Lorentz}$ -->
    <g transform="translate(63.624001 53.432318)scale(0.1 -0.1)">
     <use xlink:href="#DejaVuSans-Oblique-46" transform="translate(0 0.09375)"/>
     <use xlink:href="#DejaVuSans-Oblique-4c" transform="translate(57.519531 -16.3125)scale(0.7)"/>
     <use xlink:href="#DejaVuSans-Oblique-6f" transform="translate(96.518555 -16.3125)scale(0.7)"/>
     <use xlink:href="#DejaVuSans-Oblique-72" transform="translate(139.345703 -16.3125)scale(0.7)"/>
     <use xlink:href="#DejaVuSans-Oblique-65" transform="translate(168.125 -16.3125)scale(0.7)"/>
     <use xlink:href="#DejaVuSans-Oblique-6e" transform="translate(211.191406 -16.3125)scale(0.7)"/>
     <use xlink:href="#DejaVuSans-Oblique-74" transform="translate(255.556641 -16.3125)scale(0.7)"/>
     <use xlink:href="#DejaVuSans-Oblique-7a" transform="translate(283.00293 -16.3125)scale(0.7)"/>
    </g>
   </g>
   <g id="text_3">
    <!-- r -->
    <g style="fill: #ff0000" transform="translate(73.859906 25.085861)scale(0.1 -0.1)">
     <defs>
      <path id="DejaVuSans-72" d="M 2631 2963 
Q 2534 3019 2420 3045 
Q 2306 3072 2169 3072 
Q 1681 3072 1420 2755 
Q 1159 2438 1159 1844 
L 1159 0 
L 581 0 
L 581 3500 
L 1159 3500 
L 1159 2956 
Q 1341 3275 1631 3429 
Q 1922 3584 2338 3584 
Q 2397 3584 2469 3576 
Q 2541 3569 2628 3553 
L 2631 2963 
z
" transform="scale(0.015625)"/>
     </defs>
     <use xlink:href="#DejaVuSans-72"/>
    </g>
   </g>
   <g id="text_4">
    <!-- $\nu_0$ -->
    <g style="fill: #a52a2a" transform="translate(43.933051 75.315725)scale(0.1 -0.1)">
     <defs>
      <path id="DejaVuSans-Oblique-3bd" d="M 959 0 
L 572 3500 
L 1191 3500 
L 1522 563 
Q 1972 950 2391 1488 
Q 2706 1891 2788 2241 
Q 2825 2406 2809 2719 
Q 2794 3091 2544 3500 
L 3125 3500 
L 3125 3500 
Q 3288 3222 3353 2834 
Q 3416 2478 3369 2234 
Q 3250 1622 2719 1075 
Q 2025 363 1572 0 
L 959 0 
z
" transform="scale(0.015625)"/>
      <path id="DejaVuSans-30" d="M 2034 4250 
Q 1547 4250 1301 3770 
Q 1056 3291 1056 2328 
Q 1056 1369 1301 889 
Q 1547 409 2034 409 
Q 2525 409 2770 889 
Q 3016 1369 3016 2328 
Q 3016 3291 2770 3770 
Q 2525 4250 2034 4250 
z
M 2034 4750 
Q 2819 4750 3233 4129 
Q 3647 3509 3647 2328 
Q 3647 1150 3233 529 
Q 2819 -91 2034 -91 
Q 1250 -91 836 529 
Q 422 1150 422 2328 
Q 422 3509 836 4129 
Q 1250 4750 2034 4750 
z
" transform="scale(0.015625)"/>
     </defs>
     <use xlink:href="#DejaVuSans-Oblique-3bd" transform="translate(0 0.3125)"/>
     <use xlink:href="#DejaVuSans-30" transform="translate(55.859375 -16.09375)scale(0.7)"/>
    </g>
   </g>
   <g id="text_5">
    <!-- $\nu_0$ -->
    <g style="fill: #a52a2a" transform="translate(12.915025 22.251215)scale(0.1 -0.1)">
     <use xlink:href="#DejaVuSans-Oblique-3bd" transform="translate(0 0.3125)"/>
     <use xlink:href="#DejaVuSans-30" transform="translate(55.859375 -16.09375)scale(0.7)"/>
    </g>
   </g>
   <g id="text_6">
    <!-- $\bigtriangleup\nu_0 = 0$ -->
    <g style="fill: #927263" transform="translate(107.716535 28.346457)scale(0.1 -0.1)">
     <defs>
      <path id="DejaVuSans-25b3" d="M 553 -431 
L 4369 -431 
L 2459 3400 
L 553 -431 
z
M 19 -788 
L 2459 4113 
L 4903 -788 
L 19 -788 
z
" transform="scale(0.015625)"/>
      <path id="DejaVuSans-3d" d="M 678 2906 
L 4684 2906 
L 4684 2381 
L 678 2381 
L 678 2906 
z
M 678 1631 
L 4684 1631 
L 4684 1100 
L 678 1100 
L 678 1631 
z
" transform="scale(0.015625)"/>
     </defs>
     <use xlink:href="#DejaVuSans-25b3" transform="translate(0 0.78125)"/>
     <use xlink:href="#DejaVuSans-Oblique-3bd" transform="translate(76.904297 0.78125)"/>
     <use xlink:href="#DejaVuSans-30" transform="translate(132.763672 -15.625)scale(0.7)"/>
     <use xlink:href="#DejaVuSans-3d" transform="translate(199.516602 0.78125)"/>
     <use xlink:href="#DejaVuSans-30" transform="translate(302.788086 0.78125)"/>
    </g>
   </g>
   <g id="text_7">
    <!-- $\bigtriangleup\nu_0 &gt; 0$ -->
    <g style="fill: #808080" transform="translate(107.716535 53.858268)scale(0.1 -0.1)">
     <defs>
      <path id="DejaVuSans-3e" d="M 678 3150 
L 678 3719 
L 4684 2266 
L 4684 1747 
L 678 294 
L 678 863 
L 3897 2003 
L 678 3150 
z
" transform="scale(0.015625)"/>
     </defs>
     <use xlink:href="#DejaVuSans-25b3" transform="translate(0 0.78125)"/>
     <use xlink:href="#DejaVuSans-Oblique-3bd" transform="translate(76.904297 0.78125)"/>
     <use xlink:href="#DejaVuSans-30" transform="translate(132.763672 -15.625)scale(0.7)"/>
     <use xlink:href="#DejaVuSans-3e" transform="translate(199.516602 0.78125)"/>
     <use xlink:href="#DejaVuSans-30" transform="translate(302.788086 0.78125)"/>
    </g>
   </g>
   <g id="text_8">
    <!-- $\bigtriangleup\nu_0 = 0$ -->
    <g style="fill: #9f7b60" transform="translate(107.716535 79.370079)scale(0.1 -0.1)">
     <use xlink:href="#DejaVuSans-25b3" transform="translate(0 0.78125)"/>
     <use xlink:href="#DejaVuSans-Oblique-3bd" transform="translate(76.904297 0.78125)"/>
     <use xlink:href="#DejaVuSans-30" transform="translate(132.763672 -15.625)scale(0.7)"/>
     <use xlink:href="#DejaVuSans-3d" transform="translate(199.516602 0.78125)"/>
     <use xlink:href="#DejaVuSans-30" transform="translate(302.788086 0.78125)"/>
    </g>
   </g>
   <g id="legend_1">
    <g id="line2d_6">
     <path d="M 4.05 79.922884 
L 8.55 79.922884 
L 13.05 79.922884 
" style="fill: none; stroke: #000000; stroke-linecap: square"/>
    </g>
    <g id="text_9">
     <!-- Laufbahn -->
     <g transform="translate(16.65 81.497884)scale(0.045 -0.045)">
      <defs>
       <path id="DejaVuSans-4c" d="M 628 4666 
L 1259 4666 
L 1259 531 
L 3531 531 
L 3531 0 
L 628 0 
L 628 4666 
z
" transform="scale(0.015625)"/>
       <path id="DejaVuSans-61" d="M 2194 1759 
Q 1497 1759 1228 1600 
Q 959 1441 959 1056 
Q 959 750 1161 570 
Q 1363 391 1709 391 
Q 2188 391 2477 730 
Q 2766 1069 2766 1631 
L 2766 1759 
L 2194 1759 
z
M 3341 1997 
L 3341 0 
L 2766 0 
L 2766 531 
Q 2569 213 2275 61 
Q 1981 -91 1556 -91 
Q 1019 -91 701 211 
Q 384 513 384 1019 
Q 384 1609 779 1909 
Q 1175 2209 1959 2209 
L 2766 2209 
L 2766 2266 
Q 2766 2663 2505 2880 
Q 2244 3097 1772 3097 
Q 1472 3097 1187 3025 
Q 903 2953 641 2809 
L 641 3341 
Q 956 3463 1253 3523 
Q 1550 3584 1831 3584 
Q 2591 3584 2966 3190 
Q 3341 2797 3341 1997 
z
" transform="scale(0.015625)"/>
       <path id="DejaVuSans-75" d="M 544 1381 
L 544 3500 
L 1119 3500 
L 1119 1403 
Q 1119 906 1312 657 
Q 1506 409 1894 409 
Q 2359 409 2629 706 
Q 2900 1003 2900 1516 
L 2900 3500 
L 3475 3500 
L 3475 0 
L 2900 0 
L 2900 538 
Q 2691 219 2414 64 
Q 2138 -91 1772 -91 
Q 1169 -91 856 284 
Q 544 659 544 1381 
z
M 1991 3584 
L 1991 3584 
z
" transform="scale(0.015625)"/>
       <path id="DejaVuSans-66" d="M 2375 4863 
L 2375 4384 
L 1825 4384 
Q 1516 4384 1395 4259 
Q 1275 4134 1275 3809 
L 1275 3500 
L 2222 3500 
L 2222 3053 
L 1275 3053 
L 1275 0 
L 697 0 
L 697 3053 
L 147 3053 
L 147 3500 
L 697 3500 
L 697 3744 
Q 697 4328 969 4595 
Q 1241 4863 1831 4863 
L 2375 4863 
z
" transform="scale(0.015625)"/>
       <path id="DejaVuSans-62" d="M 3116 1747 
Q 3116 2381 2855 2742 
Q 2594 3103 2138 3103 
Q 1681 3103 1420 2742 
Q 1159 2381 1159 1747 
Q 1159 1113 1420 752 
Q 1681 391 2138 391 
Q 2594 391 2855 752 
Q 3116 1113 3116 1747 
z
M 1159 2969 
Q 1341 3281 1617 3432 
Q 1894 3584 2278 3584 
Q 2916 3584 3314 3078 
Q 3713 2572 3713 1747 
Q 3713 922 3314 415 
Q 2916 -91 2278 -91 
Q 1894 -91 1617 61 
Q 1341 213 1159 525 
L 1159 0 
L 581 0 
L 581 4863 
L 1159 4863 
L 1159 2969 
z
" transform="scale(0.015625)"/>
       <path id="DejaVuSans-68" d="M 3513 2113 
L 3513 0 
L 2938 0 
L 2938 2094 
Q 2938 2591 2744 2837 
Q 2550 3084 2163 3084 
Q 1697 3084 1428 2787 
Q 1159 2491 1159 1978 
L 1159 0 
L 581 0 
L 581 4863 
L 1159 4863 
L 1159 2956 
Q 1366 3272 1645 3428 
Q 1925 3584 2291 3584 
Q 2894 3584 3203 3211 
Q 3513 2838 3513 2113 
z
" transform="scale(0.015625)"/>
       <path id="DejaVuSans-6e" d="M 3513 2113 
L 3513 0 
L 2938 0 
L 2938 2094 
Q 2938 2591 2744 2837 
Q 2550 3084 2163 3084 
Q 1697 3084 1428 2787 
Q 1159 2491 1159 1978 
L 1159 0 
L 581 0 
L 581 3500 
L 1159 3500 
L 1159 2956 
Q 1366 3272 1645 3428 
Q 1925 3584 2291 3584 
Q 2894 3584 3203 3211 
Q 3513 2838 3513 2113 
z
" transform="scale(0.015625)"/>
      </defs>
      <use xlink:href="#DejaVuSans-4c"/>
      <use xlink:href="#DejaVuSans-61" x="55.712891"/>
      <use xlink:href="#DejaVuSans-75" x="116.992188"/>
      <use xlink:href="#DejaVuSans-66" x="180.371094"/>
      <use xlink:href="#DejaVuSans-62" x="215.576172"/>
      <use xlink:href="#DejaVuSans-61" x="279.052734"/>
      <use xlink:href="#DejaVuSans-68" x="340.332031"/>
      <use xlink:href="#DejaVuSans-6e" x="403.710938"/>
     </g>
    </g>
    <g id="line2d_7">
     <defs>
      <path id="mc2cb2491bc" d="M 0 1.5 
C 0.397805 1.5 0.77937 1.341951 1.06066 1.06066 
C 1.341951 0.77937 1.5 0.397805 1.5 0 
C 1.5 -0.397805 1.341951 -0.77937 1.06066 -1.06066 
C 0.77937 -1.341951 0.397805 -1.5 0 -1.5 
C -0.397805 -1.5 -0.77937 -1.341951 -1.06066 -1.06066 
C -1.341951 -0.77937 -1.5 -0.397805 -1.5 0 
C -1.5 0.397805 -1.341951 0.77937 -1.06066 1.06066 
C -0.77937 1.341951 -0.397805 1.5 0 1.5 
z
" style="stroke: #0000ff"/>
     </defs>
     <g>
      <use xlink:href="#mc2cb2491bc" x="8.55" y="86.528041" style="fill: #0000ff; stroke: #0000ff"/>
     </g>
    </g>
    <g id="text_10">
     <!-- Protonen -->
     <g transform="translate(16.65 88.103041)scale(0.045 -0.045)">
      <defs>
       <path id="DejaVuSans-50" d="M 1259 4147 
L 1259 2394 
L 2053 2394 
Q 2494 2394 2734 2622 
Q 2975 2850 2975 3272 
Q 2975 3691 2734 3919 
Q 2494 4147 2053 4147 
L 1259 4147 
z
M 628 4666 
L 2053 4666 
Q 2838 4666 3239 4311 
Q 3641 3956 3641 3272 
Q 3641 2581 3239 2228 
Q 2838 1875 2053 1875 
L 1259 1875 
L 1259 0 
L 628 0 
L 628 4666 
z
" transform="scale(0.015625)"/>
       <path id="DejaVuSans-6f" d="M 1959 3097 
Q 1497 3097 1228 2736 
Q 959 2375 959 1747 
Q 959 1119 1226 758 
Q 1494 397 1959 397 
Q 2419 397 2687 759 
Q 2956 1122 2956 1747 
Q 2956 2369 2687 2733 
Q 2419 3097 1959 3097 
z
M 1959 3584 
Q 2709 3584 3137 3096 
Q 3566 2609 3566 1747 
Q 3566 888 3137 398 
Q 2709 -91 1959 -91 
Q 1206 -91 779 398 
Q 353 888 353 1747 
Q 353 2609 779 3096 
Q 1206 3584 1959 3584 
z
" transform="scale(0.015625)"/>
       <path id="DejaVuSans-74" d="M 1172 4494 
L 1172 3500 
L 2356 3500 
L 2356 3053 
L 1172 3053 
L 1172 1153 
Q 1172 725 1289 603 
Q 1406 481 1766 481 
L 2356 481 
L 2356 0 
L 1766 0 
Q 1100 0 847 248 
Q 594 497 594 1153 
L 594 3053 
L 172 3053 
L 172 3500 
L 594 3500 
L 594 4494 
L 1172 4494 
z
" transform="scale(0.015625)"/>
       <path id="DejaVuSans-65" d="M 3597 1894 
L 3597 1613 
L 953 1613 
Q 991 1019 1311 708 
Q 1631 397 2203 397 
Q 2534 397 2845 478 
Q 3156 559 3463 722 
L 3463 178 
Q 3153 47 2828 -22 
Q 2503 -91 2169 -91 
Q 1331 -91 842 396 
Q 353 884 353 1716 
Q 353 2575 817 3079 
Q 1281 3584 2069 3584 
Q 2775 3584 3186 3129 
Q 3597 2675 3597 1894 
z
M 3022 2063 
Q 3016 2534 2758 2815 
Q 2500 3097 2075 3097 
Q 1594 3097 1305 2825 
Q 1016 2553 972 2059 
L 3022 2063 
z
" transform="scale(0.015625)"/>
      </defs>
      <use xlink:href="#DejaVuSans-50"/>
      <use xlink:href="#DejaVuSans-72" x="58.552734"/>
      <use xlink:href="#DejaVuSans-6f" x="97.416016"/>
      <use xlink:href="#DejaVuSans-74" x="158.597656"/>
      <use xlink:href="#DejaVuSans-6f" x="197.806641"/>
      <use xlink:href="#DejaVuSans-6e" x="258.988281"/>
      <use xlink:href="#DejaVuSans-65" x="322.367188"/>
      <use xlink:href="#DejaVuSans-6e" x="383.890625"/>
     </g>
    </g>
    <g id="patch_93">
     <path d="M 4.05 94.708197 
L 13.05 94.708197 
L 13.05 91.558197 
L 4.05 91.558197 
z
" style="fill: #c6a89f; stroke: #c6a89f; stroke-linejoin: miter"/>
    </g>
    <g id="text_11">
     <!-- Dee 1 -->
     <g transform="translate(16.65 94.708197)scale(0.045 -0.045)">
      <defs>
       <path id="DejaVuSans-44" d="M 1259 4147 
L 1259 519 
L 2022 519 
Q 2988 519 3436 956 
Q 3884 1394 3884 2338 
Q 3884 3275 3436 3711 
Q 2988 4147 2022 4147 
L 1259 4147 
z
M 628 4666 
L 1925 4666 
Q 3281 4666 3915 4102 
Q 4550 3538 4550 2338 
Q 4550 1131 3912 565 
Q 3275 0 1925 0 
L 628 0 
L 628 4666 
z
" transform="scale(0.015625)"/>
       <path id="DejaVuSans-20" transform="scale(0.015625)"/>
       <path id="DejaVuSans-31" d="M 794 531 
L 1825 531 
L 1825 4091 
L 703 3866 
L 703 4441 
L 1819 4666 
L 2450 4666 
L 2450 531 
L 3481 531 
L 3481 0 
L 794 0 
L 794 531 
z
" transform="scale(0.015625)"/>
      </defs>
      <use xlink:href="#DejaVuSans-44"/>
      <use xlink:href="#DejaVuSans-65" x="77.001953"/>
      <use xlink:href="#DejaVuSans-65" x="138.525391"/>
      <use xlink:href="#DejaVuSans-20" x="200.048828"/>
      <use xlink:href="#DejaVuSans-31" x="231.835938"/>
     </g>
    </g>
    <g id="patch_94">
     <path d="M 4.05 101.313353 
L 13.05 101.313353 
L 13.05 98.163353 
L 4.05 98.163353 
z
" style="fill: #bdae9e; stroke: #bdae9e; stroke-linejoin: miter"/>
    </g>
    <g id="text_12">
     <!-- Dee 2 -->
     <g transform="translate(16.65 101.313353)scale(0.045 -0.045)">
      <defs>
       <path id="DejaVuSans-32" d="M 1228 531 
L 3431 531 
L 3431 0 
L 469 0 
L 469 531 
Q 828 903 1448 1529 
Q 2069 2156 2228 2338 
Q 2531 2678 2651 2914 
Q 2772 3150 2772 3378 
Q 2772 3750 2511 3984 
Q 2250 4219 1831 4219 
Q 1534 4219 1204 4116 
Q 875 4013 500 3803 
L 500 4441 
Q 881 4594 1212 4672 
Q 1544 4750 1819 4750 
Q 2544 4750 2975 4387 
Q 3406 4025 3406 3419 
Q 3406 3131 3298 2873 
Q 3191 2616 2906 2266 
Q 2828 2175 2409 1742 
Q 1991 1309 1228 531 
z
" transform="scale(0.015625)"/>
      </defs>
      <use xlink:href="#DejaVuSans-44"/>
      <use xlink:href="#DejaVuSans-65" x="77.001953"/>
      <use xlink:href="#DejaVuSans-65" x="138.525391"/>
      <use xlink:href="#DejaVuSans-20" x="200.048828"/>
      <use xlink:href="#DejaVuSans-32" x="231.835938"/>
     </g>
    </g>
    <g id="patch_95">
     <path d="M 42.169219 81.497884 
L 51.169219 81.497884 
L 51.169219 78.347884 
L 42.169219 78.347884 
z
" style="fill: #ff0000; stroke: #ff0000; stroke-linejoin: miter"/>
    </g>
    <g id="text_13">
     <!-- Radius -->
     <g transform="translate(54.769219 81.497884)scale(0.045 -0.045)">
      <defs>
       <path id="DejaVuSans-52" d="M 2841 2188 
Q 3044 2119 3236 1894 
Q 3428 1669 3622 1275 
L 4263 0 
L 3584 0 
L 2988 1197 
Q 2756 1666 2539 1819 
Q 2322 1972 1947 1972 
L 1259 1972 
L 1259 0 
L 628 0 
L 628 4666 
L 2053 4666 
Q 2853 4666 3247 4331 
Q 3641 3997 3641 3322 
Q 3641 2881 3436 2590 
Q 3231 2300 2841 2188 
z
M 1259 4147 
L 1259 2491 
L 2053 2491 
Q 2509 2491 2742 2702 
Q 2975 2913 2975 3322 
Q 2975 3731 2742 3939 
Q 2509 4147 2053 4147 
L 1259 4147 
z
" transform="scale(0.015625)"/>
       <path id="DejaVuSans-64" d="M 2906 2969 
L 2906 4863 
L 3481 4863 
L 3481 0 
L 2906 0 
L 2906 525 
Q 2725 213 2448 61 
Q 2172 -91 1784 -91 
Q 1150 -91 751 415 
Q 353 922 353 1747 
Q 353 2572 751 3078 
Q 1150 3584 1784 3584 
Q 2172 3584 2448 3432 
Q 2725 3281 2906 2969 
z
M 947 1747 
Q 947 1113 1208 752 
Q 1469 391 1925 391 
Q 2381 391 2643 752 
Q 2906 1113 2906 1747 
Q 2906 2381 2643 2742 
Q 2381 3103 1925 3103 
Q 1469 3103 1208 2742 
Q 947 2381 947 1747 
z
" transform="scale(0.015625)"/>
       <path id="DejaVuSans-69" d="M 603 3500 
L 1178 3500 
L 1178 0 
L 603 0 
L 603 3500 
z
M 603 4863 
L 1178 4863 
L 1178 4134 
L 603 4134 
L 603 4863 
z
" transform="scale(0.015625)"/>
       <path id="DejaVuSans-73" d="M 2834 3397 
L 2834 2853 
Q 2591 2978 2328 3040 
Q 2066 3103 1784 3103 
Q 1356 3103 1142 2972 
Q 928 2841 928 2578 
Q 928 2378 1081 2264 
Q 1234 2150 1697 2047 
L 1894 2003 
Q 2506 1872 2764 1633 
Q 3022 1394 3022 966 
Q 3022 478 2636 193 
Q 2250 -91 1575 -91 
Q 1294 -91 989 -36 
Q 684 19 347 128 
L 347 722 
Q 666 556 975 473 
Q 1284 391 1588 391 
Q 1994 391 2212 530 
Q 2431 669 2431 922 
Q 2431 1156 2273 1281 
Q 2116 1406 1581 1522 
L 1381 1569 
Q 847 1681 609 1914 
Q 372 2147 372 2553 
Q 372 3047 722 3315 
Q 1072 3584 1716 3584 
Q 2034 3584 2315 3537 
Q 2597 3491 2834 3397 
z
" transform="scale(0.015625)"/>
      </defs>
      <use xlink:href="#DejaVuSans-52"/>
      <use xlink:href="#DejaVuSans-61" x="67.232422"/>
      <use xlink:href="#DejaVuSans-64" x="128.511719"/>
      <use xlink:href="#DejaVuSans-69" x="191.988281"/>
      <use xlink:href="#DejaVuSans-75" x="219.771484"/>
      <use xlink:href="#DejaVuSans-73" x="283.150391"/>
     </g>
    </g>
    <g id="patch_96">
     <path d="M 42.169219 88.103041 
L 51.169219 88.103041 
L 51.169219 84.953041 
L 42.169219 84.953041 
z
" style="stroke: #000000; stroke-linejoin: miter"/>
    </g>
    <g id="text_14">
     <!-- Lorentz-Kraft -->
     <g transform="translate(54.769219 88.103041)scale(0.045 -0.045)">
      <defs>
       <path id="DejaVuSans-7a" d="M 353 3500 
L 3084 3500 
L 3084 2975 
L 922 459 
L 3084 459 
L 3084 0 
L 275 0 
L 275 525 
L 2438 3041 
L 353 3041 
L 353 3500 
z
" transform="scale(0.015625)"/>
       <path id="DejaVuSans-2d" d="M 313 2009 
L 1997 2009 
L 1997 1497 
L 313 1497 
L 313 2009 
z
" transform="scale(0.015625)"/>
       <path id="DejaVuSans-4b" d="M 628 4666 
L 1259 4666 
L 1259 2694 
L 3353 4666 
L 4166 4666 
L 1850 2491 
L 4331 0 
L 3500 0 
L 1259 2247 
L 1259 0 
L 628 0 
L 628 4666 
z
" transform="scale(0.015625)"/>
      </defs>
      <use xlink:href="#DejaVuSans-4c"/>
      <use xlink:href="#DejaVuSans-6f" x="53.962891"/>
      <use xlink:href="#DejaVuSans-72" x="115.144531"/>
      <use xlink:href="#DejaVuSans-65" x="154.007812"/>
      <use xlink:href="#DejaVuSans-6e" x="215.53125"/>
      <use xlink:href="#DejaVuSans-74" x="278.910156"/>
      <use xlink:href="#DejaVuSans-7a" x="318.119141"/>
      <use xlink:href="#DejaVuSans-2d" x="370.609375"/>
      <use xlink:href="#DejaVuSans-4b" x="406.693359"/>
      <use xlink:href="#DejaVuSans-72" x="472.269531"/>
      <use xlink:href="#DejaVuSans-61" x="513.382812"/>
      <use xlink:href="#DejaVuSans-66" x="574.662109"/>
      <use xlink:href="#DejaVuSans-74" x="608.117188"/>
     </g>
    </g>
    <g id="patch_97">
     <path d="M 42.169219 94.708197 
L 51.169219 94.708197 
L 51.169219 91.558197 
L 42.169219 91.558197 
z
" style="fill: #a52a2a; stroke: #a52a2a; stroke-linejoin: miter"/>
    </g>
    <g id="text_15">
     <!-- Elektrische Kraft -->
     <g transform="translate(54.769219 94.708197)scale(0.045 -0.045)">
      <defs>
       <path id="DejaVuSans-45" d="M 628 4666 
L 3578 4666 
L 3578 4134 
L 1259 4134 
L 1259 2753 
L 3481 2753 
L 3481 2222 
L 1259 2222 
L 1259 531 
L 3634 531 
L 3634 0 
L 628 0 
L 628 4666 
z
" transform="scale(0.015625)"/>
       <path id="DejaVuSans-6c" d="M 603 4863 
L 1178 4863 
L 1178 0 
L 603 0 
L 603 4863 
z
" transform="scale(0.015625)"/>
       <path id="DejaVuSans-6b" d="M 581 4863 
L 1159 4863 
L 1159 1991 
L 2875 3500 
L 3609 3500 
L 1753 1863 
L 3688 0 
L 2938 0 
L 1159 1709 
L 1159 0 
L 581 0 
L 581 4863 
z
" transform="scale(0.015625)"/>
       <path id="DejaVuSans-63" d="M 3122 3366 
L 3122 2828 
Q 2878 2963 2633 3030 
Q 2388 3097 2138 3097 
Q 1578 3097 1268 2742 
Q 959 2388 959 1747 
Q 959 1106 1268 751 
Q 1578 397 2138 397 
Q 2388 397 2633 464 
Q 2878 531 3122 666 
L 3122 134 
Q 2881 22 2623 -34 
Q 2366 -91 2075 -91 
Q 1284 -91 818 406 
Q 353 903 353 1747 
Q 353 2603 823 3093 
Q 1294 3584 2113 3584 
Q 2378 3584 2631 3529 
Q 2884 3475 3122 3366 
z
" transform="scale(0.015625)"/>
      </defs>
      <use xlink:href="#DejaVuSans-45"/>
      <use xlink:href="#DejaVuSans-6c" x="63.183594"/>
      <use xlink:href="#DejaVuSans-65" x="90.966797"/>
      <use xlink:href="#DejaVuSans-6b" x="152.490234"/>
      <use xlink:href="#DejaVuSans-74" x="210.400391"/>
      <use xlink:href="#DejaVuSans-72" x="249.609375"/>
      <use xlink:href="#DejaVuSans-69" x="290.722656"/>
      <use xlink:href="#DejaVuSans-73" x="318.505859"/>
      <use xlink:href="#DejaVuSans-63" x="370.605469"/>
      <use xlink:href="#DejaVuSans-68" x="425.585938"/>
      <use xlink:href="#DejaVuSans-65" x="488.964844"/>
      <use xlink:href="#DejaVuSans-20" x="550.488281"/>
      <use xlink:href="#DejaVuSans-4b" x="582.275391"/>
      <use xlink:href="#DejaVuSans-72" x="647.851562"/>
      <use xlink:href="#DejaVuSans-61" x="688.964844"/>
      <use xlink:href="#DejaVuSans-66" x="750.244141"/>
      <use xlink:href="#DejaVuSans-74" x="783.699219"/>
     </g>
    </g>
    <g id="patch_98">
     <path d="M 42.169219 101.313353 
L 51.169219 101.313353 
L 51.169219 98.163353 
L 42.169219 98.163353 
z
" style="fill: #808080; stroke: #808080; stroke-linejoin: miter"/>
    </g>
    <g id="text_16">
     <!-- Protonen-Quelle -->
     <g transform="translate(54.769219 101.313353)scale(0.045 -0.045)">
      <defs>
       <path id="DejaVuSans-51" d="M 2522 4238 
Q 1834 4238 1429 3725 
Q 1025 3213 1025 2328 
Q 1025 1447 1429 934 
Q 1834 422 2522 422 
Q 3209 422 3611 934 
Q 4013 1447 4013 2328 
Q 4013 3213 3611 3725 
Q 3209 4238 2522 4238 
z
M 3406 84 
L 4238 -825 
L 3475 -825 
L 2784 -78 
Q 2681 -84 2626 -87 
Q 2572 -91 2522 -91 
Q 1538 -91 948 567 
Q 359 1225 359 2328 
Q 359 3434 948 4092 
Q 1538 4750 2522 4750 
Q 3503 4750 4090 4092 
Q 4678 3434 4678 2328 
Q 4678 1516 4351 937 
Q 4025 359 3406 84 
z
" transform="scale(0.015625)"/>
      </defs>
      <use xlink:href="#DejaVuSans-50"/>
      <use xlink:href="#DejaVuSans-72" x="58.552734"/>
      <use xlink:href="#DejaVuSans-6f" x="97.416016"/>
      <use xlink:href="#DejaVuSans-74" x="158.597656"/>
      <use xlink:href="#DejaVuSans-6f" x="197.806641"/>
      <use xlink:href="#DejaVuSans-6e" x="258.988281"/>
      <use xlink:href="#DejaVuSans-65" x="322.367188"/>
      <use xlink:href="#DejaVuSans-6e" x="383.890625"/>
      <use xlink:href="#DejaVuSans-2d" x="447.269531"/>
      <use xlink:href="#DejaVuSans-51" x="486.978516"/>
      <use xlink:href="#DejaVuSans-75" x="565.689453"/>
      <use xlink:href="#DejaVuSans-65" x="629.068359"/>
      <use xlink:href="#DejaVuSans-6c" x="690.591797"/>
      <use xlink:href="#DejaVuSans-6c" x="718.375"/>
      <use xlink:href="#DejaVuSans-65" x="746.158203"/>
     </g>
    </g>
   </g>
  </g>
 </g>
 <defs>
  <clipPath id="p812c05438d">
   <rect x="0" y="0" width="170.07874" height="106.299213"/>
  </clipPath>
 </defs>
</svg>
