<?xml version="1.0" encoding="utf-8" standalone="no"?>
<!DOCTYPE svg PUBLIC "-//W3C//DTD SVG 1.1//EN"
  "http://www.w3.org/Graphics/SVG/1.1/DTD/svg11.dtd">
<svg xmlns:xlink="http://www.w3.org/1999/xlink" width="170.07874pt" height="106.299213pt" viewBox="0 0 170.07874 106.299213" xmlns="http://www.w3.org/2000/svg" version="1.1">
 <metadata>
  <rdf:RDF xmlns:dc="http://purl.org/dc/elements/1.1/" xmlns:cc="http://creativecommons.org/ns#" xmlns:rdf="http://www.w3.org/1999/02/22-rdf-syntax-ns#">
   <cc:Work>
    <dc:type rdf:resource="http://purl.org/dc/dcmitype/StillImage"/>
    <dc:date>2024-02-14T18:49:55.183000</dc:date>
    <dc:format>image/svg+xml</dc:format>
    <dc:creator>
     <cc:Agent>
      <dc:title>Matplotlib v3.5.2, https://matplotlib.org/</dc:title>
     </cc:Agent>
    </dc:creator>
   </cc:Work>
  </rdf:RDF>
 </metadata>
 <defs>
  <style type="text/css">*{stroke-linejoin: round; stroke-linecap: butt}</style>
 </defs>
 <g id="figure_1">
  <g id="patch_1">
   <path d="M 0 106.299213 
L 170.07874 106.299213 
L 170.07874 0 
L 0 0 
z
" style="fill: #ffffff"/>
  </g>
  <g id="axes_1">
   <g id="patch_2">
    <path d="M 0 106.299213 
L 170.07874 106.299213 
L 170.07874 0 
L 0 0 
z
" style="fill: #ffffff"/>
   </g>
   <g id="patch_3">
    <path d="M 11.338583 100.629921 
C 12.842096 100.629921 14.284232 100.032569 15.347377 98.969424 
C 16.410522 97.90628 17.007874 96.464144 17.007874 94.96063 
C 17.007874 93.457116 16.410522 92.01498 15.347377 90.951836 
C 14.284232 89.888691 12.842096 89.291339 11.338583 89.291339 
C 9.835069 89.291339 8.392933 89.888691 7.329788 90.951836 
C 6.266644 92.01498 5.669291 93.457116 5.669291 94.96063 
C 5.669291 96.464144 6.266644 97.90628 7.329788 98.969424 
C 8.392933 100.032569 9.835069 100.629921 11.338583 100.629921 
L 11.338583 100.629921 
z
" clip-path="url(#pf7e4594be9)" style="fill: none; stroke: #aaaaaa; stroke-linejoin: miter"/>
   </g>
   <g id="patch_4">
    <path d="M 11.338583 96.094488 
C 11.639285 96.094488 11.927713 95.975018 12.140342 95.762389 
C 12.35297 95.54976 12.472441 95.261333 12.472441 94.96063 
C 12.472441 94.659927 12.35297 94.3715 12.140342 94.158871 
C 11.927713 93.946242 11.639285 93.826772 11.338583 93.826772 
C 11.03788 93.826772 10.749453 93.946242 10.536824 94.158871 
C 10.324195 94.3715 10.204724 94.659927 10.204724 94.96063 
C 10.204724 95.261333 10.324195 95.54976 10.536824 95.762389 
C 10.749453 95.975018 11.03788 96.094488 11.338583 96.094488 
z
" clip-path="url(#pf7e4594be9)" style="fill: #aaaaaa; stroke: #aaaaaa; stroke-linejoin: miter"/>
   </g>
   <g id="patch_5">
    <path d="M 11.338583 79.370079 
C 12.842096 79.370079 14.284232 78.772726 15.347377 77.709582 
C 16.410522 76.646437 17.007874 75.204301 17.007874 73.700787 
C 17.007874 72.197274 16.410522 70.755138 15.347377 69.691993 
C 14.284232 68.628848 12.842096 68.031496 11.338583 68.031496 
C 9.835069 68.031496 8.392933 68.628848 7.329788 69.691993 
C 6.266644 70.755138 5.669291 72.197274 5.669291 73.700787 
C 5.669291 75.204301 6.266644 76.646437 7.329788 77.709582 
C 8.392933 78.772726 9.835069 79.370079 11.338583 79.370079 
L 11.338583 79.370079 
z
" clip-path="url(#pf7e4594be9)" style="fill: none; stroke: #aaaaaa; stroke-linejoin: miter"/>
   </g>
   <g id="patch_6">
    <path d="M 11.338583 74.834646 
C 11.639285 74.834646 11.927713 74.715175 12.140342 74.502546 
C 12.35297 74.289917 12.472441 74.00149 12.472441 73.700787 
C 12.472441 73.400085 12.35297 73.111657 12.140342 72.899029 
C 11.927713 72.6864 11.639285 72.566929 11.338583 72.566929 
C 11.03788 72.566929 10.749453 72.6864 10.536824 72.899029 
C 10.324195 73.111657 10.204724 73.400085 10.204724 73.700787 
C 10.204724 74.00149 10.324195 74.289917 10.536824 74.502546 
C 10.749453 74.715175 11.03788 74.834646 11.338583 74.834646 
z
" clip-path="url(#pf7e4594be9)" style="fill: #aaaaaa; stroke: #aaaaaa; stroke-linejoin: miter"/>
   </g>
   <g id="patch_7">
    <path d="M 11.338583 58.110236 
C 12.842096 58.110236 14.284232 57.512884 15.347377 56.449739 
C 16.410522 55.386595 17.007874 53.944459 17.007874 52.440945 
C 17.007874 50.937431 16.410522 49.495295 15.347377 48.432151 
C 14.284232 47.369006 12.842096 46.771654 11.338583 46.771654 
C 9.835069 46.771654 8.392933 47.369006 7.329788 48.432151 
C 6.266644 49.495295 5.669291 50.937431 5.669291 52.440945 
C 5.669291 53.944459 6.266644 55.386595 7.329788 56.449739 
C 8.392933 57.512884 9.835069 58.110236 11.338583 58.110236 
L 11.338583 58.110236 
z
" clip-path="url(#pf7e4594be9)" style="fill: none; stroke: #aaaaaa; stroke-linejoin: miter"/>
   </g>
   <g id="patch_8">
    <path d="M 11.338583 53.574803 
C 11.639285 53.574803 11.927713 53.455333 12.140342 53.242704 
C 12.35297 53.030075 12.472441 52.741648 12.472441 52.440945 
C 12.472441 52.140242 12.35297 51.851815 12.140342 51.639186 
C 11.927713 51.426557 11.639285 51.307087 11.338583 51.307087 
C 11.03788 51.307087 10.749453 51.426557 10.536824 51.639186 
C 10.324195 51.851815 10.204724 52.140242 10.204724 52.440945 
C 10.204724 52.741648 10.324195 53.030075 10.536824 53.242704 
C 10.749453 53.455333 11.03788 53.574803 11.338583 53.574803 
z
" clip-path="url(#pf7e4594be9)" style="fill: #aaaaaa; stroke: #aaaaaa; stroke-linejoin: miter"/>
   </g>
   <g id="patch_9">
    <path d="M 11.338583 36.850394 
C 12.842096 36.850394 14.284232 36.253041 15.347377 35.189897 
C 16.410522 34.126752 17.007874 32.684616 17.007874 31.181102 
C 17.007874 29.677589 16.410522 28.235453 15.347377 27.172308 
C 14.284232 26.109163 12.842096 25.511811 11.338583 25.511811 
C 9.835069 25.511811 8.392933 26.109163 7.329788 27.172308 
C 6.266644 28.235453 5.669291 29.677589 5.669291 31.181102 
C 5.669291 32.684616 6.266644 34.126752 7.329788 35.189897 
C 8.392933 36.253041 9.835069 36.850394 11.338583 36.850394 
L 11.338583 36.850394 
z
" clip-path="url(#pf7e4594be9)" style="fill: none; stroke: #aaaaaa; stroke-linejoin: miter"/>
   </g>
   <g id="patch_10">
    <path d="M 11.338583 32.314961 
C 11.639285 32.314961 11.927713 32.19549 12.140342 31.982861 
C 12.35297 31.770232 12.472441 31.481805 12.472441 31.181102 
C 12.472441 30.8804 12.35297 30.591972 12.140342 30.379343 
C 11.927713 30.166715 11.639285 30.047244 11.338583 30.047244 
C 11.03788 30.047244 10.749453 30.166715 10.536824 30.379343 
C 10.324195 30.591972 10.204724 30.8804 10.204724 31.181102 
C 10.204724 31.481805 10.324195 31.770232 10.536824 31.982861 
C 10.749453 32.19549 11.03788 32.314961 11.338583 32.314961 
z
" clip-path="url(#pf7e4594be9)" style="fill: #aaaaaa; stroke: #aaaaaa; stroke-linejoin: miter"/>
   </g>
   <g id="patch_11">
    <path d="M 11.338583 15.590551 
C 12.842096 15.590551 14.284232 14.993199 15.347377 13.930054 
C 16.410522 12.86691 17.007874 11.424773 17.007874 9.92126 
C 17.007874 8.417746 16.410522 6.97561 15.347377 5.912465 
C 14.284232 4.849321 12.842096 4.251969 11.338583 4.251969 
C 9.835069 4.251969 8.392933 4.849321 7.329788 5.912465 
C 6.266644 6.97561 5.669291 8.417746 5.669291 9.92126 
C 5.669291 11.424773 6.266644 12.86691 7.329788 13.930054 
C 8.392933 14.993199 9.835069 15.590551 11.338583 15.590551 
L 11.338583 15.590551 
z
" clip-path="url(#pf7e4594be9)" style="fill: none; stroke: #aaaaaa; stroke-linejoin: miter"/>
   </g>
   <g id="patch_12">
    <path d="M 11.338583 11.055118 
C 11.639285 11.055118 11.927713 10.935648 12.140342 10.723019 
C 12.35297 10.51039 12.472441 10.221963 12.472441 9.92126 
C 12.472441 9.620557 12.35297 9.33213 12.140342 9.119501 
C 11.927713 8.906872 11.639285 8.787402 11.338583 8.787402 
C 11.03788 8.787402 10.749453 8.906872 10.536824 9.119501 
C 10.324195 9.33213 10.204724 9.620557 10.204724 9.92126 
C 10.204724 10.221963 10.324195 10.51039 10.536824 10.723019 
C 10.749453 10.935648 11.03788 11.055118 11.338583 11.055118 
z
" clip-path="url(#pf7e4594be9)" style="fill: #aaaaaa; stroke: #aaaaaa; stroke-linejoin: miter"/>
   </g>
   <g id="patch_13">
    <path d="M 32.598425 100.629921 
C 34.101939 100.629921 35.544075 100.032569 36.60722 98.969424 
C 37.670364 97.90628 38.267717 96.464144 38.267717 94.96063 
C 38.267717 93.457116 37.670364 92.01498 36.60722 90.951836 
C 35.544075 89.888691 34.101939 89.291339 32.598425 89.291339 
C 31.094912 89.291339 29.652776 89.888691 28.589631 90.951836 
C 27.526486 92.01498 26.929134 93.457116 26.929134 94.96063 
C 26.929134 96.464144 27.526486 97.90628 28.589631 98.969424 
C 29.652776 100.032569 31.094912 100.629921 32.598425 100.629921 
L 32.598425 100.629921 
z
" clip-path="url(#pf7e4594be9)" style="fill: none; stroke: #aaaaaa; stroke-linejoin: miter"/>
   </g>
   <g id="patch_14">
    <path d="M 32.598425 96.094488 
C 32.899128 96.094488 33.187555 95.975018 33.400184 95.762389 
C 33.612813 95.54976 33.732283 95.261333 33.732283 94.96063 
C 33.732283 94.659927 33.612813 94.3715 33.400184 94.158871 
C 33.187555 93.946242 32.899128 93.826772 32.598425 93.826772 
C 32.297722 93.826772 32.009295 93.946242 31.796666 94.158871 
C 31.584037 94.3715 31.464567 94.659927 31.464567 94.96063 
C 31.464567 95.261333 31.584037 95.54976 31.796666 95.762389 
C 32.009295 95.975018 32.297722 96.094488 32.598425 96.094488 
z
" clip-path="url(#pf7e4594be9)" style="fill: #aaaaaa; stroke: #aaaaaa; stroke-linejoin: miter"/>
   </g>
   <g id="patch_15">
    <path d="M 32.598425 79.370079 
C 34.101939 79.370079 35.544075 78.772726 36.60722 77.709582 
C 37.670364 76.646437 38.267717 75.204301 38.267717 73.700787 
C 38.267717 72.197274 37.670364 70.755138 36.60722 69.691993 
C 35.544075 68.628848 34.101939 68.031496 32.598425 68.031496 
C 31.094912 68.031496 29.652776 68.628848 28.589631 69.691993 
C 27.526486 70.755138 26.929134 72.197274 26.929134 73.700787 
C 26.929134 75.204301 27.526486 76.646437 28.589631 77.709582 
C 29.652776 78.772726 31.094912 79.370079 32.598425 79.370079 
L 32.598425 79.370079 
z
" clip-path="url(#pf7e4594be9)" style="fill: none; stroke: #aaaaaa; stroke-linejoin: miter"/>
   </g>
   <g id="patch_16">
    <path d="M 32.598425 74.834646 
C 32.899128 74.834646 33.187555 74.715175 33.400184 74.502546 
C 33.612813 74.289917 33.732283 74.00149 33.732283 73.700787 
C 33.732283 73.400085 33.612813 73.111657 33.400184 72.899029 
C 33.187555 72.6864 32.899128 72.566929 32.598425 72.566929 
C 32.297722 72.566929 32.009295 72.6864 31.796666 72.899029 
C 31.584037 73.111657 31.464567 73.400085 31.464567 73.700787 
C 31.464567 74.00149 31.584037 74.289917 31.796666 74.502546 
C 32.009295 74.715175 32.297722 74.834646 32.598425 74.834646 
z
" clip-path="url(#pf7e4594be9)" style="fill: #aaaaaa; stroke: #aaaaaa; stroke-linejoin: miter"/>
   </g>
   <g id="patch_17">
    <path d="M 32.598425 58.110236 
C 34.101939 58.110236 35.544075 57.512884 36.60722 56.449739 
C 37.670364 55.386595 38.267717 53.944459 38.267717 52.440945 
C 38.267717 50.937431 37.670364 49.495295 36.60722 48.432151 
C 35.544075 47.369006 34.101939 46.771654 32.598425 46.771654 
C 31.094912 46.771654 29.652776 47.369006 28.589631 48.432151 
C 27.526486 49.495295 26.929134 50.937431 26.929134 52.440945 
C 26.929134 53.944459 27.526486 55.386595 28.589631 56.449739 
C 29.652776 57.512884 31.094912 58.110236 32.598425 58.110236 
L 32.598425 58.110236 
z
" clip-path="url(#pf7e4594be9)" style="fill: none; stroke: #aaaaaa; stroke-linejoin: miter"/>
   </g>
   <g id="patch_18">
    <path d="M 32.598425 53.574803 
C 32.899128 53.574803 33.187555 53.455333 33.400184 53.242704 
C 33.612813 53.030075 33.732283 52.741648 33.732283 52.440945 
C 33.732283 52.140242 33.612813 51.851815 33.400184 51.639186 
C 33.187555 51.426557 32.899128 51.307087 32.598425 51.307087 
C 32.297722 51.307087 32.009295 51.426557 31.796666 51.639186 
C 31.584037 51.851815 31.464567 52.140242 31.464567 52.440945 
C 31.464567 52.741648 31.584037 53.030075 31.796666 53.242704 
C 32.009295 53.455333 32.297722 53.574803 32.598425 53.574803 
z
" clip-path="url(#pf7e4594be9)" style="fill: #aaaaaa; stroke: #aaaaaa; stroke-linejoin: miter"/>
   </g>
   <g id="patch_19">
    <path d="M 32.598425 36.850394 
C 34.101939 36.850394 35.544075 36.253041 36.60722 35.189897 
C 37.670364 34.126752 38.267717 32.684616 38.267717 31.181102 
C 38.267717 29.677589 37.670364 28.235453 36.60722 27.172308 
C 35.544075 26.109163 34.101939 25.511811 32.598425 25.511811 
C 31.094912 25.511811 29.652776 26.109163 28.589631 27.172308 
C 27.526486 28.235453 26.929134 29.677589 26.929134 31.181102 
C 26.929134 32.684616 27.526486 34.126752 28.589631 35.189897 
C 29.652776 36.253041 31.094912 36.850394 32.598425 36.850394 
L 32.598425 36.850394 
z
" clip-path="url(#pf7e4594be9)" style="fill: none; stroke: #aaaaaa; stroke-linejoin: miter"/>
   </g>
   <g id="patch_20">
    <path d="M 32.598425 32.314961 
C 32.899128 32.314961 33.187555 32.19549 33.400184 31.982861 
C 33.612813 31.770232 33.732283 31.481805 33.732283 31.181102 
C 33.732283 30.8804 33.612813 30.591972 33.400184 30.379343 
C 33.187555 30.166715 32.899128 30.047244 32.598425 30.047244 
C 32.297722 30.047244 32.009295 30.166715 31.796666 30.379343 
C 31.584037 30.591972 31.464567 30.8804 31.464567 31.181102 
C 31.464567 31.481805 31.584037 31.770232 31.796666 31.982861 
C 32.009295 32.19549 32.297722 32.314961 32.598425 32.314961 
z
" clip-path="url(#pf7e4594be9)" style="fill: #aaaaaa; stroke: #aaaaaa; stroke-linejoin: miter"/>
   </g>
   <g id="patch_21">
    <path d="M 32.598425 15.590551 
C 34.101939 15.590551 35.544075 14.993199 36.60722 13.930054 
C 37.670364 12.86691 38.267717 11.424773 38.267717 9.92126 
C 38.267717 8.417746 37.670364 6.97561 36.60722 5.912465 
C 35.544075 4.849321 34.101939 4.251969 32.598425 4.251969 
C 31.094912 4.251969 29.652776 4.849321 28.589631 5.912465 
C 27.526486 6.97561 26.929134 8.417746 26.929134 9.92126 
C 26.929134 11.424773 27.526486 12.86691 28.589631 13.930054 
C 29.652776 14.993199 31.094912 15.590551 32.598425 15.590551 
L 32.598425 15.590551 
z
" clip-path="url(#pf7e4594be9)" style="fill: none; stroke: #aaaaaa; stroke-linejoin: miter"/>
   </g>
   <g id="patch_22">
    <path d="M 32.598425 11.055118 
C 32.899128 11.055118 33.187555 10.935648 33.400184 10.723019 
C 33.612813 10.51039 33.732283 10.221963 33.732283 9.92126 
C 33.732283 9.620557 33.612813 9.33213 33.400184 9.119501 
C 33.187555 8.906872 32.899128 8.787402 32.598425 8.787402 
C 32.297722 8.787402 32.009295 8.906872 31.796666 9.119501 
C 31.584037 9.33213 31.464567 9.620557 31.464567 9.92126 
C 31.464567 10.221963 31.584037 10.51039 31.796666 10.723019 
C 32.009295 10.935648 32.297722 11.055118 32.598425 11.055118 
z
" clip-path="url(#pf7e4594be9)" style="fill: #aaaaaa; stroke: #aaaaaa; stroke-linejoin: miter"/>
   </g>
   <g id="patch_23">
    <path d="M 53.858268 100.629921 
C 55.361781 100.629921 56.803917 100.032569 57.867062 98.969424 
C 58.930207 97.90628 59.527559 96.464144 59.527559 94.96063 
C 59.527559 93.457116 58.930207 92.01498 57.867062 90.951836 
C 56.803917 89.888691 55.361781 89.291339 53.858268 89.291339 
C 52.354754 89.291339 50.912618 89.888691 49.849473 90.951836 
C 48.786329 92.01498 48.188976 93.457116 48.188976 94.96063 
C 48.188976 96.464144 48.786329 97.90628 49.849473 98.969424 
C 50.912618 100.032569 52.354754 100.629921 53.858268 100.629921 
L 53.858268 100.629921 
z
" clip-path="url(#pf7e4594be9)" style="fill: none; stroke: #aaaaaa; stroke-linejoin: miter"/>
   </g>
   <g id="patch_24">
    <path d="M 53.858268 96.094488 
C 54.15897 96.094488 54.447398 95.975018 54.660027 95.762389 
C 54.872656 95.54976 54.992126 95.261333 54.992126 94.96063 
C 54.992126 94.659927 54.872656 94.3715 54.660027 94.158871 
C 54.447398 93.946242 54.15897 93.826772 53.858268 93.826772 
C 53.557565 93.826772 53.269138 93.946242 53.056509 94.158871 
C 52.84388 94.3715 52.724409 94.659927 52.724409 94.96063 
C 52.724409 95.261333 52.84388 95.54976 53.056509 95.762389 
C 53.269138 95.975018 53.557565 96.094488 53.858268 96.094488 
z
" clip-path="url(#pf7e4594be9)" style="fill: #aaaaaa; stroke: #aaaaaa; stroke-linejoin: miter"/>
   </g>
   <g id="patch_25">
    <path d="M 53.858268 79.370079 
C 55.361781 79.370079 56.803917 78.772726 57.867062 77.709582 
C 58.930207 76.646437 59.527559 75.204301 59.527559 73.700787 
C 59.527559 72.197274 58.930207 70.755138 57.867062 69.691993 
C 56.803917 68.628848 55.361781 68.031496 53.858268 68.031496 
C 52.354754 68.031496 50.912618 68.628848 49.849473 69.691993 
C 48.786329 70.755138 48.188976 72.197274 48.188976 73.700787 
C 48.188976 75.204301 48.786329 76.646437 49.849473 77.709582 
C 50.912618 78.772726 52.354754 79.370079 53.858268 79.370079 
L 53.858268 79.370079 
z
" clip-path="url(#pf7e4594be9)" style="fill: none; stroke: #aaaaaa; stroke-linejoin: miter"/>
   </g>
   <g id="patch_26">
    <path d="M 53.858268 74.834646 
C 54.15897 74.834646 54.447398 74.715175 54.660027 74.502546 
C 54.872656 74.289917 54.992126 74.00149 54.992126 73.700787 
C 54.992126 73.400085 54.872656 73.111657 54.660027 72.899029 
C 54.447398 72.6864 54.15897 72.566929 53.858268 72.566929 
C 53.557565 72.566929 53.269138 72.6864 53.056509 72.899029 
C 52.84388 73.111657 52.724409 73.400085 52.724409 73.700787 
C 52.724409 74.00149 52.84388 74.289917 53.056509 74.502546 
C 53.269138 74.715175 53.557565 74.834646 53.858268 74.834646 
z
" clip-path="url(#pf7e4594be9)" style="fill: #aaaaaa; stroke: #aaaaaa; stroke-linejoin: miter"/>
   </g>
   <g id="patch_27">
    <path d="M 53.858268 58.110236 
C 55.361781 58.110236 56.803917 57.512884 57.867062 56.449739 
C 58.930207 55.386595 59.527559 53.944459 59.527559 52.440945 
C 59.527559 50.937431 58.930207 49.495295 57.867062 48.432151 
C 56.803917 47.369006 55.361781 46.771654 53.858268 46.771654 
C 52.354754 46.771654 50.912618 47.369006 49.849473 48.432151 
C 48.786329 49.495295 48.188976 50.937431 48.188976 52.440945 
C 48.188976 53.944459 48.786329 55.386595 49.849473 56.449739 
C 50.912618 57.512884 52.354754 58.110236 53.858268 58.110236 
L 53.858268 58.110236 
z
" clip-path="url(#pf7e4594be9)" style="fill: none; stroke: #aaaaaa; stroke-linejoin: miter"/>
   </g>
   <g id="patch_28">
    <path d="M 53.858268 53.574803 
C 54.15897 53.574803 54.447398 53.455333 54.660027 53.242704 
C 54.872656 53.030075 54.992126 52.741648 54.992126 52.440945 
C 54.992126 52.140242 54.872656 51.851815 54.660027 51.639186 
C 54.447398 51.426557 54.15897 51.307087 53.858268 51.307087 
C 53.557565 51.307087 53.269138 51.426557 53.056509 51.639186 
C 52.84388 51.851815 52.724409 52.140242 52.724409 52.440945 
C 52.724409 52.741648 52.84388 53.030075 53.056509 53.242704 
C 53.269138 53.455333 53.557565 53.574803 53.858268 53.574803 
z
" clip-path="url(#pf7e4594be9)" style="fill: #aaaaaa; stroke: #aaaaaa; stroke-linejoin: miter"/>
   </g>
   <g id="patch_29">
    <path d="M 53.858268 36.850394 
C 55.361781 36.850394 56.803917 36.253041 57.867062 35.189897 
C 58.930207 34.126752 59.527559 32.684616 59.527559 31.181102 
C 59.527559 29.677589 58.930207 28.235453 57.867062 27.172308 
C 56.803917 26.109163 55.361781 25.511811 53.858268 25.511811 
C 52.354754 25.511811 50.912618 26.109163 49.849473 27.172308 
C 48.786329 28.235453 48.188976 29.677589 48.188976 31.181102 
C 48.188976 32.684616 48.786329 34.126752 49.849473 35.189897 
C 50.912618 36.253041 52.354754 36.850394 53.858268 36.850394 
L 53.858268 36.850394 
z
" clip-path="url(#pf7e4594be9)" style="fill: none; stroke: #aaaaaa; stroke-linejoin: miter"/>
   </g>
   <g id="patch_30">
    <path d="M 53.858268 32.314961 
C 54.15897 32.314961 54.447398 32.19549 54.660027 31.982861 
C 54.872656 31.770232 54.992126 31.481805 54.992126 31.181102 
C 54.992126 30.8804 54.872656 30.591972 54.660027 30.379343 
C 54.447398 30.166715 54.15897 30.047244 53.858268 30.047244 
C 53.557565 30.047244 53.269138 30.166715 53.056509 30.379343 
C 52.84388 30.591972 52.724409 30.8804 52.724409 31.181102 
C 52.724409 31.481805 52.84388 31.770232 53.056509 31.982861 
C 53.269138 32.19549 53.557565 32.314961 53.858268 32.314961 
z
" clip-path="url(#pf7e4594be9)" style="fill: #aaaaaa; stroke: #aaaaaa; stroke-linejoin: miter"/>
   </g>
   <g id="patch_31">
    <path d="M 53.858268 15.590551 
C 55.361781 15.590551 56.803917 14.993199 57.867062 13.930054 
C 58.930207 12.86691 59.527559 11.424773 59.527559 9.92126 
C 59.527559 8.417746 58.930207 6.97561 57.867062 5.912465 
C 56.803917 4.849321 55.361781 4.251969 53.858268 4.251969 
C 52.354754 4.251969 50.912618 4.849321 49.849473 5.912465 
C 48.786329 6.97561 48.188976 8.417746 48.188976 9.92126 
C 48.188976 11.424773 48.786329 12.86691 49.849473 13.930054 
C 50.912618 14.993199 52.354754 15.590551 53.858268 15.590551 
L 53.858268 15.590551 
z
" clip-path="url(#pf7e4594be9)" style="fill: none; stroke: #aaaaaa; stroke-linejoin: miter"/>
   </g>
   <g id="patch_32">
    <path d="M 53.858268 11.055118 
C 54.15897 11.055118 54.447398 10.935648 54.660027 10.723019 
C 54.872656 10.51039 54.992126 10.221963 54.992126 9.92126 
C 54.992126 9.620557 54.872656 9.33213 54.660027 9.119501 
C 54.447398 8.906872 54.15897 8.787402 53.858268 8.787402 
C 53.557565 8.787402 53.269138 8.906872 53.056509 9.119501 
C 52.84388 9.33213 52.724409 9.620557 52.724409 9.92126 
C 52.724409 10.221963 52.84388 10.51039 53.056509 10.723019 
C 53.269138 10.935648 53.557565 11.055118 53.858268 11.055118 
z
" clip-path="url(#pf7e4594be9)" style="fill: #aaaaaa; stroke: #aaaaaa; stroke-linejoin: miter"/>
   </g>
   <g id="patch_33">
    <path d="M 75.11811 100.629921 
C 76.621624 100.629921 78.06376 100.032569 79.126905 98.969424 
C 80.190049 97.90628 80.787402 96.464144 80.787402 94.96063 
C 80.787402 93.457116 80.190049 92.01498 79.126905 90.951836 
C 78.06376 89.888691 76.621624 89.291339 75.11811 89.291339 
C 73.614597 89.291339 72.172461 89.888691 71.109316 90.951836 
C 70.046171 92.01498 69.448819 93.457116 69.448819 94.96063 
C 69.448819 96.464144 70.046171 97.90628 71.109316 98.969424 
C 72.172461 100.032569 73.614597 100.629921 75.11811 100.629921 
L 75.11811 100.629921 
z
" clip-path="url(#pf7e4594be9)" style="fill: none; stroke: #aaaaaa; stroke-linejoin: miter"/>
   </g>
   <g id="patch_34">
    <path d="M 75.11811 96.094488 
C 75.418813 96.094488 75.70724 95.975018 75.919869 95.762389 
C 76.132498 95.54976 76.251969 95.261333 76.251969 94.96063 
C 76.251969 94.659927 76.132498 94.3715 75.919869 94.158871 
C 75.70724 93.946242 75.418813 93.826772 75.11811 93.826772 
C 74.817408 93.826772 74.52898 93.946242 74.316351 94.158871 
C 74.103722 94.3715 73.984252 94.659927 73.984252 94.96063 
C 73.984252 95.261333 74.103722 95.54976 74.316351 95.762389 
C 74.52898 95.975018 74.817408 96.094488 75.11811 96.094488 
z
" clip-path="url(#pf7e4594be9)" style="fill: #aaaaaa; stroke: #aaaaaa; stroke-linejoin: miter"/>
   </g>
   <g id="patch_35">
    <path d="M 75.11811 79.370079 
C 76.621624 79.370079 78.06376 78.772726 79.126905 77.709582 
C 80.190049 76.646437 80.787402 75.204301 80.787402 73.700787 
C 80.787402 72.197274 80.190049 70.755138 79.126905 69.691993 
C 78.06376 68.628848 76.621624 68.031496 75.11811 68.031496 
C 73.614597 68.031496 72.172461 68.628848 71.109316 69.691993 
C 70.046171 70.755138 69.448819 72.197274 69.448819 73.700787 
C 69.448819 75.204301 70.046171 76.646437 71.109316 77.709582 
C 72.172461 78.772726 73.614597 79.370079 75.11811 79.370079 
L 75.11811 79.370079 
z
" clip-path="url(#pf7e4594be9)" style="fill: none; stroke: #aaaaaa; stroke-linejoin: miter"/>
   </g>
   <g id="patch_36">
    <path d="M 75.11811 74.834646 
C 75.418813 74.834646 75.70724 74.715175 75.919869 74.502546 
C 76.132498 74.289917 76.251969 74.00149 76.251969 73.700787 
C 76.251969 73.400085 76.132498 73.111657 75.919869 72.899029 
C 75.70724 72.6864 75.418813 72.566929 75.11811 72.566929 
C 74.817408 72.566929 74.52898 72.6864 74.316351 72.899029 
C 74.103722 73.111657 73.984252 73.400085 73.984252 73.700787 
C 73.984252 74.00149 74.103722 74.289917 74.316351 74.502546 
C 74.52898 74.715175 74.817408 74.834646 75.11811 74.834646 
z
" clip-path="url(#pf7e4594be9)" style="fill: #aaaaaa; stroke: #aaaaaa; stroke-linejoin: miter"/>
   </g>
   <g id="patch_37">
    <path d="M 75.11811 58.110236 
C 76.621624 58.110236 78.06376 57.512884 79.126905 56.449739 
C 80.190049 55.386595 80.787402 53.944459 80.787402 52.440945 
C 80.787402 50.937431 80.190049 49.495295 79.126905 48.432151 
C 78.06376 47.369006 76.621624 46.771654 75.11811 46.771654 
C 73.614597 46.771654 72.172461 47.369006 71.109316 48.432151 
C 70.046171 49.495295 69.448819 50.937431 69.448819 52.440945 
C 69.448819 53.944459 70.046171 55.386595 71.109316 56.449739 
C 72.172461 57.512884 73.614597 58.110236 75.11811 58.110236 
L 75.11811 58.110236 
z
" clip-path="url(#pf7e4594be9)" style="fill: none; stroke: #aaaaaa; stroke-linejoin: miter"/>
   </g>
   <g id="patch_38">
    <path d="M 75.11811 53.574803 
C 75.418813 53.574803 75.70724 53.455333 75.919869 53.242704 
C 76.132498 53.030075 76.251969 52.741648 76.251969 52.440945 
C 76.251969 52.140242 76.132498 51.851815 75.919869 51.639186 
C 75.70724 51.426557 75.418813 51.307087 75.11811 51.307087 
C 74.817408 51.307087 74.52898 51.426557 74.316351 51.639186 
C 74.103722 51.851815 73.984252 52.140242 73.984252 52.440945 
C 73.984252 52.741648 74.103722 53.030075 74.316351 53.242704 
C 74.52898 53.455333 74.817408 53.574803 75.11811 53.574803 
z
" clip-path="url(#pf7e4594be9)" style="fill: #aaaaaa; stroke: #aaaaaa; stroke-linejoin: miter"/>
   </g>
   <g id="patch_39">
    <path d="M 75.11811 36.850394 
C 76.621624 36.850394 78.06376 36.253041 79.126905 35.189897 
C 80.190049 34.126752 80.787402 32.684616 80.787402 31.181102 
C 80.787402 29.677589 80.190049 28.235453 79.126905 27.172308 
C 78.06376 26.109163 76.621624 25.511811 75.11811 25.511811 
C 73.614597 25.511811 72.172461 26.109163 71.109316 27.172308 
C 70.046171 28.235453 69.448819 29.677589 69.448819 31.181102 
C 69.448819 32.684616 70.046171 34.126752 71.109316 35.189897 
C 72.172461 36.253041 73.614597 36.850394 75.11811 36.850394 
L 75.11811 36.850394 
z
" clip-path="url(#pf7e4594be9)" style="fill: none; stroke: #aaaaaa; stroke-linejoin: miter"/>
   </g>
   <g id="patch_40">
    <path d="M 75.11811 32.314961 
C 75.418813 32.314961 75.70724 32.19549 75.919869 31.982861 
C 76.132498 31.770232 76.251969 31.481805 76.251969 31.181102 
C 76.251969 30.8804 76.132498 30.591972 75.919869 30.379343 
C 75.70724 30.166715 75.418813 30.047244 75.11811 30.047244 
C 74.817408 30.047244 74.52898 30.166715 74.316351 30.379343 
C 74.103722 30.591972 73.984252 30.8804 73.984252 31.181102 
C 73.984252 31.481805 74.103722 31.770232 74.316351 31.982861 
C 74.52898 32.19549 74.817408 32.314961 75.11811 32.314961 
z
" clip-path="url(#pf7e4594be9)" style="fill: #aaaaaa; stroke: #aaaaaa; stroke-linejoin: miter"/>
   </g>
   <g id="patch_41">
    <path d="M 75.11811 15.590551 
C 76.621624 15.590551 78.06376 14.993199 79.126905 13.930054 
C 80.190049 12.86691 80.787402 11.424773 80.787402 9.92126 
C 80.787402 8.417746 80.190049 6.97561 79.126905 5.912465 
C 78.06376 4.849321 76.621624 4.251969 75.11811 4.251969 
C 73.614597 4.251969 72.172461 4.849321 71.109316 5.912465 
C 70.046171 6.97561 69.448819 8.417746 69.448819 9.92126 
C 69.448819 11.424773 70.046171 12.86691 71.109316 13.930054 
C 72.172461 14.993199 73.614597 15.590551 75.11811 15.590551 
L 75.11811 15.590551 
z
" clip-path="url(#pf7e4594be9)" style="fill: none; stroke: #aaaaaa; stroke-linejoin: miter"/>
   </g>
   <g id="patch_42">
    <path d="M 75.11811 11.055118 
C 75.418813 11.055118 75.70724 10.935648 75.919869 10.723019 
C 76.132498 10.51039 76.251969 10.221963 76.251969 9.92126 
C 76.251969 9.620557 76.132498 9.33213 75.919869 9.119501 
C 75.70724 8.906872 75.418813 8.787402 75.11811 8.787402 
C 74.817408 8.787402 74.52898 8.906872 74.316351 9.119501 
C 74.103722 9.33213 73.984252 9.620557 73.984252 9.92126 
C 73.984252 10.221963 74.103722 10.51039 74.316351 10.723019 
C 74.52898 10.935648 74.817408 11.055118 75.11811 11.055118 
z
" clip-path="url(#pf7e4594be9)" style="fill: #aaaaaa; stroke: #aaaaaa; stroke-linejoin: miter"/>
   </g>
   <g id="patch_43">
    <path d="M 96.377953 100.629921 
C 97.881466 100.629921 99.323602 100.032569 100.386747 98.969424 
C 101.449892 97.90628 102.047244 96.464144 102.047244 94.96063 
C 102.047244 93.457116 101.449892 92.01498 100.386747 90.951836 
C 99.323602 89.888691 97.881466 89.291339 96.377953 89.291339 
C 94.874439 89.291339 93.432303 89.888691 92.369158 90.951836 
C 91.306014 92.01498 90.708661 93.457116 90.708661 94.96063 
C 90.708661 96.464144 91.306014 97.90628 92.369158 98.969424 
C 93.432303 100.032569 94.874439 100.629921 96.377953 100.629921 
L 96.377953 100.629921 
z
" clip-path="url(#pf7e4594be9)" style="fill: none; stroke: #aaaaaa; stroke-linejoin: miter"/>
   </g>
   <g id="patch_44">
    <path d="M 96.377953 96.094488 
C 96.678655 96.094488 96.967083 95.975018 97.179712 95.762389 
C 97.392341 95.54976 97.511811 95.261333 97.511811 94.96063 
C 97.511811 94.659927 97.392341 94.3715 97.179712 94.158871 
C 96.967083 93.946242 96.678655 93.826772 96.377953 93.826772 
C 96.07725 93.826772 95.788823 93.946242 95.576194 94.158871 
C 95.363565 94.3715 95.244094 94.659927 95.244094 94.96063 
C 95.244094 95.261333 95.363565 95.54976 95.576194 95.762389 
C 95.788823 95.975018 96.07725 96.094488 96.377953 96.094488 
z
" clip-path="url(#pf7e4594be9)" style="fill: #aaaaaa; stroke: #aaaaaa; stroke-linejoin: miter"/>
   </g>
   <g id="patch_45">
    <path d="M 96.377953 79.370079 
C 97.881466 79.370079 99.323602 78.772726 100.386747 77.709582 
C 101.449892 76.646437 102.047244 75.204301 102.047244 73.700787 
C 102.047244 72.197274 101.449892 70.755138 100.386747 69.691993 
C 99.323602 68.628848 97.881466 68.031496 96.377953 68.031496 
C 94.874439 68.031496 93.432303 68.628848 92.369158 69.691993 
C 91.306014 70.755138 90.708661 72.197274 90.708661 73.700787 
C 90.708661 75.204301 91.306014 76.646437 92.369158 77.709582 
C 93.432303 78.772726 94.874439 79.370079 96.377953 79.370079 
L 96.377953 79.370079 
z
" clip-path="url(#pf7e4594be9)" style="fill: none; stroke: #aaaaaa; stroke-linejoin: miter"/>
   </g>
   <g id="patch_46">
    <path d="M 96.377953 74.834646 
C 96.678655 74.834646 96.967083 74.715175 97.179712 74.502546 
C 97.392341 74.289917 97.511811 74.00149 97.511811 73.700787 
C 97.511811 73.400085 97.392341 73.111657 97.179712 72.899029 
C 96.967083 72.6864 96.678655 72.566929 96.377953 72.566929 
C 96.07725 72.566929 95.788823 72.6864 95.576194 72.899029 
C 95.363565 73.111657 95.244094 73.400085 95.244094 73.700787 
C 95.244094 74.00149 95.363565 74.289917 95.576194 74.502546 
C 95.788823 74.715175 96.07725 74.834646 96.377953 74.834646 
z
" clip-path="url(#pf7e4594be9)" style="fill: #aaaaaa; stroke: #aaaaaa; stroke-linejoin: miter"/>
   </g>
   <g id="patch_47">
    <path d="M 96.377953 58.110236 
C 97.881466 58.110236 99.323602 57.512884 100.386747 56.449739 
C 101.449892 55.386595 102.047244 53.944459 102.047244 52.440945 
C 102.047244 50.937431 101.449892 49.495295 100.386747 48.432151 
C 99.323602 47.369006 97.881466 46.771654 96.377953 46.771654 
C 94.874439 46.771654 93.432303 47.369006 92.369158 48.432151 
C 91.306014 49.495295 90.708661 50.937431 90.708661 52.440945 
C 90.708661 53.944459 91.306014 55.386595 92.369158 56.449739 
C 93.432303 57.512884 94.874439 58.110236 96.377953 58.110236 
L 96.377953 58.110236 
z
" clip-path="url(#pf7e4594be9)" style="fill: none; stroke: #aaaaaa; stroke-linejoin: miter"/>
   </g>
   <g id="patch_48">
    <path d="M 96.377953 53.574803 
C 96.678655 53.574803 96.967083 53.455333 97.179712 53.242704 
C 97.392341 53.030075 97.511811 52.741648 97.511811 52.440945 
C 97.511811 52.140242 97.392341 51.851815 97.179712 51.639186 
C 96.967083 51.426557 96.678655 51.307087 96.377953 51.307087 
C 96.07725 51.307087 95.788823 51.426557 95.576194 51.639186 
C 95.363565 51.851815 95.244094 52.140242 95.244094 52.440945 
C 95.244094 52.741648 95.363565 53.030075 95.576194 53.242704 
C 95.788823 53.455333 96.07725 53.574803 96.377953 53.574803 
z
" clip-path="url(#pf7e4594be9)" style="fill: #aaaaaa; stroke: #aaaaaa; stroke-linejoin: miter"/>
   </g>
   <g id="patch_49">
    <path d="M 96.377953 36.850394 
C 97.881466 36.850394 99.323602 36.253041 100.386747 35.189897 
C 101.449892 34.126752 102.047244 32.684616 102.047244 31.181102 
C 102.047244 29.677589 101.449892 28.235453 100.386747 27.172308 
C 99.323602 26.109163 97.881466 25.511811 96.377953 25.511811 
C 94.874439 25.511811 93.432303 26.109163 92.369158 27.172308 
C 91.306014 28.235453 90.708661 29.677589 90.708661 31.181102 
C 90.708661 32.684616 91.306014 34.126752 92.369158 35.189897 
C 93.432303 36.253041 94.874439 36.850394 96.377953 36.850394 
L 96.377953 36.850394 
z
" clip-path="url(#pf7e4594be9)" style="fill: none; stroke: #aaaaaa; stroke-linejoin: miter"/>
   </g>
   <g id="patch_50">
    <path d="M 96.377953 32.314961 
C 96.678655 32.314961 96.967083 32.19549 97.179712 31.982861 
C 97.392341 31.770232 97.511811 31.481805 97.511811 31.181102 
C 97.511811 30.8804 97.392341 30.591972 97.179712 30.379343 
C 96.967083 30.166715 96.678655 30.047244 96.377953 30.047244 
C 96.07725 30.047244 95.788823 30.166715 95.576194 30.379343 
C 95.363565 30.591972 95.244094 30.8804 95.244094 31.181102 
C 95.244094 31.481805 95.363565 31.770232 95.576194 31.982861 
C 95.788823 32.19549 96.07725 32.314961 96.377953 32.314961 
z
" clip-path="url(#pf7e4594be9)" style="fill: #aaaaaa; stroke: #aaaaaa; stroke-linejoin: miter"/>
   </g>
   <g id="patch_51">
    <path d="M 96.377953 15.590551 
C 97.881466 15.590551 99.323602 14.993199 100.386747 13.930054 
C 101.449892 12.86691 102.047244 11.424773 102.047244 9.92126 
C 102.047244 8.417746 101.449892 6.97561 100.386747 5.912465 
C 99.323602 4.849321 97.881466 4.251969 96.377953 4.251969 
C 94.874439 4.251969 93.432303 4.849321 92.369158 5.912465 
C 91.306014 6.97561 90.708661 8.417746 90.708661 9.92126 
C 90.708661 11.424773 91.306014 12.86691 92.369158 13.930054 
C 93.432303 14.993199 94.874439 15.590551 96.377953 15.590551 
L 96.377953 15.590551 
z
" clip-path="url(#pf7e4594be9)" style="fill: none; stroke: #aaaaaa; stroke-linejoin: miter"/>
   </g>
   <g id="patch_52">
    <path d="M 96.377953 11.055118 
C 96.678655 11.055118 96.967083 10.935648 97.179712 10.723019 
C 97.392341 10.51039 97.511811 10.221963 97.511811 9.92126 
C 97.511811 9.620557 97.392341 9.33213 97.179712 9.119501 
C 96.967083 8.906872 96.678655 8.787402 96.377953 8.787402 
C 96.07725 8.787402 95.788823 8.906872 95.576194 9.119501 
C 95.363565 9.33213 95.244094 9.620557 95.244094 9.92126 
C 95.244094 10.221963 95.363565 10.51039 95.576194 10.723019 
C 95.788823 10.935648 96.07725 11.055118 96.377953 11.055118 
z
" clip-path="url(#pf7e4594be9)" style="fill: #aaaaaa; stroke: #aaaaaa; stroke-linejoin: miter"/>
   </g>
   <g id="patch_53">
    <path d="M 117.637795 100.629921 
C 119.141309 100.629921 120.583445 100.032569 121.64659 98.969424 
C 122.709734 97.90628 123.307087 96.464144 123.307087 94.96063 
C 123.307087 93.457116 122.709734 92.01498 121.64659 90.951836 
C 120.583445 89.888691 119.141309 89.291339 117.637795 89.291339 
C 116.134282 89.291339 114.692146 89.888691 113.629001 90.951836 
C 112.565856 92.01498 111.968504 93.457116 111.968504 94.96063 
C 111.968504 96.464144 112.565856 97.90628 113.629001 98.969424 
C 114.692146 100.032569 116.134282 100.629921 117.637795 100.629921 
L 117.637795 100.629921 
z
" clip-path="url(#pf7e4594be9)" style="fill: none; stroke: #aaaaaa; stroke-linejoin: miter"/>
   </g>
   <g id="patch_54">
    <path d="M 117.637795 96.094488 
C 117.938498 96.094488 118.226925 95.975018 118.439554 95.762389 
C 118.652183 95.54976 118.771654 95.261333 118.771654 94.96063 
C 118.771654 94.659927 118.652183 94.3715 118.439554 94.158871 
C 118.226925 93.946242 117.938498 93.826772 117.637795 93.826772 
C 117.337093 93.826772 117.048665 93.946242 116.836036 94.158871 
C 116.623407 94.3715 116.503937 94.659927 116.503937 94.96063 
C 116.503937 95.261333 116.623407 95.54976 116.836036 95.762389 
C 117.048665 95.975018 117.337093 96.094488 117.637795 96.094488 
z
" clip-path="url(#pf7e4594be9)" style="fill: #aaaaaa; stroke: #aaaaaa; stroke-linejoin: miter"/>
   </g>
   <g id="patch_55">
    <path d="M 117.637795 79.370079 
C 119.141309 79.370079 120.583445 78.772726 121.64659 77.709582 
C 122.709734 76.646437 123.307087 75.204301 123.307087 73.700787 
C 123.307087 72.197274 122.709734 70.755138 121.64659 69.691993 
C 120.583445 68.628848 119.141309 68.031496 117.637795 68.031496 
C 116.134282 68.031496 114.692146 68.628848 113.629001 69.691993 
C 112.565856 70.755138 111.968504 72.197274 111.968504 73.700787 
C 111.968504 75.204301 112.565856 76.646437 113.629001 77.709582 
C 114.692146 78.772726 116.134282 79.370079 117.637795 79.370079 
L 117.637795 79.370079 
z
" clip-path="url(#pf7e4594be9)" style="fill: none; stroke: #aaaaaa; stroke-linejoin: miter"/>
   </g>
   <g id="patch_56">
    <path d="M 117.637795 74.834646 
C 117.938498 74.834646 118.226925 74.715175 118.439554 74.502546 
C 118.652183 74.289917 118.771654 74.00149 118.771654 73.700787 
C 118.771654 73.400085 118.652183 73.111657 118.439554 72.899029 
C 118.226925 72.6864 117.938498 72.566929 117.637795 72.566929 
C 117.337093 72.566929 117.048665 72.6864 116.836036 72.899029 
C 116.623407 73.111657 116.503937 73.400085 116.503937 73.700787 
C 116.503937 74.00149 116.623407 74.289917 116.836036 74.502546 
C 117.048665 74.715175 117.337093 74.834646 117.637795 74.834646 
z
" clip-path="url(#pf7e4594be9)" style="fill: #aaaaaa; stroke: #aaaaaa; stroke-linejoin: miter"/>
   </g>
   <g id="patch_57">
    <path d="M 117.637795 58.110236 
C 119.141309 58.110236 120.583445 57.512884 121.64659 56.449739 
C 122.709734 55.386595 123.307087 53.944459 123.307087 52.440945 
C 123.307087 50.937431 122.709734 49.495295 121.64659 48.432151 
C 120.583445 47.369006 119.141309 46.771654 117.637795 46.771654 
C 116.134282 46.771654 114.692146 47.369006 113.629001 48.432151 
C 112.565856 49.495295 111.968504 50.937431 111.968504 52.440945 
C 111.968504 53.944459 112.565856 55.386595 113.629001 56.449739 
C 114.692146 57.512884 116.134282 58.110236 117.637795 58.110236 
L 117.637795 58.110236 
z
" clip-path="url(#pf7e4594be9)" style="fill: none; stroke: #aaaaaa; stroke-linejoin: miter"/>
   </g>
   <g id="patch_58">
    <path d="M 117.637795 53.574803 
C 117.938498 53.574803 118.226925 53.455333 118.439554 53.242704 
C 118.652183 53.030075 118.771654 52.741648 118.771654 52.440945 
C 118.771654 52.140242 118.652183 51.851815 118.439554 51.639186 
C 118.226925 51.426557 117.938498 51.307087 117.637795 51.307087 
C 117.337093 51.307087 117.048665 51.426557 116.836036 51.639186 
C 116.623407 51.851815 116.503937 52.140242 116.503937 52.440945 
C 116.503937 52.741648 116.623407 53.030075 116.836036 53.242704 
C 117.048665 53.455333 117.337093 53.574803 117.637795 53.574803 
z
" clip-path="url(#pf7e4594be9)" style="fill: #aaaaaa; stroke: #aaaaaa; stroke-linejoin: miter"/>
   </g>
   <g id="patch_59">
    <path d="M 117.637795 36.850394 
C 119.141309 36.850394 120.583445 36.253041 121.64659 35.189897 
C 122.709734 34.126752 123.307087 32.684616 123.307087 31.181102 
C 123.307087 29.677589 122.709734 28.235453 121.64659 27.172308 
C 120.583445 26.109163 119.141309 25.511811 117.637795 25.511811 
C 116.134282 25.511811 114.692146 26.109163 113.629001 27.172308 
C 112.565856 28.235453 111.968504 29.677589 111.968504 31.181102 
C 111.968504 32.684616 112.565856 34.126752 113.629001 35.189897 
C 114.692146 36.253041 116.134282 36.850394 117.637795 36.850394 
L 117.637795 36.850394 
z
" clip-path="url(#pf7e4594be9)" style="fill: none; stroke: #aaaaaa; stroke-linejoin: miter"/>
   </g>
   <g id="patch_60">
    <path d="M 117.637795 32.314961 
C 117.938498 32.314961 118.226925 32.19549 118.439554 31.982861 
C 118.652183 31.770232 118.771654 31.481805 118.771654 31.181102 
C 118.771654 30.8804 118.652183 30.591972 118.439554 30.379343 
C 118.226925 30.166715 117.938498 30.047244 117.637795 30.047244 
C 117.337093 30.047244 117.048665 30.166715 116.836036 30.379343 
C 116.623407 30.591972 116.503937 30.8804 116.503937 31.181102 
C 116.503937 31.481805 116.623407 31.770232 116.836036 31.982861 
C 117.048665 32.19549 117.337093 32.314961 117.637795 32.314961 
z
" clip-path="url(#pf7e4594be9)" style="fill: #aaaaaa; stroke: #aaaaaa; stroke-linejoin: miter"/>
   </g>
   <g id="patch_61">
    <path d="M 117.637795 15.590551 
C 119.141309 15.590551 120.583445 14.993199 121.64659 13.930054 
C 122.709734 12.86691 123.307087 11.424773 123.307087 9.92126 
C 123.307087 8.417746 122.709734 6.97561 121.64659 5.912465 
C 120.583445 4.849321 119.141309 4.251969 117.637795 4.251969 
C 116.134282 4.251969 114.692146 4.849321 113.629001 5.912465 
C 112.565856 6.97561 111.968504 8.417746 111.968504 9.92126 
C 111.968504 11.424773 112.565856 12.86691 113.629001 13.930054 
C 114.692146 14.993199 116.134282 15.590551 117.637795 15.590551 
L 117.637795 15.590551 
z
" clip-path="url(#pf7e4594be9)" style="fill: none; stroke: #aaaaaa; stroke-linejoin: miter"/>
   </g>
   <g id="patch_62">
    <path d="M 117.637795 11.055118 
C 117.938498 11.055118 118.226925 10.935648 118.439554 10.723019 
C 118.652183 10.51039 118.771654 10.221963 118.771654 9.92126 
C 118.771654 9.620557 118.652183 9.33213 118.439554 9.119501 
C 118.226925 8.906872 117.938498 8.787402 117.637795 8.787402 
C 117.337093 8.787402 117.048665 8.906872 116.836036 9.119501 
C 116.623407 9.33213 116.503937 9.620557 116.503937 9.92126 
C 116.503937 10.221963 116.623407 10.51039 116.836036 10.723019 
C 117.048665 10.935648 117.337093 11.055118 117.637795 11.055118 
z
" clip-path="url(#pf7e4594be9)" style="fill: #aaaaaa; stroke: #aaaaaa; stroke-linejoin: miter"/>
   </g>
   <g id="patch_63">
    <path d="M 138.897638 100.629921 
C 140.401151 100.629921 141.843287 100.032569 142.906432 98.969424 
C 143.969577 97.90628 144.566929 96.464144 144.566929 94.96063 
C 144.566929 93.457116 143.969577 92.01498 142.906432 90.951836 
C 141.843287 89.888691 140.401151 89.291339 138.897638 89.291339 
C 137.394124 89.291339 135.951988 89.888691 134.888843 90.951836 
C 133.825699 92.01498 133.228346 93.457116 133.228346 94.96063 
C 133.228346 96.464144 133.825699 97.90628 134.888843 98.969424 
C 135.951988 100.032569 137.394124 100.629921 138.897638 100.629921 
L 138.897638 100.629921 
z
" clip-path="url(#pf7e4594be9)" style="fill: none; stroke: #aaaaaa; stroke-linejoin: miter"/>
   </g>
   <g id="patch_64">
    <path d="M 138.897638 96.094488 
C 139.198341 96.094488 139.486768 95.975018 139.699397 95.762389 
C 139.912026 95.54976 140.031496 95.261333 140.031496 94.96063 
C 140.031496 94.659927 139.912026 94.3715 139.699397 94.158871 
C 139.486768 93.946242 139.198341 93.826772 138.897638 93.826772 
C 138.596935 93.826772 138.308508 93.946242 138.095879 94.158871 
C 137.88325 94.3715 137.76378 94.659927 137.76378 94.96063 
C 137.76378 95.261333 137.88325 95.54976 138.095879 95.762389 
C 138.308508 95.975018 138.596935 96.094488 138.897638 96.094488 
z
" clip-path="url(#pf7e4594be9)" style="fill: #aaaaaa; stroke: #aaaaaa; stroke-linejoin: miter"/>
   </g>
   <g id="patch_65">
    <path d="M 138.897638 79.370079 
C 140.401151 79.370079 141.843287 78.772726 142.906432 77.709582 
C 143.969577 76.646437 144.566929 75.204301 144.566929 73.700787 
C 144.566929 72.197274 143.969577 70.755138 142.906432 69.691993 
C 141.843287 68.628848 140.401151 68.031496 138.897638 68.031496 
C 137.394124 68.031496 135.951988 68.628848 134.888843 69.691993 
C 133.825699 70.755138 133.228346 72.197274 133.228346 73.700787 
C 133.228346 75.204301 133.825699 76.646437 134.888843 77.709582 
C 135.951988 78.772726 137.394124 79.370079 138.897638 79.370079 
L 138.897638 79.370079 
z
" clip-path="url(#pf7e4594be9)" style="fill: none; stroke: #aaaaaa; stroke-linejoin: miter"/>
   </g>
   <g id="patch_66">
    <path d="M 138.897638 74.834646 
C 139.198341 74.834646 139.486768 74.715175 139.699397 74.502546 
C 139.912026 74.289917 140.031496 74.00149 140.031496 73.700787 
C 140.031496 73.400085 139.912026 73.111657 139.699397 72.899029 
C 139.486768 72.6864 139.198341 72.566929 138.897638 72.566929 
C 138.596935 72.566929 138.308508 72.6864 138.095879 72.899029 
C 137.88325 73.111657 137.76378 73.400085 137.76378 73.700787 
C 137.76378 74.00149 137.88325 74.289917 138.095879 74.502546 
C 138.308508 74.715175 138.596935 74.834646 138.897638 74.834646 
z
" clip-path="url(#pf7e4594be9)" style="fill: #aaaaaa; stroke: #aaaaaa; stroke-linejoin: miter"/>
   </g>
   <g id="patch_67">
    <path d="M 138.897638 58.110236 
C 140.401151 58.110236 141.843287 57.512884 142.906432 56.449739 
C 143.969577 55.386595 144.566929 53.944459 144.566929 52.440945 
C 144.566929 50.937431 143.969577 49.495295 142.906432 48.432151 
C 141.843287 47.369006 140.401151 46.771654 138.897638 46.771654 
C 137.394124 46.771654 135.951988 47.369006 134.888843 48.432151 
C 133.825699 49.495295 133.228346 50.937431 133.228346 52.440945 
C 133.228346 53.944459 133.825699 55.386595 134.888843 56.449739 
C 135.951988 57.512884 137.394124 58.110236 138.897638 58.110236 
L 138.897638 58.110236 
z
" clip-path="url(#pf7e4594be9)" style="fill: none; stroke: #aaaaaa; stroke-linejoin: miter"/>
   </g>
   <g id="patch_68">
    <path d="M 138.897638 53.574803 
C 139.198341 53.574803 139.486768 53.455333 139.699397 53.242704 
C 139.912026 53.030075 140.031496 52.741648 140.031496 52.440945 
C 140.031496 52.140242 139.912026 51.851815 139.699397 51.639186 
C 139.486768 51.426557 139.198341 51.307087 138.897638 51.307087 
C 138.596935 51.307087 138.308508 51.426557 138.095879 51.639186 
C 137.88325 51.851815 137.76378 52.140242 137.76378 52.440945 
C 137.76378 52.741648 137.88325 53.030075 138.095879 53.242704 
C 138.308508 53.455333 138.596935 53.574803 138.897638 53.574803 
z
" clip-path="url(#pf7e4594be9)" style="fill: #aaaaaa; stroke: #aaaaaa; stroke-linejoin: miter"/>
   </g>
   <g id="patch_69">
    <path d="M 138.897638 36.850394 
C 140.401151 36.850394 141.843287 36.253041 142.906432 35.189897 
C 143.969577 34.126752 144.566929 32.684616 144.566929 31.181102 
C 144.566929 29.677589 143.969577 28.235453 142.906432 27.172308 
C 141.843287 26.109163 140.401151 25.511811 138.897638 25.511811 
C 137.394124 25.511811 135.951988 26.109163 134.888843 27.172308 
C 133.825699 28.235453 133.228346 29.677589 133.228346 31.181102 
C 133.228346 32.684616 133.825699 34.126752 134.888843 35.189897 
C 135.951988 36.253041 137.394124 36.850394 138.897638 36.850394 
L 138.897638 36.850394 
z
" clip-path="url(#pf7e4594be9)" style="fill: none; stroke: #aaaaaa; stroke-linejoin: miter"/>
   </g>
   <g id="patch_70">
    <path d="M 138.897638 32.314961 
C 139.198341 32.314961 139.486768 32.19549 139.699397 31.982861 
C 139.912026 31.770232 140.031496 31.481805 140.031496 31.181102 
C 140.031496 30.8804 139.912026 30.591972 139.699397 30.379343 
C 139.486768 30.166715 139.198341 30.047244 138.897638 30.047244 
C 138.596935 30.047244 138.308508 30.166715 138.095879 30.379343 
C 137.88325 30.591972 137.76378 30.8804 137.76378 31.181102 
C 137.76378 31.481805 137.88325 31.770232 138.095879 31.982861 
C 138.308508 32.19549 138.596935 32.314961 138.897638 32.314961 
z
" clip-path="url(#pf7e4594be9)" style="fill: #aaaaaa; stroke: #aaaaaa; stroke-linejoin: miter"/>
   </g>
   <g id="patch_71">
    <path d="M 138.897638 15.590551 
C 140.401151 15.590551 141.843287 14.993199 142.906432 13.930054 
C 143.969577 12.86691 144.566929 11.424773 144.566929 9.92126 
C 144.566929 8.417746 143.969577 6.97561 142.906432 5.912465 
C 141.843287 4.849321 140.401151 4.251969 138.897638 4.251969 
C 137.394124 4.251969 135.951988 4.849321 134.888843 5.912465 
C 133.825699 6.97561 133.228346 8.417746 133.228346 9.92126 
C 133.228346 11.424773 133.825699 12.86691 134.888843 13.930054 
C 135.951988 14.993199 137.394124 15.590551 138.897638 15.590551 
L 138.897638 15.590551 
z
" clip-path="url(#pf7e4594be9)" style="fill: none; stroke: #aaaaaa; stroke-linejoin: miter"/>
   </g>
   <g id="patch_72">
    <path d="M 138.897638 11.055118 
C 139.198341 11.055118 139.486768 10.935648 139.699397 10.723019 
C 139.912026 10.51039 140.031496 10.221963 140.031496 9.92126 
C 140.031496 9.620557 139.912026 9.33213 139.699397 9.119501 
C 139.486768 8.906872 139.198341 8.787402 138.897638 8.787402 
C 138.596935 8.787402 138.308508 8.906872 138.095879 9.119501 
C 137.88325 9.33213 137.76378 9.620557 137.76378 9.92126 
C 137.76378 10.221963 137.88325 10.51039 138.095879 10.723019 
C 138.308508 10.935648 138.596935 11.055118 138.897638 11.055118 
z
" clip-path="url(#pf7e4594be9)" style="fill: #aaaaaa; stroke: #aaaaaa; stroke-linejoin: miter"/>
   </g>
   <g id="patch_73">
    <path d="M 160.15748 100.629921 
C 161.660994 100.629921 163.10313 100.032569 164.166275 98.969424 
C 165.229419 97.90628 165.826772 96.464144 165.826772 94.96063 
C 165.826772 93.457116 165.229419 92.01498 164.166275 90.951836 
C 163.10313 89.888691 161.660994 89.291339 160.15748 89.291339 
C 158.653967 89.291339 157.211831 89.888691 156.148686 90.951836 
C 155.085541 92.01498 154.488189 93.457116 154.488189 94.96063 
C 154.488189 96.464144 155.085541 97.90628 156.148686 98.969424 
C 157.211831 100.032569 158.653967 100.629921 160.15748 100.629921 
L 160.15748 100.629921 
z
" clip-path="url(#pf7e4594be9)" style="fill: none; stroke: #aaaaaa; stroke-linejoin: miter"/>
   </g>
   <g id="patch_74">
    <path d="M 160.15748 96.094488 
C 160.458183 96.094488 160.74661 95.975018 160.959239 95.762389 
C 161.171868 95.54976 161.291339 95.261333 161.291339 94.96063 
C 161.291339 94.659927 161.171868 94.3715 160.959239 94.158871 
C 160.74661 93.946242 160.458183 93.826772 160.15748 93.826772 
C 159.856778 93.826772 159.56835 93.946242 159.355721 94.158871 
C 159.143093 94.3715 159.023622 94.659927 159.023622 94.96063 
C 159.023622 95.261333 159.143093 95.54976 159.355721 95.762389 
C 159.56835 95.975018 159.856778 96.094488 160.15748 96.094488 
z
" clip-path="url(#pf7e4594be9)" style="fill: #aaaaaa; stroke: #aaaaaa; stroke-linejoin: miter"/>
   </g>
   <g id="patch_75">
    <path d="M 160.15748 79.370079 
C 161.660994 79.370079 163.10313 78.772726 164.166275 77.709582 
C 165.229419 76.646437 165.826772 75.204301 165.826772 73.700787 
C 165.826772 72.197274 165.229419 70.755138 164.166275 69.691993 
C 163.10313 68.628848 161.660994 68.031496 160.15748 68.031496 
C 158.653967 68.031496 157.211831 68.628848 156.148686 69.691993 
C 155.085541 70.755138 154.488189 72.197274 154.488189 73.700787 
C 154.488189 75.204301 155.085541 76.646437 156.148686 77.709582 
C 157.211831 78.772726 158.653967 79.370079 160.15748 79.370079 
L 160.15748 79.370079 
z
" clip-path="url(#pf7e4594be9)" style="fill: none; stroke: #aaaaaa; stroke-linejoin: miter"/>
   </g>
   <g id="patch_76">
    <path d="M 160.15748 74.834646 
C 160.458183 74.834646 160.74661 74.715175 160.959239 74.502546 
C 161.171868 74.289917 161.291339 74.00149 161.291339 73.700787 
C 161.291339 73.400085 161.171868 73.111657 160.959239 72.899029 
C 160.74661 72.6864 160.458183 72.566929 160.15748 72.566929 
C 159.856778 72.566929 159.56835 72.6864 159.355721 72.899029 
C 159.143093 73.111657 159.023622 73.400085 159.023622 73.700787 
C 159.023622 74.00149 159.143093 74.289917 159.355721 74.502546 
C 159.56835 74.715175 159.856778 74.834646 160.15748 74.834646 
z
" clip-path="url(#pf7e4594be9)" style="fill: #aaaaaa; stroke: #aaaaaa; stroke-linejoin: miter"/>
   </g>
   <g id="patch_77">
    <path d="M 160.15748 58.110236 
C 161.660994 58.110236 163.10313 57.512884 164.166275 56.449739 
C 165.229419 55.386595 165.826772 53.944459 165.826772 52.440945 
C 165.826772 50.937431 165.229419 49.495295 164.166275 48.432151 
C 163.10313 47.369006 161.660994 46.771654 160.15748 46.771654 
C 158.653967 46.771654 157.211831 47.369006 156.148686 48.432151 
C 155.085541 49.495295 154.488189 50.937431 154.488189 52.440945 
C 154.488189 53.944459 155.085541 55.386595 156.148686 56.449739 
C 157.211831 57.512884 158.653967 58.110236 160.15748 58.110236 
L 160.15748 58.110236 
z
" clip-path="url(#pf7e4594be9)" style="fill: none; stroke: #aaaaaa; stroke-linejoin: miter"/>
   </g>
   <g id="patch_78">
    <path d="M 160.15748 53.574803 
C 160.458183 53.574803 160.74661 53.455333 160.959239 53.242704 
C 161.171868 53.030075 161.291339 52.741648 161.291339 52.440945 
C 161.291339 52.140242 161.171868 51.851815 160.959239 51.639186 
C 160.74661 51.426557 160.458183 51.307087 160.15748 51.307087 
C 159.856778 51.307087 159.56835 51.426557 159.355721 51.639186 
C 159.143093 51.851815 159.023622 52.140242 159.023622 52.440945 
C 159.023622 52.741648 159.143093 53.030075 159.355721 53.242704 
C 159.56835 53.455333 159.856778 53.574803 160.15748 53.574803 
z
" clip-path="url(#pf7e4594be9)" style="fill: #aaaaaa; stroke: #aaaaaa; stroke-linejoin: miter"/>
   </g>
   <g id="patch_79">
    <path d="M 160.15748 36.850394 
C 161.660994 36.850394 163.10313 36.253041 164.166275 35.189897 
C 165.229419 34.126752 165.826772 32.684616 165.826772 31.181102 
C 165.826772 29.677589 165.229419 28.235453 164.166275 27.172308 
C 163.10313 26.109163 161.660994 25.511811 160.15748 25.511811 
C 158.653967 25.511811 157.211831 26.109163 156.148686 27.172308 
C 155.085541 28.235453 154.488189 29.677589 154.488189 31.181102 
C 154.488189 32.684616 155.085541 34.126752 156.148686 35.189897 
C 157.211831 36.253041 158.653967 36.850394 160.15748 36.850394 
L 160.15748 36.850394 
z
" clip-path="url(#pf7e4594be9)" style="fill: none; stroke: #aaaaaa; stroke-linejoin: miter"/>
   </g>
   <g id="patch_80">
    <path d="M 160.15748 32.314961 
C 160.458183 32.314961 160.74661 32.19549 160.959239 31.982861 
C 161.171868 31.770232 161.291339 31.481805 161.291339 31.181102 
C 161.291339 30.8804 161.171868 30.591972 160.959239 30.379343 
C 160.74661 30.166715 160.458183 30.047244 160.15748 30.047244 
C 159.856778 30.047244 159.56835 30.166715 159.355721 30.379343 
C 159.143093 30.591972 159.023622 30.8804 159.023622 31.181102 
C 159.023622 31.481805 159.143093 31.770232 159.355721 31.982861 
C 159.56835 32.19549 159.856778 32.314961 160.15748 32.314961 
z
" clip-path="url(#pf7e4594be9)" style="fill: #aaaaaa; stroke: #aaaaaa; stroke-linejoin: miter"/>
   </g>
   <g id="patch_81">
    <path d="M 160.15748 15.590551 
C 161.660994 15.590551 163.10313 14.993199 164.166275 13.930054 
C 165.229419 12.86691 165.826772 11.424773 165.826772 9.92126 
C 165.826772 8.417746 165.229419 6.97561 164.166275 5.912465 
C 163.10313 4.849321 161.660994 4.251969 160.15748 4.251969 
C 158.653967 4.251969 157.211831 4.849321 156.148686 5.912465 
C 155.085541 6.97561 154.488189 8.417746 154.488189 9.92126 
C 154.488189 11.424773 155.085541 12.86691 156.148686 13.930054 
C 157.211831 14.993199 158.653967 15.590551 160.15748 15.590551 
L 160.15748 15.590551 
z
" clip-path="url(#pf7e4594be9)" style="fill: none; stroke: #aaaaaa; stroke-linejoin: miter"/>
   </g>
   <g id="patch_82">
    <path d="M 160.15748 11.055118 
C 160.458183 11.055118 160.74661 10.935648 160.959239 10.723019 
C 161.171868 10.51039 161.291339 10.221963 161.291339 9.92126 
C 161.291339 9.620557 161.171868 9.33213 160.959239 9.119501 
C 160.74661 8.906872 160.458183 8.787402 160.15748 8.787402 
C 159.856778 8.787402 159.56835 8.906872 159.355721 9.119501 
C 159.143093 9.33213 159.023622 9.620557 159.023622 9.92126 
C 159.023622 10.221963 159.143093 10.51039 159.355721 10.723019 
C 159.56835 10.935648 159.856778 11.055118 160.15748 11.055118 
z
" clip-path="url(#pf7e4594be9)" style="fill: #aaaaaa; stroke: #aaaaaa; stroke-linejoin: miter"/>
   </g>
   <g id="patch_83">
    <path d="M 109.159766 48.709386 
L 108.951336 56.629719 
L 105.837395 54.96895 
L 90.870465 83.031942 
L 90.845454 83.018603 
L 105.812383 54.955611 
L 102.698441 53.294842 
z
" clip-path="url(#pf7e4594be9)" style="stroke: #000000; stroke-linejoin: miter"/>
   </g>
   <g id="patch_84">
    <path d="M 103.688081 21.317208 
L 103.688081 21.317208 
L 103.695943 21.329001 
L 52.672321 55.344749 
L 52.656597 55.321163 
L 103.680219 21.305415 
L 103.688081 21.317208 
z
" clip-path="url(#pf7e4594be9)" style="fill: #ff0000; stroke: #ff0000; stroke-linejoin: miter"/>
   </g>
   <g id="patch_85">
    <path d="M 41.999814 58.5962 
L 49.92289 58.5962 
L 48.344613 61.752753 
L 90.864298 83.012596 
L 90.851621 83.037949 
L 48.331936 61.778107 
L 46.753659 64.93466 
z
" clip-path="url(#pf7e4594be9)" style="fill: #a52a2a; stroke: #a52a2a; stroke-linejoin: miter"/>
   </g>
   <g id="patch_86">
    <path d="M 83.817571 34.564215 
L 79.886625 41.443371 
L 77.929013 38.506954 
L 52.672321 55.344749 
L 52.656597 55.321163 
L 77.91329 38.483368 
L 75.955678 35.546951 
z
" clip-path="url(#pf7e4594be9)" style="stroke: #000000; stroke-linejoin: miter"/>
   </g>
   <g id="patch_87">
    <path d="M 16.843749 1.601891 
L 23.722905 5.532837 
L 20.786488 7.490449 
L 52.676251 55.325094 
L 52.652666 55.340818 
L 20.762902 7.506172 
L 17.826485 9.463784 
z
" clip-path="url(#pf7e4594be9)" style="fill: #a52a2a; stroke: #a52a2a; stroke-linejoin: miter"/>
   </g>
   <g id="patch_88">
    <path d="M 162.992126 46.771654 
L 205.511811 46.771654 
L 205.511811 4.251969 
L 162.992126 4.251969 
z
" clip-path="url(#pf7e4594be9)" style="fill: #808080; stroke: #808080; stroke-linejoin: miter"/>
   </g>
   <g id="matplotlib.axis_1">
    <g id="xtick_1"/>
    <g id="xtick_2"/>
    <g id="xtick_3"/>
    <g id="xtick_4"/>
   </g>
   <g id="matplotlib.axis_2">
    <g id="ytick_1"/>
    <g id="ytick_2"/>
    <g id="ytick_3"/>
    <g id="ytick_4"/>
   </g>
   <g id="line2d_1">
    <defs>
     <path id="m3f552e983d" d="M 0 3 
C 0.795609 3 1.55874 2.683901 2.12132 2.12132 
C 2.683901 1.55874 3 0.795609 3 0 
C 3 -0.795609 2.683901 -1.55874 2.12132 -2.12132 
C 1.55874 -2.683901 0.795609 -3 0 -3 
C -0.795609 -3 -1.55874 -2.683901 -2.12132 -2.12132 
C -2.683901 -1.55874 -3 -0.795609 -3 0 
C -3 0.795609 -2.683901 1.55874 -2.12132 2.12132 
C -1.55874 2.683901 -0.795609 3 0 3 
z
" style="stroke: #0000ff"/>
    </defs>
    <g clip-path="url(#pf7e4594be9)">
     <use xlink:href="#m3f552e983d" x="90.85796" y="83.025272" style="fill: #0000ff; stroke: #0000ff"/>
    </g>
   </g>
   <g id="line2d_2">
    <g clip-path="url(#pf7e4594be9)">
     <use xlink:href="#m3f552e983d" x="52.664459" y="55.332956" style="fill: #0000ff; stroke: #0000ff"/>
    </g>
   </g>
   <g id="line2d_3">
    <path d="M 171.07874 69.662405 
L 169.066298 72.12846 
L 166.731957 74.513938 
L 164.081586 76.795275 
L 161.122576 78.950013 
L 157.864469 80.956066 
L 154.318937 82.791859 
L 150.499735 84.436448 
L 146.422648 85.869657 
L 142.105429 87.072192 
L 137.567724 88.025766 
L 132.830985 88.713215 
L 127.918373 89.118607 
L 122.854658 89.22735 
L 117.666101 89.026288 
L 112.380328 88.503798 
L 107.026205 87.649873 
L 101.633694 86.456202 
L 98.032591 85.468367 
L 94.437513 84.325097 
L 90.85796 83.025272 
L 87.303548 81.568146 
L 83.783988 79.953353 
L 80.309065 78.180913 
L 76.88861 76.251238 
L 73.532487 74.16513 
L 70.250559 71.923788 
L 67.052678 69.528808 
L 63.948648 66.982183 
L 60.948213 64.286302 
L 58.061029 61.443952 
L 55.296641 58.458313 
L 52.664459 55.332956 
L 50.173738 52.07184 
L 47.833553 48.679306 
L 45.652777 45.160072 
L 43.640058 41.519227 
L 41.803797 37.762224 
L 40.152128 33.894869 
L 38.692895 29.923317 
L 37.433631 25.854058 
L 36.381539 21.693909 
L 35.54347 17.449999 
L 34.925909 13.129762 
L 34.534948 8.74092 
L 34.376276 4.291471 
L 34.500442 -1 
L 34.500442 -1 
" clip-path="url(#pf7e4594be9)" style="fill: none; stroke: #000000; stroke-width: 1.5; stroke-linecap: square"/>
   </g>
   <g id="patch_89">
    <path d="M 0 106.299213 
L 0 0 
" style="fill: none; stroke: #000000; stroke-width: 0.8; stroke-linejoin: miter; stroke-linecap: square"/>
   </g>
   <g id="patch_90">
    <path d="M 170.07874 106.299213 
L 170.07874 0 
" style="fill: none; stroke: #000000; stroke-width: 0.8; stroke-linejoin: miter; stroke-linecap: square"/>
   </g>
   <g id="patch_91">
    <path d="M 0 106.299213 
L 170.07874 106.299213 
" style="fill: none; stroke: #000000; stroke-width: 0.8; stroke-linejoin: miter; stroke-linecap: square"/>
   </g>
   <g id="patch_92">
    <path d="M 0 0 
L 170.07874 0 
" style="fill: none; stroke: #000000; stroke-width: 0.8; stroke-linejoin: miter; stroke-linecap: square"/>
   </g>
   <g id="text_1">
    <!-- $F_{Lorentz}$ -->
    <g transform="translate(102.196542 70.269367)scale(0.1 -0.1)">
     <defs>
      <path id="DejaVuSans-Oblique-46" d="M 1081 4666 
L 3756 4666 
L 3653 4134 
L 1606 4134 
L 1338 2759 
L 3188 2759 
L 3084 2228 
L 1234 2228 
L 800 0 
L 172 0 
L 1081 4666 
z
" transform="scale(0.015625)"/>
      <path id="DejaVuSans-Oblique-4c" d="M 1075 4666 
L 1709 4666 
L 909 525 
L 3181 525 
L 3078 0 
L 172 0 
L 1075 4666 
z
" transform="scale(0.015625)"/>
      <path id="DejaVuSans-Oblique-6f" d="M 1625 -91 
Q 1009 -91 651 289 
Q 294 669 294 1325 
Q 294 1706 417 2101 
Q 541 2497 738 2766 
Q 1047 3184 1428 3384 
Q 1809 3584 2291 3584 
Q 2888 3584 3255 3212 
Q 3622 2841 3622 2241 
Q 3622 1825 3500 1412 
Q 3378 1000 3181 728 
Q 2875 309 2494 109 
Q 2113 -91 1625 -91 
z
M 891 1344 
Q 891 869 1089 633 
Q 1288 397 1691 397 
Q 2269 397 2648 901 
Q 3028 1406 3028 2181 
Q 3028 2634 2825 2865 
Q 2622 3097 2228 3097 
Q 1903 3097 1650 2945 
Q 1397 2794 1197 2484 
Q 1050 2253 970 1956 
Q 891 1659 891 1344 
z
" transform="scale(0.015625)"/>
      <path id="DejaVuSans-Oblique-72" d="M 2853 2969 
Q 2766 3016 2653 3041 
Q 2541 3066 2413 3066 
Q 1953 3066 1609 2717 
Q 1266 2369 1153 1784 
L 800 0 
L 225 0 
L 909 3500 
L 1484 3500 
L 1375 2956 
Q 1603 3259 1920 3421 
Q 2238 3584 2597 3584 
Q 2691 3584 2781 3573 
Q 2872 3563 2963 3538 
L 2853 2969 
z
" transform="scale(0.015625)"/>
      <path id="DejaVuSans-Oblique-65" d="M 3078 2063 
Q 3088 2113 3092 2166 
Q 3097 2219 3097 2272 
Q 3097 2653 2873 2875 
Q 2650 3097 2266 3097 
Q 1838 3097 1509 2826 
Q 1181 2556 1013 2059 
L 3078 2063 
z
M 3578 1613 
L 903 1613 
Q 884 1494 878 1425 
Q 872 1356 872 1306 
Q 872 872 1139 634 
Q 1406 397 1894 397 
Q 2269 397 2603 481 
Q 2938 566 3225 728 
L 3116 159 
Q 2806 34 2476 -28 
Q 2147 -91 1806 -91 
Q 1078 -91 686 257 
Q 294 606 294 1247 
Q 294 1794 489 2264 
Q 684 2734 1063 3103 
Q 1306 3334 1642 3459 
Q 1978 3584 2356 3584 
Q 2950 3584 3301 3228 
Q 3653 2872 3653 2272 
Q 3653 2128 3634 1964 
Q 3616 1800 3578 1613 
z
" transform="scale(0.015625)"/>
      <path id="DejaVuSans-Oblique-6e" d="M 3566 2113 
L 3156 0 
L 2578 0 
L 2988 2091 
Q 3016 2238 3031 2350 
Q 3047 2463 3047 2528 
Q 3047 2791 2881 2937 
Q 2716 3084 2419 3084 
Q 1956 3084 1622 2776 
Q 1288 2469 1184 1941 
L 800 0 
L 225 0 
L 903 3500 
L 1478 3500 
L 1363 2950 
Q 1603 3253 1940 3418 
Q 2278 3584 2650 3584 
Q 3113 3584 3367 3334 
Q 3622 3084 3622 2631 
Q 3622 2519 3608 2391 
Q 3594 2263 3566 2113 
z
" transform="scale(0.015625)"/>
      <path id="DejaVuSans-Oblique-74" d="M 2706 3500 
L 2619 3053 
L 1472 3053 
L 1100 1153 
Q 1081 1047 1072 975 
Q 1063 903 1063 863 
Q 1063 663 1183 572 
Q 1303 481 1569 481 
L 2150 481 
L 2053 0 
L 1503 0 
Q 991 0 739 200 
Q 488 400 488 806 
Q 488 878 497 964 
Q 506 1050 525 1153 
L 897 3053 
L 409 3053 
L 500 3500 
L 978 3500 
L 1172 4494 
L 1747 4494 
L 1556 3500 
L 2706 3500 
z
" transform="scale(0.015625)"/>
      <path id="DejaVuSans-Oblique-7a" d="M 744 3500 
L 3475 3500 
L 3372 2975 
L 738 459 
L 2913 459 
L 2822 0 
L -19 0 
L 84 525 
L 2719 3041 
L 653 3041 
L 744 3500 
z
" transform="scale(0.015625)"/>
     </defs>
     <use xlink:href="#DejaVuSans-Oblique-46" transform="translate(0 0.09375)"/>
     <use xlink:href="#DejaVuSans-Oblique-4c" transform="translate(57.519531 -16.3125)scale(0.7)"/>
     <use xlink:href="#DejaVuSans-Oblique-6f" transform="translate(96.518555 -16.3125)scale(0.7)"/>
     <use xlink:href="#DejaVuSans-Oblique-72" transform="translate(139.345703 -16.3125)scale(0.7)"/>
     <use xlink:href="#DejaVuSans-Oblique-65" transform="translate(168.125 -16.3125)scale(0.7)"/>
     <use xlink:href="#DejaVuSans-Oblique-6e" transform="translate(211.191406 -16.3125)scale(0.7)"/>
     <use xlink:href="#DejaVuSans-Oblique-74" transform="translate(255.556641 -16.3125)scale(0.7)"/>
     <use xlink:href="#DejaVuSans-Oblique-7a" transform="translate(283.00293 -16.3125)scale(0.7)"/>
    </g>
   </g>
   <g id="text_2">
    <!-- $F_{Lorentz}$ -->
    <g transform="translate(67.631388 55.332956)scale(0.1 -0.1)">
     <use xlink:href="#DejaVuSans-Oblique-46" transform="translate(0 0.09375)"/>
     <use xlink:href="#DejaVuSans-Oblique-4c" transform="translate(57.519531 -16.3125)scale(0.7)"/>
     <use xlink:href="#DejaVuSans-Oblique-6f" transform="translate(96.518555 -16.3125)scale(0.7)"/>
     <use xlink:href="#DejaVuSans-Oblique-72" transform="translate(139.345703 -16.3125)scale(0.7)"/>
     <use xlink:href="#DejaVuSans-Oblique-65" transform="translate(168.125 -16.3125)scale(0.7)"/>
     <use xlink:href="#DejaVuSans-Oblique-6e" transform="translate(211.191406 -16.3125)scale(0.7)"/>
     <use xlink:href="#DejaVuSans-Oblique-74" transform="translate(255.556641 -16.3125)scale(0.7)"/>
     <use xlink:href="#DejaVuSans-Oblique-7a" transform="translate(283.00293 -16.3125)scale(0.7)"/>
    </g>
   </g>
   <g id="text_3">
    <!-- r -->
    <g style="fill: #ff0000" transform="translate(75.341624 26.9865)scale(0.1 -0.1)">
     <defs>
      <path id="DejaVuSans-72" d="M 2631 2963 
Q 2534 3019 2420 3045 
Q 2306 3072 2169 3072 
Q 1681 3072 1420 2755 
Q 1159 2438 1159 1844 
L 1159 0 
L 581 0 
L 581 3500 
L 1159 3500 
L 1159 2956 
Q 1341 3275 1631 3429 
Q 1922 3584 2338 3584 
Q 2397 3584 2469 3576 
Q 2541 3569 2628 3553 
L 2631 2963 
z
" transform="scale(0.015625)"/>
     </defs>
     <use xlink:href="#DejaVuSans-72"/>
    </g>
   </g>
   <g id="text_4">
    <!-- $\nu_0$ -->
    <g style="fill: #a52a2a" transform="translate(48.338275 77.355981)scale(0.1 -0.1)">
     <defs>
      <path id="DejaVuSans-Oblique-3bd" d="M 959 0 
L 572 3500 
L 1191 3500 
L 1522 563 
Q 1972 950 2391 1488 
Q 2706 1891 2788 2241 
Q 2825 2406 2809 2719 
Q 2794 3091 2544 3500 
L 3125 3500 
L 3125 3500 
Q 3288 3222 3353 2834 
Q 3416 2478 3369 2234 
Q 3250 1622 2719 1075 
Q 2025 363 1572 0 
L 959 0 
z
" transform="scale(0.015625)"/>
      <path id="DejaVuSans-30" d="M 2034 4250 
Q 1547 4250 1301 3770 
Q 1056 3291 1056 2328 
Q 1056 1369 1301 889 
Q 1547 409 2034 409 
Q 2525 409 2770 889 
Q 3016 1369 3016 2328 
Q 3016 3291 2770 3770 
Q 2525 4250 2034 4250 
z
M 2034 4750 
Q 2819 4750 3233 4129 
Q 3647 3509 3647 2328 
Q 3647 1150 3233 529 
Q 2819 -91 2034 -91 
Q 1250 -91 836 529 
Q 422 1150 422 2328 
Q 422 3509 836 4129 
Q 1250 4750 2034 4750 
z
" transform="scale(0.015625)"/>
     </defs>
     <use xlink:href="#DejaVuSans-Oblique-3bd" transform="translate(0 0.3125)"/>
     <use xlink:href="#DejaVuSans-30" transform="translate(55.859375 -16.09375)scale(0.7)"/>
    </g>
   </g>
   <g id="text_5">
    <!-- $\nu_0$ -->
    <g style="fill: #a52a2a" transform="translate(15.814065 22.734531)scale(0.1 -0.1)">
     <use xlink:href="#DejaVuSans-Oblique-3bd" transform="translate(0 0.3125)"/>
     <use xlink:href="#DejaVuSans-30" transform="translate(55.859375 -16.09375)scale(0.7)"/>
    </g>
   </g>
   <g id="legend_1">
    <g id="line2d_4">
     <path d="M 4.05 66.712572 
L 8.55 66.712572 
L 13.05 66.712572 
" style="fill: none; stroke: #000000; stroke-width: 1.5; stroke-linecap: square"/>
    </g>
    <g id="text_6">
     <!-- Laufbahn -->
     <g transform="translate(16.65 68.287572)scale(0.045 -0.045)">
      <defs>
       <path id="DejaVuSans-4c" d="M 628 4666 
L 1259 4666 
L 1259 531 
L 3531 531 
L 3531 0 
L 628 0 
L 628 4666 
z
" transform="scale(0.015625)"/>
       <path id="DejaVuSans-61" d="M 2194 1759 
Q 1497 1759 1228 1600 
Q 959 1441 959 1056 
Q 959 750 1161 570 
Q 1363 391 1709 391 
Q 2188 391 2477 730 
Q 2766 1069 2766 1631 
L 2766 1759 
L 2194 1759 
z
M 3341 1997 
L 3341 0 
L 2766 0 
L 2766 531 
Q 2569 213 2275 61 
Q 1981 -91 1556 -91 
Q 1019 -91 701 211 
Q 384 513 384 1019 
Q 384 1609 779 1909 
Q 1175 2209 1959 2209 
L 2766 2209 
L 2766 2266 
Q 2766 2663 2505 2880 
Q 2244 3097 1772 3097 
Q 1472 3097 1187 3025 
Q 903 2953 641 2809 
L 641 3341 
Q 956 3463 1253 3523 
Q 1550 3584 1831 3584 
Q 2591 3584 2966 3190 
Q 3341 2797 3341 1997 
z
" transform="scale(0.015625)"/>
       <path id="DejaVuSans-75" d="M 544 1381 
L 544 3500 
L 1119 3500 
L 1119 1403 
Q 1119 906 1312 657 
Q 1506 409 1894 409 
Q 2359 409 2629 706 
Q 2900 1003 2900 1516 
L 2900 3500 
L 3475 3500 
L 3475 0 
L 2900 0 
L 2900 538 
Q 2691 219 2414 64 
Q 2138 -91 1772 -91 
Q 1169 -91 856 284 
Q 544 659 544 1381 
z
M 1991 3584 
L 1991 3584 
z
" transform="scale(0.015625)"/>
       <path id="DejaVuSans-66" d="M 2375 4863 
L 2375 4384 
L 1825 4384 
Q 1516 4384 1395 4259 
Q 1275 4134 1275 3809 
L 1275 3500 
L 2222 3500 
L 2222 3053 
L 1275 3053 
L 1275 0 
L 697 0 
L 697 3053 
L 147 3053 
L 147 3500 
L 697 3500 
L 697 3744 
Q 697 4328 969 4595 
Q 1241 4863 1831 4863 
L 2375 4863 
z
" transform="scale(0.015625)"/>
       <path id="DejaVuSans-62" d="M 3116 1747 
Q 3116 2381 2855 2742 
Q 2594 3103 2138 3103 
Q 1681 3103 1420 2742 
Q 1159 2381 1159 1747 
Q 1159 1113 1420 752 
Q 1681 391 2138 391 
Q 2594 391 2855 752 
Q 3116 1113 3116 1747 
z
M 1159 2969 
Q 1341 3281 1617 3432 
Q 1894 3584 2278 3584 
Q 2916 3584 3314 3078 
Q 3713 2572 3713 1747 
Q 3713 922 3314 415 
Q 2916 -91 2278 -91 
Q 1894 -91 1617 61 
Q 1341 213 1159 525 
L 1159 0 
L 581 0 
L 581 4863 
L 1159 4863 
L 1159 2969 
z
" transform="scale(0.015625)"/>
       <path id="DejaVuSans-68" d="M 3513 2113 
L 3513 0 
L 2938 0 
L 2938 2094 
Q 2938 2591 2744 2837 
Q 2550 3084 2163 3084 
Q 1697 3084 1428 2787 
Q 1159 2491 1159 1978 
L 1159 0 
L 581 0 
L 581 4863 
L 1159 4863 
L 1159 2956 
Q 1366 3272 1645 3428 
Q 1925 3584 2291 3584 
Q 2894 3584 3203 3211 
Q 3513 2838 3513 2113 
z
" transform="scale(0.015625)"/>
       <path id="DejaVuSans-6e" d="M 3513 2113 
L 3513 0 
L 2938 0 
L 2938 2094 
Q 2938 2591 2744 2837 
Q 2550 3084 2163 3084 
Q 1697 3084 1428 2787 
Q 1159 2491 1159 1978 
L 1159 0 
L 581 0 
L 581 3500 
L 1159 3500 
L 1159 2956 
Q 1366 3272 1645 3428 
Q 1925 3584 2291 3584 
Q 2894 3584 3203 3211 
Q 3513 2838 3513 2113 
z
" transform="scale(0.015625)"/>
      </defs>
      <use xlink:href="#DejaVuSans-4c"/>
      <use xlink:href="#DejaVuSans-61" x="55.712891"/>
      <use xlink:href="#DejaVuSans-75" x="116.992188"/>
      <use xlink:href="#DejaVuSans-66" x="180.371094"/>
      <use xlink:href="#DejaVuSans-62" x="215.576172"/>
      <use xlink:href="#DejaVuSans-61" x="279.052734"/>
      <use xlink:href="#DejaVuSans-68" x="340.332031"/>
      <use xlink:href="#DejaVuSans-6e" x="403.710938"/>
     </g>
    </g>
    <g id="line2d_5">
     <defs>
      <path id="m4dcc03790d" d="M 0 1.5 
C 0.397805 1.5 0.77937 1.341951 1.06066 1.06066 
C 1.341951 0.77937 1.5 0.397805 1.5 0 
C 1.5 -0.397805 1.341951 -0.77937 1.06066 -1.06066 
C 0.77937 -1.341951 0.397805 -1.5 0 -1.5 
C -0.397805 -1.5 -0.77937 -1.341951 -1.06066 -1.06066 
C -1.341951 -0.77937 -1.5 -0.397805 -1.5 0 
C -1.5 0.397805 -1.341951 0.77937 -1.06066 1.06066 
C -0.77937 1.341951 -0.397805 1.5 0 1.5 
z
" style="stroke: #0000ff"/>
     </defs>
     <g>
      <use xlink:href="#m4dcc03790d" x="8.55" y="73.317728" style="fill: #0000ff; stroke: #0000ff"/>
     </g>
    </g>
    <g id="text_7">
     <!-- Protonen -->
     <g transform="translate(16.65 74.892728)scale(0.045 -0.045)">
      <defs>
       <path id="DejaVuSans-50" d="M 1259 4147 
L 1259 2394 
L 2053 2394 
Q 2494 2394 2734 2622 
Q 2975 2850 2975 3272 
Q 2975 3691 2734 3919 
Q 2494 4147 2053 4147 
L 1259 4147 
z
M 628 4666 
L 2053 4666 
Q 2838 4666 3239 4311 
Q 3641 3956 3641 3272 
Q 3641 2581 3239 2228 
Q 2838 1875 2053 1875 
L 1259 1875 
L 1259 0 
L 628 0 
L 628 4666 
z
" transform="scale(0.015625)"/>
       <path id="DejaVuSans-6f" d="M 1959 3097 
Q 1497 3097 1228 2736 
Q 959 2375 959 1747 
Q 959 1119 1226 758 
Q 1494 397 1959 397 
Q 2419 397 2687 759 
Q 2956 1122 2956 1747 
Q 2956 2369 2687 2733 
Q 2419 3097 1959 3097 
z
M 1959 3584 
Q 2709 3584 3137 3096 
Q 3566 2609 3566 1747 
Q 3566 888 3137 398 
Q 2709 -91 1959 -91 
Q 1206 -91 779 398 
Q 353 888 353 1747 
Q 353 2609 779 3096 
Q 1206 3584 1959 3584 
z
" transform="scale(0.015625)"/>
       <path id="DejaVuSans-74" d="M 1172 4494 
L 1172 3500 
L 2356 3500 
L 2356 3053 
L 1172 3053 
L 1172 1153 
Q 1172 725 1289 603 
Q 1406 481 1766 481 
L 2356 481 
L 2356 0 
L 1766 0 
Q 1100 0 847 248 
Q 594 497 594 1153 
L 594 3053 
L 172 3053 
L 172 3500 
L 594 3500 
L 594 4494 
L 1172 4494 
z
" transform="scale(0.015625)"/>
       <path id="DejaVuSans-65" d="M 3597 1894 
L 3597 1613 
L 953 1613 
Q 991 1019 1311 708 
Q 1631 397 2203 397 
Q 2534 397 2845 478 
Q 3156 559 3463 722 
L 3463 178 
Q 3153 47 2828 -22 
Q 2503 -91 2169 -91 
Q 1331 -91 842 396 
Q 353 884 353 1716 
Q 353 2575 817 3079 
Q 1281 3584 2069 3584 
Q 2775 3584 3186 3129 
Q 3597 2675 3597 1894 
z
M 3022 2063 
Q 3016 2534 2758 2815 
Q 2500 3097 2075 3097 
Q 1594 3097 1305 2825 
Q 1016 2553 972 2059 
L 3022 2063 
z
" transform="scale(0.015625)"/>
      </defs>
      <use xlink:href="#DejaVuSans-50"/>
      <use xlink:href="#DejaVuSans-72" x="58.552734"/>
      <use xlink:href="#DejaVuSans-6f" x="97.416016"/>
      <use xlink:href="#DejaVuSans-74" x="158.597656"/>
      <use xlink:href="#DejaVuSans-6f" x="197.806641"/>
      <use xlink:href="#DejaVuSans-6e" x="258.988281"/>
      <use xlink:href="#DejaVuSans-65" x="322.367188"/>
      <use xlink:href="#DejaVuSans-6e" x="383.890625"/>
     </g>
    </g>
    <g id="patch_93">
     <path d="M 4.05 81.497884 
L 13.05 81.497884 
L 13.05 78.347884 
L 4.05 78.347884 
z
" style="stroke: #000000; stroke-linejoin: miter"/>
    </g>
    <g id="text_8">
     <!-- Lorentz-Kraft -->
     <g transform="translate(16.65 81.497884)scale(0.045 -0.045)">
      <defs>
       <path id="DejaVuSans-7a" d="M 353 3500 
L 3084 3500 
L 3084 2975 
L 922 459 
L 3084 459 
L 3084 0 
L 275 0 
L 275 525 
L 2438 3041 
L 353 3041 
L 353 3500 
z
" transform="scale(0.015625)"/>
       <path id="DejaVuSans-2d" d="M 313 2009 
L 1997 2009 
L 1997 1497 
L 313 1497 
L 313 2009 
z
" transform="scale(0.015625)"/>
       <path id="DejaVuSans-4b" d="M 628 4666 
L 1259 4666 
L 1259 2694 
L 3353 4666 
L 4166 4666 
L 1850 2491 
L 4331 0 
L 3500 0 
L 1259 2247 
L 1259 0 
L 628 0 
L 628 4666 
z
" transform="scale(0.015625)"/>
      </defs>
      <use xlink:href="#DejaVuSans-4c"/>
      <use xlink:href="#DejaVuSans-6f" x="53.962891"/>
      <use xlink:href="#DejaVuSans-72" x="115.144531"/>
      <use xlink:href="#DejaVuSans-65" x="154.007812"/>
      <use xlink:href="#DejaVuSans-6e" x="215.53125"/>
      <use xlink:href="#DejaVuSans-74" x="278.910156"/>
      <use xlink:href="#DejaVuSans-7a" x="318.119141"/>
      <use xlink:href="#DejaVuSans-2d" x="370.609375"/>
      <use xlink:href="#DejaVuSans-4b" x="406.693359"/>
      <use xlink:href="#DejaVuSans-72" x="472.269531"/>
      <use xlink:href="#DejaVuSans-61" x="513.382812"/>
      <use xlink:href="#DejaVuSans-66" x="574.662109"/>
      <use xlink:href="#DejaVuSans-74" x="608.117188"/>
     </g>
    </g>
    <g id="patch_94">
     <path d="M 4.05 88.103041 
L 13.05 88.103041 
L 13.05 84.953041 
L 4.05 84.953041 
z
" style="fill: #ff0000; stroke: #ff0000; stroke-linejoin: miter"/>
    </g>
    <g id="text_9">
     <!-- Radius -->
     <g transform="translate(16.65 88.103041)scale(0.045 -0.045)">
      <defs>
       <path id="DejaVuSans-52" d="M 2841 2188 
Q 3044 2119 3236 1894 
Q 3428 1669 3622 1275 
L 4263 0 
L 3584 0 
L 2988 1197 
Q 2756 1666 2539 1819 
Q 2322 1972 1947 1972 
L 1259 1972 
L 1259 0 
L 628 0 
L 628 4666 
L 2053 4666 
Q 2853 4666 3247 4331 
Q 3641 3997 3641 3322 
Q 3641 2881 3436 2590 
Q 3231 2300 2841 2188 
z
M 1259 4147 
L 1259 2491 
L 2053 2491 
Q 2509 2491 2742 2702 
Q 2975 2913 2975 3322 
Q 2975 3731 2742 3939 
Q 2509 4147 2053 4147 
L 1259 4147 
z
" transform="scale(0.015625)"/>
       <path id="DejaVuSans-64" d="M 2906 2969 
L 2906 4863 
L 3481 4863 
L 3481 0 
L 2906 0 
L 2906 525 
Q 2725 213 2448 61 
Q 2172 -91 1784 -91 
Q 1150 -91 751 415 
Q 353 922 353 1747 
Q 353 2572 751 3078 
Q 1150 3584 1784 3584 
Q 2172 3584 2448 3432 
Q 2725 3281 2906 2969 
z
M 947 1747 
Q 947 1113 1208 752 
Q 1469 391 1925 391 
Q 2381 391 2643 752 
Q 2906 1113 2906 1747 
Q 2906 2381 2643 2742 
Q 2381 3103 1925 3103 
Q 1469 3103 1208 2742 
Q 947 2381 947 1747 
z
" transform="scale(0.015625)"/>
       <path id="DejaVuSans-69" d="M 603 3500 
L 1178 3500 
L 1178 0 
L 603 0 
L 603 3500 
z
M 603 4863 
L 1178 4863 
L 1178 4134 
L 603 4134 
L 603 4863 
z
" transform="scale(0.015625)"/>
       <path id="DejaVuSans-73" d="M 2834 3397 
L 2834 2853 
Q 2591 2978 2328 3040 
Q 2066 3103 1784 3103 
Q 1356 3103 1142 2972 
Q 928 2841 928 2578 
Q 928 2378 1081 2264 
Q 1234 2150 1697 2047 
L 1894 2003 
Q 2506 1872 2764 1633 
Q 3022 1394 3022 966 
Q 3022 478 2636 193 
Q 2250 -91 1575 -91 
Q 1294 -91 989 -36 
Q 684 19 347 128 
L 347 722 
Q 666 556 975 473 
Q 1284 391 1588 391 
Q 1994 391 2212 530 
Q 2431 669 2431 922 
Q 2431 1156 2273 1281 
Q 2116 1406 1581 1522 
L 1381 1569 
Q 847 1681 609 1914 
Q 372 2147 372 2553 
Q 372 3047 722 3315 
Q 1072 3584 1716 3584 
Q 2034 3584 2315 3537 
Q 2597 3491 2834 3397 
z
" transform="scale(0.015625)"/>
      </defs>
      <use xlink:href="#DejaVuSans-52"/>
      <use xlink:href="#DejaVuSans-61" x="67.232422"/>
      <use xlink:href="#DejaVuSans-64" x="128.511719"/>
      <use xlink:href="#DejaVuSans-69" x="191.988281"/>
      <use xlink:href="#DejaVuSans-75" x="219.771484"/>
      <use xlink:href="#DejaVuSans-73" x="283.150391"/>
     </g>
    </g>
    <g id="patch_95">
     <path d="M 4.05 94.708197 
L 13.05 94.708197 
L 13.05 91.558197 
L 4.05 91.558197 
z
" style="fill: #a52a2a; stroke: #a52a2a; stroke-linejoin: miter"/>
    </g>
    <g id="text_10">
     <!-- Elektrische Kraft -->
     <g transform="translate(16.65 94.708197)scale(0.045 -0.045)">
      <defs>
       <path id="DejaVuSans-45" d="M 628 4666 
L 3578 4666 
L 3578 4134 
L 1259 4134 
L 1259 2753 
L 3481 2753 
L 3481 2222 
L 1259 2222 
L 1259 531 
L 3634 531 
L 3634 0 
L 628 0 
L 628 4666 
z
" transform="scale(0.015625)"/>
       <path id="DejaVuSans-6c" d="M 603 4863 
L 1178 4863 
L 1178 0 
L 603 0 
L 603 4863 
z
" transform="scale(0.015625)"/>
       <path id="DejaVuSans-6b" d="M 581 4863 
L 1159 4863 
L 1159 1991 
L 2875 3500 
L 3609 3500 
L 1753 1863 
L 3688 0 
L 2938 0 
L 1159 1709 
L 1159 0 
L 581 0 
L 581 4863 
z
" transform="scale(0.015625)"/>
       <path id="DejaVuSans-63" d="M 3122 3366 
L 3122 2828 
Q 2878 2963 2633 3030 
Q 2388 3097 2138 3097 
Q 1578 3097 1268 2742 
Q 959 2388 959 1747 
Q 959 1106 1268 751 
Q 1578 397 2138 397 
Q 2388 397 2633 464 
Q 2878 531 3122 666 
L 3122 134 
Q 2881 22 2623 -34 
Q 2366 -91 2075 -91 
Q 1284 -91 818 406 
Q 353 903 353 1747 
Q 353 2603 823 3093 
Q 1294 3584 2113 3584 
Q 2378 3584 2631 3529 
Q 2884 3475 3122 3366 
z
" transform="scale(0.015625)"/>
       <path id="DejaVuSans-20" transform="scale(0.015625)"/>
      </defs>
      <use xlink:href="#DejaVuSans-45"/>
      <use xlink:href="#DejaVuSans-6c" x="63.183594"/>
      <use xlink:href="#DejaVuSans-65" x="90.966797"/>
      <use xlink:href="#DejaVuSans-6b" x="152.490234"/>
      <use xlink:href="#DejaVuSans-74" x="210.400391"/>
      <use xlink:href="#DejaVuSans-72" x="249.609375"/>
      <use xlink:href="#DejaVuSans-69" x="290.722656"/>
      <use xlink:href="#DejaVuSans-73" x="318.505859"/>
      <use xlink:href="#DejaVuSans-63" x="370.605469"/>
      <use xlink:href="#DejaVuSans-68" x="425.585938"/>
      <use xlink:href="#DejaVuSans-65" x="488.964844"/>
      <use xlink:href="#DejaVuSans-20" x="550.488281"/>
      <use xlink:href="#DejaVuSans-4b" x="582.275391"/>
      <use xlink:href="#DejaVuSans-72" x="647.851562"/>
      <use xlink:href="#DejaVuSans-61" x="688.964844"/>
      <use xlink:href="#DejaVuSans-66" x="750.244141"/>
      <use xlink:href="#DejaVuSans-74" x="783.699219"/>
     </g>
    </g>
    <g id="patch_96">
     <path d="M 4.05 101.313353 
L 13.05 101.313353 
L 13.05 98.163353 
L 4.05 98.163353 
z
" style="fill: #808080; stroke: #808080; stroke-linejoin: miter"/>
    </g>
    <g id="text_11">
     <!-- Protonen-Quelle -->
     <g transform="translate(16.65 101.313353)scale(0.045 -0.045)">
      <defs>
       <path id="DejaVuSans-51" d="M 2522 4238 
Q 1834 4238 1429 3725 
Q 1025 3213 1025 2328 
Q 1025 1447 1429 934 
Q 1834 422 2522 422 
Q 3209 422 3611 934 
Q 4013 1447 4013 2328 
Q 4013 3213 3611 3725 
Q 3209 4238 2522 4238 
z
M 3406 84 
L 4238 -825 
L 3475 -825 
L 2784 -78 
Q 2681 -84 2626 -87 
Q 2572 -91 2522 -91 
Q 1538 -91 948 567 
Q 359 1225 359 2328 
Q 359 3434 948 4092 
Q 1538 4750 2522 4750 
Q 3503 4750 4090 4092 
Q 4678 3434 4678 2328 
Q 4678 1516 4351 937 
Q 4025 359 3406 84 
z
" transform="scale(0.015625)"/>
      </defs>
      <use xlink:href="#DejaVuSans-50"/>
      <use xlink:href="#DejaVuSans-72" x="58.552734"/>
      <use xlink:href="#DejaVuSans-6f" x="97.416016"/>
      <use xlink:href="#DejaVuSans-74" x="158.597656"/>
      <use xlink:href="#DejaVuSans-6f" x="197.806641"/>
      <use xlink:href="#DejaVuSans-6e" x="258.988281"/>
      <use xlink:href="#DejaVuSans-65" x="322.367188"/>
      <use xlink:href="#DejaVuSans-6e" x="383.890625"/>
      <use xlink:href="#DejaVuSans-2d" x="447.269531"/>
      <use xlink:href="#DejaVuSans-51" x="486.978516"/>
      <use xlink:href="#DejaVuSans-75" x="565.689453"/>
      <use xlink:href="#DejaVuSans-65" x="629.068359"/>
      <use xlink:href="#DejaVuSans-6c" x="690.591797"/>
      <use xlink:href="#DejaVuSans-6c" x="718.375"/>
      <use xlink:href="#DejaVuSans-65" x="746.158203"/>
     </g>
    </g>
   </g>
  </g>
 </g>
 <defs>
  <clipPath id="pf7e4594be9">
   <rect x="0" y="0" width="170.07874" height="106.299213"/>
  </clipPath>
 </defs>
</svg>
