<?xml version="1.0" encoding="utf-8" standalone="no"?>
<!DOCTYPE svg PUBLIC "-//W3C//DTD SVG 1.1//EN"
  "http://www.w3.org/Graphics/SVG/1.1/DTD/svg11.dtd">
<svg xmlns:xlink="http://www.w3.org/1999/xlink" width="170.07874pt" height="106.299213pt" viewBox="0 0 170.07874 106.299213" xmlns="http://www.w3.org/2000/svg" version="1.1">
 <metadata>
  <rdf:RDF xmlns:dc="http://purl.org/dc/elements/1.1/" xmlns:cc="http://creativecommons.org/ns#" xmlns:rdf="http://www.w3.org/1999/02/22-rdf-syntax-ns#">
   <cc:Work>
    <dc:type rdf:resource="http://purl.org/dc/dcmitype/StillImage"/>
    <dc:date>2024-02-14T20:31:05.543000</dc:date>
    <dc:format>image/svg+xml</dc:format>
    <dc:creator>
     <cc:Agent>
      <dc:title>Matplotlib v3.5.2, https://matplotlib.org/</dc:title>
     </cc:Agent>
    </dc:creator>
   </cc:Work>
  </rdf:RDF>
 </metadata>
 <defs>
  <style type="text/css">*{stroke-linejoin: round; stroke-linecap: butt}</style>
 </defs>
 <g id="figure_1">
  <g id="patch_1">
   <path d="M 0 106.299213 
L 170.07874 106.299213 
L 170.07874 0 
L 0 0 
z
" style="fill: #ffffff"/>
  </g>
  <g id="axes_1">
   <g id="patch_2">
    <path d="M 0 106.299213 
L 170.07874 106.299213 
L 170.07874 0 
L 0 0 
z
" style="fill: #ffffff"/>
   </g>
   <g id="patch_3">
    <path d="M 10.629921 98.985827 
C 11.847767 98.985827 13.015897 98.501971 13.877045 97.640824 
C 14.738192 96.779677 15.222047 95.611547 15.222047 94.393701 
C 15.222047 93.175855 14.738192 92.007725 13.877045 91.146577 
C 13.015897 90.28543 11.847767 89.801575 10.629921 89.801575 
C 9.412075 89.801575 8.243945 90.28543 7.382798 91.146577 
C 6.521651 92.007725 6.037795 93.175855 6.037795 94.393701 
C 6.037795 95.611547 6.521651 96.779677 7.382798 97.640824 
C 8.243945 98.501971 9.412075 98.985827 10.629921 98.985827 
L 10.629921 98.985827 
z
" clip-path="url(#p48442e115d)" style="fill: none; stroke: #bbbbbb; stroke-linejoin: miter"/>
   </g>
   <g id="patch_4">
    <path d="M 10.629921 95.159055 
C 10.832896 95.159055 11.027584 95.078413 11.171108 94.934888 
C 11.314633 94.791363 11.395276 94.596675 11.395276 94.393701 
C 11.395276 94.190726 11.314633 93.996038 11.171108 93.852514 
C 11.027584 93.708989 10.832896 93.628346 10.629921 93.628346 
C 10.426947 93.628346 10.232259 93.708989 10.088734 93.852514 
C 9.945209 93.996038 9.864567 94.190726 9.864567 94.393701 
C 9.864567 94.596675 9.945209 94.791363 10.088734 94.934888 
C 10.232259 95.078413 10.426947 95.159055 10.629921 95.159055 
z
" clip-path="url(#p48442e115d)" style="fill: #bbbbbb; stroke: #bbbbbb; stroke-linejoin: miter"/>
   </g>
   <g id="patch_5">
    <path d="M 10.629921 77.725984 
C 11.847767 77.725984 13.015897 77.242129 13.877045 76.380982 
C 14.738192 75.519834 15.222047 74.351704 15.222047 73.133858 
C 15.222047 71.916012 14.738192 70.747882 13.877045 69.886735 
C 13.015897 69.025588 11.847767 68.541732 10.629921 68.541732 
C 9.412075 68.541732 8.243945 69.025588 7.382798 69.886735 
C 6.521651 70.747882 6.037795 71.916012 6.037795 73.133858 
C 6.037795 74.351704 6.521651 75.519834 7.382798 76.380982 
C 8.243945 77.242129 9.412075 77.725984 10.629921 77.725984 
L 10.629921 77.725984 
z
" clip-path="url(#p48442e115d)" style="fill: none; stroke: #bbbbbb; stroke-linejoin: miter"/>
   </g>
   <g id="patch_6">
    <path d="M 10.629921 73.899213 
C 10.832896 73.899213 11.027584 73.81857 11.171108 73.675046 
C 11.314633 73.531521 11.395276 73.336833 11.395276 73.133858 
C 11.395276 72.930884 11.314633 72.736196 11.171108 72.592671 
C 11.027584 72.449146 10.832896 72.368504 10.629921 72.368504 
C 10.426947 72.368504 10.232259 72.449146 10.088734 72.592671 
C 9.945209 72.736196 9.864567 72.930884 9.864567 73.133858 
C 9.864567 73.336833 9.945209 73.531521 10.088734 73.675046 
C 10.232259 73.81857 10.426947 73.899213 10.629921 73.899213 
z
" clip-path="url(#p48442e115d)" style="fill: #bbbbbb; stroke: #bbbbbb; stroke-linejoin: miter"/>
   </g>
   <g id="patch_7">
    <path d="M 10.629921 56.466142 
C 11.847767 56.466142 13.015897 55.982286 13.877045 55.121139 
C 14.738192 54.259992 15.222047 53.091862 15.222047 51.874016 
C 15.222047 50.65617 14.738192 49.48804 13.877045 48.626892 
C 13.015897 47.765745 11.847767 47.28189 10.629921 47.28189 
C 9.412075 47.28189 8.243945 47.765745 7.382798 48.626892 
C 6.521651 49.48804 6.037795 50.65617 6.037795 51.874016 
C 6.037795 53.091862 6.521651 54.259992 7.382798 55.121139 
C 8.243945 55.982286 9.412075 56.466142 10.629921 56.466142 
L 10.629921 56.466142 
z
" clip-path="url(#p48442e115d)" style="fill: none; stroke: #bbbbbb; stroke-linejoin: miter"/>
   </g>
   <g id="patch_8">
    <path d="M 10.629921 52.63937 
C 10.832896 52.63937 11.027584 52.558728 11.171108 52.415203 
C 11.314633 52.271678 11.395276 52.07699 11.395276 51.874016 
C 11.395276 51.671041 11.314633 51.476353 11.171108 51.332829 
C 11.027584 51.189304 10.832896 51.108661 10.629921 51.108661 
C 10.426947 51.108661 10.232259 51.189304 10.088734 51.332829 
C 9.945209 51.476353 9.864567 51.671041 9.864567 51.874016 
C 9.864567 52.07699 9.945209 52.271678 10.088734 52.415203 
C 10.232259 52.558728 10.426947 52.63937 10.629921 52.63937 
z
" clip-path="url(#p48442e115d)" style="fill: #bbbbbb; stroke: #bbbbbb; stroke-linejoin: miter"/>
   </g>
   <g id="patch_9">
    <path d="M 10.629921 35.206299 
C 11.847767 35.206299 13.015897 34.722444 13.877045 33.861297 
C 14.738192 33.000149 15.222047 31.832019 15.222047 30.614173 
C 15.222047 29.396327 14.738192 28.228197 13.877045 27.36705 
C 13.015897 26.505903 11.847767 26.022047 10.629921 26.022047 
C 9.412075 26.022047 8.243945 26.505903 7.382798 27.36705 
C 6.521651 28.228197 6.037795 29.396327 6.037795 30.614173 
C 6.037795 31.832019 6.521651 33.000149 7.382798 33.861297 
C 8.243945 34.722444 9.412075 35.206299 10.629921 35.206299 
L 10.629921 35.206299 
z
" clip-path="url(#p48442e115d)" style="fill: none; stroke: #bbbbbb; stroke-linejoin: miter"/>
   </g>
   <g id="patch_10">
    <path d="M 10.629921 31.379528 
C 10.832896 31.379528 11.027584 31.298885 11.171108 31.15536 
C 11.314633 31.011836 11.395276 30.817148 11.395276 30.614173 
C 11.395276 30.411199 11.314633 30.216511 11.171108 30.072986 
C 11.027584 29.929461 10.832896 29.848819 10.629921 29.848819 
C 10.426947 29.848819 10.232259 29.929461 10.088734 30.072986 
C 9.945209 30.216511 9.864567 30.411199 9.864567 30.614173 
C 9.864567 30.817148 9.945209 31.011836 10.088734 31.15536 
C 10.232259 31.298885 10.426947 31.379528 10.629921 31.379528 
z
" clip-path="url(#p48442e115d)" style="fill: #bbbbbb; stroke: #bbbbbb; stroke-linejoin: miter"/>
   </g>
   <g id="patch_11">
    <path d="M 10.629921 13.946457 
C 11.847767 13.946457 13.015897 13.462601 13.877045 12.601454 
C 14.738192 11.740307 15.222047 10.572177 15.222047 9.354331 
C 15.222047 8.136485 14.738192 6.968354 13.877045 6.107207 
C 13.015897 5.24606 11.847767 4.762205 10.629921 4.762205 
C 9.412075 4.762205 8.243945 5.24606 7.382798 6.107207 
C 6.521651 6.968354 6.037795 8.136485 6.037795 9.354331 
C 6.037795 10.572177 6.521651 11.740307 7.382798 12.601454 
C 8.243945 13.462601 9.412075 13.946457 10.629921 13.946457 
L 10.629921 13.946457 
z
" clip-path="url(#p48442e115d)" style="fill: none; stroke: #bbbbbb; stroke-linejoin: miter"/>
   </g>
   <g id="patch_12">
    <path d="M 10.629921 10.119685 
C 10.832896 10.119685 11.027584 10.039042 11.171108 9.895518 
C 11.314633 9.751993 11.395276 9.557305 11.395276 9.354331 
C 11.395276 9.151356 11.314633 8.956668 11.171108 8.813143 
C 11.027584 8.669619 10.832896 8.588976 10.629921 8.588976 
C 10.426947 8.588976 10.232259 8.669619 10.088734 8.813143 
C 9.945209 8.956668 9.864567 9.151356 9.864567 9.354331 
C 9.864567 9.557305 9.945209 9.751993 10.088734 9.895518 
C 10.232259 10.039042 10.426947 10.119685 10.629921 10.119685 
z
" clip-path="url(#p48442e115d)" style="fill: #bbbbbb; stroke: #bbbbbb; stroke-linejoin: miter"/>
   </g>
   <g id="patch_13">
    <path d="M 31.889764 98.985827 
C 33.10761 98.985827 34.27574 98.501971 35.136887 97.640824 
C 35.998034 96.779677 36.48189 95.611547 36.48189 94.393701 
C 36.48189 93.175855 35.998034 92.007725 35.136887 91.146577 
C 34.27574 90.28543 33.10761 89.801575 31.889764 89.801575 
C 30.671918 89.801575 29.503788 90.28543 28.64264 91.146577 
C 27.781493 92.007725 27.297638 93.175855 27.297638 94.393701 
C 27.297638 95.611547 27.781493 96.779677 28.64264 97.640824 
C 29.503788 98.501971 30.671918 98.985827 31.889764 98.985827 
L 31.889764 98.985827 
z
" clip-path="url(#p48442e115d)" style="fill: none; stroke: #bbbbbb; stroke-linejoin: miter"/>
   </g>
   <g id="patch_14">
    <path d="M 31.889764 95.159055 
C 32.092738 95.159055 32.287426 95.078413 32.430951 94.934888 
C 32.574476 94.791363 32.655118 94.596675 32.655118 94.393701 
C 32.655118 94.190726 32.574476 93.996038 32.430951 93.852514 
C 32.287426 93.708989 32.092738 93.628346 31.889764 93.628346 
C 31.686789 93.628346 31.492101 93.708989 31.348577 93.852514 
C 31.205052 93.996038 31.124409 94.190726 31.124409 94.393701 
C 31.124409 94.596675 31.205052 94.791363 31.348577 94.934888 
C 31.492101 95.078413 31.686789 95.159055 31.889764 95.159055 
z
" clip-path="url(#p48442e115d)" style="fill: #bbbbbb; stroke: #bbbbbb; stroke-linejoin: miter"/>
   </g>
   <g id="patch_15">
    <path d="M 31.889764 77.725984 
C 33.10761 77.725984 34.27574 77.242129 35.136887 76.380982 
C 35.998034 75.519834 36.48189 74.351704 36.48189 73.133858 
C 36.48189 71.916012 35.998034 70.747882 35.136887 69.886735 
C 34.27574 69.025588 33.10761 68.541732 31.889764 68.541732 
C 30.671918 68.541732 29.503788 69.025588 28.64264 69.886735 
C 27.781493 70.747882 27.297638 71.916012 27.297638 73.133858 
C 27.297638 74.351704 27.781493 75.519834 28.64264 76.380982 
C 29.503788 77.242129 30.671918 77.725984 31.889764 77.725984 
L 31.889764 77.725984 
z
" clip-path="url(#p48442e115d)" style="fill: none; stroke: #bbbbbb; stroke-linejoin: miter"/>
   </g>
   <g id="patch_16">
    <path d="M 31.889764 73.899213 
C 32.092738 73.899213 32.287426 73.81857 32.430951 73.675046 
C 32.574476 73.531521 32.655118 73.336833 32.655118 73.133858 
C 32.655118 72.930884 32.574476 72.736196 32.430951 72.592671 
C 32.287426 72.449146 32.092738 72.368504 31.889764 72.368504 
C 31.686789 72.368504 31.492101 72.449146 31.348577 72.592671 
C 31.205052 72.736196 31.124409 72.930884 31.124409 73.133858 
C 31.124409 73.336833 31.205052 73.531521 31.348577 73.675046 
C 31.492101 73.81857 31.686789 73.899213 31.889764 73.899213 
z
" clip-path="url(#p48442e115d)" style="fill: #bbbbbb; stroke: #bbbbbb; stroke-linejoin: miter"/>
   </g>
   <g id="patch_17">
    <path d="M 31.889764 56.466142 
C 33.10761 56.466142 34.27574 55.982286 35.136887 55.121139 
C 35.998034 54.259992 36.48189 53.091862 36.48189 51.874016 
C 36.48189 50.65617 35.998034 49.48804 35.136887 48.626892 
C 34.27574 47.765745 33.10761 47.28189 31.889764 47.28189 
C 30.671918 47.28189 29.503788 47.765745 28.64264 48.626892 
C 27.781493 49.48804 27.297638 50.65617 27.297638 51.874016 
C 27.297638 53.091862 27.781493 54.259992 28.64264 55.121139 
C 29.503788 55.982286 30.671918 56.466142 31.889764 56.466142 
L 31.889764 56.466142 
z
" clip-path="url(#p48442e115d)" style="fill: none; stroke: #bbbbbb; stroke-linejoin: miter"/>
   </g>
   <g id="patch_18">
    <path d="M 31.889764 52.63937 
C 32.092738 52.63937 32.287426 52.558728 32.430951 52.415203 
C 32.574476 52.271678 32.655118 52.07699 32.655118 51.874016 
C 32.655118 51.671041 32.574476 51.476353 32.430951 51.332829 
C 32.287426 51.189304 32.092738 51.108661 31.889764 51.108661 
C 31.686789 51.108661 31.492101 51.189304 31.348577 51.332829 
C 31.205052 51.476353 31.124409 51.671041 31.124409 51.874016 
C 31.124409 52.07699 31.205052 52.271678 31.348577 52.415203 
C 31.492101 52.558728 31.686789 52.63937 31.889764 52.63937 
z
" clip-path="url(#p48442e115d)" style="fill: #bbbbbb; stroke: #bbbbbb; stroke-linejoin: miter"/>
   </g>
   <g id="patch_19">
    <path d="M 31.889764 35.206299 
C 33.10761 35.206299 34.27574 34.722444 35.136887 33.861297 
C 35.998034 33.000149 36.48189 31.832019 36.48189 30.614173 
C 36.48189 29.396327 35.998034 28.228197 35.136887 27.36705 
C 34.27574 26.505903 33.10761 26.022047 31.889764 26.022047 
C 30.671918 26.022047 29.503788 26.505903 28.64264 27.36705 
C 27.781493 28.228197 27.297638 29.396327 27.297638 30.614173 
C 27.297638 31.832019 27.781493 33.000149 28.64264 33.861297 
C 29.503788 34.722444 30.671918 35.206299 31.889764 35.206299 
L 31.889764 35.206299 
z
" clip-path="url(#p48442e115d)" style="fill: none; stroke: #bbbbbb; stroke-linejoin: miter"/>
   </g>
   <g id="patch_20">
    <path d="M 31.889764 31.379528 
C 32.092738 31.379528 32.287426 31.298885 32.430951 31.15536 
C 32.574476 31.011836 32.655118 30.817148 32.655118 30.614173 
C 32.655118 30.411199 32.574476 30.216511 32.430951 30.072986 
C 32.287426 29.929461 32.092738 29.848819 31.889764 29.848819 
C 31.686789 29.848819 31.492101 29.929461 31.348577 30.072986 
C 31.205052 30.216511 31.124409 30.411199 31.124409 30.614173 
C 31.124409 30.817148 31.205052 31.011836 31.348577 31.15536 
C 31.492101 31.298885 31.686789 31.379528 31.889764 31.379528 
z
" clip-path="url(#p48442e115d)" style="fill: #bbbbbb; stroke: #bbbbbb; stroke-linejoin: miter"/>
   </g>
   <g id="patch_21">
    <path d="M 31.889764 13.946457 
C 33.10761 13.946457 34.27574 13.462601 35.136887 12.601454 
C 35.998034 11.740307 36.48189 10.572177 36.48189 9.354331 
C 36.48189 8.136485 35.998034 6.968354 35.136887 6.107207 
C 34.27574 5.24606 33.10761 4.762205 31.889764 4.762205 
C 30.671918 4.762205 29.503788 5.24606 28.64264 6.107207 
C 27.781493 6.968354 27.297638 8.136485 27.297638 9.354331 
C 27.297638 10.572177 27.781493 11.740307 28.64264 12.601454 
C 29.503788 13.462601 30.671918 13.946457 31.889764 13.946457 
L 31.889764 13.946457 
z
" clip-path="url(#p48442e115d)" style="fill: none; stroke: #bbbbbb; stroke-linejoin: miter"/>
   </g>
   <g id="patch_22">
    <path d="M 31.889764 10.119685 
C 32.092738 10.119685 32.287426 10.039042 32.430951 9.895518 
C 32.574476 9.751993 32.655118 9.557305 32.655118 9.354331 
C 32.655118 9.151356 32.574476 8.956668 32.430951 8.813143 
C 32.287426 8.669619 32.092738 8.588976 31.889764 8.588976 
C 31.686789 8.588976 31.492101 8.669619 31.348577 8.813143 
C 31.205052 8.956668 31.124409 9.151356 31.124409 9.354331 
C 31.124409 9.557305 31.205052 9.751993 31.348577 9.895518 
C 31.492101 10.039042 31.686789 10.119685 31.889764 10.119685 
z
" clip-path="url(#p48442e115d)" style="fill: #bbbbbb; stroke: #bbbbbb; stroke-linejoin: miter"/>
   </g>
   <g id="patch_23">
    <path d="M 53.149606 98.985827 
C 54.367452 98.985827 55.535583 98.501971 56.39673 97.640824 
C 57.257877 96.779677 57.741732 95.611547 57.741732 94.393701 
C 57.741732 93.175855 57.257877 92.007725 56.39673 91.146577 
C 55.535583 90.28543 54.367452 89.801575 53.149606 89.801575 
C 51.93176 89.801575 50.76363 90.28543 49.902483 91.146577 
C 49.041336 92.007725 48.55748 93.175855 48.55748 94.393701 
C 48.55748 95.611547 49.041336 96.779677 49.902483 97.640824 
C 50.76363 98.501971 51.93176 98.985827 53.149606 98.985827 
L 53.149606 98.985827 
z
" clip-path="url(#p48442e115d)" style="fill: none; stroke: #bbbbbb; stroke-linejoin: miter"/>
   </g>
   <g id="patch_24">
    <path d="M 53.149606 95.159055 
C 53.352581 95.159055 53.547269 95.078413 53.690794 94.934888 
C 53.834318 94.791363 53.914961 94.596675 53.914961 94.393701 
C 53.914961 94.190726 53.834318 93.996038 53.690794 93.852514 
C 53.547269 93.708989 53.352581 93.628346 53.149606 93.628346 
C 52.946632 93.628346 52.751944 93.708989 52.608419 93.852514 
C 52.464895 93.996038 52.384252 94.190726 52.384252 94.393701 
C 52.384252 94.596675 52.464895 94.791363 52.608419 94.934888 
C 52.751944 95.078413 52.946632 95.159055 53.149606 95.159055 
z
" clip-path="url(#p48442e115d)" style="fill: #bbbbbb; stroke: #bbbbbb; stroke-linejoin: miter"/>
   </g>
   <g id="patch_25">
    <path d="M 53.149606 77.725984 
C 54.367452 77.725984 55.535583 77.242129 56.39673 76.380982 
C 57.257877 75.519834 57.741732 74.351704 57.741732 73.133858 
C 57.741732 71.916012 57.257877 70.747882 56.39673 69.886735 
C 55.535583 69.025588 54.367452 68.541732 53.149606 68.541732 
C 51.93176 68.541732 50.76363 69.025588 49.902483 69.886735 
C 49.041336 70.747882 48.55748 71.916012 48.55748 73.133858 
C 48.55748 74.351704 49.041336 75.519834 49.902483 76.380982 
C 50.76363 77.242129 51.93176 77.725984 53.149606 77.725984 
L 53.149606 77.725984 
z
" clip-path="url(#p48442e115d)" style="fill: none; stroke: #bbbbbb; stroke-linejoin: miter"/>
   </g>
   <g id="patch_26">
    <path d="M 53.149606 73.899213 
C 53.352581 73.899213 53.547269 73.81857 53.690794 73.675046 
C 53.834318 73.531521 53.914961 73.336833 53.914961 73.133858 
C 53.914961 72.930884 53.834318 72.736196 53.690794 72.592671 
C 53.547269 72.449146 53.352581 72.368504 53.149606 72.368504 
C 52.946632 72.368504 52.751944 72.449146 52.608419 72.592671 
C 52.464895 72.736196 52.384252 72.930884 52.384252 73.133858 
C 52.384252 73.336833 52.464895 73.531521 52.608419 73.675046 
C 52.751944 73.81857 52.946632 73.899213 53.149606 73.899213 
z
" clip-path="url(#p48442e115d)" style="fill: #bbbbbb; stroke: #bbbbbb; stroke-linejoin: miter"/>
   </g>
   <g id="patch_27">
    <path d="M 53.149606 56.466142 
C 54.367452 56.466142 55.535583 55.982286 56.39673 55.121139 
C 57.257877 54.259992 57.741732 53.091862 57.741732 51.874016 
C 57.741732 50.65617 57.257877 49.48804 56.39673 48.626892 
C 55.535583 47.765745 54.367452 47.28189 53.149606 47.28189 
C 51.93176 47.28189 50.76363 47.765745 49.902483 48.626892 
C 49.041336 49.48804 48.55748 50.65617 48.55748 51.874016 
C 48.55748 53.091862 49.041336 54.259992 49.902483 55.121139 
C 50.76363 55.982286 51.93176 56.466142 53.149606 56.466142 
L 53.149606 56.466142 
z
" clip-path="url(#p48442e115d)" style="fill: none; stroke: #bbbbbb; stroke-linejoin: miter"/>
   </g>
   <g id="patch_28">
    <path d="M 53.149606 52.63937 
C 53.352581 52.63937 53.547269 52.558728 53.690794 52.415203 
C 53.834318 52.271678 53.914961 52.07699 53.914961 51.874016 
C 53.914961 51.671041 53.834318 51.476353 53.690794 51.332829 
C 53.547269 51.189304 53.352581 51.108661 53.149606 51.108661 
C 52.946632 51.108661 52.751944 51.189304 52.608419 51.332829 
C 52.464895 51.476353 52.384252 51.671041 52.384252 51.874016 
C 52.384252 52.07699 52.464895 52.271678 52.608419 52.415203 
C 52.751944 52.558728 52.946632 52.63937 53.149606 52.63937 
z
" clip-path="url(#p48442e115d)" style="fill: #bbbbbb; stroke: #bbbbbb; stroke-linejoin: miter"/>
   </g>
   <g id="patch_29">
    <path d="M 53.149606 35.206299 
C 54.367452 35.206299 55.535583 34.722444 56.39673 33.861297 
C 57.257877 33.000149 57.741732 31.832019 57.741732 30.614173 
C 57.741732 29.396327 57.257877 28.228197 56.39673 27.36705 
C 55.535583 26.505903 54.367452 26.022047 53.149606 26.022047 
C 51.93176 26.022047 50.76363 26.505903 49.902483 27.36705 
C 49.041336 28.228197 48.55748 29.396327 48.55748 30.614173 
C 48.55748 31.832019 49.041336 33.000149 49.902483 33.861297 
C 50.76363 34.722444 51.93176 35.206299 53.149606 35.206299 
L 53.149606 35.206299 
z
" clip-path="url(#p48442e115d)" style="fill: none; stroke: #bbbbbb; stroke-linejoin: miter"/>
   </g>
   <g id="patch_30">
    <path d="M 53.149606 31.379528 
C 53.352581 31.379528 53.547269 31.298885 53.690794 31.15536 
C 53.834318 31.011836 53.914961 30.817148 53.914961 30.614173 
C 53.914961 30.411199 53.834318 30.216511 53.690794 30.072986 
C 53.547269 29.929461 53.352581 29.848819 53.149606 29.848819 
C 52.946632 29.848819 52.751944 29.929461 52.608419 30.072986 
C 52.464895 30.216511 52.384252 30.411199 52.384252 30.614173 
C 52.384252 30.817148 52.464895 31.011836 52.608419 31.15536 
C 52.751944 31.298885 52.946632 31.379528 53.149606 31.379528 
z
" clip-path="url(#p48442e115d)" style="fill: #bbbbbb; stroke: #bbbbbb; stroke-linejoin: miter"/>
   </g>
   <g id="patch_31">
    <path d="M 53.149606 13.946457 
C 54.367452 13.946457 55.535583 13.462601 56.39673 12.601454 
C 57.257877 11.740307 57.741732 10.572177 57.741732 9.354331 
C 57.741732 8.136485 57.257877 6.968354 56.39673 6.107207 
C 55.535583 5.24606 54.367452 4.762205 53.149606 4.762205 
C 51.93176 4.762205 50.76363 5.24606 49.902483 6.107207 
C 49.041336 6.968354 48.55748 8.136485 48.55748 9.354331 
C 48.55748 10.572177 49.041336 11.740307 49.902483 12.601454 
C 50.76363 13.462601 51.93176 13.946457 53.149606 13.946457 
L 53.149606 13.946457 
z
" clip-path="url(#p48442e115d)" style="fill: none; stroke: #bbbbbb; stroke-linejoin: miter"/>
   </g>
   <g id="patch_32">
    <path d="M 53.149606 10.119685 
C 53.352581 10.119685 53.547269 10.039042 53.690794 9.895518 
C 53.834318 9.751993 53.914961 9.557305 53.914961 9.354331 
C 53.914961 9.151356 53.834318 8.956668 53.690794 8.813143 
C 53.547269 8.669619 53.352581 8.588976 53.149606 8.588976 
C 52.946632 8.588976 52.751944 8.669619 52.608419 8.813143 
C 52.464895 8.956668 52.384252 9.151356 52.384252 9.354331 
C 52.384252 9.557305 52.464895 9.751993 52.608419 9.895518 
C 52.751944 10.039042 52.946632 10.119685 53.149606 10.119685 
z
" clip-path="url(#p48442e115d)" style="fill: #bbbbbb; stroke: #bbbbbb; stroke-linejoin: miter"/>
   </g>
   <g id="patch_33">
    <path d="M 74.409449 98.985827 
C 75.627295 98.985827 76.795425 98.501971 77.656572 97.640824 
C 78.517719 96.779677 79.001575 95.611547 79.001575 94.393701 
C 79.001575 93.175855 78.517719 92.007725 77.656572 91.146577 
C 76.795425 90.28543 75.627295 89.801575 74.409449 89.801575 
C 73.191603 89.801575 72.023473 90.28543 71.162325 91.146577 
C 70.301178 92.007725 69.817323 93.175855 69.817323 94.393701 
C 69.817323 95.611547 70.301178 96.779677 71.162325 97.640824 
C 72.023473 98.501971 73.191603 98.985827 74.409449 98.985827 
L 74.409449 98.985827 
z
" clip-path="url(#p48442e115d)" style="fill: none; stroke: #bbbbbb; stroke-linejoin: miter"/>
   </g>
   <g id="patch_34">
    <path d="M 74.409449 95.159055 
C 74.612423 95.159055 74.807112 95.078413 74.950636 94.934888 
C 75.094161 94.791363 75.174803 94.596675 75.174803 94.393701 
C 75.174803 94.190726 75.094161 93.996038 74.950636 93.852514 
C 74.807112 93.708989 74.612423 93.628346 74.409449 93.628346 
C 74.206474 93.628346 74.011786 93.708989 73.868262 93.852514 
C 73.724737 93.996038 73.644094 94.190726 73.644094 94.393701 
C 73.644094 94.596675 73.724737 94.791363 73.868262 94.934888 
C 74.011786 95.078413 74.206474 95.159055 74.409449 95.159055 
z
" clip-path="url(#p48442e115d)" style="fill: #bbbbbb; stroke: #bbbbbb; stroke-linejoin: miter"/>
   </g>
   <g id="patch_35">
    <path d="M 74.409449 77.725984 
C 75.627295 77.725984 76.795425 77.242129 77.656572 76.380982 
C 78.517719 75.519834 79.001575 74.351704 79.001575 73.133858 
C 79.001575 71.916012 78.517719 70.747882 77.656572 69.886735 
C 76.795425 69.025588 75.627295 68.541732 74.409449 68.541732 
C 73.191603 68.541732 72.023473 69.025588 71.162325 69.886735 
C 70.301178 70.747882 69.817323 71.916012 69.817323 73.133858 
C 69.817323 74.351704 70.301178 75.519834 71.162325 76.380982 
C 72.023473 77.242129 73.191603 77.725984 74.409449 77.725984 
L 74.409449 77.725984 
z
" clip-path="url(#p48442e115d)" style="fill: none; stroke: #bbbbbb; stroke-linejoin: miter"/>
   </g>
   <g id="patch_36">
    <path d="M 74.409449 73.899213 
C 74.612423 73.899213 74.807112 73.81857 74.950636 73.675046 
C 75.094161 73.531521 75.174803 73.336833 75.174803 73.133858 
C 75.174803 72.930884 75.094161 72.736196 74.950636 72.592671 
C 74.807112 72.449146 74.612423 72.368504 74.409449 72.368504 
C 74.206474 72.368504 74.011786 72.449146 73.868262 72.592671 
C 73.724737 72.736196 73.644094 72.930884 73.644094 73.133858 
C 73.644094 73.336833 73.724737 73.531521 73.868262 73.675046 
C 74.011786 73.81857 74.206474 73.899213 74.409449 73.899213 
z
" clip-path="url(#p48442e115d)" style="fill: #bbbbbb; stroke: #bbbbbb; stroke-linejoin: miter"/>
   </g>
   <g id="patch_37">
    <path d="M 74.409449 56.466142 
C 75.627295 56.466142 76.795425 55.982286 77.656572 55.121139 
C 78.517719 54.259992 79.001575 53.091862 79.001575 51.874016 
C 79.001575 50.65617 78.517719 49.48804 77.656572 48.626892 
C 76.795425 47.765745 75.627295 47.28189 74.409449 47.28189 
C 73.191603 47.28189 72.023473 47.765745 71.162325 48.626892 
C 70.301178 49.48804 69.817323 50.65617 69.817323 51.874016 
C 69.817323 53.091862 70.301178 54.259992 71.162325 55.121139 
C 72.023473 55.982286 73.191603 56.466142 74.409449 56.466142 
L 74.409449 56.466142 
z
" clip-path="url(#p48442e115d)" style="fill: none; stroke: #bbbbbb; stroke-linejoin: miter"/>
   </g>
   <g id="patch_38">
    <path d="M 74.409449 52.63937 
C 74.612423 52.63937 74.807112 52.558728 74.950636 52.415203 
C 75.094161 52.271678 75.174803 52.07699 75.174803 51.874016 
C 75.174803 51.671041 75.094161 51.476353 74.950636 51.332829 
C 74.807112 51.189304 74.612423 51.108661 74.409449 51.108661 
C 74.206474 51.108661 74.011786 51.189304 73.868262 51.332829 
C 73.724737 51.476353 73.644094 51.671041 73.644094 51.874016 
C 73.644094 52.07699 73.724737 52.271678 73.868262 52.415203 
C 74.011786 52.558728 74.206474 52.63937 74.409449 52.63937 
z
" clip-path="url(#p48442e115d)" style="fill: #bbbbbb; stroke: #bbbbbb; stroke-linejoin: miter"/>
   </g>
   <g id="patch_39">
    <path d="M 74.409449 35.206299 
C 75.627295 35.206299 76.795425 34.722444 77.656572 33.861297 
C 78.517719 33.000149 79.001575 31.832019 79.001575 30.614173 
C 79.001575 29.396327 78.517719 28.228197 77.656572 27.36705 
C 76.795425 26.505903 75.627295 26.022047 74.409449 26.022047 
C 73.191603 26.022047 72.023473 26.505903 71.162325 27.36705 
C 70.301178 28.228197 69.817323 29.396327 69.817323 30.614173 
C 69.817323 31.832019 70.301178 33.000149 71.162325 33.861297 
C 72.023473 34.722444 73.191603 35.206299 74.409449 35.206299 
L 74.409449 35.206299 
z
" clip-path="url(#p48442e115d)" style="fill: none; stroke: #bbbbbb; stroke-linejoin: miter"/>
   </g>
   <g id="patch_40">
    <path d="M 74.409449 31.379528 
C 74.612423 31.379528 74.807112 31.298885 74.950636 31.15536 
C 75.094161 31.011836 75.174803 30.817148 75.174803 30.614173 
C 75.174803 30.411199 75.094161 30.216511 74.950636 30.072986 
C 74.807112 29.929461 74.612423 29.848819 74.409449 29.848819 
C 74.206474 29.848819 74.011786 29.929461 73.868262 30.072986 
C 73.724737 30.216511 73.644094 30.411199 73.644094 30.614173 
C 73.644094 30.817148 73.724737 31.011836 73.868262 31.15536 
C 74.011786 31.298885 74.206474 31.379528 74.409449 31.379528 
z
" clip-path="url(#p48442e115d)" style="fill: #bbbbbb; stroke: #bbbbbb; stroke-linejoin: miter"/>
   </g>
   <g id="patch_41">
    <path d="M 74.409449 13.946457 
C 75.627295 13.946457 76.795425 13.462601 77.656572 12.601454 
C 78.517719 11.740307 79.001575 10.572177 79.001575 9.354331 
C 79.001575 8.136485 78.517719 6.968354 77.656572 6.107207 
C 76.795425 5.24606 75.627295 4.762205 74.409449 4.762205 
C 73.191603 4.762205 72.023473 5.24606 71.162325 6.107207 
C 70.301178 6.968354 69.817323 8.136485 69.817323 9.354331 
C 69.817323 10.572177 70.301178 11.740307 71.162325 12.601454 
C 72.023473 13.462601 73.191603 13.946457 74.409449 13.946457 
L 74.409449 13.946457 
z
" clip-path="url(#p48442e115d)" style="fill: none; stroke: #bbbbbb; stroke-linejoin: miter"/>
   </g>
   <g id="patch_42">
    <path d="M 74.409449 10.119685 
C 74.612423 10.119685 74.807112 10.039042 74.950636 9.895518 
C 75.094161 9.751993 75.174803 9.557305 75.174803 9.354331 
C 75.174803 9.151356 75.094161 8.956668 74.950636 8.813143 
C 74.807112 8.669619 74.612423 8.588976 74.409449 8.588976 
C 74.206474 8.588976 74.011786 8.669619 73.868262 8.813143 
C 73.724737 8.956668 73.644094 9.151356 73.644094 9.354331 
C 73.644094 9.557305 73.724737 9.751993 73.868262 9.895518 
C 74.011786 10.039042 74.206474 10.119685 74.409449 10.119685 
z
" clip-path="url(#p48442e115d)" style="fill: #bbbbbb; stroke: #bbbbbb; stroke-linejoin: miter"/>
   </g>
   <g id="patch_43">
    <path d="M 95.669291 98.985827 
C 96.887137 98.985827 98.055268 98.501971 98.916415 97.640824 
C 99.777562 96.779677 100.261417 95.611547 100.261417 94.393701 
C 100.261417 93.175855 99.777562 92.007725 98.916415 91.146577 
C 98.055268 90.28543 96.887137 89.801575 95.669291 89.801575 
C 94.451445 89.801575 93.283315 90.28543 92.422168 91.146577 
C 91.561021 92.007725 91.077165 93.175855 91.077165 94.393701 
C 91.077165 95.611547 91.561021 96.779677 92.422168 97.640824 
C 93.283315 98.501971 94.451445 98.985827 95.669291 98.985827 
L 95.669291 98.985827 
z
" clip-path="url(#p48442e115d)" style="fill: none; stroke: #bbbbbb; stroke-linejoin: miter"/>
   </g>
   <g id="patch_44">
    <path d="M 95.669291 95.159055 
C 95.872266 95.159055 96.066954 95.078413 96.210479 94.934888 
C 96.354003 94.791363 96.434646 94.596675 96.434646 94.393701 
C 96.434646 94.190726 96.354003 93.996038 96.210479 93.852514 
C 96.066954 93.708989 95.872266 93.628346 95.669291 93.628346 
C 95.466317 93.628346 95.271629 93.708989 95.128104 93.852514 
C 94.98458 93.996038 94.903937 94.190726 94.903937 94.393701 
C 94.903937 94.596675 94.98458 94.791363 95.128104 94.934888 
C 95.271629 95.078413 95.466317 95.159055 95.669291 95.159055 
z
" clip-path="url(#p48442e115d)" style="fill: #bbbbbb; stroke: #bbbbbb; stroke-linejoin: miter"/>
   </g>
   <g id="patch_45">
    <path d="M 95.669291 77.725984 
C 96.887137 77.725984 98.055268 77.242129 98.916415 76.380982 
C 99.777562 75.519834 100.261417 74.351704 100.261417 73.133858 
C 100.261417 71.916012 99.777562 70.747882 98.916415 69.886735 
C 98.055268 69.025588 96.887137 68.541732 95.669291 68.541732 
C 94.451445 68.541732 93.283315 69.025588 92.422168 69.886735 
C 91.561021 70.747882 91.077165 71.916012 91.077165 73.133858 
C 91.077165 74.351704 91.561021 75.519834 92.422168 76.380982 
C 93.283315 77.242129 94.451445 77.725984 95.669291 77.725984 
L 95.669291 77.725984 
z
" clip-path="url(#p48442e115d)" style="fill: none; stroke: #bbbbbb; stroke-linejoin: miter"/>
   </g>
   <g id="patch_46">
    <path d="M 95.669291 73.899213 
C 95.872266 73.899213 96.066954 73.81857 96.210479 73.675046 
C 96.354003 73.531521 96.434646 73.336833 96.434646 73.133858 
C 96.434646 72.930884 96.354003 72.736196 96.210479 72.592671 
C 96.066954 72.449146 95.872266 72.368504 95.669291 72.368504 
C 95.466317 72.368504 95.271629 72.449146 95.128104 72.592671 
C 94.98458 72.736196 94.903937 72.930884 94.903937 73.133858 
C 94.903937 73.336833 94.98458 73.531521 95.128104 73.675046 
C 95.271629 73.81857 95.466317 73.899213 95.669291 73.899213 
z
" clip-path="url(#p48442e115d)" style="fill: #bbbbbb; stroke: #bbbbbb; stroke-linejoin: miter"/>
   </g>
   <g id="patch_47">
    <path d="M 95.669291 56.466142 
C 96.887137 56.466142 98.055268 55.982286 98.916415 55.121139 
C 99.777562 54.259992 100.261417 53.091862 100.261417 51.874016 
C 100.261417 50.65617 99.777562 49.48804 98.916415 48.626892 
C 98.055268 47.765745 96.887137 47.28189 95.669291 47.28189 
C 94.451445 47.28189 93.283315 47.765745 92.422168 48.626892 
C 91.561021 49.48804 91.077165 50.65617 91.077165 51.874016 
C 91.077165 53.091862 91.561021 54.259992 92.422168 55.121139 
C 93.283315 55.982286 94.451445 56.466142 95.669291 56.466142 
L 95.669291 56.466142 
z
" clip-path="url(#p48442e115d)" style="fill: none; stroke: #bbbbbb; stroke-linejoin: miter"/>
   </g>
   <g id="patch_48">
    <path d="M 95.669291 52.63937 
C 95.872266 52.63937 96.066954 52.558728 96.210479 52.415203 
C 96.354003 52.271678 96.434646 52.07699 96.434646 51.874016 
C 96.434646 51.671041 96.354003 51.476353 96.210479 51.332829 
C 96.066954 51.189304 95.872266 51.108661 95.669291 51.108661 
C 95.466317 51.108661 95.271629 51.189304 95.128104 51.332829 
C 94.98458 51.476353 94.903937 51.671041 94.903937 51.874016 
C 94.903937 52.07699 94.98458 52.271678 95.128104 52.415203 
C 95.271629 52.558728 95.466317 52.63937 95.669291 52.63937 
z
" clip-path="url(#p48442e115d)" style="fill: #bbbbbb; stroke: #bbbbbb; stroke-linejoin: miter"/>
   </g>
   <g id="patch_49">
    <path d="M 95.669291 35.206299 
C 96.887137 35.206299 98.055268 34.722444 98.916415 33.861297 
C 99.777562 33.000149 100.261417 31.832019 100.261417 30.614173 
C 100.261417 29.396327 99.777562 28.228197 98.916415 27.36705 
C 98.055268 26.505903 96.887137 26.022047 95.669291 26.022047 
C 94.451445 26.022047 93.283315 26.505903 92.422168 27.36705 
C 91.561021 28.228197 91.077165 29.396327 91.077165 30.614173 
C 91.077165 31.832019 91.561021 33.000149 92.422168 33.861297 
C 93.283315 34.722444 94.451445 35.206299 95.669291 35.206299 
L 95.669291 35.206299 
z
" clip-path="url(#p48442e115d)" style="fill: none; stroke: #bbbbbb; stroke-linejoin: miter"/>
   </g>
   <g id="patch_50">
    <path d="M 95.669291 31.379528 
C 95.872266 31.379528 96.066954 31.298885 96.210479 31.15536 
C 96.354003 31.011836 96.434646 30.817148 96.434646 30.614173 
C 96.434646 30.411199 96.354003 30.216511 96.210479 30.072986 
C 96.066954 29.929461 95.872266 29.848819 95.669291 29.848819 
C 95.466317 29.848819 95.271629 29.929461 95.128104 30.072986 
C 94.98458 30.216511 94.903937 30.411199 94.903937 30.614173 
C 94.903937 30.817148 94.98458 31.011836 95.128104 31.15536 
C 95.271629 31.298885 95.466317 31.379528 95.669291 31.379528 
z
" clip-path="url(#p48442e115d)" style="fill: #bbbbbb; stroke: #bbbbbb; stroke-linejoin: miter"/>
   </g>
   <g id="patch_51">
    <path d="M 95.669291 13.946457 
C 96.887137 13.946457 98.055268 13.462601 98.916415 12.601454 
C 99.777562 11.740307 100.261417 10.572177 100.261417 9.354331 
C 100.261417 8.136485 99.777562 6.968354 98.916415 6.107207 
C 98.055268 5.24606 96.887137 4.762205 95.669291 4.762205 
C 94.451445 4.762205 93.283315 5.24606 92.422168 6.107207 
C 91.561021 6.968354 91.077165 8.136485 91.077165 9.354331 
C 91.077165 10.572177 91.561021 11.740307 92.422168 12.601454 
C 93.283315 13.462601 94.451445 13.946457 95.669291 13.946457 
L 95.669291 13.946457 
z
" clip-path="url(#p48442e115d)" style="fill: none; stroke: #bbbbbb; stroke-linejoin: miter"/>
   </g>
   <g id="patch_52">
    <path d="M 95.669291 10.119685 
C 95.872266 10.119685 96.066954 10.039042 96.210479 9.895518 
C 96.354003 9.751993 96.434646 9.557305 96.434646 9.354331 
C 96.434646 9.151356 96.354003 8.956668 96.210479 8.813143 
C 96.066954 8.669619 95.872266 8.588976 95.669291 8.588976 
C 95.466317 8.588976 95.271629 8.669619 95.128104 8.813143 
C 94.98458 8.956668 94.903937 9.151356 94.903937 9.354331 
C 94.903937 9.557305 94.98458 9.751993 95.128104 9.895518 
C 95.271629 10.039042 95.466317 10.119685 95.669291 10.119685 
z
" clip-path="url(#p48442e115d)" style="fill: #bbbbbb; stroke: #bbbbbb; stroke-linejoin: miter"/>
   </g>
   <g id="patch_53">
    <path d="M 116.929134 98.985827 
C 118.14698 98.985827 119.31511 98.501971 120.176257 97.640824 
C 121.037404 96.779677 121.52126 95.611547 121.52126 94.393701 
C 121.52126 93.175855 121.037404 92.007725 120.176257 91.146577 
C 119.31511 90.28543 118.14698 89.801575 116.929134 89.801575 
C 115.711288 89.801575 114.543158 90.28543 113.68201 91.146577 
C 112.820863 92.007725 112.337008 93.175855 112.337008 94.393701 
C 112.337008 95.611547 112.820863 96.779677 113.68201 97.640824 
C 114.543158 98.501971 115.711288 98.985827 116.929134 98.985827 
L 116.929134 98.985827 
z
" clip-path="url(#p48442e115d)" style="fill: none; stroke: #bbbbbb; stroke-linejoin: miter"/>
   </g>
   <g id="patch_54">
    <path d="M 116.929134 95.159055 
C 117.132108 95.159055 117.326797 95.078413 117.470321 94.934888 
C 117.613846 94.791363 117.694488 94.596675 117.694488 94.393701 
C 117.694488 94.190726 117.613846 93.996038 117.470321 93.852514 
C 117.326797 93.708989 117.132108 93.628346 116.929134 93.628346 
C 116.72616 93.628346 116.531471 93.708989 116.387947 93.852514 
C 116.244422 93.996038 116.16378 94.190726 116.16378 94.393701 
C 116.16378 94.596675 116.244422 94.791363 116.387947 94.934888 
C 116.531471 95.078413 116.72616 95.159055 116.929134 95.159055 
z
" clip-path="url(#p48442e115d)" style="fill: #bbbbbb; stroke: #bbbbbb; stroke-linejoin: miter"/>
   </g>
   <g id="patch_55">
    <path d="M 116.929134 77.725984 
C 118.14698 77.725984 119.31511 77.242129 120.176257 76.380982 
C 121.037404 75.519834 121.52126 74.351704 121.52126 73.133858 
C 121.52126 71.916012 121.037404 70.747882 120.176257 69.886735 
C 119.31511 69.025588 118.14698 68.541732 116.929134 68.541732 
C 115.711288 68.541732 114.543158 69.025588 113.68201 69.886735 
C 112.820863 70.747882 112.337008 71.916012 112.337008 73.133858 
C 112.337008 74.351704 112.820863 75.519834 113.68201 76.380982 
C 114.543158 77.242129 115.711288 77.725984 116.929134 77.725984 
L 116.929134 77.725984 
z
" clip-path="url(#p48442e115d)" style="fill: none; stroke: #bbbbbb; stroke-linejoin: miter"/>
   </g>
   <g id="patch_56">
    <path d="M 116.929134 73.899213 
C 117.132108 73.899213 117.326797 73.81857 117.470321 73.675046 
C 117.613846 73.531521 117.694488 73.336833 117.694488 73.133858 
C 117.694488 72.930884 117.613846 72.736196 117.470321 72.592671 
C 117.326797 72.449146 117.132108 72.368504 116.929134 72.368504 
C 116.72616 72.368504 116.531471 72.449146 116.387947 72.592671 
C 116.244422 72.736196 116.16378 72.930884 116.16378 73.133858 
C 116.16378 73.336833 116.244422 73.531521 116.387947 73.675046 
C 116.531471 73.81857 116.72616 73.899213 116.929134 73.899213 
z
" clip-path="url(#p48442e115d)" style="fill: #bbbbbb; stroke: #bbbbbb; stroke-linejoin: miter"/>
   </g>
   <g id="patch_57">
    <path d="M 116.929134 56.466142 
C 118.14698 56.466142 119.31511 55.982286 120.176257 55.121139 
C 121.037404 54.259992 121.52126 53.091862 121.52126 51.874016 
C 121.52126 50.65617 121.037404 49.48804 120.176257 48.626892 
C 119.31511 47.765745 118.14698 47.28189 116.929134 47.28189 
C 115.711288 47.28189 114.543158 47.765745 113.68201 48.626892 
C 112.820863 49.48804 112.337008 50.65617 112.337008 51.874016 
C 112.337008 53.091862 112.820863 54.259992 113.68201 55.121139 
C 114.543158 55.982286 115.711288 56.466142 116.929134 56.466142 
L 116.929134 56.466142 
z
" clip-path="url(#p48442e115d)" style="fill: none; stroke: #bbbbbb; stroke-linejoin: miter"/>
   </g>
   <g id="patch_58">
    <path d="M 116.929134 52.63937 
C 117.132108 52.63937 117.326797 52.558728 117.470321 52.415203 
C 117.613846 52.271678 117.694488 52.07699 117.694488 51.874016 
C 117.694488 51.671041 117.613846 51.476353 117.470321 51.332829 
C 117.326797 51.189304 117.132108 51.108661 116.929134 51.108661 
C 116.72616 51.108661 116.531471 51.189304 116.387947 51.332829 
C 116.244422 51.476353 116.16378 51.671041 116.16378 51.874016 
C 116.16378 52.07699 116.244422 52.271678 116.387947 52.415203 
C 116.531471 52.558728 116.72616 52.63937 116.929134 52.63937 
z
" clip-path="url(#p48442e115d)" style="fill: #bbbbbb; stroke: #bbbbbb; stroke-linejoin: miter"/>
   </g>
   <g id="patch_59">
    <path d="M 116.929134 35.206299 
C 118.14698 35.206299 119.31511 34.722444 120.176257 33.861297 
C 121.037404 33.000149 121.52126 31.832019 121.52126 30.614173 
C 121.52126 29.396327 121.037404 28.228197 120.176257 27.36705 
C 119.31511 26.505903 118.14698 26.022047 116.929134 26.022047 
C 115.711288 26.022047 114.543158 26.505903 113.68201 27.36705 
C 112.820863 28.228197 112.337008 29.396327 112.337008 30.614173 
C 112.337008 31.832019 112.820863 33.000149 113.68201 33.861297 
C 114.543158 34.722444 115.711288 35.206299 116.929134 35.206299 
L 116.929134 35.206299 
z
" clip-path="url(#p48442e115d)" style="fill: none; stroke: #bbbbbb; stroke-linejoin: miter"/>
   </g>
   <g id="patch_60">
    <path d="M 116.929134 31.379528 
C 117.132108 31.379528 117.326797 31.298885 117.470321 31.15536 
C 117.613846 31.011836 117.694488 30.817148 117.694488 30.614173 
C 117.694488 30.411199 117.613846 30.216511 117.470321 30.072986 
C 117.326797 29.929461 117.132108 29.848819 116.929134 29.848819 
C 116.72616 29.848819 116.531471 29.929461 116.387947 30.072986 
C 116.244422 30.216511 116.16378 30.411199 116.16378 30.614173 
C 116.16378 30.817148 116.244422 31.011836 116.387947 31.15536 
C 116.531471 31.298885 116.72616 31.379528 116.929134 31.379528 
z
" clip-path="url(#p48442e115d)" style="fill: #bbbbbb; stroke: #bbbbbb; stroke-linejoin: miter"/>
   </g>
   <g id="patch_61">
    <path d="M 116.929134 13.946457 
C 118.14698 13.946457 119.31511 13.462601 120.176257 12.601454 
C 121.037404 11.740307 121.52126 10.572177 121.52126 9.354331 
C 121.52126 8.136485 121.037404 6.968354 120.176257 6.107207 
C 119.31511 5.24606 118.14698 4.762205 116.929134 4.762205 
C 115.711288 4.762205 114.543158 5.24606 113.68201 6.107207 
C 112.820863 6.968354 112.337008 8.136485 112.337008 9.354331 
C 112.337008 10.572177 112.820863 11.740307 113.68201 12.601454 
C 114.543158 13.462601 115.711288 13.946457 116.929134 13.946457 
L 116.929134 13.946457 
z
" clip-path="url(#p48442e115d)" style="fill: none; stroke: #bbbbbb; stroke-linejoin: miter"/>
   </g>
   <g id="patch_62">
    <path d="M 116.929134 10.119685 
C 117.132108 10.119685 117.326797 10.039042 117.470321 9.895518 
C 117.613846 9.751993 117.694488 9.557305 117.694488 9.354331 
C 117.694488 9.151356 117.613846 8.956668 117.470321 8.813143 
C 117.326797 8.669619 117.132108 8.588976 116.929134 8.588976 
C 116.72616 8.588976 116.531471 8.669619 116.387947 8.813143 
C 116.244422 8.956668 116.16378 9.151356 116.16378 9.354331 
C 116.16378 9.557305 116.244422 9.751993 116.387947 9.895518 
C 116.531471 10.039042 116.72616 10.119685 116.929134 10.119685 
z
" clip-path="url(#p48442e115d)" style="fill: #bbbbbb; stroke: #bbbbbb; stroke-linejoin: miter"/>
   </g>
   <g id="patch_63">
    <path d="M 138.188976 98.985827 
C 139.406822 98.985827 140.574953 98.501971 141.4361 97.640824 
C 142.297247 96.779677 142.781102 95.611547 142.781102 94.393701 
C 142.781102 93.175855 142.297247 92.007725 141.4361 91.146577 
C 140.574953 90.28543 139.406822 89.801575 138.188976 89.801575 
C 136.97113 89.801575 135.803 90.28543 134.941853 91.146577 
C 134.080706 92.007725 133.59685 93.175855 133.59685 94.393701 
C 133.59685 95.611547 134.080706 96.779677 134.941853 97.640824 
C 135.803 98.501971 136.97113 98.985827 138.188976 98.985827 
L 138.188976 98.985827 
z
" clip-path="url(#p48442e115d)" style="fill: none; stroke: #bbbbbb; stroke-linejoin: miter"/>
   </g>
   <g id="patch_64">
    <path d="M 138.188976 95.159055 
C 138.391951 95.159055 138.586639 95.078413 138.730164 94.934888 
C 138.873688 94.791363 138.954331 94.596675 138.954331 94.393701 
C 138.954331 94.190726 138.873688 93.996038 138.730164 93.852514 
C 138.586639 93.708989 138.391951 93.628346 138.188976 93.628346 
C 137.986002 93.628346 137.791314 93.708989 137.647789 93.852514 
C 137.504265 93.996038 137.423622 94.190726 137.423622 94.393701 
C 137.423622 94.596675 137.504265 94.791363 137.647789 94.934888 
C 137.791314 95.078413 137.986002 95.159055 138.188976 95.159055 
z
" clip-path="url(#p48442e115d)" style="fill: #bbbbbb; stroke: #bbbbbb; stroke-linejoin: miter"/>
   </g>
   <g id="patch_65">
    <path d="M 138.188976 77.725984 
C 139.406822 77.725984 140.574953 77.242129 141.4361 76.380982 
C 142.297247 75.519834 142.781102 74.351704 142.781102 73.133858 
C 142.781102 71.916012 142.297247 70.747882 141.4361 69.886735 
C 140.574953 69.025588 139.406822 68.541732 138.188976 68.541732 
C 136.97113 68.541732 135.803 69.025588 134.941853 69.886735 
C 134.080706 70.747882 133.59685 71.916012 133.59685 73.133858 
C 133.59685 74.351704 134.080706 75.519834 134.941853 76.380982 
C 135.803 77.242129 136.97113 77.725984 138.188976 77.725984 
L 138.188976 77.725984 
z
" clip-path="url(#p48442e115d)" style="fill: none; stroke: #bbbbbb; stroke-linejoin: miter"/>
   </g>
   <g id="patch_66">
    <path d="M 138.188976 73.899213 
C 138.391951 73.899213 138.586639 73.81857 138.730164 73.675046 
C 138.873688 73.531521 138.954331 73.336833 138.954331 73.133858 
C 138.954331 72.930884 138.873688 72.736196 138.730164 72.592671 
C 138.586639 72.449146 138.391951 72.368504 138.188976 72.368504 
C 137.986002 72.368504 137.791314 72.449146 137.647789 72.592671 
C 137.504265 72.736196 137.423622 72.930884 137.423622 73.133858 
C 137.423622 73.336833 137.504265 73.531521 137.647789 73.675046 
C 137.791314 73.81857 137.986002 73.899213 138.188976 73.899213 
z
" clip-path="url(#p48442e115d)" style="fill: #bbbbbb; stroke: #bbbbbb; stroke-linejoin: miter"/>
   </g>
   <g id="patch_67">
    <path d="M 138.188976 56.466142 
C 139.406822 56.466142 140.574953 55.982286 141.4361 55.121139 
C 142.297247 54.259992 142.781102 53.091862 142.781102 51.874016 
C 142.781102 50.65617 142.297247 49.48804 141.4361 48.626892 
C 140.574953 47.765745 139.406822 47.28189 138.188976 47.28189 
C 136.97113 47.28189 135.803 47.765745 134.941853 48.626892 
C 134.080706 49.48804 133.59685 50.65617 133.59685 51.874016 
C 133.59685 53.091862 134.080706 54.259992 134.941853 55.121139 
C 135.803 55.982286 136.97113 56.466142 138.188976 56.466142 
L 138.188976 56.466142 
z
" clip-path="url(#p48442e115d)" style="fill: none; stroke: #bbbbbb; stroke-linejoin: miter"/>
   </g>
   <g id="patch_68">
    <path d="M 138.188976 52.63937 
C 138.391951 52.63937 138.586639 52.558728 138.730164 52.415203 
C 138.873688 52.271678 138.954331 52.07699 138.954331 51.874016 
C 138.954331 51.671041 138.873688 51.476353 138.730164 51.332829 
C 138.586639 51.189304 138.391951 51.108661 138.188976 51.108661 
C 137.986002 51.108661 137.791314 51.189304 137.647789 51.332829 
C 137.504265 51.476353 137.423622 51.671041 137.423622 51.874016 
C 137.423622 52.07699 137.504265 52.271678 137.647789 52.415203 
C 137.791314 52.558728 137.986002 52.63937 138.188976 52.63937 
z
" clip-path="url(#p48442e115d)" style="fill: #bbbbbb; stroke: #bbbbbb; stroke-linejoin: miter"/>
   </g>
   <g id="patch_69">
    <path d="M 138.188976 35.206299 
C 139.406822 35.206299 140.574953 34.722444 141.4361 33.861297 
C 142.297247 33.000149 142.781102 31.832019 142.781102 30.614173 
C 142.781102 29.396327 142.297247 28.228197 141.4361 27.36705 
C 140.574953 26.505903 139.406822 26.022047 138.188976 26.022047 
C 136.97113 26.022047 135.803 26.505903 134.941853 27.36705 
C 134.080706 28.228197 133.59685 29.396327 133.59685 30.614173 
C 133.59685 31.832019 134.080706 33.000149 134.941853 33.861297 
C 135.803 34.722444 136.97113 35.206299 138.188976 35.206299 
L 138.188976 35.206299 
z
" clip-path="url(#p48442e115d)" style="fill: none; stroke: #bbbbbb; stroke-linejoin: miter"/>
   </g>
   <g id="patch_70">
    <path d="M 138.188976 31.379528 
C 138.391951 31.379528 138.586639 31.298885 138.730164 31.15536 
C 138.873688 31.011836 138.954331 30.817148 138.954331 30.614173 
C 138.954331 30.411199 138.873688 30.216511 138.730164 30.072986 
C 138.586639 29.929461 138.391951 29.848819 138.188976 29.848819 
C 137.986002 29.848819 137.791314 29.929461 137.647789 30.072986 
C 137.504265 30.216511 137.423622 30.411199 137.423622 30.614173 
C 137.423622 30.817148 137.504265 31.011836 137.647789 31.15536 
C 137.791314 31.298885 137.986002 31.379528 138.188976 31.379528 
z
" clip-path="url(#p48442e115d)" style="fill: #bbbbbb; stroke: #bbbbbb; stroke-linejoin: miter"/>
   </g>
   <g id="patch_71">
    <path d="M 138.188976 13.946457 
C 139.406822 13.946457 140.574953 13.462601 141.4361 12.601454 
C 142.297247 11.740307 142.781102 10.572177 142.781102 9.354331 
C 142.781102 8.136485 142.297247 6.968354 141.4361 6.107207 
C 140.574953 5.24606 139.406822 4.762205 138.188976 4.762205 
C 136.97113 4.762205 135.803 5.24606 134.941853 6.107207 
C 134.080706 6.968354 133.59685 8.136485 133.59685 9.354331 
C 133.59685 10.572177 134.080706 11.740307 134.941853 12.601454 
C 135.803 13.462601 136.97113 13.946457 138.188976 13.946457 
L 138.188976 13.946457 
z
" clip-path="url(#p48442e115d)" style="fill: none; stroke: #bbbbbb; stroke-linejoin: miter"/>
   </g>
   <g id="patch_72">
    <path d="M 138.188976 10.119685 
C 138.391951 10.119685 138.586639 10.039042 138.730164 9.895518 
C 138.873688 9.751993 138.954331 9.557305 138.954331 9.354331 
C 138.954331 9.151356 138.873688 8.956668 138.730164 8.813143 
C 138.586639 8.669619 138.391951 8.588976 138.188976 8.588976 
C 137.986002 8.588976 137.791314 8.669619 137.647789 8.813143 
C 137.504265 8.956668 137.423622 9.151356 137.423622 9.354331 
C 137.423622 9.557305 137.504265 9.751993 137.647789 9.895518 
C 137.791314 10.039042 137.986002 10.119685 138.188976 10.119685 
z
" clip-path="url(#p48442e115d)" style="fill: #bbbbbb; stroke: #bbbbbb; stroke-linejoin: miter"/>
   </g>
   <g id="patch_73">
    <path d="M 159.448819 98.985827 
C 160.666665 98.985827 161.834795 98.501971 162.695942 97.640824 
C 163.55709 96.779677 164.040945 95.611547 164.040945 94.393701 
C 164.040945 93.175855 163.55709 92.007725 162.695942 91.146577 
C 161.834795 90.28543 160.666665 89.801575 159.448819 89.801575 
C 158.230973 89.801575 157.062843 90.28543 156.201695 91.146577 
C 155.340548 92.007725 154.856693 93.175855 154.856693 94.393701 
C 154.856693 95.611547 155.340548 96.779677 156.201695 97.640824 
C 157.062843 98.501971 158.230973 98.985827 159.448819 98.985827 
L 159.448819 98.985827 
z
" clip-path="url(#p48442e115d)" style="fill: none; stroke: #bbbbbb; stroke-linejoin: miter"/>
   </g>
   <g id="patch_74">
    <path d="M 159.448819 95.159055 
C 159.651793 95.159055 159.846482 95.078413 159.990006 94.934888 
C 160.133531 94.791363 160.214173 94.596675 160.214173 94.393701 
C 160.214173 94.190726 160.133531 93.996038 159.990006 93.852514 
C 159.846482 93.708989 159.651793 93.628346 159.448819 93.628346 
C 159.245845 93.628346 159.051156 93.708989 158.907632 93.852514 
C 158.764107 93.996038 158.683465 94.190726 158.683465 94.393701 
C 158.683465 94.596675 158.764107 94.791363 158.907632 94.934888 
C 159.051156 95.078413 159.245845 95.159055 159.448819 95.159055 
z
" clip-path="url(#p48442e115d)" style="fill: #bbbbbb; stroke: #bbbbbb; stroke-linejoin: miter"/>
   </g>
   <g id="patch_75">
    <path d="M 159.448819 77.725984 
C 160.666665 77.725984 161.834795 77.242129 162.695942 76.380982 
C 163.55709 75.519834 164.040945 74.351704 164.040945 73.133858 
C 164.040945 71.916012 163.55709 70.747882 162.695942 69.886735 
C 161.834795 69.025588 160.666665 68.541732 159.448819 68.541732 
C 158.230973 68.541732 157.062843 69.025588 156.201695 69.886735 
C 155.340548 70.747882 154.856693 71.916012 154.856693 73.133858 
C 154.856693 74.351704 155.340548 75.519834 156.201695 76.380982 
C 157.062843 77.242129 158.230973 77.725984 159.448819 77.725984 
L 159.448819 77.725984 
z
" clip-path="url(#p48442e115d)" style="fill: none; stroke: #bbbbbb; stroke-linejoin: miter"/>
   </g>
   <g id="patch_76">
    <path d="M 159.448819 73.899213 
C 159.651793 73.899213 159.846482 73.81857 159.990006 73.675046 
C 160.133531 73.531521 160.214173 73.336833 160.214173 73.133858 
C 160.214173 72.930884 160.133531 72.736196 159.990006 72.592671 
C 159.846482 72.449146 159.651793 72.368504 159.448819 72.368504 
C 159.245845 72.368504 159.051156 72.449146 158.907632 72.592671 
C 158.764107 72.736196 158.683465 72.930884 158.683465 73.133858 
C 158.683465 73.336833 158.764107 73.531521 158.907632 73.675046 
C 159.051156 73.81857 159.245845 73.899213 159.448819 73.899213 
z
" clip-path="url(#p48442e115d)" style="fill: #bbbbbb; stroke: #bbbbbb; stroke-linejoin: miter"/>
   </g>
   <g id="patch_77">
    <path d="M 159.448819 56.466142 
C 160.666665 56.466142 161.834795 55.982286 162.695942 55.121139 
C 163.55709 54.259992 164.040945 53.091862 164.040945 51.874016 
C 164.040945 50.65617 163.55709 49.48804 162.695942 48.626892 
C 161.834795 47.765745 160.666665 47.28189 159.448819 47.28189 
C 158.230973 47.28189 157.062843 47.765745 156.201695 48.626892 
C 155.340548 49.48804 154.856693 50.65617 154.856693 51.874016 
C 154.856693 53.091862 155.340548 54.259992 156.201695 55.121139 
C 157.062843 55.982286 158.230973 56.466142 159.448819 56.466142 
L 159.448819 56.466142 
z
" clip-path="url(#p48442e115d)" style="fill: none; stroke: #bbbbbb; stroke-linejoin: miter"/>
   </g>
   <g id="patch_78">
    <path d="M 159.448819 52.63937 
C 159.651793 52.63937 159.846482 52.558728 159.990006 52.415203 
C 160.133531 52.271678 160.214173 52.07699 160.214173 51.874016 
C 160.214173 51.671041 160.133531 51.476353 159.990006 51.332829 
C 159.846482 51.189304 159.651793 51.108661 159.448819 51.108661 
C 159.245845 51.108661 159.051156 51.189304 158.907632 51.332829 
C 158.764107 51.476353 158.683465 51.671041 158.683465 51.874016 
C 158.683465 52.07699 158.764107 52.271678 158.907632 52.415203 
C 159.051156 52.558728 159.245845 52.63937 159.448819 52.63937 
z
" clip-path="url(#p48442e115d)" style="fill: #bbbbbb; stroke: #bbbbbb; stroke-linejoin: miter"/>
   </g>
   <g id="patch_79">
    <path d="M 159.448819 35.206299 
C 160.666665 35.206299 161.834795 34.722444 162.695942 33.861297 
C 163.55709 33.000149 164.040945 31.832019 164.040945 30.614173 
C 164.040945 29.396327 163.55709 28.228197 162.695942 27.36705 
C 161.834795 26.505903 160.666665 26.022047 159.448819 26.022047 
C 158.230973 26.022047 157.062843 26.505903 156.201695 27.36705 
C 155.340548 28.228197 154.856693 29.396327 154.856693 30.614173 
C 154.856693 31.832019 155.340548 33.000149 156.201695 33.861297 
C 157.062843 34.722444 158.230973 35.206299 159.448819 35.206299 
L 159.448819 35.206299 
z
" clip-path="url(#p48442e115d)" style="fill: none; stroke: #bbbbbb; stroke-linejoin: miter"/>
   </g>
   <g id="patch_80">
    <path d="M 159.448819 31.379528 
C 159.651793 31.379528 159.846482 31.298885 159.990006 31.15536 
C 160.133531 31.011836 160.214173 30.817148 160.214173 30.614173 
C 160.214173 30.411199 160.133531 30.216511 159.990006 30.072986 
C 159.846482 29.929461 159.651793 29.848819 159.448819 29.848819 
C 159.245845 29.848819 159.051156 29.929461 158.907632 30.072986 
C 158.764107 30.216511 158.683465 30.411199 158.683465 30.614173 
C 158.683465 30.817148 158.764107 31.011836 158.907632 31.15536 
C 159.051156 31.298885 159.245845 31.379528 159.448819 31.379528 
z
" clip-path="url(#p48442e115d)" style="fill: #bbbbbb; stroke: #bbbbbb; stroke-linejoin: miter"/>
   </g>
   <g id="patch_81">
    <path d="M 159.448819 13.946457 
C 160.666665 13.946457 161.834795 13.462601 162.695942 12.601454 
C 163.55709 11.740307 164.040945 10.572177 164.040945 9.354331 
C 164.040945 8.136485 163.55709 6.968354 162.695942 6.107207 
C 161.834795 5.24606 160.666665 4.762205 159.448819 4.762205 
C 158.230973 4.762205 157.062843 5.24606 156.201695 6.107207 
C 155.340548 6.968354 154.856693 8.136485 154.856693 9.354331 
C 154.856693 10.572177 155.340548 11.740307 156.201695 12.601454 
C 157.062843 13.462601 158.230973 13.946457 159.448819 13.946457 
L 159.448819 13.946457 
z
" clip-path="url(#p48442e115d)" style="fill: none; stroke: #bbbbbb; stroke-linejoin: miter"/>
   </g>
   <g id="patch_82">
    <path d="M 159.448819 10.119685 
C 159.651793 10.119685 159.846482 10.039042 159.990006 9.895518 
C 160.133531 9.751993 160.214173 9.557305 160.214173 9.354331 
C 160.214173 9.151356 160.133531 8.956668 159.990006 8.813143 
C 159.846482 8.669619 159.651793 8.588976 159.448819 8.588976 
C 159.245845 8.588976 159.051156 8.669619 158.907632 8.813143 
C 158.764107 8.956668 158.683465 9.151356 158.683465 9.354331 
C 158.683465 9.557305 158.764107 9.751993 158.907632 9.895518 
C 159.051156 10.039042 159.245845 10.119685 159.448819 10.119685 
z
" clip-path="url(#p48442e115d)" style="fill: #bbbbbb; stroke: #bbbbbb; stroke-linejoin: miter"/>
   </g>
   <g id="patch_83">
    <path d="M 109.159766 48.709386 
L 108.951336 56.629719 
L 105.837395 54.96895 
L 90.870465 83.031942 
L 90.845454 83.018603 
L 105.812383 54.955611 
L 102.698441 53.294842 
z
" clip-path="url(#p48442e115d)" style="stroke: #000000; stroke-linejoin: miter"/>
   </g>
   <g id="patch_84">
    <path d="M 103.688081 21.317208 
L 103.688081 21.317208 
L 103.695943 21.329001 
L 52.672321 55.344749 
L 52.656597 55.321163 
L 103.680219 21.305415 
L 103.688081 21.317208 
z
" clip-path="url(#p48442e115d)" style="fill: #ff0000; stroke: #ff0000; stroke-linejoin: miter"/>
   </g>
   <g id="patch_85">
    <path d="M 41.999814 58.5962 
L 49.92289 58.5962 
L 48.344613 61.752753 
L 90.864298 83.012596 
L 90.851621 83.037949 
L 48.331936 61.778107 
L 46.753659 64.93466 
z
" clip-path="url(#p48442e115d)" style="fill: #a52a2a; stroke: #a52a2a; stroke-linejoin: miter"/>
   </g>
   <g id="patch_86">
    <path d="M 83.817571 34.564215 
L 79.886625 41.443371 
L 77.929013 38.506954 
L 52.672321 55.344749 
L 52.656597 55.321163 
L 77.91329 38.483368 
L 75.955678 35.546951 
z
" clip-path="url(#p48442e115d)" style="stroke: #000000; stroke-linejoin: miter"/>
   </g>
   <g id="patch_87">
    <path d="M 16.843749 1.601891 
L 23.722905 5.532837 
L 20.786488 7.490449 
L 52.676251 55.325094 
L 52.652666 55.340818 
L 20.762902 7.506172 
L 17.826485 9.463784 
z
" clip-path="url(#p48442e115d)" style="fill: #a52a2a; stroke: #a52a2a; stroke-linejoin: miter"/>
   </g>
   <g id="patch_88">
    <path d="M 162.992126 46.771654 
L 205.511811 46.771654 
L 205.511811 4.251969 
L 162.992126 4.251969 
z
" clip-path="url(#p48442e115d)" style="fill: #808080; stroke: #808080; stroke-linejoin: miter"/>
   </g>
   <g id="matplotlib.axis_1">
    <g id="xtick_1"/>
    <g id="xtick_2"/>
    <g id="xtick_3"/>
    <g id="xtick_4"/>
   </g>
   <g id="matplotlib.axis_2">
    <g id="ytick_1"/>
    <g id="ytick_2"/>
    <g id="ytick_3"/>
    <g id="ytick_4"/>
   </g>
   <g id="line2d_1">
    <defs>
     <path id="m0373512e9f" d="M 0 3 
C 0.795609 3 1.55874 2.683901 2.12132 2.12132 
C 2.683901 1.55874 3 0.795609 3 0 
C 3 -0.795609 2.683901 -1.55874 2.12132 -2.12132 
C 1.55874 -2.683901 0.795609 -3 0 -3 
C -0.795609 -3 -1.55874 -2.683901 -2.12132 -2.12132 
C -2.683901 -1.55874 -3 -0.795609 -3 0 
C -3 0.795609 -2.683901 1.55874 -2.12132 2.12132 
C -1.55874 2.683901 -0.795609 3 0 3 
z
" style="stroke: #0000ff"/>
    </defs>
    <g clip-path="url(#p48442e115d)">
     <use xlink:href="#m0373512e9f" x="90.85796" y="83.025272" style="fill: #0000ff; stroke: #0000ff"/>
    </g>
   </g>
   <g id="line2d_2">
    <g clip-path="url(#p48442e115d)">
     <use xlink:href="#m0373512e9f" x="52.664459" y="55.332956" style="fill: #0000ff; stroke: #0000ff"/>
    </g>
   </g>
   <g id="line2d_3">
    <path d="M 171.07874 69.662405 
L 169.066298 72.12846 
L 166.731957 74.513938 
L 164.081586 76.795275 
L 161.122576 78.950013 
L 157.864469 80.956066 
L 154.318937 82.791859 
L 150.499735 84.436448 
L 146.422648 85.869657 
L 142.105429 87.072192 
L 137.567724 88.025766 
L 132.830985 88.713215 
L 127.918373 89.118607 
L 122.854658 89.22735 
L 117.666101 89.026288 
L 112.380328 88.503798 
L 107.026205 87.649873 
L 101.633694 86.456202 
L 98.032591 85.468367 
L 94.437513 84.325097 
L 90.85796 83.025272 
L 87.303548 81.568146 
L 83.783988 79.953353 
L 80.309065 78.180913 
L 76.88861 76.251238 
L 73.532487 74.16513 
L 70.250559 71.923788 
L 67.052678 69.528808 
L 63.948648 66.982183 
L 60.948213 64.286302 
L 58.061029 61.443952 
L 55.296641 58.458313 
L 52.664459 55.332956 
L 50.173738 52.07184 
L 47.833553 48.679306 
L 45.652777 45.160072 
L 43.640058 41.519227 
L 41.803797 37.762224 
L 40.152128 33.894869 
L 38.692895 29.923317 
L 37.433631 25.854058 
L 36.381539 21.693909 
L 35.54347 17.449999 
L 34.925909 13.129762 
L 34.534948 8.74092 
L 34.376276 4.291471 
L 34.500442 -1 
L 34.500442 -1 
" clip-path="url(#p48442e115d)" style="fill: none; stroke: #000000; stroke-width: 1.5; stroke-linecap: square"/>
   </g>
   <g id="patch_89">
    <path d="M 0 106.299213 
L 0 0 
" style="fill: none"/>
   </g>
   <g id="patch_90">
    <path d="M 170.07874 106.299213 
L 170.07874 0 
" style="fill: none"/>
   </g>
   <g id="patch_91">
    <path d="M 0 106.299213 
L 170.07874 106.299213 
" style="fill: none"/>
   </g>
   <g id="patch_92">
    <path d="M 0 0 
L 170.07874 0 
" style="fill: none"/>
   </g>
   <g id="text_1">
    <!-- $F_{Lorentz}$ -->
    <g transform="translate(102.196542 70.269367)scale(0.1 -0.1)">
     <defs>
      <path id="DejaVuSans-Oblique-46" d="M 1081 4666 
L 3756 4666 
L 3653 4134 
L 1606 4134 
L 1338 2759 
L 3188 2759 
L 3084 2228 
L 1234 2228 
L 800 0 
L 172 0 
L 1081 4666 
z
" transform="scale(0.015625)"/>
      <path id="DejaVuSans-Oblique-4c" d="M 1075 4666 
L 1709 4666 
L 909 525 
L 3181 525 
L 3078 0 
L 172 0 
L 1075 4666 
z
" transform="scale(0.015625)"/>
      <path id="DejaVuSans-Oblique-6f" d="M 1625 -91 
Q 1009 -91 651 289 
Q 294 669 294 1325 
Q 294 1706 417 2101 
Q 541 2497 738 2766 
Q 1047 3184 1428 3384 
Q 1809 3584 2291 3584 
Q 2888 3584 3255 3212 
Q 3622 2841 3622 2241 
Q 3622 1825 3500 1412 
Q 3378 1000 3181 728 
Q 2875 309 2494 109 
Q 2113 -91 1625 -91 
z
M 891 1344 
Q 891 869 1089 633 
Q 1288 397 1691 397 
Q 2269 397 2648 901 
Q 3028 1406 3028 2181 
Q 3028 2634 2825 2865 
Q 2622 3097 2228 3097 
Q 1903 3097 1650 2945 
Q 1397 2794 1197 2484 
Q 1050 2253 970 1956 
Q 891 1659 891 1344 
z
" transform="scale(0.015625)"/>
      <path id="DejaVuSans-Oblique-72" d="M 2853 2969 
Q 2766 3016 2653 3041 
Q 2541 3066 2413 3066 
Q 1953 3066 1609 2717 
Q 1266 2369 1153 1784 
L 800 0 
L 225 0 
L 909 3500 
L 1484 3500 
L 1375 2956 
Q 1603 3259 1920 3421 
Q 2238 3584 2597 3584 
Q 2691 3584 2781 3573 
Q 2872 3563 2963 3538 
L 2853 2969 
z
" transform="scale(0.015625)"/>
      <path id="DejaVuSans-Oblique-65" d="M 3078 2063 
Q 3088 2113 3092 2166 
Q 3097 2219 3097 2272 
Q 3097 2653 2873 2875 
Q 2650 3097 2266 3097 
Q 1838 3097 1509 2826 
Q 1181 2556 1013 2059 
L 3078 2063 
z
M 3578 1613 
L 903 1613 
Q 884 1494 878 1425 
Q 872 1356 872 1306 
Q 872 872 1139 634 
Q 1406 397 1894 397 
Q 2269 397 2603 481 
Q 2938 566 3225 728 
L 3116 159 
Q 2806 34 2476 -28 
Q 2147 -91 1806 -91 
Q 1078 -91 686 257 
Q 294 606 294 1247 
Q 294 1794 489 2264 
Q 684 2734 1063 3103 
Q 1306 3334 1642 3459 
Q 1978 3584 2356 3584 
Q 2950 3584 3301 3228 
Q 3653 2872 3653 2272 
Q 3653 2128 3634 1964 
Q 3616 1800 3578 1613 
z
" transform="scale(0.015625)"/>
      <path id="DejaVuSans-Oblique-6e" d="M 3566 2113 
L 3156 0 
L 2578 0 
L 2988 2091 
Q 3016 2238 3031 2350 
Q 3047 2463 3047 2528 
Q 3047 2791 2881 2937 
Q 2716 3084 2419 3084 
Q 1956 3084 1622 2776 
Q 1288 2469 1184 1941 
L 800 0 
L 225 0 
L 903 3500 
L 1478 3500 
L 1363 2950 
Q 1603 3253 1940 3418 
Q 2278 3584 2650 3584 
Q 3113 3584 3367 3334 
Q 3622 3084 3622 2631 
Q 3622 2519 3608 2391 
Q 3594 2263 3566 2113 
z
" transform="scale(0.015625)"/>
      <path id="DejaVuSans-Oblique-74" d="M 2706 3500 
L 2619 3053 
L 1472 3053 
L 1100 1153 
Q 1081 1047 1072 975 
Q 1063 903 1063 863 
Q 1063 663 1183 572 
Q 1303 481 1569 481 
L 2150 481 
L 2053 0 
L 1503 0 
Q 991 0 739 200 
Q 488 400 488 806 
Q 488 878 497 964 
Q 506 1050 525 1153 
L 897 3053 
L 409 3053 
L 500 3500 
L 978 3500 
L 1172 4494 
L 1747 4494 
L 1556 3500 
L 2706 3500 
z
" transform="scale(0.015625)"/>
      <path id="DejaVuSans-Oblique-7a" d="M 744 3500 
L 3475 3500 
L 3372 2975 
L 738 459 
L 2913 459 
L 2822 0 
L -19 0 
L 84 525 
L 2719 3041 
L 653 3041 
L 744 3500 
z
" transform="scale(0.015625)"/>
     </defs>
     <use xlink:href="#DejaVuSans-Oblique-46" transform="translate(0 0.09375)"/>
     <use xlink:href="#DejaVuSans-Oblique-4c" transform="translate(57.519531 -16.3125)scale(0.7)"/>
     <use xlink:href="#DejaVuSans-Oblique-6f" transform="translate(96.518555 -16.3125)scale(0.7)"/>
     <use xlink:href="#DejaVuSans-Oblique-72" transform="translate(139.345703 -16.3125)scale(0.7)"/>
     <use xlink:href="#DejaVuSans-Oblique-65" transform="translate(168.125 -16.3125)scale(0.7)"/>
     <use xlink:href="#DejaVuSans-Oblique-6e" transform="translate(211.191406 -16.3125)scale(0.7)"/>
     <use xlink:href="#DejaVuSans-Oblique-74" transform="translate(255.556641 -16.3125)scale(0.7)"/>
     <use xlink:href="#DejaVuSans-Oblique-7a" transform="translate(283.00293 -16.3125)scale(0.7)"/>
    </g>
   </g>
   <g id="text_2">
    <!-- $F_{Lorentz}$ -->
    <g transform="translate(67.631388 55.332956)scale(0.1 -0.1)">
     <use xlink:href="#DejaVuSans-Oblique-46" transform="translate(0 0.09375)"/>
     <use xlink:href="#DejaVuSans-Oblique-4c" transform="translate(57.519531 -16.3125)scale(0.7)"/>
     <use xlink:href="#DejaVuSans-Oblique-6f" transform="translate(96.518555 -16.3125)scale(0.7)"/>
     <use xlink:href="#DejaVuSans-Oblique-72" transform="translate(139.345703 -16.3125)scale(0.7)"/>
     <use xlink:href="#DejaVuSans-Oblique-65" transform="translate(168.125 -16.3125)scale(0.7)"/>
     <use xlink:href="#DejaVuSans-Oblique-6e" transform="translate(211.191406 -16.3125)scale(0.7)"/>
     <use xlink:href="#DejaVuSans-Oblique-74" transform="translate(255.556641 -16.3125)scale(0.7)"/>
     <use xlink:href="#DejaVuSans-Oblique-7a" transform="translate(283.00293 -16.3125)scale(0.7)"/>
    </g>
   </g>
   <g id="text_3">
    <!-- r -->
    <g style="fill: #ff0000" transform="translate(75.341624 26.9865)scale(0.1 -0.1)">
     <defs>
      <path id="DejaVuSans-72" d="M 2631 2963 
Q 2534 3019 2420 3045 
Q 2306 3072 2169 3072 
Q 1681 3072 1420 2755 
Q 1159 2438 1159 1844 
L 1159 0 
L 581 0 
L 581 3500 
L 1159 3500 
L 1159 2956 
Q 1341 3275 1631 3429 
Q 1922 3584 2338 3584 
Q 2397 3584 2469 3576 
Q 2541 3569 2628 3553 
L 2631 2963 
z
" transform="scale(0.015625)"/>
     </defs>
     <use xlink:href="#DejaVuSans-72"/>
    </g>
   </g>
   <g id="text_4">
    <!-- $\nu_0$ -->
    <g style="fill: #a52a2a" transform="translate(48.338275 77.355981)scale(0.1 -0.1)">
     <defs>
      <path id="DejaVuSans-Oblique-3bd" d="M 959 0 
L 572 3500 
L 1191 3500 
L 1522 563 
Q 1972 950 2391 1488 
Q 2706 1891 2788 2241 
Q 2825 2406 2809 2719 
Q 2794 3091 2544 3500 
L 3125 3500 
L 3125 3500 
Q 3288 3222 3353 2834 
Q 3416 2478 3369 2234 
Q 3250 1622 2719 1075 
Q 2025 363 1572 0 
L 959 0 
z
" transform="scale(0.015625)"/>
      <path id="DejaVuSans-30" d="M 2034 4250 
Q 1547 4250 1301 3770 
Q 1056 3291 1056 2328 
Q 1056 1369 1301 889 
Q 1547 409 2034 409 
Q 2525 409 2770 889 
Q 3016 1369 3016 2328 
Q 3016 3291 2770 3770 
Q 2525 4250 2034 4250 
z
M 2034 4750 
Q 2819 4750 3233 4129 
Q 3647 3509 3647 2328 
Q 3647 1150 3233 529 
Q 2819 -91 2034 -91 
Q 1250 -91 836 529 
Q 422 1150 422 2328 
Q 422 3509 836 4129 
Q 1250 4750 2034 4750 
z
" transform="scale(0.015625)"/>
     </defs>
     <use xlink:href="#DejaVuSans-Oblique-3bd" transform="translate(0 0.3125)"/>
     <use xlink:href="#DejaVuSans-30" transform="translate(55.859375 -16.09375)scale(0.7)"/>
    </g>
   </g>
   <g id="text_5">
    <!-- $\nu_0$ -->
    <g style="fill: #a52a2a" transform="translate(15.814065 22.734531)scale(0.1 -0.1)">
     <use xlink:href="#DejaVuSans-Oblique-3bd" transform="translate(0 0.3125)"/>
     <use xlink:href="#DejaVuSans-30" transform="translate(55.859375 -16.09375)scale(0.7)"/>
    </g>
   </g>
   <g id="legend_1">
    <g id="line2d_4">
     <path d="M 4.05 66.712572 
L 8.55 66.712572 
L 13.05 66.712572 
" style="fill: none; stroke: #000000; stroke-width: 1.5; stroke-linecap: square"/>
    </g>
    <g id="text_6">
     <!-- Laufbahn -->
     <g transform="translate(16.65 68.287572)scale(0.045 -0.045)">
      <defs>
       <path id="DejaVuSans-4c" d="M 628 4666 
L 1259 4666 
L 1259 531 
L 3531 531 
L 3531 0 
L 628 0 
L 628 4666 
z
" transform="scale(0.015625)"/>
       <path id="DejaVuSans-61" d="M 2194 1759 
Q 1497 1759 1228 1600 
Q 959 1441 959 1056 
Q 959 750 1161 570 
Q 1363 391 1709 391 
Q 2188 391 2477 730 
Q 2766 1069 2766 1631 
L 2766 1759 
L 2194 1759 
z
M 3341 1997 
L 3341 0 
L 2766 0 
L 2766 531 
Q 2569 213 2275 61 
Q 1981 -91 1556 -91 
Q 1019 -91 701 211 
Q 384 513 384 1019 
Q 384 1609 779 1909 
Q 1175 2209 1959 2209 
L 2766 2209 
L 2766 2266 
Q 2766 2663 2505 2880 
Q 2244 3097 1772 3097 
Q 1472 3097 1187 3025 
Q 903 2953 641 2809 
L 641 3341 
Q 956 3463 1253 3523 
Q 1550 3584 1831 3584 
Q 2591 3584 2966 3190 
Q 3341 2797 3341 1997 
z
" transform="scale(0.015625)"/>
       <path id="DejaVuSans-75" d="M 544 1381 
L 544 3500 
L 1119 3500 
L 1119 1403 
Q 1119 906 1312 657 
Q 1506 409 1894 409 
Q 2359 409 2629 706 
Q 2900 1003 2900 1516 
L 2900 3500 
L 3475 3500 
L 3475 0 
L 2900 0 
L 2900 538 
Q 2691 219 2414 64 
Q 2138 -91 1772 -91 
Q 1169 -91 856 284 
Q 544 659 544 1381 
z
M 1991 3584 
L 1991 3584 
z
" transform="scale(0.015625)"/>
       <path id="DejaVuSans-66" d="M 2375 4863 
L 2375 4384 
L 1825 4384 
Q 1516 4384 1395 4259 
Q 1275 4134 1275 3809 
L 1275 3500 
L 2222 3500 
L 2222 3053 
L 1275 3053 
L 1275 0 
L 697 0 
L 697 3053 
L 147 3053 
L 147 3500 
L 697 3500 
L 697 3744 
Q 697 4328 969 4595 
Q 1241 4863 1831 4863 
L 2375 4863 
z
" transform="scale(0.015625)"/>
       <path id="DejaVuSans-62" d="M 3116 1747 
Q 3116 2381 2855 2742 
Q 2594 3103 2138 3103 
Q 1681 3103 1420 2742 
Q 1159 2381 1159 1747 
Q 1159 1113 1420 752 
Q 1681 391 2138 391 
Q 2594 391 2855 752 
Q 3116 1113 3116 1747 
z
M 1159 2969 
Q 1341 3281 1617 3432 
Q 1894 3584 2278 3584 
Q 2916 3584 3314 3078 
Q 3713 2572 3713 1747 
Q 3713 922 3314 415 
Q 2916 -91 2278 -91 
Q 1894 -91 1617 61 
Q 1341 213 1159 525 
L 1159 0 
L 581 0 
L 581 4863 
L 1159 4863 
L 1159 2969 
z
" transform="scale(0.015625)"/>
       <path id="DejaVuSans-68" d="M 3513 2113 
L 3513 0 
L 2938 0 
L 2938 2094 
Q 2938 2591 2744 2837 
Q 2550 3084 2163 3084 
Q 1697 3084 1428 2787 
Q 1159 2491 1159 1978 
L 1159 0 
L 581 0 
L 581 4863 
L 1159 4863 
L 1159 2956 
Q 1366 3272 1645 3428 
Q 1925 3584 2291 3584 
Q 2894 3584 3203 3211 
Q 3513 2838 3513 2113 
z
" transform="scale(0.015625)"/>
       <path id="DejaVuSans-6e" d="M 3513 2113 
L 3513 0 
L 2938 0 
L 2938 2094 
Q 2938 2591 2744 2837 
Q 2550 3084 2163 3084 
Q 1697 3084 1428 2787 
Q 1159 2491 1159 1978 
L 1159 0 
L 581 0 
L 581 3500 
L 1159 3500 
L 1159 2956 
Q 1366 3272 1645 3428 
Q 1925 3584 2291 3584 
Q 2894 3584 3203 3211 
Q 3513 2838 3513 2113 
z
" transform="scale(0.015625)"/>
      </defs>
      <use xlink:href="#DejaVuSans-4c"/>
      <use xlink:href="#DejaVuSans-61" x="55.712891"/>
      <use xlink:href="#DejaVuSans-75" x="116.992188"/>
      <use xlink:href="#DejaVuSans-66" x="180.371094"/>
      <use xlink:href="#DejaVuSans-62" x="215.576172"/>
      <use xlink:href="#DejaVuSans-61" x="279.052734"/>
      <use xlink:href="#DejaVuSans-68" x="340.332031"/>
      <use xlink:href="#DejaVuSans-6e" x="403.710938"/>
     </g>
    </g>
    <g id="line2d_5">
     <defs>
      <path id="m51a55cf3f6" d="M 0 1.5 
C 0.397805 1.5 0.77937 1.341951 1.06066 1.06066 
C 1.341951 0.77937 1.5 0.397805 1.5 0 
C 1.5 -0.397805 1.341951 -0.77937 1.06066 -1.06066 
C 0.77937 -1.341951 0.397805 -1.5 0 -1.5 
C -0.397805 -1.5 -0.77937 -1.341951 -1.06066 -1.06066 
C -1.341951 -0.77937 -1.5 -0.397805 -1.5 0 
C -1.5 0.397805 -1.341951 0.77937 -1.06066 1.06066 
C -0.77937 1.341951 -0.397805 1.5 0 1.5 
z
" style="stroke: #0000ff"/>
     </defs>
     <g>
      <use xlink:href="#m51a55cf3f6" x="8.55" y="73.317728" style="fill: #0000ff; stroke: #0000ff"/>
     </g>
    </g>
    <g id="text_7">
     <!-- Protonen -->
     <g transform="translate(16.65 74.892728)scale(0.045 -0.045)">
      <defs>
       <path id="DejaVuSans-50" d="M 1259 4147 
L 1259 2394 
L 2053 2394 
Q 2494 2394 2734 2622 
Q 2975 2850 2975 3272 
Q 2975 3691 2734 3919 
Q 2494 4147 2053 4147 
L 1259 4147 
z
M 628 4666 
L 2053 4666 
Q 2838 4666 3239 4311 
Q 3641 3956 3641 3272 
Q 3641 2581 3239 2228 
Q 2838 1875 2053 1875 
L 1259 1875 
L 1259 0 
L 628 0 
L 628 4666 
z
" transform="scale(0.015625)"/>
       <path id="DejaVuSans-6f" d="M 1959 3097 
Q 1497 3097 1228 2736 
Q 959 2375 959 1747 
Q 959 1119 1226 758 
Q 1494 397 1959 397 
Q 2419 397 2687 759 
Q 2956 1122 2956 1747 
Q 2956 2369 2687 2733 
Q 2419 3097 1959 3097 
z
M 1959 3584 
Q 2709 3584 3137 3096 
Q 3566 2609 3566 1747 
Q 3566 888 3137 398 
Q 2709 -91 1959 -91 
Q 1206 -91 779 398 
Q 353 888 353 1747 
Q 353 2609 779 3096 
Q 1206 3584 1959 3584 
z
" transform="scale(0.015625)"/>
       <path id="DejaVuSans-74" d="M 1172 4494 
L 1172 3500 
L 2356 3500 
L 2356 3053 
L 1172 3053 
L 1172 1153 
Q 1172 725 1289 603 
Q 1406 481 1766 481 
L 2356 481 
L 2356 0 
L 1766 0 
Q 1100 0 847 248 
Q 594 497 594 1153 
L 594 3053 
L 172 3053 
L 172 3500 
L 594 3500 
L 594 4494 
L 1172 4494 
z
" transform="scale(0.015625)"/>
       <path id="DejaVuSans-65" d="M 3597 1894 
L 3597 1613 
L 953 1613 
Q 991 1019 1311 708 
Q 1631 397 2203 397 
Q 2534 397 2845 478 
Q 3156 559 3463 722 
L 3463 178 
Q 3153 47 2828 -22 
Q 2503 -91 2169 -91 
Q 1331 -91 842 396 
Q 353 884 353 1716 
Q 353 2575 817 3079 
Q 1281 3584 2069 3584 
Q 2775 3584 3186 3129 
Q 3597 2675 3597 1894 
z
M 3022 2063 
Q 3016 2534 2758 2815 
Q 2500 3097 2075 3097 
Q 1594 3097 1305 2825 
Q 1016 2553 972 2059 
L 3022 2063 
z
" transform="scale(0.015625)"/>
      </defs>
      <use xlink:href="#DejaVuSans-50"/>
      <use xlink:href="#DejaVuSans-72" x="58.552734"/>
      <use xlink:href="#DejaVuSans-6f" x="97.416016"/>
      <use xlink:href="#DejaVuSans-74" x="158.597656"/>
      <use xlink:href="#DejaVuSans-6f" x="197.806641"/>
      <use xlink:href="#DejaVuSans-6e" x="258.988281"/>
      <use xlink:href="#DejaVuSans-65" x="322.367188"/>
      <use xlink:href="#DejaVuSans-6e" x="383.890625"/>
     </g>
    </g>
    <g id="patch_93">
     <path d="M 4.05 81.497884 
L 13.05 81.497884 
L 13.05 78.347884 
L 4.05 78.347884 
z
" style="stroke: #000000; stroke-linejoin: miter"/>
    </g>
    <g id="text_8">
     <!-- Lorentz-Kraft -->
     <g transform="translate(16.65 81.497884)scale(0.045 -0.045)">
      <defs>
       <path id="DejaVuSans-7a" d="M 353 3500 
L 3084 3500 
L 3084 2975 
L 922 459 
L 3084 459 
L 3084 0 
L 275 0 
L 275 525 
L 2438 3041 
L 353 3041 
L 353 3500 
z
" transform="scale(0.015625)"/>
       <path id="DejaVuSans-2d" d="M 313 2009 
L 1997 2009 
L 1997 1497 
L 313 1497 
L 313 2009 
z
" transform="scale(0.015625)"/>
       <path id="DejaVuSans-4b" d="M 628 4666 
L 1259 4666 
L 1259 2694 
L 3353 4666 
L 4166 4666 
L 1850 2491 
L 4331 0 
L 3500 0 
L 1259 2247 
L 1259 0 
L 628 0 
L 628 4666 
z
" transform="scale(0.015625)"/>
      </defs>
      <use xlink:href="#DejaVuSans-4c"/>
      <use xlink:href="#DejaVuSans-6f" x="53.962891"/>
      <use xlink:href="#DejaVuSans-72" x="115.144531"/>
      <use xlink:href="#DejaVuSans-65" x="154.007812"/>
      <use xlink:href="#DejaVuSans-6e" x="215.53125"/>
      <use xlink:href="#DejaVuSans-74" x="278.910156"/>
      <use xlink:href="#DejaVuSans-7a" x="318.119141"/>
      <use xlink:href="#DejaVuSans-2d" x="370.609375"/>
      <use xlink:href="#DejaVuSans-4b" x="406.693359"/>
      <use xlink:href="#DejaVuSans-72" x="472.269531"/>
      <use xlink:href="#DejaVuSans-61" x="513.382812"/>
      <use xlink:href="#DejaVuSans-66" x="574.662109"/>
      <use xlink:href="#DejaVuSans-74" x="608.117188"/>
     </g>
    </g>
    <g id="patch_94">
     <path d="M 4.05 88.103041 
L 13.05 88.103041 
L 13.05 84.953041 
L 4.05 84.953041 
z
" style="fill: #ff0000; stroke: #ff0000; stroke-linejoin: miter"/>
    </g>
    <g id="text_9">
     <!-- Radius -->
     <g transform="translate(16.65 88.103041)scale(0.045 -0.045)">
      <defs>
       <path id="DejaVuSans-52" d="M 2841 2188 
Q 3044 2119 3236 1894 
Q 3428 1669 3622 1275 
L 4263 0 
L 3584 0 
L 2988 1197 
Q 2756 1666 2539 1819 
Q 2322 1972 1947 1972 
L 1259 1972 
L 1259 0 
L 628 0 
L 628 4666 
L 2053 4666 
Q 2853 4666 3247 4331 
Q 3641 3997 3641 3322 
Q 3641 2881 3436 2590 
Q 3231 2300 2841 2188 
z
M 1259 4147 
L 1259 2491 
L 2053 2491 
Q 2509 2491 2742 2702 
Q 2975 2913 2975 3322 
Q 2975 3731 2742 3939 
Q 2509 4147 2053 4147 
L 1259 4147 
z
" transform="scale(0.015625)"/>
       <path id="DejaVuSans-64" d="M 2906 2969 
L 2906 4863 
L 3481 4863 
L 3481 0 
L 2906 0 
L 2906 525 
Q 2725 213 2448 61 
Q 2172 -91 1784 -91 
Q 1150 -91 751 415 
Q 353 922 353 1747 
Q 353 2572 751 3078 
Q 1150 3584 1784 3584 
Q 2172 3584 2448 3432 
Q 2725 3281 2906 2969 
z
M 947 1747 
Q 947 1113 1208 752 
Q 1469 391 1925 391 
Q 2381 391 2643 752 
Q 2906 1113 2906 1747 
Q 2906 2381 2643 2742 
Q 2381 3103 1925 3103 
Q 1469 3103 1208 2742 
Q 947 2381 947 1747 
z
" transform="scale(0.015625)"/>
       <path id="DejaVuSans-69" d="M 603 3500 
L 1178 3500 
L 1178 0 
L 603 0 
L 603 3500 
z
M 603 4863 
L 1178 4863 
L 1178 4134 
L 603 4134 
L 603 4863 
z
" transform="scale(0.015625)"/>
       <path id="DejaVuSans-73" d="M 2834 3397 
L 2834 2853 
Q 2591 2978 2328 3040 
Q 2066 3103 1784 3103 
Q 1356 3103 1142 2972 
Q 928 2841 928 2578 
Q 928 2378 1081 2264 
Q 1234 2150 1697 2047 
L 1894 2003 
Q 2506 1872 2764 1633 
Q 3022 1394 3022 966 
Q 3022 478 2636 193 
Q 2250 -91 1575 -91 
Q 1294 -91 989 -36 
Q 684 19 347 128 
L 347 722 
Q 666 556 975 473 
Q 1284 391 1588 391 
Q 1994 391 2212 530 
Q 2431 669 2431 922 
Q 2431 1156 2273 1281 
Q 2116 1406 1581 1522 
L 1381 1569 
Q 847 1681 609 1914 
Q 372 2147 372 2553 
Q 372 3047 722 3315 
Q 1072 3584 1716 3584 
Q 2034 3584 2315 3537 
Q 2597 3491 2834 3397 
z
" transform="scale(0.015625)"/>
      </defs>
      <use xlink:href="#DejaVuSans-52"/>
      <use xlink:href="#DejaVuSans-61" x="67.232422"/>
      <use xlink:href="#DejaVuSans-64" x="128.511719"/>
      <use xlink:href="#DejaVuSans-69" x="191.988281"/>
      <use xlink:href="#DejaVuSans-75" x="219.771484"/>
      <use xlink:href="#DejaVuSans-73" x="283.150391"/>
     </g>
    </g>
    <g id="patch_95">
     <path d="M 4.05 94.708197 
L 13.05 94.708197 
L 13.05 91.558197 
L 4.05 91.558197 
z
" style="fill: #a52a2a; stroke: #a52a2a; stroke-linejoin: miter"/>
    </g>
    <g id="text_10">
     <!-- Elektrische Kraft -->
     <g transform="translate(16.65 94.708197)scale(0.045 -0.045)">
      <defs>
       <path id="DejaVuSans-45" d="M 628 4666 
L 3578 4666 
L 3578 4134 
L 1259 4134 
L 1259 2753 
L 3481 2753 
L 3481 2222 
L 1259 2222 
L 1259 531 
L 3634 531 
L 3634 0 
L 628 0 
L 628 4666 
z
" transform="scale(0.015625)"/>
       <path id="DejaVuSans-6c" d="M 603 4863 
L 1178 4863 
L 1178 0 
L 603 0 
L 603 4863 
z
" transform="scale(0.015625)"/>
       <path id="DejaVuSans-6b" d="M 581 4863 
L 1159 4863 
L 1159 1991 
L 2875 3500 
L 3609 3500 
L 1753 1863 
L 3688 0 
L 2938 0 
L 1159 1709 
L 1159 0 
L 581 0 
L 581 4863 
z
" transform="scale(0.015625)"/>
       <path id="DejaVuSans-63" d="M 3122 3366 
L 3122 2828 
Q 2878 2963 2633 3030 
Q 2388 3097 2138 3097 
Q 1578 3097 1268 2742 
Q 959 2388 959 1747 
Q 959 1106 1268 751 
Q 1578 397 2138 397 
Q 2388 397 2633 464 
Q 2878 531 3122 666 
L 3122 134 
Q 2881 22 2623 -34 
Q 2366 -91 2075 -91 
Q 1284 -91 818 406 
Q 353 903 353 1747 
Q 353 2603 823 3093 
Q 1294 3584 2113 3584 
Q 2378 3584 2631 3529 
Q 2884 3475 3122 3366 
z
" transform="scale(0.015625)"/>
       <path id="DejaVuSans-20" transform="scale(0.015625)"/>
      </defs>
      <use xlink:href="#DejaVuSans-45"/>
      <use xlink:href="#DejaVuSans-6c" x="63.183594"/>
      <use xlink:href="#DejaVuSans-65" x="90.966797"/>
      <use xlink:href="#DejaVuSans-6b" x="152.490234"/>
      <use xlink:href="#DejaVuSans-74" x="210.400391"/>
      <use xlink:href="#DejaVuSans-72" x="249.609375"/>
      <use xlink:href="#DejaVuSans-69" x="290.722656"/>
      <use xlink:href="#DejaVuSans-73" x="318.505859"/>
      <use xlink:href="#DejaVuSans-63" x="370.605469"/>
      <use xlink:href="#DejaVuSans-68" x="425.585938"/>
      <use xlink:href="#DejaVuSans-65" x="488.964844"/>
      <use xlink:href="#DejaVuSans-20" x="550.488281"/>
      <use xlink:href="#DejaVuSans-4b" x="582.275391"/>
      <use xlink:href="#DejaVuSans-72" x="647.851562"/>
      <use xlink:href="#DejaVuSans-61" x="688.964844"/>
      <use xlink:href="#DejaVuSans-66" x="750.244141"/>
      <use xlink:href="#DejaVuSans-74" x="783.699219"/>
     </g>
    </g>
    <g id="patch_96">
     <path d="M 4.05 101.313353 
L 13.05 101.313353 
L 13.05 98.163353 
L 4.05 98.163353 
z
" style="fill: #808080; stroke: #808080; stroke-linejoin: miter"/>
    </g>
    <g id="text_11">
     <!-- Protonen-Quelle -->
     <g transform="translate(16.65 101.313353)scale(0.045 -0.045)">
      <defs>
       <path id="DejaVuSans-51" d="M 2522 4238 
Q 1834 4238 1429 3725 
Q 1025 3213 1025 2328 
Q 1025 1447 1429 934 
Q 1834 422 2522 422 
Q 3209 422 3611 934 
Q 4013 1447 4013 2328 
Q 4013 3213 3611 3725 
Q 3209 4238 2522 4238 
z
M 3406 84 
L 4238 -825 
L 3475 -825 
L 2784 -78 
Q 2681 -84 2626 -87 
Q 2572 -91 2522 -91 
Q 1538 -91 948 567 
Q 359 1225 359 2328 
Q 359 3434 948 4092 
Q 1538 4750 2522 4750 
Q 3503 4750 4090 4092 
Q 4678 3434 4678 2328 
Q 4678 1516 4351 937 
Q 4025 359 3406 84 
z
" transform="scale(0.015625)"/>
      </defs>
      <use xlink:href="#DejaVuSans-50"/>
      <use xlink:href="#DejaVuSans-72" x="58.552734"/>
      <use xlink:href="#DejaVuSans-6f" x="97.416016"/>
      <use xlink:href="#DejaVuSans-74" x="158.597656"/>
      <use xlink:href="#DejaVuSans-6f" x="197.806641"/>
      <use xlink:href="#DejaVuSans-6e" x="258.988281"/>
      <use xlink:href="#DejaVuSans-65" x="322.367188"/>
      <use xlink:href="#DejaVuSans-6e" x="383.890625"/>
      <use xlink:href="#DejaVuSans-2d" x="447.269531"/>
      <use xlink:href="#DejaVuSans-51" x="486.978516"/>
      <use xlink:href="#DejaVuSans-75" x="565.689453"/>
      <use xlink:href="#DejaVuSans-65" x="629.068359"/>
      <use xlink:href="#DejaVuSans-6c" x="690.591797"/>
      <use xlink:href="#DejaVuSans-6c" x="718.375"/>
      <use xlink:href="#DejaVuSans-65" x="746.158203"/>
     </g>
    </g>
   </g>
  </g>
 </g>
 <defs>
  <clipPath id="p48442e115d">
   <rect x="0" y="0" width="170.07874" height="106.299213"/>
  </clipPath>
 </defs>
</svg>
