<?xml version="1.0" encoding="utf-8" standalone="no"?>
<!DOCTYPE svg PUBLIC "-//W3C//DTD SVG 1.1//EN"
  "http://www.w3.org/Graphics/SVG/1.1/DTD/svg11.dtd">
<svg xmlns:xlink="http://www.w3.org/1999/xlink" width="170.07874pt" height="106.299213pt" viewBox="0 0 170.07874 106.299213" xmlns="http://www.w3.org/2000/svg" version="1.1">
 <metadata>
  <rdf:RDF xmlns:dc="http://purl.org/dc/elements/1.1/" xmlns:cc="http://creativecommons.org/ns#" xmlns:rdf="http://www.w3.org/1999/02/22-rdf-syntax-ns#">
   <cc:Work>
    <dc:type rdf:resource="http://purl.org/dc/dcmitype/StillImage"/>
    <dc:date>2024-02-14T23:52:03.671000</dc:date>
    <dc:format>image/svg+xml</dc:format>
    <dc:creator>
     <cc:Agent>
      <dc:title>Matplotlib v3.5.2, https://matplotlib.org/</dc:title>
     </cc:Agent>
    </dc:creator>
   </cc:Work>
  </rdf:RDF>
 </metadata>
 <defs>
  <style type="text/css">*{stroke-linejoin: round; stroke-linecap: butt}</style>
 </defs>
 <g id="figure_1">
  <g id="patch_1">
   <path d="M 0 106.299213 
L 170.07874 106.299213 
L 170.07874 0 
L 0 0 
z
" style="fill: #ffffff"/>
  </g>
  <g id="axes_1">
   <g id="patch_2">
    <path d="M 0 106.299213 
L 170.07874 106.299213 
L 170.07874 0 
L 0 0 
z
" style="fill: #ffffff"/>
   </g>
   <g id="line2d_1">
    <path d="M 0 63.779528 
L 170.07874 63.779528 
" clip-path="url(#pbf815fcc17)" style="fill: none; stroke-dasharray: 5.55,2.4; stroke-dashoffset: 0; stroke: #bdae9e; stroke-width: 1.5"/>
   </g>
   <g id="line2d_2">
    <path d="M 0 40.251969 
L 170.07874 40.251969 
" clip-path="url(#pbf815fcc17)" style="fill: none; stroke-dasharray: 5.55,2.4; stroke-dashoffset: 0; stroke: #c6a89f; stroke-width: 1.5"/>
   </g>
   <g id="patch_3">
    <path d="M 8.787402 98.985827 
C 10.005248 98.985827 11.173378 98.501971 12.034525 97.640824 
C 12.895672 96.779677 13.379528 95.611547 13.379528 94.393701 
C 13.379528 93.175855 12.895672 92.007725 12.034525 91.146577 
C 11.173378 90.28543 10.005248 89.801575 8.787402 89.801575 
C 7.569556 89.801575 6.401425 90.28543 5.540278 91.146577 
C 4.679131 92.007725 4.195276 93.175855 4.195276 94.393701 
C 4.195276 95.611547 4.679131 96.779677 5.540278 97.640824 
C 6.401425 98.501971 7.569556 98.985827 8.787402 98.985827 
L 8.787402 98.985827 
z
" clip-path="url(#pbf815fcc17)" style="fill: none; stroke: #bbbbbb; stroke-linejoin: miter"/>
   </g>
   <g id="patch_4">
    <path d="M 8.787402 95.159055 
C 8.990376 95.159055 9.185064 95.078413 9.328589 94.934888 
C 9.472113 94.791363 9.552756 94.596675 9.552756 94.393701 
C 9.552756 94.190726 9.472113 93.996038 9.328589 93.852514 
C 9.185064 93.708989 8.990376 93.628346 8.787402 93.628346 
C 8.584427 93.628346 8.389739 93.708989 8.246214 93.852514 
C 8.10269 93.996038 8.022047 94.190726 8.022047 94.393701 
C 8.022047 94.596675 8.10269 94.791363 8.246214 94.934888 
C 8.389739 95.078413 8.584427 95.159055 8.787402 95.159055 
z
" clip-path="url(#pbf815fcc17)" style="fill: #bbbbbb; stroke: #bbbbbb; stroke-linejoin: miter"/>
   </g>
   <g id="patch_5">
    <path d="M 8.787402 77.725984 
C 10.005248 77.725984 11.173378 77.242129 12.034525 76.380982 
C 12.895672 75.519834 13.379528 74.351704 13.379528 73.133858 
C 13.379528 71.916012 12.895672 70.747882 12.034525 69.886735 
C 11.173378 69.025588 10.005248 68.541732 8.787402 68.541732 
C 7.569556 68.541732 6.401425 69.025588 5.540278 69.886735 
C 4.679131 70.747882 4.195276 71.916012 4.195276 73.133858 
C 4.195276 74.351704 4.679131 75.519834 5.540278 76.380982 
C 6.401425 77.242129 7.569556 77.725984 8.787402 77.725984 
L 8.787402 77.725984 
z
" clip-path="url(#pbf815fcc17)" style="fill: none; stroke: #bbbbbb; stroke-linejoin: miter"/>
   </g>
   <g id="patch_6">
    <path d="M 8.787402 73.899213 
C 8.990376 73.899213 9.185064 73.81857 9.328589 73.675046 
C 9.472113 73.531521 9.552756 73.336833 9.552756 73.133858 
C 9.552756 72.930884 9.472113 72.736196 9.328589 72.592671 
C 9.185064 72.449146 8.990376 72.368504 8.787402 72.368504 
C 8.584427 72.368504 8.389739 72.449146 8.246214 72.592671 
C 8.10269 72.736196 8.022047 72.930884 8.022047 73.133858 
C 8.022047 73.336833 8.10269 73.531521 8.246214 73.675046 
C 8.389739 73.81857 8.584427 73.899213 8.787402 73.899213 
z
" clip-path="url(#pbf815fcc17)" style="fill: #bbbbbb; stroke: #bbbbbb; stroke-linejoin: miter"/>
   </g>
   <g id="patch_7">
    <path d="M 8.787402 56.466142 
C 10.005248 56.466142 11.173378 55.982286 12.034525 55.121139 
C 12.895672 54.259992 13.379528 53.091862 13.379528 51.874016 
C 13.379528 50.65617 12.895672 49.48804 12.034525 48.626892 
C 11.173378 47.765745 10.005248 47.28189 8.787402 47.28189 
C 7.569556 47.28189 6.401425 47.765745 5.540278 48.626892 
C 4.679131 49.48804 4.195276 50.65617 4.195276 51.874016 
C 4.195276 53.091862 4.679131 54.259992 5.540278 55.121139 
C 6.401425 55.982286 7.569556 56.466142 8.787402 56.466142 
L 8.787402 56.466142 
z
" clip-path="url(#pbf815fcc17)" style="fill: none; stroke: #bbbbbb; stroke-linejoin: miter"/>
   </g>
   <g id="patch_8">
    <path d="M 8.787402 52.63937 
C 8.990376 52.63937 9.185064 52.558728 9.328589 52.415203 
C 9.472113 52.271678 9.552756 52.07699 9.552756 51.874016 
C 9.552756 51.671041 9.472113 51.476353 9.328589 51.332829 
C 9.185064 51.189304 8.990376 51.108661 8.787402 51.108661 
C 8.584427 51.108661 8.389739 51.189304 8.246214 51.332829 
C 8.10269 51.476353 8.022047 51.671041 8.022047 51.874016 
C 8.022047 52.07699 8.10269 52.271678 8.246214 52.415203 
C 8.389739 52.558728 8.584427 52.63937 8.787402 52.63937 
z
" clip-path="url(#pbf815fcc17)" style="fill: #bbbbbb; stroke: #bbbbbb; stroke-linejoin: miter"/>
   </g>
   <g id="patch_9">
    <path d="M 8.787402 35.206299 
C 10.005248 35.206299 11.173378 34.722444 12.034525 33.861297 
C 12.895672 33.000149 13.379528 31.832019 13.379528 30.614173 
C 13.379528 29.396327 12.895672 28.228197 12.034525 27.36705 
C 11.173378 26.505903 10.005248 26.022047 8.787402 26.022047 
C 7.569556 26.022047 6.401425 26.505903 5.540278 27.36705 
C 4.679131 28.228197 4.195276 29.396327 4.195276 30.614173 
C 4.195276 31.832019 4.679131 33.000149 5.540278 33.861297 
C 6.401425 34.722444 7.569556 35.206299 8.787402 35.206299 
L 8.787402 35.206299 
z
" clip-path="url(#pbf815fcc17)" style="fill: none; stroke: #bbbbbb; stroke-linejoin: miter"/>
   </g>
   <g id="patch_10">
    <path d="M 8.787402 31.379528 
C 8.990376 31.379528 9.185064 31.298885 9.328589 31.15536 
C 9.472113 31.011836 9.552756 30.817148 9.552756 30.614173 
C 9.552756 30.411199 9.472113 30.216511 9.328589 30.072986 
C 9.185064 29.929461 8.990376 29.848819 8.787402 29.848819 
C 8.584427 29.848819 8.389739 29.929461 8.246214 30.072986 
C 8.10269 30.216511 8.022047 30.411199 8.022047 30.614173 
C 8.022047 30.817148 8.10269 31.011836 8.246214 31.15536 
C 8.389739 31.298885 8.584427 31.379528 8.787402 31.379528 
z
" clip-path="url(#pbf815fcc17)" style="fill: #bbbbbb; stroke: #bbbbbb; stroke-linejoin: miter"/>
   </g>
   <g id="patch_11">
    <path d="M 8.787402 13.946457 
C 10.005248 13.946457 11.173378 13.462601 12.034525 12.601454 
C 12.895672 11.740307 13.379528 10.572177 13.379528 9.354331 
C 13.379528 8.136485 12.895672 6.968354 12.034525 6.107207 
C 11.173378 5.24606 10.005248 4.762205 8.787402 4.762205 
C 7.569556 4.762205 6.401425 5.24606 5.540278 6.107207 
C 4.679131 6.968354 4.195276 8.136485 4.195276 9.354331 
C 4.195276 10.572177 4.679131 11.740307 5.540278 12.601454 
C 6.401425 13.462601 7.569556 13.946457 8.787402 13.946457 
L 8.787402 13.946457 
z
" clip-path="url(#pbf815fcc17)" style="fill: none; stroke: #bbbbbb; stroke-linejoin: miter"/>
   </g>
   <g id="patch_12">
    <path d="M 8.787402 10.119685 
C 8.990376 10.119685 9.185064 10.039042 9.328589 9.895518 
C 9.472113 9.751993 9.552756 9.557305 9.552756 9.354331 
C 9.552756 9.151356 9.472113 8.956668 9.328589 8.813143 
C 9.185064 8.669619 8.990376 8.588976 8.787402 8.588976 
C 8.584427 8.588976 8.389739 8.669619 8.246214 8.813143 
C 8.10269 8.956668 8.022047 9.151356 8.022047 9.354331 
C 8.022047 9.557305 8.10269 9.751993 8.246214 9.895518 
C 8.389739 10.039042 8.584427 10.119685 8.787402 10.119685 
z
" clip-path="url(#pbf815fcc17)" style="fill: #bbbbbb; stroke: #bbbbbb; stroke-linejoin: miter"/>
   </g>
   <g id="patch_13">
    <path d="M 30.047244 98.985827 
C 31.26509 98.985827 32.43322 98.501971 33.294368 97.640824 
C 34.155515 96.779677 34.63937 95.611547 34.63937 94.393701 
C 34.63937 93.175855 34.155515 92.007725 33.294368 91.146577 
C 32.43322 90.28543 31.26509 89.801575 30.047244 89.801575 
C 28.829398 89.801575 27.661268 90.28543 26.800121 91.146577 
C 25.938973 92.007725 25.455118 93.175855 25.455118 94.393701 
C 25.455118 95.611547 25.938973 96.779677 26.800121 97.640824 
C 27.661268 98.501971 28.829398 98.985827 30.047244 98.985827 
L 30.047244 98.985827 
z
" clip-path="url(#pbf815fcc17)" style="fill: none; stroke: #bbbbbb; stroke-linejoin: miter"/>
   </g>
   <g id="patch_14">
    <path d="M 30.047244 95.159055 
C 30.250218 95.159055 30.444907 95.078413 30.588431 94.934888 
C 30.731956 94.791363 30.812598 94.596675 30.812598 94.393701 
C 30.812598 94.190726 30.731956 93.996038 30.588431 93.852514 
C 30.444907 93.708989 30.250218 93.628346 30.047244 93.628346 
C 29.84427 93.628346 29.649581 93.708989 29.506057 93.852514 
C 29.362532 93.996038 29.28189 94.190726 29.28189 94.393701 
C 29.28189 94.596675 29.362532 94.791363 29.506057 94.934888 
C 29.649581 95.078413 29.84427 95.159055 30.047244 95.159055 
z
" clip-path="url(#pbf815fcc17)" style="fill: #bbbbbb; stroke: #bbbbbb; stroke-linejoin: miter"/>
   </g>
   <g id="patch_15">
    <path d="M 30.047244 77.725984 
C 31.26509 77.725984 32.43322 77.242129 33.294368 76.380982 
C 34.155515 75.519834 34.63937 74.351704 34.63937 73.133858 
C 34.63937 71.916012 34.155515 70.747882 33.294368 69.886735 
C 32.43322 69.025588 31.26509 68.541732 30.047244 68.541732 
C 28.829398 68.541732 27.661268 69.025588 26.800121 69.886735 
C 25.938973 70.747882 25.455118 71.916012 25.455118 73.133858 
C 25.455118 74.351704 25.938973 75.519834 26.800121 76.380982 
C 27.661268 77.242129 28.829398 77.725984 30.047244 77.725984 
L 30.047244 77.725984 
z
" clip-path="url(#pbf815fcc17)" style="fill: none; stroke: #bbbbbb; stroke-linejoin: miter"/>
   </g>
   <g id="patch_16">
    <path d="M 30.047244 73.899213 
C 30.250218 73.899213 30.444907 73.81857 30.588431 73.675046 
C 30.731956 73.531521 30.812598 73.336833 30.812598 73.133858 
C 30.812598 72.930884 30.731956 72.736196 30.588431 72.592671 
C 30.444907 72.449146 30.250218 72.368504 30.047244 72.368504 
C 29.84427 72.368504 29.649581 72.449146 29.506057 72.592671 
C 29.362532 72.736196 29.28189 72.930884 29.28189 73.133858 
C 29.28189 73.336833 29.362532 73.531521 29.506057 73.675046 
C 29.649581 73.81857 29.84427 73.899213 30.047244 73.899213 
z
" clip-path="url(#pbf815fcc17)" style="fill: #bbbbbb; stroke: #bbbbbb; stroke-linejoin: miter"/>
   </g>
   <g id="patch_17">
    <path d="M 30.047244 56.466142 
C 31.26509 56.466142 32.43322 55.982286 33.294368 55.121139 
C 34.155515 54.259992 34.63937 53.091862 34.63937 51.874016 
C 34.63937 50.65617 34.155515 49.48804 33.294368 48.626892 
C 32.43322 47.765745 31.26509 47.28189 30.047244 47.28189 
C 28.829398 47.28189 27.661268 47.765745 26.800121 48.626892 
C 25.938973 49.48804 25.455118 50.65617 25.455118 51.874016 
C 25.455118 53.091862 25.938973 54.259992 26.800121 55.121139 
C 27.661268 55.982286 28.829398 56.466142 30.047244 56.466142 
L 30.047244 56.466142 
z
" clip-path="url(#pbf815fcc17)" style="fill: none; stroke: #bbbbbb; stroke-linejoin: miter"/>
   </g>
   <g id="patch_18">
    <path d="M 30.047244 52.63937 
C 30.250218 52.63937 30.444907 52.558728 30.588431 52.415203 
C 30.731956 52.271678 30.812598 52.07699 30.812598 51.874016 
C 30.812598 51.671041 30.731956 51.476353 30.588431 51.332829 
C 30.444907 51.189304 30.250218 51.108661 30.047244 51.108661 
C 29.84427 51.108661 29.649581 51.189304 29.506057 51.332829 
C 29.362532 51.476353 29.28189 51.671041 29.28189 51.874016 
C 29.28189 52.07699 29.362532 52.271678 29.506057 52.415203 
C 29.649581 52.558728 29.84427 52.63937 30.047244 52.63937 
z
" clip-path="url(#pbf815fcc17)" style="fill: #bbbbbb; stroke: #bbbbbb; stroke-linejoin: miter"/>
   </g>
   <g id="patch_19">
    <path d="M 30.047244 35.206299 
C 31.26509 35.206299 32.43322 34.722444 33.294368 33.861297 
C 34.155515 33.000149 34.63937 31.832019 34.63937 30.614173 
C 34.63937 29.396327 34.155515 28.228197 33.294368 27.36705 
C 32.43322 26.505903 31.26509 26.022047 30.047244 26.022047 
C 28.829398 26.022047 27.661268 26.505903 26.800121 27.36705 
C 25.938973 28.228197 25.455118 29.396327 25.455118 30.614173 
C 25.455118 31.832019 25.938973 33.000149 26.800121 33.861297 
C 27.661268 34.722444 28.829398 35.206299 30.047244 35.206299 
L 30.047244 35.206299 
z
" clip-path="url(#pbf815fcc17)" style="fill: none; stroke: #bbbbbb; stroke-linejoin: miter"/>
   </g>
   <g id="patch_20">
    <path d="M 30.047244 31.379528 
C 30.250218 31.379528 30.444907 31.298885 30.588431 31.15536 
C 30.731956 31.011836 30.812598 30.817148 30.812598 30.614173 
C 30.812598 30.411199 30.731956 30.216511 30.588431 30.072986 
C 30.444907 29.929461 30.250218 29.848819 30.047244 29.848819 
C 29.84427 29.848819 29.649581 29.929461 29.506057 30.072986 
C 29.362532 30.216511 29.28189 30.411199 29.28189 30.614173 
C 29.28189 30.817148 29.362532 31.011836 29.506057 31.15536 
C 29.649581 31.298885 29.84427 31.379528 30.047244 31.379528 
z
" clip-path="url(#pbf815fcc17)" style="fill: #bbbbbb; stroke: #bbbbbb; stroke-linejoin: miter"/>
   </g>
   <g id="patch_21">
    <path d="M 30.047244 13.946457 
C 31.26509 13.946457 32.43322 13.462601 33.294368 12.601454 
C 34.155515 11.740307 34.63937 10.572177 34.63937 9.354331 
C 34.63937 8.136485 34.155515 6.968354 33.294368 6.107207 
C 32.43322 5.24606 31.26509 4.762205 30.047244 4.762205 
C 28.829398 4.762205 27.661268 5.24606 26.800121 6.107207 
C 25.938973 6.968354 25.455118 8.136485 25.455118 9.354331 
C 25.455118 10.572177 25.938973 11.740307 26.800121 12.601454 
C 27.661268 13.462601 28.829398 13.946457 30.047244 13.946457 
L 30.047244 13.946457 
z
" clip-path="url(#pbf815fcc17)" style="fill: none; stroke: #bbbbbb; stroke-linejoin: miter"/>
   </g>
   <g id="patch_22">
    <path d="M 30.047244 10.119685 
C 30.250218 10.119685 30.444907 10.039042 30.588431 9.895518 
C 30.731956 9.751993 30.812598 9.557305 30.812598 9.354331 
C 30.812598 9.151356 30.731956 8.956668 30.588431 8.813143 
C 30.444907 8.669619 30.250218 8.588976 30.047244 8.588976 
C 29.84427 8.588976 29.649581 8.669619 29.506057 8.813143 
C 29.362532 8.956668 29.28189 9.151356 29.28189 9.354331 
C 29.28189 9.557305 29.362532 9.751993 29.506057 9.895518 
C 29.649581 10.039042 29.84427 10.119685 30.047244 10.119685 
z
" clip-path="url(#pbf815fcc17)" style="fill: #bbbbbb; stroke: #bbbbbb; stroke-linejoin: miter"/>
   </g>
   <g id="patch_23">
    <path d="M 51.307087 98.985827 
C 52.524933 98.985827 53.693063 98.501971 54.55421 97.640824 
C 55.415357 96.779677 55.899213 95.611547 55.899213 94.393701 
C 55.899213 93.175855 55.415357 92.007725 54.55421 91.146577 
C 53.693063 90.28543 52.524933 89.801575 51.307087 89.801575 
C 50.089241 89.801575 48.92111 90.28543 48.059963 91.146577 
C 47.198816 92.007725 46.714961 93.175855 46.714961 94.393701 
C 46.714961 95.611547 47.198816 96.779677 48.059963 97.640824 
C 48.92111 98.501971 50.089241 98.985827 51.307087 98.985827 
L 51.307087 98.985827 
z
" clip-path="url(#pbf815fcc17)" style="fill: none; stroke: #bbbbbb; stroke-linejoin: miter"/>
   </g>
   <g id="patch_24">
    <path d="M 51.307087 95.159055 
C 51.510061 95.159055 51.704749 95.078413 51.848274 94.934888 
C 51.991798 94.791363 52.072441 94.596675 52.072441 94.393701 
C 52.072441 94.190726 51.991798 93.996038 51.848274 93.852514 
C 51.704749 93.708989 51.510061 93.628346 51.307087 93.628346 
C 51.104112 93.628346 50.909424 93.708989 50.765899 93.852514 
C 50.622375 93.996038 50.541732 94.190726 50.541732 94.393701 
C 50.541732 94.596675 50.622375 94.791363 50.765899 94.934888 
C 50.909424 95.078413 51.104112 95.159055 51.307087 95.159055 
z
" clip-path="url(#pbf815fcc17)" style="fill: #bbbbbb; stroke: #bbbbbb; stroke-linejoin: miter"/>
   </g>
   <g id="patch_25">
    <path d="M 51.307087 77.725984 
C 52.524933 77.725984 53.693063 77.242129 54.55421 76.380982 
C 55.415357 75.519834 55.899213 74.351704 55.899213 73.133858 
C 55.899213 71.916012 55.415357 70.747882 54.55421 69.886735 
C 53.693063 69.025588 52.524933 68.541732 51.307087 68.541732 
C 50.089241 68.541732 48.92111 69.025588 48.059963 69.886735 
C 47.198816 70.747882 46.714961 71.916012 46.714961 73.133858 
C 46.714961 74.351704 47.198816 75.519834 48.059963 76.380982 
C 48.92111 77.242129 50.089241 77.725984 51.307087 77.725984 
L 51.307087 77.725984 
z
" clip-path="url(#pbf815fcc17)" style="fill: none; stroke: #bbbbbb; stroke-linejoin: miter"/>
   </g>
   <g id="patch_26">
    <path d="M 51.307087 73.899213 
C 51.510061 73.899213 51.704749 73.81857 51.848274 73.675046 
C 51.991798 73.531521 52.072441 73.336833 52.072441 73.133858 
C 52.072441 72.930884 51.991798 72.736196 51.848274 72.592671 
C 51.704749 72.449146 51.510061 72.368504 51.307087 72.368504 
C 51.104112 72.368504 50.909424 72.449146 50.765899 72.592671 
C 50.622375 72.736196 50.541732 72.930884 50.541732 73.133858 
C 50.541732 73.336833 50.622375 73.531521 50.765899 73.675046 
C 50.909424 73.81857 51.104112 73.899213 51.307087 73.899213 
z
" clip-path="url(#pbf815fcc17)" style="fill: #bbbbbb; stroke: #bbbbbb; stroke-linejoin: miter"/>
   </g>
   <g id="patch_27">
    <path d="M 51.307087 56.466142 
C 52.524933 56.466142 53.693063 55.982286 54.55421 55.121139 
C 55.415357 54.259992 55.899213 53.091862 55.899213 51.874016 
C 55.899213 50.65617 55.415357 49.48804 54.55421 48.626892 
C 53.693063 47.765745 52.524933 47.28189 51.307087 47.28189 
C 50.089241 47.28189 48.92111 47.765745 48.059963 48.626892 
C 47.198816 49.48804 46.714961 50.65617 46.714961 51.874016 
C 46.714961 53.091862 47.198816 54.259992 48.059963 55.121139 
C 48.92111 55.982286 50.089241 56.466142 51.307087 56.466142 
L 51.307087 56.466142 
z
" clip-path="url(#pbf815fcc17)" style="fill: none; stroke: #bbbbbb; stroke-linejoin: miter"/>
   </g>
   <g id="patch_28">
    <path d="M 51.307087 52.63937 
C 51.510061 52.63937 51.704749 52.558728 51.848274 52.415203 
C 51.991798 52.271678 52.072441 52.07699 52.072441 51.874016 
C 52.072441 51.671041 51.991798 51.476353 51.848274 51.332829 
C 51.704749 51.189304 51.510061 51.108661 51.307087 51.108661 
C 51.104112 51.108661 50.909424 51.189304 50.765899 51.332829 
C 50.622375 51.476353 50.541732 51.671041 50.541732 51.874016 
C 50.541732 52.07699 50.622375 52.271678 50.765899 52.415203 
C 50.909424 52.558728 51.104112 52.63937 51.307087 52.63937 
z
" clip-path="url(#pbf815fcc17)" style="fill: #bbbbbb; stroke: #bbbbbb; stroke-linejoin: miter"/>
   </g>
   <g id="patch_29">
    <path d="M 51.307087 35.206299 
C 52.524933 35.206299 53.693063 34.722444 54.55421 33.861297 
C 55.415357 33.000149 55.899213 31.832019 55.899213 30.614173 
C 55.899213 29.396327 55.415357 28.228197 54.55421 27.36705 
C 53.693063 26.505903 52.524933 26.022047 51.307087 26.022047 
C 50.089241 26.022047 48.92111 26.505903 48.059963 27.36705 
C 47.198816 28.228197 46.714961 29.396327 46.714961 30.614173 
C 46.714961 31.832019 47.198816 33.000149 48.059963 33.861297 
C 48.92111 34.722444 50.089241 35.206299 51.307087 35.206299 
L 51.307087 35.206299 
z
" clip-path="url(#pbf815fcc17)" style="fill: none; stroke: #bbbbbb; stroke-linejoin: miter"/>
   </g>
   <g id="patch_30">
    <path d="M 51.307087 31.379528 
C 51.510061 31.379528 51.704749 31.298885 51.848274 31.15536 
C 51.991798 31.011836 52.072441 30.817148 52.072441 30.614173 
C 52.072441 30.411199 51.991798 30.216511 51.848274 30.072986 
C 51.704749 29.929461 51.510061 29.848819 51.307087 29.848819 
C 51.104112 29.848819 50.909424 29.929461 50.765899 30.072986 
C 50.622375 30.216511 50.541732 30.411199 50.541732 30.614173 
C 50.541732 30.817148 50.622375 31.011836 50.765899 31.15536 
C 50.909424 31.298885 51.104112 31.379528 51.307087 31.379528 
z
" clip-path="url(#pbf815fcc17)" style="fill: #bbbbbb; stroke: #bbbbbb; stroke-linejoin: miter"/>
   </g>
   <g id="patch_31">
    <path d="M 51.307087 13.946457 
C 52.524933 13.946457 53.693063 13.462601 54.55421 12.601454 
C 55.415357 11.740307 55.899213 10.572177 55.899213 9.354331 
C 55.899213 8.136485 55.415357 6.968354 54.55421 6.107207 
C 53.693063 5.24606 52.524933 4.762205 51.307087 4.762205 
C 50.089241 4.762205 48.92111 5.24606 48.059963 6.107207 
C 47.198816 6.968354 46.714961 8.136485 46.714961 9.354331 
C 46.714961 10.572177 47.198816 11.740307 48.059963 12.601454 
C 48.92111 13.462601 50.089241 13.946457 51.307087 13.946457 
L 51.307087 13.946457 
z
" clip-path="url(#pbf815fcc17)" style="fill: none; stroke: #bbbbbb; stroke-linejoin: miter"/>
   </g>
   <g id="patch_32">
    <path d="M 51.307087 10.119685 
C 51.510061 10.119685 51.704749 10.039042 51.848274 9.895518 
C 51.991798 9.751993 52.072441 9.557305 52.072441 9.354331 
C 52.072441 9.151356 51.991798 8.956668 51.848274 8.813143 
C 51.704749 8.669619 51.510061 8.588976 51.307087 8.588976 
C 51.104112 8.588976 50.909424 8.669619 50.765899 8.813143 
C 50.622375 8.956668 50.541732 9.151356 50.541732 9.354331 
C 50.541732 9.557305 50.622375 9.751993 50.765899 9.895518 
C 50.909424 10.039042 51.104112 10.119685 51.307087 10.119685 
z
" clip-path="url(#pbf815fcc17)" style="fill: #bbbbbb; stroke: #bbbbbb; stroke-linejoin: miter"/>
   </g>
   <g id="patch_33">
    <path d="M 72.566929 98.985827 
C 73.784775 98.985827 74.952905 98.501971 75.814053 97.640824 
C 76.6752 96.779677 77.159055 95.611547 77.159055 94.393701 
C 77.159055 93.175855 76.6752 92.007725 75.814053 91.146577 
C 74.952905 90.28543 73.784775 89.801575 72.566929 89.801575 
C 71.349083 89.801575 70.180953 90.28543 69.319806 91.146577 
C 68.458659 92.007725 67.974803 93.175855 67.974803 94.393701 
C 67.974803 95.611547 68.458659 96.779677 69.319806 97.640824 
C 70.180953 98.501971 71.349083 98.985827 72.566929 98.985827 
L 72.566929 98.985827 
z
" clip-path="url(#pbf815fcc17)" style="fill: none; stroke: #bbbbbb; stroke-linejoin: miter"/>
   </g>
   <g id="patch_34">
    <path d="M 72.566929 95.159055 
C 72.769903 95.159055 72.964592 95.078413 73.108116 94.934888 
C 73.251641 94.791363 73.332283 94.596675 73.332283 94.393701 
C 73.332283 94.190726 73.251641 93.996038 73.108116 93.852514 
C 72.964592 93.708989 72.769903 93.628346 72.566929 93.628346 
C 72.363955 93.628346 72.169266 93.708989 72.025742 93.852514 
C 71.882217 93.996038 71.801575 94.190726 71.801575 94.393701 
C 71.801575 94.596675 71.882217 94.791363 72.025742 94.934888 
C 72.169266 95.078413 72.363955 95.159055 72.566929 95.159055 
z
" clip-path="url(#pbf815fcc17)" style="fill: #bbbbbb; stroke: #bbbbbb; stroke-linejoin: miter"/>
   </g>
   <g id="patch_35">
    <path d="M 72.566929 77.725984 
C 73.784775 77.725984 74.952905 77.242129 75.814053 76.380982 
C 76.6752 75.519834 77.159055 74.351704 77.159055 73.133858 
C 77.159055 71.916012 76.6752 70.747882 75.814053 69.886735 
C 74.952905 69.025588 73.784775 68.541732 72.566929 68.541732 
C 71.349083 68.541732 70.180953 69.025588 69.319806 69.886735 
C 68.458659 70.747882 67.974803 71.916012 67.974803 73.133858 
C 67.974803 74.351704 68.458659 75.519834 69.319806 76.380982 
C 70.180953 77.242129 71.349083 77.725984 72.566929 77.725984 
L 72.566929 77.725984 
z
" clip-path="url(#pbf815fcc17)" style="fill: none; stroke: #bbbbbb; stroke-linejoin: miter"/>
   </g>
   <g id="patch_36">
    <path d="M 72.566929 73.899213 
C 72.769903 73.899213 72.964592 73.81857 73.108116 73.675046 
C 73.251641 73.531521 73.332283 73.336833 73.332283 73.133858 
C 73.332283 72.930884 73.251641 72.736196 73.108116 72.592671 
C 72.964592 72.449146 72.769903 72.368504 72.566929 72.368504 
C 72.363955 72.368504 72.169266 72.449146 72.025742 72.592671 
C 71.882217 72.736196 71.801575 72.930884 71.801575 73.133858 
C 71.801575 73.336833 71.882217 73.531521 72.025742 73.675046 
C 72.169266 73.81857 72.363955 73.899213 72.566929 73.899213 
z
" clip-path="url(#pbf815fcc17)" style="fill: #bbbbbb; stroke: #bbbbbb; stroke-linejoin: miter"/>
   </g>
   <g id="patch_37">
    <path d="M 72.566929 56.466142 
C 73.784775 56.466142 74.952905 55.982286 75.814053 55.121139 
C 76.6752 54.259992 77.159055 53.091862 77.159055 51.874016 
C 77.159055 50.65617 76.6752 49.48804 75.814053 48.626892 
C 74.952905 47.765745 73.784775 47.28189 72.566929 47.28189 
C 71.349083 47.28189 70.180953 47.765745 69.319806 48.626892 
C 68.458659 49.48804 67.974803 50.65617 67.974803 51.874016 
C 67.974803 53.091862 68.458659 54.259992 69.319806 55.121139 
C 70.180953 55.982286 71.349083 56.466142 72.566929 56.466142 
L 72.566929 56.466142 
z
" clip-path="url(#pbf815fcc17)" style="fill: none; stroke: #bbbbbb; stroke-linejoin: miter"/>
   </g>
   <g id="patch_38">
    <path d="M 72.566929 52.63937 
C 72.769903 52.63937 72.964592 52.558728 73.108116 52.415203 
C 73.251641 52.271678 73.332283 52.07699 73.332283 51.874016 
C 73.332283 51.671041 73.251641 51.476353 73.108116 51.332829 
C 72.964592 51.189304 72.769903 51.108661 72.566929 51.108661 
C 72.363955 51.108661 72.169266 51.189304 72.025742 51.332829 
C 71.882217 51.476353 71.801575 51.671041 71.801575 51.874016 
C 71.801575 52.07699 71.882217 52.271678 72.025742 52.415203 
C 72.169266 52.558728 72.363955 52.63937 72.566929 52.63937 
z
" clip-path="url(#pbf815fcc17)" style="fill: #bbbbbb; stroke: #bbbbbb; stroke-linejoin: miter"/>
   </g>
   <g id="patch_39">
    <path d="M 72.566929 35.206299 
C 73.784775 35.206299 74.952905 34.722444 75.814053 33.861297 
C 76.6752 33.000149 77.159055 31.832019 77.159055 30.614173 
C 77.159055 29.396327 76.6752 28.228197 75.814053 27.36705 
C 74.952905 26.505903 73.784775 26.022047 72.566929 26.022047 
C 71.349083 26.022047 70.180953 26.505903 69.319806 27.36705 
C 68.458659 28.228197 67.974803 29.396327 67.974803 30.614173 
C 67.974803 31.832019 68.458659 33.000149 69.319806 33.861297 
C 70.180953 34.722444 71.349083 35.206299 72.566929 35.206299 
L 72.566929 35.206299 
z
" clip-path="url(#pbf815fcc17)" style="fill: none; stroke: #bbbbbb; stroke-linejoin: miter"/>
   </g>
   <g id="patch_40">
    <path d="M 72.566929 31.379528 
C 72.769903 31.379528 72.964592 31.298885 73.108116 31.15536 
C 73.251641 31.011836 73.332283 30.817148 73.332283 30.614173 
C 73.332283 30.411199 73.251641 30.216511 73.108116 30.072986 
C 72.964592 29.929461 72.769903 29.848819 72.566929 29.848819 
C 72.363955 29.848819 72.169266 29.929461 72.025742 30.072986 
C 71.882217 30.216511 71.801575 30.411199 71.801575 30.614173 
C 71.801575 30.817148 71.882217 31.011836 72.025742 31.15536 
C 72.169266 31.298885 72.363955 31.379528 72.566929 31.379528 
z
" clip-path="url(#pbf815fcc17)" style="fill: #bbbbbb; stroke: #bbbbbb; stroke-linejoin: miter"/>
   </g>
   <g id="patch_41">
    <path d="M 72.566929 13.946457 
C 73.784775 13.946457 74.952905 13.462601 75.814053 12.601454 
C 76.6752 11.740307 77.159055 10.572177 77.159055 9.354331 
C 77.159055 8.136485 76.6752 6.968354 75.814053 6.107207 
C 74.952905 5.24606 73.784775 4.762205 72.566929 4.762205 
C 71.349083 4.762205 70.180953 5.24606 69.319806 6.107207 
C 68.458659 6.968354 67.974803 8.136485 67.974803 9.354331 
C 67.974803 10.572177 68.458659 11.740307 69.319806 12.601454 
C 70.180953 13.462601 71.349083 13.946457 72.566929 13.946457 
L 72.566929 13.946457 
z
" clip-path="url(#pbf815fcc17)" style="fill: none; stroke: #bbbbbb; stroke-linejoin: miter"/>
   </g>
   <g id="patch_42">
    <path d="M 72.566929 10.119685 
C 72.769903 10.119685 72.964592 10.039042 73.108116 9.895518 
C 73.251641 9.751993 73.332283 9.557305 73.332283 9.354331 
C 73.332283 9.151356 73.251641 8.956668 73.108116 8.813143 
C 72.964592 8.669619 72.769903 8.588976 72.566929 8.588976 
C 72.363955 8.588976 72.169266 8.669619 72.025742 8.813143 
C 71.882217 8.956668 71.801575 9.151356 71.801575 9.354331 
C 71.801575 9.557305 71.882217 9.751993 72.025742 9.895518 
C 72.169266 10.039042 72.363955 10.119685 72.566929 10.119685 
z
" clip-path="url(#pbf815fcc17)" style="fill: #bbbbbb; stroke: #bbbbbb; stroke-linejoin: miter"/>
   </g>
   <g id="patch_43">
    <path d="M 93.826772 98.985827 
C 95.044618 98.985827 96.212748 98.501971 97.073895 97.640824 
C 97.935042 96.779677 98.418898 95.611547 98.418898 94.393701 
C 98.418898 93.175855 97.935042 92.007725 97.073895 91.146577 
C 96.212748 90.28543 95.044618 89.801575 93.826772 89.801575 
C 92.608926 89.801575 91.440795 90.28543 90.579648 91.146577 
C 89.718501 92.007725 89.234646 93.175855 89.234646 94.393701 
C 89.234646 95.611547 89.718501 96.779677 90.579648 97.640824 
C 91.440795 98.501971 92.608926 98.985827 93.826772 98.985827 
L 93.826772 98.985827 
z
" clip-path="url(#pbf815fcc17)" style="fill: none; stroke: #bbbbbb; stroke-linejoin: miter"/>
   </g>
   <g id="patch_44">
    <path d="M 93.826772 95.159055 
C 94.029746 95.159055 94.224434 95.078413 94.367959 94.934888 
C 94.511483 94.791363 94.592126 94.596675 94.592126 94.393701 
C 94.592126 94.190726 94.511483 93.996038 94.367959 93.852514 
C 94.224434 93.708989 94.029746 93.628346 93.826772 93.628346 
C 93.623797 93.628346 93.429109 93.708989 93.285584 93.852514 
C 93.14206 93.996038 93.061417 94.190726 93.061417 94.393701 
C 93.061417 94.596675 93.14206 94.791363 93.285584 94.934888 
C 93.429109 95.078413 93.623797 95.159055 93.826772 95.159055 
z
" clip-path="url(#pbf815fcc17)" style="fill: #bbbbbb; stroke: #bbbbbb; stroke-linejoin: miter"/>
   </g>
   <g id="patch_45">
    <path d="M 93.826772 77.725984 
C 95.044618 77.725984 96.212748 77.242129 97.073895 76.380982 
C 97.935042 75.519834 98.418898 74.351704 98.418898 73.133858 
C 98.418898 71.916012 97.935042 70.747882 97.073895 69.886735 
C 96.212748 69.025588 95.044618 68.541732 93.826772 68.541732 
C 92.608926 68.541732 91.440795 69.025588 90.579648 69.886735 
C 89.718501 70.747882 89.234646 71.916012 89.234646 73.133858 
C 89.234646 74.351704 89.718501 75.519834 90.579648 76.380982 
C 91.440795 77.242129 92.608926 77.725984 93.826772 77.725984 
L 93.826772 77.725984 
z
" clip-path="url(#pbf815fcc17)" style="fill: none; stroke: #bbbbbb; stroke-linejoin: miter"/>
   </g>
   <g id="patch_46">
    <path d="M 93.826772 73.899213 
C 94.029746 73.899213 94.224434 73.81857 94.367959 73.675046 
C 94.511483 73.531521 94.592126 73.336833 94.592126 73.133858 
C 94.592126 72.930884 94.511483 72.736196 94.367959 72.592671 
C 94.224434 72.449146 94.029746 72.368504 93.826772 72.368504 
C 93.623797 72.368504 93.429109 72.449146 93.285584 72.592671 
C 93.14206 72.736196 93.061417 72.930884 93.061417 73.133858 
C 93.061417 73.336833 93.14206 73.531521 93.285584 73.675046 
C 93.429109 73.81857 93.623797 73.899213 93.826772 73.899213 
z
" clip-path="url(#pbf815fcc17)" style="fill: #bbbbbb; stroke: #bbbbbb; stroke-linejoin: miter"/>
   </g>
   <g id="patch_47">
    <path d="M 93.826772 56.466142 
C 95.044618 56.466142 96.212748 55.982286 97.073895 55.121139 
C 97.935042 54.259992 98.418898 53.091862 98.418898 51.874016 
C 98.418898 50.65617 97.935042 49.48804 97.073895 48.626892 
C 96.212748 47.765745 95.044618 47.28189 93.826772 47.28189 
C 92.608926 47.28189 91.440795 47.765745 90.579648 48.626892 
C 89.718501 49.48804 89.234646 50.65617 89.234646 51.874016 
C 89.234646 53.091862 89.718501 54.259992 90.579648 55.121139 
C 91.440795 55.982286 92.608926 56.466142 93.826772 56.466142 
L 93.826772 56.466142 
z
" clip-path="url(#pbf815fcc17)" style="fill: none; stroke: #bbbbbb; stroke-linejoin: miter"/>
   </g>
   <g id="patch_48">
    <path d="M 93.826772 52.63937 
C 94.029746 52.63937 94.224434 52.558728 94.367959 52.415203 
C 94.511483 52.271678 94.592126 52.07699 94.592126 51.874016 
C 94.592126 51.671041 94.511483 51.476353 94.367959 51.332829 
C 94.224434 51.189304 94.029746 51.108661 93.826772 51.108661 
C 93.623797 51.108661 93.429109 51.189304 93.285584 51.332829 
C 93.14206 51.476353 93.061417 51.671041 93.061417 51.874016 
C 93.061417 52.07699 93.14206 52.271678 93.285584 52.415203 
C 93.429109 52.558728 93.623797 52.63937 93.826772 52.63937 
z
" clip-path="url(#pbf815fcc17)" style="fill: #bbbbbb; stroke: #bbbbbb; stroke-linejoin: miter"/>
   </g>
   <g id="patch_49">
    <path d="M 93.826772 35.206299 
C 95.044618 35.206299 96.212748 34.722444 97.073895 33.861297 
C 97.935042 33.000149 98.418898 31.832019 98.418898 30.614173 
C 98.418898 29.396327 97.935042 28.228197 97.073895 27.36705 
C 96.212748 26.505903 95.044618 26.022047 93.826772 26.022047 
C 92.608926 26.022047 91.440795 26.505903 90.579648 27.36705 
C 89.718501 28.228197 89.234646 29.396327 89.234646 30.614173 
C 89.234646 31.832019 89.718501 33.000149 90.579648 33.861297 
C 91.440795 34.722444 92.608926 35.206299 93.826772 35.206299 
L 93.826772 35.206299 
z
" clip-path="url(#pbf815fcc17)" style="fill: none; stroke: #bbbbbb; stroke-linejoin: miter"/>
   </g>
   <g id="patch_50">
    <path d="M 93.826772 31.379528 
C 94.029746 31.379528 94.224434 31.298885 94.367959 31.15536 
C 94.511483 31.011836 94.592126 30.817148 94.592126 30.614173 
C 94.592126 30.411199 94.511483 30.216511 94.367959 30.072986 
C 94.224434 29.929461 94.029746 29.848819 93.826772 29.848819 
C 93.623797 29.848819 93.429109 29.929461 93.285584 30.072986 
C 93.14206 30.216511 93.061417 30.411199 93.061417 30.614173 
C 93.061417 30.817148 93.14206 31.011836 93.285584 31.15536 
C 93.429109 31.298885 93.623797 31.379528 93.826772 31.379528 
z
" clip-path="url(#pbf815fcc17)" style="fill: #bbbbbb; stroke: #bbbbbb; stroke-linejoin: miter"/>
   </g>
   <g id="patch_51">
    <path d="M 93.826772 13.946457 
C 95.044618 13.946457 96.212748 13.462601 97.073895 12.601454 
C 97.935042 11.740307 98.418898 10.572177 98.418898 9.354331 
C 98.418898 8.136485 97.935042 6.968354 97.073895 6.107207 
C 96.212748 5.24606 95.044618 4.762205 93.826772 4.762205 
C 92.608926 4.762205 91.440795 5.24606 90.579648 6.107207 
C 89.718501 6.968354 89.234646 8.136485 89.234646 9.354331 
C 89.234646 10.572177 89.718501 11.740307 90.579648 12.601454 
C 91.440795 13.462601 92.608926 13.946457 93.826772 13.946457 
L 93.826772 13.946457 
z
" clip-path="url(#pbf815fcc17)" style="fill: none; stroke: #bbbbbb; stroke-linejoin: miter"/>
   </g>
   <g id="patch_52">
    <path d="M 93.826772 10.119685 
C 94.029746 10.119685 94.224434 10.039042 94.367959 9.895518 
C 94.511483 9.751993 94.592126 9.557305 94.592126 9.354331 
C 94.592126 9.151356 94.511483 8.956668 94.367959 8.813143 
C 94.224434 8.669619 94.029746 8.588976 93.826772 8.588976 
C 93.623797 8.588976 93.429109 8.669619 93.285584 8.813143 
C 93.14206 8.956668 93.061417 9.151356 93.061417 9.354331 
C 93.061417 9.557305 93.14206 9.751993 93.285584 9.895518 
C 93.429109 10.039042 93.623797 10.119685 93.826772 10.119685 
z
" clip-path="url(#pbf815fcc17)" style="fill: #bbbbbb; stroke: #bbbbbb; stroke-linejoin: miter"/>
   </g>
   <g id="patch_53">
    <path d="M 115.086614 98.985827 
C 116.30446 98.985827 117.47259 98.501971 118.333738 97.640824 
C 119.194885 96.779677 119.67874 95.611547 119.67874 94.393701 
C 119.67874 93.175855 119.194885 92.007725 118.333738 91.146577 
C 117.47259 90.28543 116.30446 89.801575 115.086614 89.801575 
C 113.868768 89.801575 112.700638 90.28543 111.839491 91.146577 
C 110.978344 92.007725 110.494488 93.175855 110.494488 94.393701 
C 110.494488 95.611547 110.978344 96.779677 111.839491 97.640824 
C 112.700638 98.501971 113.868768 98.985827 115.086614 98.985827 
L 115.086614 98.985827 
z
" clip-path="url(#pbf815fcc17)" style="fill: none; stroke: #bbbbbb; stroke-linejoin: miter"/>
   </g>
   <g id="patch_54">
    <path d="M 115.086614 95.159055 
C 115.289589 95.159055 115.484277 95.078413 115.627801 94.934888 
C 115.771326 94.791363 115.851969 94.596675 115.851969 94.393701 
C 115.851969 94.190726 115.771326 93.996038 115.627801 93.852514 
C 115.484277 93.708989 115.289589 93.628346 115.086614 93.628346 
C 114.88364 93.628346 114.688951 93.708989 114.545427 93.852514 
C 114.401902 93.996038 114.32126 94.190726 114.32126 94.393701 
C 114.32126 94.596675 114.401902 94.791363 114.545427 94.934888 
C 114.688951 95.078413 114.88364 95.159055 115.086614 95.159055 
z
" clip-path="url(#pbf815fcc17)" style="fill: #bbbbbb; stroke: #bbbbbb; stroke-linejoin: miter"/>
   </g>
   <g id="patch_55">
    <path d="M 115.086614 77.725984 
C 116.30446 77.725984 117.47259 77.242129 118.333738 76.380982 
C 119.194885 75.519834 119.67874 74.351704 119.67874 73.133858 
C 119.67874 71.916012 119.194885 70.747882 118.333738 69.886735 
C 117.47259 69.025588 116.30446 68.541732 115.086614 68.541732 
C 113.868768 68.541732 112.700638 69.025588 111.839491 69.886735 
C 110.978344 70.747882 110.494488 71.916012 110.494488 73.133858 
C 110.494488 74.351704 110.978344 75.519834 111.839491 76.380982 
C 112.700638 77.242129 113.868768 77.725984 115.086614 77.725984 
L 115.086614 77.725984 
z
" clip-path="url(#pbf815fcc17)" style="fill: none; stroke: #bbbbbb; stroke-linejoin: miter"/>
   </g>
   <g id="patch_56">
    <path d="M 115.086614 73.899213 
C 115.289589 73.899213 115.484277 73.81857 115.627801 73.675046 
C 115.771326 73.531521 115.851969 73.336833 115.851969 73.133858 
C 115.851969 72.930884 115.771326 72.736196 115.627801 72.592671 
C 115.484277 72.449146 115.289589 72.368504 115.086614 72.368504 
C 114.88364 72.368504 114.688951 72.449146 114.545427 72.592671 
C 114.401902 72.736196 114.32126 72.930884 114.32126 73.133858 
C 114.32126 73.336833 114.401902 73.531521 114.545427 73.675046 
C 114.688951 73.81857 114.88364 73.899213 115.086614 73.899213 
z
" clip-path="url(#pbf815fcc17)" style="fill: #bbbbbb; stroke: #bbbbbb; stroke-linejoin: miter"/>
   </g>
   <g id="patch_57">
    <path d="M 115.086614 56.466142 
C 116.30446 56.466142 117.47259 55.982286 118.333738 55.121139 
C 119.194885 54.259992 119.67874 53.091862 119.67874 51.874016 
C 119.67874 50.65617 119.194885 49.48804 118.333738 48.626892 
C 117.47259 47.765745 116.30446 47.28189 115.086614 47.28189 
C 113.868768 47.28189 112.700638 47.765745 111.839491 48.626892 
C 110.978344 49.48804 110.494488 50.65617 110.494488 51.874016 
C 110.494488 53.091862 110.978344 54.259992 111.839491 55.121139 
C 112.700638 55.982286 113.868768 56.466142 115.086614 56.466142 
L 115.086614 56.466142 
z
" clip-path="url(#pbf815fcc17)" style="fill: none; stroke: #bbbbbb; stroke-linejoin: miter"/>
   </g>
   <g id="patch_58">
    <path d="M 115.086614 52.63937 
C 115.289589 52.63937 115.484277 52.558728 115.627801 52.415203 
C 115.771326 52.271678 115.851969 52.07699 115.851969 51.874016 
C 115.851969 51.671041 115.771326 51.476353 115.627801 51.332829 
C 115.484277 51.189304 115.289589 51.108661 115.086614 51.108661 
C 114.88364 51.108661 114.688951 51.189304 114.545427 51.332829 
C 114.401902 51.476353 114.32126 51.671041 114.32126 51.874016 
C 114.32126 52.07699 114.401902 52.271678 114.545427 52.415203 
C 114.688951 52.558728 114.88364 52.63937 115.086614 52.63937 
z
" clip-path="url(#pbf815fcc17)" style="fill: #bbbbbb; stroke: #bbbbbb; stroke-linejoin: miter"/>
   </g>
   <g id="patch_59">
    <path d="M 115.086614 35.206299 
C 116.30446 35.206299 117.47259 34.722444 118.333738 33.861297 
C 119.194885 33.000149 119.67874 31.832019 119.67874 30.614173 
C 119.67874 29.396327 119.194885 28.228197 118.333738 27.36705 
C 117.47259 26.505903 116.30446 26.022047 115.086614 26.022047 
C 113.868768 26.022047 112.700638 26.505903 111.839491 27.36705 
C 110.978344 28.228197 110.494488 29.396327 110.494488 30.614173 
C 110.494488 31.832019 110.978344 33.000149 111.839491 33.861297 
C 112.700638 34.722444 113.868768 35.206299 115.086614 35.206299 
L 115.086614 35.206299 
z
" clip-path="url(#pbf815fcc17)" style="fill: none; stroke: #bbbbbb; stroke-linejoin: miter"/>
   </g>
   <g id="patch_60">
    <path d="M 115.086614 31.379528 
C 115.289589 31.379528 115.484277 31.298885 115.627801 31.15536 
C 115.771326 31.011836 115.851969 30.817148 115.851969 30.614173 
C 115.851969 30.411199 115.771326 30.216511 115.627801 30.072986 
C 115.484277 29.929461 115.289589 29.848819 115.086614 29.848819 
C 114.88364 29.848819 114.688951 29.929461 114.545427 30.072986 
C 114.401902 30.216511 114.32126 30.411199 114.32126 30.614173 
C 114.32126 30.817148 114.401902 31.011836 114.545427 31.15536 
C 114.688951 31.298885 114.88364 31.379528 115.086614 31.379528 
z
" clip-path="url(#pbf815fcc17)" style="fill: #bbbbbb; stroke: #bbbbbb; stroke-linejoin: miter"/>
   </g>
   <g id="patch_61">
    <path d="M 115.086614 13.946457 
C 116.30446 13.946457 117.47259 13.462601 118.333738 12.601454 
C 119.194885 11.740307 119.67874 10.572177 119.67874 9.354331 
C 119.67874 8.136485 119.194885 6.968354 118.333738 6.107207 
C 117.47259 5.24606 116.30446 4.762205 115.086614 4.762205 
C 113.868768 4.762205 112.700638 5.24606 111.839491 6.107207 
C 110.978344 6.968354 110.494488 8.136485 110.494488 9.354331 
C 110.494488 10.572177 110.978344 11.740307 111.839491 12.601454 
C 112.700638 13.462601 113.868768 13.946457 115.086614 13.946457 
L 115.086614 13.946457 
z
" clip-path="url(#pbf815fcc17)" style="fill: none; stroke: #bbbbbb; stroke-linejoin: miter"/>
   </g>
   <g id="patch_62">
    <path d="M 115.086614 10.119685 
C 115.289589 10.119685 115.484277 10.039042 115.627801 9.895518 
C 115.771326 9.751993 115.851969 9.557305 115.851969 9.354331 
C 115.851969 9.151356 115.771326 8.956668 115.627801 8.813143 
C 115.484277 8.669619 115.289589 8.588976 115.086614 8.588976 
C 114.88364 8.588976 114.688951 8.669619 114.545427 8.813143 
C 114.401902 8.956668 114.32126 9.151356 114.32126 9.354331 
C 114.32126 9.557305 114.401902 9.751993 114.545427 9.895518 
C 114.688951 10.039042 114.88364 10.119685 115.086614 10.119685 
z
" clip-path="url(#pbf815fcc17)" style="fill: #bbbbbb; stroke: #bbbbbb; stroke-linejoin: miter"/>
   </g>
   <g id="patch_63">
    <path d="M 136.346457 98.985827 
C 137.564303 98.985827 138.732433 98.501971 139.59358 97.640824 
C 140.454727 96.779677 140.938583 95.611547 140.938583 94.393701 
C 140.938583 93.175855 140.454727 92.007725 139.59358 91.146577 
C 138.732433 90.28543 137.564303 89.801575 136.346457 89.801575 
C 135.128611 89.801575 133.96048 90.28543 133.099333 91.146577 
C 132.238186 92.007725 131.754331 93.175855 131.754331 94.393701 
C 131.754331 95.611547 132.238186 96.779677 133.099333 97.640824 
C 133.96048 98.501971 135.128611 98.985827 136.346457 98.985827 
L 136.346457 98.985827 
z
" clip-path="url(#pbf815fcc17)" style="fill: none; stroke: #bbbbbb; stroke-linejoin: miter"/>
   </g>
   <g id="patch_64">
    <path d="M 136.346457 95.159055 
C 136.549431 95.159055 136.744119 95.078413 136.887644 94.934888 
C 137.031168 94.791363 137.111811 94.596675 137.111811 94.393701 
C 137.111811 94.190726 137.031168 93.996038 136.887644 93.852514 
C 136.744119 93.708989 136.549431 93.628346 136.346457 93.628346 
C 136.143482 93.628346 135.948794 93.708989 135.805269 93.852514 
C 135.661745 93.996038 135.581102 94.190726 135.581102 94.393701 
C 135.581102 94.596675 135.661745 94.791363 135.805269 94.934888 
C 135.948794 95.078413 136.143482 95.159055 136.346457 95.159055 
z
" clip-path="url(#pbf815fcc17)" style="fill: #bbbbbb; stroke: #bbbbbb; stroke-linejoin: miter"/>
   </g>
   <g id="patch_65">
    <path d="M 136.346457 77.725984 
C 137.564303 77.725984 138.732433 77.242129 139.59358 76.380982 
C 140.454727 75.519834 140.938583 74.351704 140.938583 73.133858 
C 140.938583 71.916012 140.454727 70.747882 139.59358 69.886735 
C 138.732433 69.025588 137.564303 68.541732 136.346457 68.541732 
C 135.128611 68.541732 133.96048 69.025588 133.099333 69.886735 
C 132.238186 70.747882 131.754331 71.916012 131.754331 73.133858 
C 131.754331 74.351704 132.238186 75.519834 133.099333 76.380982 
C 133.96048 77.242129 135.128611 77.725984 136.346457 77.725984 
L 136.346457 77.725984 
z
" clip-path="url(#pbf815fcc17)" style="fill: none; stroke: #bbbbbb; stroke-linejoin: miter"/>
   </g>
   <g id="patch_66">
    <path d="M 136.346457 73.899213 
C 136.549431 73.899213 136.744119 73.81857 136.887644 73.675046 
C 137.031168 73.531521 137.111811 73.336833 137.111811 73.133858 
C 137.111811 72.930884 137.031168 72.736196 136.887644 72.592671 
C 136.744119 72.449146 136.549431 72.368504 136.346457 72.368504 
C 136.143482 72.368504 135.948794 72.449146 135.805269 72.592671 
C 135.661745 72.736196 135.581102 72.930884 135.581102 73.133858 
C 135.581102 73.336833 135.661745 73.531521 135.805269 73.675046 
C 135.948794 73.81857 136.143482 73.899213 136.346457 73.899213 
z
" clip-path="url(#pbf815fcc17)" style="fill: #bbbbbb; stroke: #bbbbbb; stroke-linejoin: miter"/>
   </g>
   <g id="patch_67">
    <path d="M 136.346457 56.466142 
C 137.564303 56.466142 138.732433 55.982286 139.59358 55.121139 
C 140.454727 54.259992 140.938583 53.091862 140.938583 51.874016 
C 140.938583 50.65617 140.454727 49.48804 139.59358 48.626892 
C 138.732433 47.765745 137.564303 47.28189 136.346457 47.28189 
C 135.128611 47.28189 133.96048 47.765745 133.099333 48.626892 
C 132.238186 49.48804 131.754331 50.65617 131.754331 51.874016 
C 131.754331 53.091862 132.238186 54.259992 133.099333 55.121139 
C 133.96048 55.982286 135.128611 56.466142 136.346457 56.466142 
L 136.346457 56.466142 
z
" clip-path="url(#pbf815fcc17)" style="fill: none; stroke: #bbbbbb; stroke-linejoin: miter"/>
   </g>
   <g id="patch_68">
    <path d="M 136.346457 52.63937 
C 136.549431 52.63937 136.744119 52.558728 136.887644 52.415203 
C 137.031168 52.271678 137.111811 52.07699 137.111811 51.874016 
C 137.111811 51.671041 137.031168 51.476353 136.887644 51.332829 
C 136.744119 51.189304 136.549431 51.108661 136.346457 51.108661 
C 136.143482 51.108661 135.948794 51.189304 135.805269 51.332829 
C 135.661745 51.476353 135.581102 51.671041 135.581102 51.874016 
C 135.581102 52.07699 135.661745 52.271678 135.805269 52.415203 
C 135.948794 52.558728 136.143482 52.63937 136.346457 52.63937 
z
" clip-path="url(#pbf815fcc17)" style="fill: #bbbbbb; stroke: #bbbbbb; stroke-linejoin: miter"/>
   </g>
   <g id="patch_69">
    <path d="M 136.346457 35.206299 
C 137.564303 35.206299 138.732433 34.722444 139.59358 33.861297 
C 140.454727 33.000149 140.938583 31.832019 140.938583 30.614173 
C 140.938583 29.396327 140.454727 28.228197 139.59358 27.36705 
C 138.732433 26.505903 137.564303 26.022047 136.346457 26.022047 
C 135.128611 26.022047 133.96048 26.505903 133.099333 27.36705 
C 132.238186 28.228197 131.754331 29.396327 131.754331 30.614173 
C 131.754331 31.832019 132.238186 33.000149 133.099333 33.861297 
C 133.96048 34.722444 135.128611 35.206299 136.346457 35.206299 
L 136.346457 35.206299 
z
" clip-path="url(#pbf815fcc17)" style="fill: none; stroke: #bbbbbb; stroke-linejoin: miter"/>
   </g>
   <g id="patch_70">
    <path d="M 136.346457 31.379528 
C 136.549431 31.379528 136.744119 31.298885 136.887644 31.15536 
C 137.031168 31.011836 137.111811 30.817148 137.111811 30.614173 
C 137.111811 30.411199 137.031168 30.216511 136.887644 30.072986 
C 136.744119 29.929461 136.549431 29.848819 136.346457 29.848819 
C 136.143482 29.848819 135.948794 29.929461 135.805269 30.072986 
C 135.661745 30.216511 135.581102 30.411199 135.581102 30.614173 
C 135.581102 30.817148 135.661745 31.011836 135.805269 31.15536 
C 135.948794 31.298885 136.143482 31.379528 136.346457 31.379528 
z
" clip-path="url(#pbf815fcc17)" style="fill: #bbbbbb; stroke: #bbbbbb; stroke-linejoin: miter"/>
   </g>
   <g id="patch_71">
    <path d="M 136.346457 13.946457 
C 137.564303 13.946457 138.732433 13.462601 139.59358 12.601454 
C 140.454727 11.740307 140.938583 10.572177 140.938583 9.354331 
C 140.938583 8.136485 140.454727 6.968354 139.59358 6.107207 
C 138.732433 5.24606 137.564303 4.762205 136.346457 4.762205 
C 135.128611 4.762205 133.96048 5.24606 133.099333 6.107207 
C 132.238186 6.968354 131.754331 8.136485 131.754331 9.354331 
C 131.754331 10.572177 132.238186 11.740307 133.099333 12.601454 
C 133.96048 13.462601 135.128611 13.946457 136.346457 13.946457 
L 136.346457 13.946457 
z
" clip-path="url(#pbf815fcc17)" style="fill: none; stroke: #bbbbbb; stroke-linejoin: miter"/>
   </g>
   <g id="patch_72">
    <path d="M 136.346457 10.119685 
C 136.549431 10.119685 136.744119 10.039042 136.887644 9.895518 
C 137.031168 9.751993 137.111811 9.557305 137.111811 9.354331 
C 137.111811 9.151356 137.031168 8.956668 136.887644 8.813143 
C 136.744119 8.669619 136.549431 8.588976 136.346457 8.588976 
C 136.143482 8.588976 135.948794 8.669619 135.805269 8.813143 
C 135.661745 8.956668 135.581102 9.151356 135.581102 9.354331 
C 135.581102 9.557305 135.661745 9.751993 135.805269 9.895518 
C 135.948794 10.039042 136.143482 10.119685 136.346457 10.119685 
z
" clip-path="url(#pbf815fcc17)" style="fill: #bbbbbb; stroke: #bbbbbb; stroke-linejoin: miter"/>
   </g>
   <g id="patch_73">
    <path d="M 157.606299 98.985827 
C 158.824145 98.985827 159.992275 98.501971 160.853423 97.640824 
C 161.71457 96.779677 162.198425 95.611547 162.198425 94.393701 
C 162.198425 93.175855 161.71457 92.007725 160.853423 91.146577 
C 159.992275 90.28543 158.824145 89.801575 157.606299 89.801575 
C 156.388453 89.801575 155.220323 90.28543 154.359176 91.146577 
C 153.498029 92.007725 153.014173 93.175855 153.014173 94.393701 
C 153.014173 95.611547 153.498029 96.779677 154.359176 97.640824 
C 155.220323 98.501971 156.388453 98.985827 157.606299 98.985827 
L 157.606299 98.985827 
z
" clip-path="url(#pbf815fcc17)" style="fill: none; stroke: #bbbbbb; stroke-linejoin: miter"/>
   </g>
   <g id="patch_74">
    <path d="M 157.606299 95.159055 
C 157.809274 95.159055 158.003962 95.078413 158.147486 94.934888 
C 158.291011 94.791363 158.371654 94.596675 158.371654 94.393701 
C 158.371654 94.190726 158.291011 93.996038 158.147486 93.852514 
C 158.003962 93.708989 157.809274 93.628346 157.606299 93.628346 
C 157.403325 93.628346 157.208637 93.708989 157.065112 93.852514 
C 156.921587 93.996038 156.840945 94.190726 156.840945 94.393701 
C 156.840945 94.596675 156.921587 94.791363 157.065112 94.934888 
C 157.208637 95.078413 157.403325 95.159055 157.606299 95.159055 
z
" clip-path="url(#pbf815fcc17)" style="fill: #bbbbbb; stroke: #bbbbbb; stroke-linejoin: miter"/>
   </g>
   <g id="patch_75">
    <path d="M 157.606299 77.725984 
C 158.824145 77.725984 159.992275 77.242129 160.853423 76.380982 
C 161.71457 75.519834 162.198425 74.351704 162.198425 73.133858 
C 162.198425 71.916012 161.71457 70.747882 160.853423 69.886735 
C 159.992275 69.025588 158.824145 68.541732 157.606299 68.541732 
C 156.388453 68.541732 155.220323 69.025588 154.359176 69.886735 
C 153.498029 70.747882 153.014173 71.916012 153.014173 73.133858 
C 153.014173 74.351704 153.498029 75.519834 154.359176 76.380982 
C 155.220323 77.242129 156.388453 77.725984 157.606299 77.725984 
L 157.606299 77.725984 
z
" clip-path="url(#pbf815fcc17)" style="fill: none; stroke: #bbbbbb; stroke-linejoin: miter"/>
   </g>
   <g id="patch_76">
    <path d="M 157.606299 73.899213 
C 157.809274 73.899213 158.003962 73.81857 158.147486 73.675046 
C 158.291011 73.531521 158.371654 73.336833 158.371654 73.133858 
C 158.371654 72.930884 158.291011 72.736196 158.147486 72.592671 
C 158.003962 72.449146 157.809274 72.368504 157.606299 72.368504 
C 157.403325 72.368504 157.208637 72.449146 157.065112 72.592671 
C 156.921587 72.736196 156.840945 72.930884 156.840945 73.133858 
C 156.840945 73.336833 156.921587 73.531521 157.065112 73.675046 
C 157.208637 73.81857 157.403325 73.899213 157.606299 73.899213 
z
" clip-path="url(#pbf815fcc17)" style="fill: #bbbbbb; stroke: #bbbbbb; stroke-linejoin: miter"/>
   </g>
   <g id="patch_77">
    <path d="M 157.606299 56.466142 
C 158.824145 56.466142 159.992275 55.982286 160.853423 55.121139 
C 161.71457 54.259992 162.198425 53.091862 162.198425 51.874016 
C 162.198425 50.65617 161.71457 49.48804 160.853423 48.626892 
C 159.992275 47.765745 158.824145 47.28189 157.606299 47.28189 
C 156.388453 47.28189 155.220323 47.765745 154.359176 48.626892 
C 153.498029 49.48804 153.014173 50.65617 153.014173 51.874016 
C 153.014173 53.091862 153.498029 54.259992 154.359176 55.121139 
C 155.220323 55.982286 156.388453 56.466142 157.606299 56.466142 
L 157.606299 56.466142 
z
" clip-path="url(#pbf815fcc17)" style="fill: none; stroke: #bbbbbb; stroke-linejoin: miter"/>
   </g>
   <g id="patch_78">
    <path d="M 157.606299 52.63937 
C 157.809274 52.63937 158.003962 52.558728 158.147486 52.415203 
C 158.291011 52.271678 158.371654 52.07699 158.371654 51.874016 
C 158.371654 51.671041 158.291011 51.476353 158.147486 51.332829 
C 158.003962 51.189304 157.809274 51.108661 157.606299 51.108661 
C 157.403325 51.108661 157.208637 51.189304 157.065112 51.332829 
C 156.921587 51.476353 156.840945 51.671041 156.840945 51.874016 
C 156.840945 52.07699 156.921587 52.271678 157.065112 52.415203 
C 157.208637 52.558728 157.403325 52.63937 157.606299 52.63937 
z
" clip-path="url(#pbf815fcc17)" style="fill: #bbbbbb; stroke: #bbbbbb; stroke-linejoin: miter"/>
   </g>
   <g id="patch_79">
    <path d="M 157.606299 35.206299 
C 158.824145 35.206299 159.992275 34.722444 160.853423 33.861297 
C 161.71457 33.000149 162.198425 31.832019 162.198425 30.614173 
C 162.198425 29.396327 161.71457 28.228197 160.853423 27.36705 
C 159.992275 26.505903 158.824145 26.022047 157.606299 26.022047 
C 156.388453 26.022047 155.220323 26.505903 154.359176 27.36705 
C 153.498029 28.228197 153.014173 29.396327 153.014173 30.614173 
C 153.014173 31.832019 153.498029 33.000149 154.359176 33.861297 
C 155.220323 34.722444 156.388453 35.206299 157.606299 35.206299 
L 157.606299 35.206299 
z
" clip-path="url(#pbf815fcc17)" style="fill: none; stroke: #bbbbbb; stroke-linejoin: miter"/>
   </g>
   <g id="patch_80">
    <path d="M 157.606299 31.379528 
C 157.809274 31.379528 158.003962 31.298885 158.147486 31.15536 
C 158.291011 31.011836 158.371654 30.817148 158.371654 30.614173 
C 158.371654 30.411199 158.291011 30.216511 158.147486 30.072986 
C 158.003962 29.929461 157.809274 29.848819 157.606299 29.848819 
C 157.403325 29.848819 157.208637 29.929461 157.065112 30.072986 
C 156.921587 30.216511 156.840945 30.411199 156.840945 30.614173 
C 156.840945 30.817148 156.921587 31.011836 157.065112 31.15536 
C 157.208637 31.298885 157.403325 31.379528 157.606299 31.379528 
z
" clip-path="url(#pbf815fcc17)" style="fill: #bbbbbb; stroke: #bbbbbb; stroke-linejoin: miter"/>
   </g>
   <g id="patch_81">
    <path d="M 157.606299 13.946457 
C 158.824145 13.946457 159.992275 13.462601 160.853423 12.601454 
C 161.71457 11.740307 162.198425 10.572177 162.198425 9.354331 
C 162.198425 8.136485 161.71457 6.968354 160.853423 6.107207 
C 159.992275 5.24606 158.824145 4.762205 157.606299 4.762205 
C 156.388453 4.762205 155.220323 5.24606 154.359176 6.107207 
C 153.498029 6.968354 153.014173 8.136485 153.014173 9.354331 
C 153.014173 10.572177 153.498029 11.740307 154.359176 12.601454 
C 155.220323 13.462601 156.388453 13.946457 157.606299 13.946457 
L 157.606299 13.946457 
z
" clip-path="url(#pbf815fcc17)" style="fill: none; stroke: #bbbbbb; stroke-linejoin: miter"/>
   </g>
   <g id="patch_82">
    <path d="M 157.606299 10.119685 
C 157.809274 10.119685 158.003962 10.039042 158.147486 9.895518 
C 158.291011 9.751993 158.371654 9.557305 158.371654 9.354331 
C 158.371654 9.151356 158.291011 8.956668 158.147486 8.813143 
C 158.003962 8.669619 157.809274 8.588976 157.606299 8.588976 
C 157.403325 8.588976 157.208637 8.669619 157.065112 8.813143 
C 156.921587 8.956668 156.840945 9.151356 156.840945 9.354331 
C 156.840945 9.557305 156.921587 9.751993 157.065112 9.895518 
C 157.208637 10.039042 157.403325 10.119685 157.606299 10.119685 
z
" clip-path="url(#pbf815fcc17)" style="fill: #bbbbbb; stroke: #bbbbbb; stroke-linejoin: miter"/>
   </g>
   <g id="patch_83">
    <path d="M 104.489151 47.852862 
L 104.87834 55.766373 
L 101.648071 54.345055 
L 89.300354 82.408047 
L 89.274408 82.396631 
L 101.622125 54.333639 
L 98.391856 52.91232 
z
" clip-path="url(#pbf815fcc17)" style="stroke: #000000; stroke-linejoin: miter"/>
   </g>
   <g id="patch_84">
    <path d="M 116.237859 7.412486 
L 116.237859 7.412486 
L 116.246044 7.424056 
L 51.190926 53.443888 
L 51.174556 53.420747 
L 116.229674 7.400915 
L 116.237859 7.412486 
z
" clip-path="url(#pbf815fcc17)" style="fill: #ff0000; stroke: #ff0000; stroke-linejoin: miter"/>
   </g>
   <g id="patch_85">
    <path d="M 40.345926 59.562993 
L 48.266109 59.348934 
L 46.77369 62.546976 
L 89.293375 82.389495 
L 89.281388 82.415182 
L 46.761703 62.572663 
L 45.269283 65.770704 
z
" clip-path="url(#pbf815fcc17)" style="fill: #a52a2a; stroke: #a52a2a; stroke-linejoin: miter"/>
   </g>
   <g id="patch_86">
    <path d="M 80.82582 32.507791 
L 77.07965 39.48929 
L 75.044458 36.606101 
L 51.190915 53.443897 
L 51.174568 53.420739 
L 75.028111 36.582943 
L 72.992919 33.699754 
z
" clip-path="url(#pbf815fcc17)" style="stroke: #000000; stroke-linejoin: miter"/>
   </g>
   <g id="patch_87">
    <path d="M 15.173967 3.020033 
L 22.176285 6.727143 
L 19.304511 8.77841 
L 51.194274 53.42408 
L 51.171208 53.440556 
L 19.281444 8.794886 
L 16.40967 10.846154 
z
" clip-path="url(#pbf815fcc17)" style="fill: #a52a2a; stroke: #a52a2a; stroke-linejoin: miter"/>
   </g>
   <g id="patch_88">
    <path d="M 162.992126 46.771654 
L 205.511811 46.771654 
L 205.511811 4.251969 
L 162.992126 4.251969 
z
" clip-path="url(#pbf815fcc17)" style="fill: #808080; stroke: #808080; stroke-linejoin: miter"/>
   </g>
   <g id="matplotlib.axis_1">
    <g id="xtick_1"/>
    <g id="xtick_2"/>
    <g id="xtick_3"/>
    <g id="xtick_4"/>
   </g>
   <g id="matplotlib.axis_2">
    <g id="ytick_1"/>
    <g id="ytick_2"/>
    <g id="ytick_3"/>
    <g id="ytick_4"/>
   </g>
   <g id="line2d_3">
    <defs>
     <path id="mbd5c4dd9ad" d="M 0 3 
C 0.795609 3 1.55874 2.683901 2.12132 2.12132 
C 2.683901 1.55874 3 0.795609 3 0 
C 3 -0.795609 2.683901 -1.55874 2.12132 -2.12132 
C 1.55874 -2.683901 0.795609 -3 0 -3 
C -0.795609 -3 -1.55874 -2.683901 -2.12132 -2.12132 
C -2.683901 -1.55874 -3 -0.795609 -3 0 
C -3 0.795609 -2.683901 1.55874 -2.12132 2.12132 
C -1.55874 2.683901 -0.795609 3 0 3 
z
" style="stroke: #0000ff"/>
    </defs>
    <g clip-path="url(#pbf815fcc17)">
     <use xlink:href="#mbd5c4dd9ad" x="89.287381" y="82.402339" style="fill: #0000ff; stroke: #0000ff"/>
    </g>
   </g>
   <g id="line2d_4">
    <g clip-path="url(#pbf815fcc17)">
     <use xlink:href="#mbd5c4dd9ad" x="51.182741" y="53.432318" style="fill: #0000ff; stroke: #0000ff"/>
    </g>
   </g>
   <g id="line2d_5">
    <path d="M 171.07874 69.658184 
L 169.629008 71.484314 
L 167.349508 73.922438 
L 164.744641 76.259693 
L 161.821517 78.47271 
L 158.589518 80.53848 
L 155.060263 82.434498 
L 151.247572 84.138894 
L 147.167407 85.630573 
L 142.837812 86.889349 
L 138.278829 87.896064 
L 133.512415 88.632725 
L 128.562338 89.08261 
L 123.45407 89.23039 
L 118.214662 89.062234 
L 112.872619 88.565903 
L 107.457758 87.730851 
L 103.822654 86.981562 
L 100.178373 86.075647 
L 96.534529 85.011332 
L 92.900897 83.787229 
L 89.287381 82.402339 
L 85.704003 80.856058 
L 82.16087 79.148187 
L 78.668156 77.278932 
L 75.236077 75.24891 
L 71.874866 73.059152 
L 68.594751 70.711107 
L 65.405926 68.206637 
L 62.318532 65.548025 
L 59.342629 62.737969 
L 56.488171 59.779581 
L 53.764985 56.676386 
L 51.182741 53.432318 
L 48.750933 50.051713 
L 46.478851 46.539308 
L 44.375559 42.900229 
L 42.449873 39.13999 
L 40.710332 35.264478 
L 39.165181 31.279949 
L 37.822349 27.193015 
L 36.689422 23.010636 
L 35.773625 18.740102 
L 35.081802 14.38903 
L 34.620396 9.96534 
L 34.395426 5.477249 
L 34.412476 0.933251 
L 34.49765 -1 
L 34.49765 -1 
" clip-path="url(#pbf815fcc17)" style="fill: none; stroke: #000000; stroke-linecap: square"/>
   </g>
   <g id="patch_89">
    <path d="M 0 106.299213 
L 0 0 
" style="fill: none"/>
   </g>
   <g id="patch_90">
    <path d="M 170.07874 106.299213 
L 170.07874 0 
" style="fill: none"/>
   </g>
   <g id="patch_91">
    <path d="M 0 106.299213 
L 170.07874 106.299213 
" style="fill: none"/>
   </g>
   <g id="patch_92">
    <path d="M 0 0 
L 170.07874 0 
" style="fill: none"/>
   </g>
   <g id="text_1">
    <!-- $F_{Lorentz}$ -->
    <g transform="translate(100.625964 69.646433)scale(0.1 -0.1)">
     <defs>
      <path id="DejaVuSans-Oblique-46" d="M 1081 4666 
L 3756 4666 
L 3653 4134 
L 1606 4134 
L 1338 2759 
L 3188 2759 
L 3084 2228 
L 1234 2228 
L 800 0 
L 172 0 
L 1081 4666 
z
" transform="scale(0.015625)"/>
      <path id="DejaVuSans-Oblique-4c" d="M 1075 4666 
L 1709 4666 
L 909 525 
L 3181 525 
L 3078 0 
L 172 0 
L 1075 4666 
z
" transform="scale(0.015625)"/>
      <path id="DejaVuSans-Oblique-6f" d="M 1625 -91 
Q 1009 -91 651 289 
Q 294 669 294 1325 
Q 294 1706 417 2101 
Q 541 2497 738 2766 
Q 1047 3184 1428 3384 
Q 1809 3584 2291 3584 
Q 2888 3584 3255 3212 
Q 3622 2841 3622 2241 
Q 3622 1825 3500 1412 
Q 3378 1000 3181 728 
Q 2875 309 2494 109 
Q 2113 -91 1625 -91 
z
M 891 1344 
Q 891 869 1089 633 
Q 1288 397 1691 397 
Q 2269 397 2648 901 
Q 3028 1406 3028 2181 
Q 3028 2634 2825 2865 
Q 2622 3097 2228 3097 
Q 1903 3097 1650 2945 
Q 1397 2794 1197 2484 
Q 1050 2253 970 1956 
Q 891 1659 891 1344 
z
" transform="scale(0.015625)"/>
      <path id="DejaVuSans-Oblique-72" d="M 2853 2969 
Q 2766 3016 2653 3041 
Q 2541 3066 2413 3066 
Q 1953 3066 1609 2717 
Q 1266 2369 1153 1784 
L 800 0 
L 225 0 
L 909 3500 
L 1484 3500 
L 1375 2956 
Q 1603 3259 1920 3421 
Q 2238 3584 2597 3584 
Q 2691 3584 2781 3573 
Q 2872 3563 2963 3538 
L 2853 2969 
z
" transform="scale(0.015625)"/>
      <path id="DejaVuSans-Oblique-65" d="M 3078 2063 
Q 3088 2113 3092 2166 
Q 3097 2219 3097 2272 
Q 3097 2653 2873 2875 
Q 2650 3097 2266 3097 
Q 1838 3097 1509 2826 
Q 1181 2556 1013 2059 
L 3078 2063 
z
M 3578 1613 
L 903 1613 
Q 884 1494 878 1425 
Q 872 1356 872 1306 
Q 872 872 1139 634 
Q 1406 397 1894 397 
Q 2269 397 2603 481 
Q 2938 566 3225 728 
L 3116 159 
Q 2806 34 2476 -28 
Q 2147 -91 1806 -91 
Q 1078 -91 686 257 
Q 294 606 294 1247 
Q 294 1794 489 2264 
Q 684 2734 1063 3103 
Q 1306 3334 1642 3459 
Q 1978 3584 2356 3584 
Q 2950 3584 3301 3228 
Q 3653 2872 3653 2272 
Q 3653 2128 3634 1964 
Q 3616 1800 3578 1613 
z
" transform="scale(0.015625)"/>
      <path id="DejaVuSans-Oblique-6e" d="M 3566 2113 
L 3156 0 
L 2578 0 
L 2988 2091 
Q 3016 2238 3031 2350 
Q 3047 2463 3047 2528 
Q 3047 2791 2881 2937 
Q 2716 3084 2419 3084 
Q 1956 3084 1622 2776 
Q 1288 2469 1184 1941 
L 800 0 
L 225 0 
L 903 3500 
L 1478 3500 
L 1363 2950 
Q 1603 3253 1940 3418 
Q 2278 3584 2650 3584 
Q 3113 3584 3367 3334 
Q 3622 3084 3622 2631 
Q 3622 2519 3608 2391 
Q 3594 2263 3566 2113 
z
" transform="scale(0.015625)"/>
      <path id="DejaVuSans-Oblique-74" d="M 2706 3500 
L 2619 3053 
L 1472 3053 
L 1100 1153 
Q 1081 1047 1072 975 
Q 1063 903 1063 863 
Q 1063 663 1183 572 
Q 1303 481 1569 481 
L 2150 481 
L 2053 0 
L 1503 0 
Q 991 0 739 200 
Q 488 400 488 806 
Q 488 878 497 964 
Q 506 1050 525 1153 
L 897 3053 
L 409 3053 
L 500 3500 
L 978 3500 
L 1172 4494 
L 1747 4494 
L 1556 3500 
L 2706 3500 
z
" transform="scale(0.015625)"/>
      <path id="DejaVuSans-Oblique-7a" d="M 744 3500 
L 3475 3500 
L 3372 2975 
L 738 459 
L 2913 459 
L 2822 0 
L -19 0 
L 84 525 
L 2719 3041 
L 653 3041 
L 744 3500 
z
" transform="scale(0.015625)"/>
     </defs>
     <use xlink:href="#DejaVuSans-Oblique-46" transform="translate(0 0.09375)"/>
     <use xlink:href="#DejaVuSans-Oblique-4c" transform="translate(57.519531 -16.3125)scale(0.7)"/>
     <use xlink:href="#DejaVuSans-Oblique-6f" transform="translate(96.518555 -16.3125)scale(0.7)"/>
     <use xlink:href="#DejaVuSans-Oblique-72" transform="translate(139.345703 -16.3125)scale(0.7)"/>
     <use xlink:href="#DejaVuSans-Oblique-65" transform="translate(168.125 -16.3125)scale(0.7)"/>
     <use xlink:href="#DejaVuSans-Oblique-6e" transform="translate(211.191406 -16.3125)scale(0.7)"/>
     <use xlink:href="#DejaVuSans-Oblique-74" transform="translate(255.556641 -16.3125)scale(0.7)"/>
     <use xlink:href="#DejaVuSans-Oblique-7a" transform="translate(283.00293 -16.3125)scale(0.7)"/>
    </g>
   </g>
   <g id="text_2">
    <!-- $F_{Lorentz}$ -->
    <g transform="translate(63.624001 53.432318)scale(0.1 -0.1)">
     <use xlink:href="#DejaVuSans-Oblique-46" transform="translate(0 0.09375)"/>
     <use xlink:href="#DejaVuSans-Oblique-4c" transform="translate(57.519531 -16.3125)scale(0.7)"/>
     <use xlink:href="#DejaVuSans-Oblique-6f" transform="translate(96.518555 -16.3125)scale(0.7)"/>
     <use xlink:href="#DejaVuSans-Oblique-72" transform="translate(139.345703 -16.3125)scale(0.7)"/>
     <use xlink:href="#DejaVuSans-Oblique-65" transform="translate(168.125 -16.3125)scale(0.7)"/>
     <use xlink:href="#DejaVuSans-Oblique-6e" transform="translate(211.191406 -16.3125)scale(0.7)"/>
     <use xlink:href="#DejaVuSans-Oblique-74" transform="translate(255.556641 -16.3125)scale(0.7)"/>
     <use xlink:href="#DejaVuSans-Oblique-7a" transform="translate(283.00293 -16.3125)scale(0.7)"/>
    </g>
   </g>
   <g id="text_3">
    <!-- r -->
    <g style="fill: #ff0000" transform="translate(73.859906 25.085861)scale(0.1 -0.1)">
     <defs>
      <path id="DejaVuSans-72" d="M 2631 2963 
Q 2534 3019 2420 3045 
Q 2306 3072 2169 3072 
Q 1681 3072 1420 2755 
Q 1159 2438 1159 1844 
L 1159 0 
L 581 0 
L 581 3500 
L 1159 3500 
L 1159 2956 
Q 1341 3275 1631 3429 
Q 1922 3584 2338 3584 
Q 2397 3584 2469 3576 
Q 2541 3569 2628 3553 
L 2631 2963 
z
" transform="scale(0.015625)"/>
     </defs>
     <use xlink:href="#DejaVuSans-72"/>
    </g>
   </g>
   <g id="text_4">
    <!-- $\nu_0$ -->
    <g style="fill: #a52a2a" transform="translate(43.933051 75.315725)scale(0.1 -0.1)">
     <defs>
      <path id="DejaVuSans-Oblique-3bd" d="M 959 0 
L 572 3500 
L 1191 3500 
L 1522 563 
Q 1972 950 2391 1488 
Q 2706 1891 2788 2241 
Q 2825 2406 2809 2719 
Q 2794 3091 2544 3500 
L 3125 3500 
L 3125 3500 
Q 3288 3222 3353 2834 
Q 3416 2478 3369 2234 
Q 3250 1622 2719 1075 
Q 2025 363 1572 0 
L 959 0 
z
" transform="scale(0.015625)"/>
      <path id="DejaVuSans-30" d="M 2034 4250 
Q 1547 4250 1301 3770 
Q 1056 3291 1056 2328 
Q 1056 1369 1301 889 
Q 1547 409 2034 409 
Q 2525 409 2770 889 
Q 3016 1369 3016 2328 
Q 3016 3291 2770 3770 
Q 2525 4250 2034 4250 
z
M 2034 4750 
Q 2819 4750 3233 4129 
Q 3647 3509 3647 2328 
Q 3647 1150 3233 529 
Q 2819 -91 2034 -91 
Q 1250 -91 836 529 
Q 422 1150 422 2328 
Q 422 3509 836 4129 
Q 1250 4750 2034 4750 
z
" transform="scale(0.015625)"/>
     </defs>
     <use xlink:href="#DejaVuSans-Oblique-3bd" transform="translate(0 0.3125)"/>
     <use xlink:href="#DejaVuSans-30" transform="translate(55.859375 -16.09375)scale(0.7)"/>
    </g>
   </g>
   <g id="text_5">
    <!-- $\nu_0$ -->
    <g style="fill: #a52a2a" transform="translate(12.915025 22.251215)scale(0.1 -0.1)">
     <use xlink:href="#DejaVuSans-Oblique-3bd" transform="translate(0 0.3125)"/>
     <use xlink:href="#DejaVuSans-30" transform="translate(55.859375 -16.09375)scale(0.7)"/>
    </g>
   </g>
   <g id="text_6">
    <!-- $\bigtriangleup\nu_0 = 0$ -->
    <g style="fill: #927263" transform="translate(107.716535 28.346457)scale(0.1 -0.1)">
     <defs>
      <path id="DejaVuSans-25b3" d="M 553 -431 
L 4369 -431 
L 2459 3400 
L 553 -431 
z
M 19 -788 
L 2459 4113 
L 4903 -788 
L 19 -788 
z
" transform="scale(0.015625)"/>
      <path id="DejaVuSans-3d" d="M 678 2906 
L 4684 2906 
L 4684 2381 
L 678 2381 
L 678 2906 
z
M 678 1631 
L 4684 1631 
L 4684 1100 
L 678 1100 
L 678 1631 
z
" transform="scale(0.015625)"/>
     </defs>
     <use xlink:href="#DejaVuSans-25b3" transform="translate(0 0.78125)"/>
     <use xlink:href="#DejaVuSans-Oblique-3bd" transform="translate(76.904297 0.78125)"/>
     <use xlink:href="#DejaVuSans-30" transform="translate(132.763672 -15.625)scale(0.7)"/>
     <use xlink:href="#DejaVuSans-3d" transform="translate(199.516602 0.78125)"/>
     <use xlink:href="#DejaVuSans-30" transform="translate(302.788086 0.78125)"/>
    </g>
   </g>
   <g id="text_7">
    <!-- $\bigtriangleup\nu_0 &gt; 0$ -->
    <g style="fill: #808080" transform="translate(107.716535 53.858268)scale(0.1 -0.1)">
     <defs>
      <path id="DejaVuSans-3e" d="M 678 3150 
L 678 3719 
L 4684 2266 
L 4684 1747 
L 678 294 
L 678 863 
L 3897 2003 
L 678 3150 
z
" transform="scale(0.015625)"/>
     </defs>
     <use xlink:href="#DejaVuSans-25b3" transform="translate(0 0.78125)"/>
     <use xlink:href="#DejaVuSans-Oblique-3bd" transform="translate(76.904297 0.78125)"/>
     <use xlink:href="#DejaVuSans-30" transform="translate(132.763672 -15.625)scale(0.7)"/>
     <use xlink:href="#DejaVuSans-3e" transform="translate(199.516602 0.78125)"/>
     <use xlink:href="#DejaVuSans-30" transform="translate(302.788086 0.78125)"/>
    </g>
   </g>
   <g id="text_8">
    <!-- $\bigtriangleup\nu_0 = 0$ -->
    <g style="fill: #9f7b60" transform="translate(107.716535 79.370079)scale(0.1 -0.1)">
     <use xlink:href="#DejaVuSans-25b3" transform="translate(0 0.78125)"/>
     <use xlink:href="#DejaVuSans-Oblique-3bd" transform="translate(76.904297 0.78125)"/>
     <use xlink:href="#DejaVuSans-30" transform="translate(132.763672 -15.625)scale(0.7)"/>
     <use xlink:href="#DejaVuSans-3d" transform="translate(199.516602 0.78125)"/>
     <use xlink:href="#DejaVuSans-30" transform="translate(302.788086 0.78125)"/>
    </g>
   </g>
   <g id="legend_1">
    <g id="line2d_6">
     <path d="M 4.05 79.922884 
L 8.55 79.922884 
L 13.05 79.922884 
" style="fill: none; stroke: #000000; stroke-linecap: square"/>
    </g>
    <g id="text_9">
     <!-- Laufbahn -->
     <g transform="translate(16.65 81.497884)scale(0.045 -0.045)">
      <defs>
       <path id="DejaVuSans-4c" d="M 628 4666 
L 1259 4666 
L 1259 531 
L 3531 531 
L 3531 0 
L 628 0 
L 628 4666 
z
" transform="scale(0.015625)"/>
       <path id="DejaVuSans-61" d="M 2194 1759 
Q 1497 1759 1228 1600 
Q 959 1441 959 1056 
Q 959 750 1161 570 
Q 1363 391 1709 391 
Q 2188 391 2477 730 
Q 2766 1069 2766 1631 
L 2766 1759 
L 2194 1759 
z
M 3341 1997 
L 3341 0 
L 2766 0 
L 2766 531 
Q 2569 213 2275 61 
Q 1981 -91 1556 -91 
Q 1019 -91 701 211 
Q 384 513 384 1019 
Q 384 1609 779 1909 
Q 1175 2209 1959 2209 
L 2766 2209 
L 2766 2266 
Q 2766 2663 2505 2880 
Q 2244 3097 1772 3097 
Q 1472 3097 1187 3025 
Q 903 2953 641 2809 
L 641 3341 
Q 956 3463 1253 3523 
Q 1550 3584 1831 3584 
Q 2591 3584 2966 3190 
Q 3341 2797 3341 1997 
z
" transform="scale(0.015625)"/>
       <path id="DejaVuSans-75" d="M 544 1381 
L 544 3500 
L 1119 3500 
L 1119 1403 
Q 1119 906 1312 657 
Q 1506 409 1894 409 
Q 2359 409 2629 706 
Q 2900 1003 2900 1516 
L 2900 3500 
L 3475 3500 
L 3475 0 
L 2900 0 
L 2900 538 
Q 2691 219 2414 64 
Q 2138 -91 1772 -91 
Q 1169 -91 856 284 
Q 544 659 544 1381 
z
M 1991 3584 
L 1991 3584 
z
" transform="scale(0.015625)"/>
       <path id="DejaVuSans-66" d="M 2375 4863 
L 2375 4384 
L 1825 4384 
Q 1516 4384 1395 4259 
Q 1275 4134 1275 3809 
L 1275 3500 
L 2222 3500 
L 2222 3053 
L 1275 3053 
L 1275 0 
L 697 0 
L 697 3053 
L 147 3053 
L 147 3500 
L 697 3500 
L 697 3744 
Q 697 4328 969 4595 
Q 1241 4863 1831 4863 
L 2375 4863 
z
" transform="scale(0.015625)"/>
       <path id="DejaVuSans-62" d="M 3116 1747 
Q 3116 2381 2855 2742 
Q 2594 3103 2138 3103 
Q 1681 3103 1420 2742 
Q 1159 2381 1159 1747 
Q 1159 1113 1420 752 
Q 1681 391 2138 391 
Q 2594 391 2855 752 
Q 3116 1113 3116 1747 
z
M 1159 2969 
Q 1341 3281 1617 3432 
Q 1894 3584 2278 3584 
Q 2916 3584 3314 3078 
Q 3713 2572 3713 1747 
Q 3713 922 3314 415 
Q 2916 -91 2278 -91 
Q 1894 -91 1617 61 
Q 1341 213 1159 525 
L 1159 0 
L 581 0 
L 581 4863 
L 1159 4863 
L 1159 2969 
z
" transform="scale(0.015625)"/>
       <path id="DejaVuSans-68" d="M 3513 2113 
L 3513 0 
L 2938 0 
L 2938 2094 
Q 2938 2591 2744 2837 
Q 2550 3084 2163 3084 
Q 1697 3084 1428 2787 
Q 1159 2491 1159 1978 
L 1159 0 
L 581 0 
L 581 4863 
L 1159 4863 
L 1159 2956 
Q 1366 3272 1645 3428 
Q 1925 3584 2291 3584 
Q 2894 3584 3203 3211 
Q 3513 2838 3513 2113 
z
" transform="scale(0.015625)"/>
       <path id="DejaVuSans-6e" d="M 3513 2113 
L 3513 0 
L 2938 0 
L 2938 2094 
Q 2938 2591 2744 2837 
Q 2550 3084 2163 3084 
Q 1697 3084 1428 2787 
Q 1159 2491 1159 1978 
L 1159 0 
L 581 0 
L 581 3500 
L 1159 3500 
L 1159 2956 
Q 1366 3272 1645 3428 
Q 1925 3584 2291 3584 
Q 2894 3584 3203 3211 
Q 3513 2838 3513 2113 
z
" transform="scale(0.015625)"/>
      </defs>
      <use xlink:href="#DejaVuSans-4c"/>
      <use xlink:href="#DejaVuSans-61" x="55.712891"/>
      <use xlink:href="#DejaVuSans-75" x="116.992188"/>
      <use xlink:href="#DejaVuSans-66" x="180.371094"/>
      <use xlink:href="#DejaVuSans-62" x="215.576172"/>
      <use xlink:href="#DejaVuSans-61" x="279.052734"/>
      <use xlink:href="#DejaVuSans-68" x="340.332031"/>
      <use xlink:href="#DejaVuSans-6e" x="403.710938"/>
     </g>
    </g>
    <g id="line2d_7">
     <defs>
      <path id="md08f94a413" d="M 0 1.5 
C 0.397805 1.5 0.77937 1.341951 1.06066 1.06066 
C 1.341951 0.77937 1.5 0.397805 1.5 0 
C 1.5 -0.397805 1.341951 -0.77937 1.06066 -1.06066 
C 0.77937 -1.341951 0.397805 -1.5 0 -1.5 
C -0.397805 -1.5 -0.77937 -1.341951 -1.06066 -1.06066 
C -1.341951 -0.77937 -1.5 -0.397805 -1.5 0 
C -1.5 0.397805 -1.341951 0.77937 -1.06066 1.06066 
C -0.77937 1.341951 -0.397805 1.5 0 1.5 
z
" style="stroke: #0000ff"/>
     </defs>
     <g>
      <use xlink:href="#md08f94a413" x="8.55" y="86.528041" style="fill: #0000ff; stroke: #0000ff"/>
     </g>
    </g>
    <g id="text_10">
     <!-- Protonen -->
     <g transform="translate(16.65 88.103041)scale(0.045 -0.045)">
      <defs>
       <path id="DejaVuSans-50" d="M 1259 4147 
L 1259 2394 
L 2053 2394 
Q 2494 2394 2734 2622 
Q 2975 2850 2975 3272 
Q 2975 3691 2734 3919 
Q 2494 4147 2053 4147 
L 1259 4147 
z
M 628 4666 
L 2053 4666 
Q 2838 4666 3239 4311 
Q 3641 3956 3641 3272 
Q 3641 2581 3239 2228 
Q 2838 1875 2053 1875 
L 1259 1875 
L 1259 0 
L 628 0 
L 628 4666 
z
" transform="scale(0.015625)"/>
       <path id="DejaVuSans-6f" d="M 1959 3097 
Q 1497 3097 1228 2736 
Q 959 2375 959 1747 
Q 959 1119 1226 758 
Q 1494 397 1959 397 
Q 2419 397 2687 759 
Q 2956 1122 2956 1747 
Q 2956 2369 2687 2733 
Q 2419 3097 1959 3097 
z
M 1959 3584 
Q 2709 3584 3137 3096 
Q 3566 2609 3566 1747 
Q 3566 888 3137 398 
Q 2709 -91 1959 -91 
Q 1206 -91 779 398 
Q 353 888 353 1747 
Q 353 2609 779 3096 
Q 1206 3584 1959 3584 
z
" transform="scale(0.015625)"/>
       <path id="DejaVuSans-74" d="M 1172 4494 
L 1172 3500 
L 2356 3500 
L 2356 3053 
L 1172 3053 
L 1172 1153 
Q 1172 725 1289 603 
Q 1406 481 1766 481 
L 2356 481 
L 2356 0 
L 1766 0 
Q 1100 0 847 248 
Q 594 497 594 1153 
L 594 3053 
L 172 3053 
L 172 3500 
L 594 3500 
L 594 4494 
L 1172 4494 
z
" transform="scale(0.015625)"/>
       <path id="DejaVuSans-65" d="M 3597 1894 
L 3597 1613 
L 953 1613 
Q 991 1019 1311 708 
Q 1631 397 2203 397 
Q 2534 397 2845 478 
Q 3156 559 3463 722 
L 3463 178 
Q 3153 47 2828 -22 
Q 2503 -91 2169 -91 
Q 1331 -91 842 396 
Q 353 884 353 1716 
Q 353 2575 817 3079 
Q 1281 3584 2069 3584 
Q 2775 3584 3186 3129 
Q 3597 2675 3597 1894 
z
M 3022 2063 
Q 3016 2534 2758 2815 
Q 2500 3097 2075 3097 
Q 1594 3097 1305 2825 
Q 1016 2553 972 2059 
L 3022 2063 
z
" transform="scale(0.015625)"/>
      </defs>
      <use xlink:href="#DejaVuSans-50"/>
      <use xlink:href="#DejaVuSans-72" x="58.552734"/>
      <use xlink:href="#DejaVuSans-6f" x="97.416016"/>
      <use xlink:href="#DejaVuSans-74" x="158.597656"/>
      <use xlink:href="#DejaVuSans-6f" x="197.806641"/>
      <use xlink:href="#DejaVuSans-6e" x="258.988281"/>
      <use xlink:href="#DejaVuSans-65" x="322.367188"/>
      <use xlink:href="#DejaVuSans-6e" x="383.890625"/>
     </g>
    </g>
    <g id="patch_93">
     <path d="M 4.05 94.708197 
L 13.05 94.708197 
L 13.05 91.558197 
L 4.05 91.558197 
z
" style="fill: #c6a89f; stroke: #c6a89f; stroke-linejoin: miter"/>
    </g>
    <g id="text_11">
     <!-- Dee 1 -->
     <g transform="translate(16.65 94.708197)scale(0.045 -0.045)">
      <defs>
       <path id="DejaVuSans-44" d="M 1259 4147 
L 1259 519 
L 2022 519 
Q 2988 519 3436 956 
Q 3884 1394 3884 2338 
Q 3884 3275 3436 3711 
Q 2988 4147 2022 4147 
L 1259 4147 
z
M 628 4666 
L 1925 4666 
Q 3281 4666 3915 4102 
Q 4550 3538 4550 2338 
Q 4550 1131 3912 565 
Q 3275 0 1925 0 
L 628 0 
L 628 4666 
z
" transform="scale(0.015625)"/>
       <path id="DejaVuSans-20" transform="scale(0.015625)"/>
       <path id="DejaVuSans-31" d="M 794 531 
L 1825 531 
L 1825 4091 
L 703 3866 
L 703 4441 
L 1819 4666 
L 2450 4666 
L 2450 531 
L 3481 531 
L 3481 0 
L 794 0 
L 794 531 
z
" transform="scale(0.015625)"/>
      </defs>
      <use xlink:href="#DejaVuSans-44"/>
      <use xlink:href="#DejaVuSans-65" x="77.001953"/>
      <use xlink:href="#DejaVuSans-65" x="138.525391"/>
      <use xlink:href="#DejaVuSans-20" x="200.048828"/>
      <use xlink:href="#DejaVuSans-31" x="231.835938"/>
     </g>
    </g>
    <g id="patch_94">
     <path d="M 4.05 101.313353 
L 13.05 101.313353 
L 13.05 98.163353 
L 4.05 98.163353 
z
" style="fill: #bdae9e; stroke: #bdae9e; stroke-linejoin: miter"/>
    </g>
    <g id="text_12">
     <!-- Dee 2 -->
     <g transform="translate(16.65 101.313353)scale(0.045 -0.045)">
      <defs>
       <path id="DejaVuSans-32" d="M 1228 531 
L 3431 531 
L 3431 0 
L 469 0 
L 469 531 
Q 828 903 1448 1529 
Q 2069 2156 2228 2338 
Q 2531 2678 2651 2914 
Q 2772 3150 2772 3378 
Q 2772 3750 2511 3984 
Q 2250 4219 1831 4219 
Q 1534 4219 1204 4116 
Q 875 4013 500 3803 
L 500 4441 
Q 881 4594 1212 4672 
Q 1544 4750 1819 4750 
Q 2544 4750 2975 4387 
Q 3406 4025 3406 3419 
Q 3406 3131 3298 2873 
Q 3191 2616 2906 2266 
Q 2828 2175 2409 1742 
Q 1991 1309 1228 531 
z
" transform="scale(0.015625)"/>
      </defs>
      <use xlink:href="#DejaVuSans-44"/>
      <use xlink:href="#DejaVuSans-65" x="77.001953"/>
      <use xlink:href="#DejaVuSans-65" x="138.525391"/>
      <use xlink:href="#DejaVuSans-20" x="200.048828"/>
      <use xlink:href="#DejaVuSans-32" x="231.835938"/>
     </g>
    </g>
    <g id="patch_95">
     <path d="M 42.169219 81.497884 
L 51.169219 81.497884 
L 51.169219 78.347884 
L 42.169219 78.347884 
z
" style="fill: #ff0000; stroke: #ff0000; stroke-linejoin: miter"/>
    </g>
    <g id="text_13">
     <!-- Radius -->
     <g transform="translate(54.769219 81.497884)scale(0.045 -0.045)">
      <defs>
       <path id="DejaVuSans-52" d="M 2841 2188 
Q 3044 2119 3236 1894 
Q 3428 1669 3622 1275 
L 4263 0 
L 3584 0 
L 2988 1197 
Q 2756 1666 2539 1819 
Q 2322 1972 1947 1972 
L 1259 1972 
L 1259 0 
L 628 0 
L 628 4666 
L 2053 4666 
Q 2853 4666 3247 4331 
Q 3641 3997 3641 3322 
Q 3641 2881 3436 2590 
Q 3231 2300 2841 2188 
z
M 1259 4147 
L 1259 2491 
L 2053 2491 
Q 2509 2491 2742 2702 
Q 2975 2913 2975 3322 
Q 2975 3731 2742 3939 
Q 2509 4147 2053 4147 
L 1259 4147 
z
" transform="scale(0.015625)"/>
       <path id="DejaVuSans-64" d="M 2906 2969 
L 2906 4863 
L 3481 4863 
L 3481 0 
L 2906 0 
L 2906 525 
Q 2725 213 2448 61 
Q 2172 -91 1784 -91 
Q 1150 -91 751 415 
Q 353 922 353 1747 
Q 353 2572 751 3078 
Q 1150 3584 1784 3584 
Q 2172 3584 2448 3432 
Q 2725 3281 2906 2969 
z
M 947 1747 
Q 947 1113 1208 752 
Q 1469 391 1925 391 
Q 2381 391 2643 752 
Q 2906 1113 2906 1747 
Q 2906 2381 2643 2742 
Q 2381 3103 1925 3103 
Q 1469 3103 1208 2742 
Q 947 2381 947 1747 
z
" transform="scale(0.015625)"/>
       <path id="DejaVuSans-69" d="M 603 3500 
L 1178 3500 
L 1178 0 
L 603 0 
L 603 3500 
z
M 603 4863 
L 1178 4863 
L 1178 4134 
L 603 4134 
L 603 4863 
z
" transform="scale(0.015625)"/>
       <path id="DejaVuSans-73" d="M 2834 3397 
L 2834 2853 
Q 2591 2978 2328 3040 
Q 2066 3103 1784 3103 
Q 1356 3103 1142 2972 
Q 928 2841 928 2578 
Q 928 2378 1081 2264 
Q 1234 2150 1697 2047 
L 1894 2003 
Q 2506 1872 2764 1633 
Q 3022 1394 3022 966 
Q 3022 478 2636 193 
Q 2250 -91 1575 -91 
Q 1294 -91 989 -36 
Q 684 19 347 128 
L 347 722 
Q 666 556 975 473 
Q 1284 391 1588 391 
Q 1994 391 2212 530 
Q 2431 669 2431 922 
Q 2431 1156 2273 1281 
Q 2116 1406 1581 1522 
L 1381 1569 
Q 847 1681 609 1914 
Q 372 2147 372 2553 
Q 372 3047 722 3315 
Q 1072 3584 1716 3584 
Q 2034 3584 2315 3537 
Q 2597 3491 2834 3397 
z
" transform="scale(0.015625)"/>
      </defs>
      <use xlink:href="#DejaVuSans-52"/>
      <use xlink:href="#DejaVuSans-61" x="67.232422"/>
      <use xlink:href="#DejaVuSans-64" x="128.511719"/>
      <use xlink:href="#DejaVuSans-69" x="191.988281"/>
      <use xlink:href="#DejaVuSans-75" x="219.771484"/>
      <use xlink:href="#DejaVuSans-73" x="283.150391"/>
     </g>
    </g>
    <g id="patch_96">
     <path d="M 42.169219 88.103041 
L 51.169219 88.103041 
L 51.169219 84.953041 
L 42.169219 84.953041 
z
" style="stroke: #000000; stroke-linejoin: miter"/>
    </g>
    <g id="text_14">
     <!-- Lorentz-Kraft -->
     <g transform="translate(54.769219 88.103041)scale(0.045 -0.045)">
      <defs>
       <path id="DejaVuSans-7a" d="M 353 3500 
L 3084 3500 
L 3084 2975 
L 922 459 
L 3084 459 
L 3084 0 
L 275 0 
L 275 525 
L 2438 3041 
L 353 3041 
L 353 3500 
z
" transform="scale(0.015625)"/>
       <path id="DejaVuSans-2d" d="M 313 2009 
L 1997 2009 
L 1997 1497 
L 313 1497 
L 313 2009 
z
" transform="scale(0.015625)"/>
       <path id="DejaVuSans-4b" d="M 628 4666 
L 1259 4666 
L 1259 2694 
L 3353 4666 
L 4166 4666 
L 1850 2491 
L 4331 0 
L 3500 0 
L 1259 2247 
L 1259 0 
L 628 0 
L 628 4666 
z
" transform="scale(0.015625)"/>
      </defs>
      <use xlink:href="#DejaVuSans-4c"/>
      <use xlink:href="#DejaVuSans-6f" x="53.962891"/>
      <use xlink:href="#DejaVuSans-72" x="115.144531"/>
      <use xlink:href="#DejaVuSans-65" x="154.007812"/>
      <use xlink:href="#DejaVuSans-6e" x="215.53125"/>
      <use xlink:href="#DejaVuSans-74" x="278.910156"/>
      <use xlink:href="#DejaVuSans-7a" x="318.119141"/>
      <use xlink:href="#DejaVuSans-2d" x="370.609375"/>
      <use xlink:href="#DejaVuSans-4b" x="406.693359"/>
      <use xlink:href="#DejaVuSans-72" x="472.269531"/>
      <use xlink:href="#DejaVuSans-61" x="513.382812"/>
      <use xlink:href="#DejaVuSans-66" x="574.662109"/>
      <use xlink:href="#DejaVuSans-74" x="608.117188"/>
     </g>
    </g>
    <g id="patch_97">
     <path d="M 42.169219 94.708197 
L 51.169219 94.708197 
L 51.169219 91.558197 
L 42.169219 91.558197 
z
" style="fill: #a52a2a; stroke: #a52a2a; stroke-linejoin: miter"/>
    </g>
    <g id="text_15">
     <!-- Elektrische Kraft -->
     <g transform="translate(54.769219 94.708197)scale(0.045 -0.045)">
      <defs>
       <path id="DejaVuSans-45" d="M 628 4666 
L 3578 4666 
L 3578 4134 
L 1259 4134 
L 1259 2753 
L 3481 2753 
L 3481 2222 
L 1259 2222 
L 1259 531 
L 3634 531 
L 3634 0 
L 628 0 
L 628 4666 
z
" transform="scale(0.015625)"/>
       <path id="DejaVuSans-6c" d="M 603 4863 
L 1178 4863 
L 1178 0 
L 603 0 
L 603 4863 
z
" transform="scale(0.015625)"/>
       <path id="DejaVuSans-6b" d="M 581 4863 
L 1159 4863 
L 1159 1991 
L 2875 3500 
L 3609 3500 
L 1753 1863 
L 3688 0 
L 2938 0 
L 1159 1709 
L 1159 0 
L 581 0 
L 581 4863 
z
" transform="scale(0.015625)"/>
       <path id="DejaVuSans-63" d="M 3122 3366 
L 3122 2828 
Q 2878 2963 2633 3030 
Q 2388 3097 2138 3097 
Q 1578 3097 1268 2742 
Q 959 2388 959 1747 
Q 959 1106 1268 751 
Q 1578 397 2138 397 
Q 2388 397 2633 464 
Q 2878 531 3122 666 
L 3122 134 
Q 2881 22 2623 -34 
Q 2366 -91 2075 -91 
Q 1284 -91 818 406 
Q 353 903 353 1747 
Q 353 2603 823 3093 
Q 1294 3584 2113 3584 
Q 2378 3584 2631 3529 
Q 2884 3475 3122 3366 
z
" transform="scale(0.015625)"/>
      </defs>
      <use xlink:href="#DejaVuSans-45"/>
      <use xlink:href="#DejaVuSans-6c" x="63.183594"/>
      <use xlink:href="#DejaVuSans-65" x="90.966797"/>
      <use xlink:href="#DejaVuSans-6b" x="152.490234"/>
      <use xlink:href="#DejaVuSans-74" x="210.400391"/>
      <use xlink:href="#DejaVuSans-72" x="249.609375"/>
      <use xlink:href="#DejaVuSans-69" x="290.722656"/>
      <use xlink:href="#DejaVuSans-73" x="318.505859"/>
      <use xlink:href="#DejaVuSans-63" x="370.605469"/>
      <use xlink:href="#DejaVuSans-68" x="425.585938"/>
      <use xlink:href="#DejaVuSans-65" x="488.964844"/>
      <use xlink:href="#DejaVuSans-20" x="550.488281"/>
      <use xlink:href="#DejaVuSans-4b" x="582.275391"/>
      <use xlink:href="#DejaVuSans-72" x="647.851562"/>
      <use xlink:href="#DejaVuSans-61" x="688.964844"/>
      <use xlink:href="#DejaVuSans-66" x="750.244141"/>
      <use xlink:href="#DejaVuSans-74" x="783.699219"/>
     </g>
    </g>
    <g id="patch_98">
     <path d="M 42.169219 101.313353 
L 51.169219 101.313353 
L 51.169219 98.163353 
L 42.169219 98.163353 
z
" style="fill: #808080; stroke: #808080; stroke-linejoin: miter"/>
    </g>
    <g id="text_16">
     <!-- Protonen-Quelle -->
     <g transform="translate(54.769219 101.313353)scale(0.045 -0.045)">
      <defs>
       <path id="DejaVuSans-51" d="M 2522 4238 
Q 1834 4238 1429 3725 
Q 1025 3213 1025 2328 
Q 1025 1447 1429 934 
Q 1834 422 2522 422 
Q 3209 422 3611 934 
Q 4013 1447 4013 2328 
Q 4013 3213 3611 3725 
Q 3209 4238 2522 4238 
z
M 3406 84 
L 4238 -825 
L 3475 -825 
L 2784 -78 
Q 2681 -84 2626 -87 
Q 2572 -91 2522 -91 
Q 1538 -91 948 567 
Q 359 1225 359 2328 
Q 359 3434 948 4092 
Q 1538 4750 2522 4750 
Q 3503 4750 4090 4092 
Q 4678 3434 4678 2328 
Q 4678 1516 4351 937 
Q 4025 359 3406 84 
z
" transform="scale(0.015625)"/>
      </defs>
      <use xlink:href="#DejaVuSans-50"/>
      <use xlink:href="#DejaVuSans-72" x="58.552734"/>
      <use xlink:href="#DejaVuSans-6f" x="97.416016"/>
      <use xlink:href="#DejaVuSans-74" x="158.597656"/>
      <use xlink:href="#DejaVuSans-6f" x="197.806641"/>
      <use xlink:href="#DejaVuSans-6e" x="258.988281"/>
      <use xlink:href="#DejaVuSans-65" x="322.367188"/>
      <use xlink:href="#DejaVuSans-6e" x="383.890625"/>
      <use xlink:href="#DejaVuSans-2d" x="447.269531"/>
      <use xlink:href="#DejaVuSans-51" x="486.978516"/>
      <use xlink:href="#DejaVuSans-75" x="565.689453"/>
      <use xlink:href="#DejaVuSans-65" x="629.068359"/>
      <use xlink:href="#DejaVuSans-6c" x="690.591797"/>
      <use xlink:href="#DejaVuSans-6c" x="718.375"/>
      <use xlink:href="#DejaVuSans-65" x="746.158203"/>
     </g>
    </g>
   </g>
  </g>
 </g>
 <defs>
  <clipPath id="pbf815fcc17">
   <rect x="0" y="0" width="170.07874" height="106.299213"/>
  </clipPath>
 </defs>
</svg>
